ISO-10303-21;
HEADER;
FILE_DESCRIPTION(('Shape Data from monstertruck'), '2;1');
FILE_NAME('', '2026-10-10 08:42:00.633509410', (''), (''), 'monstertruck', 'Viboceros', '');
FILE_SCHEMA(('AUTOMOTIVE_DESIGN'));
ENDSEC;
DATA;
#1 = APPLICATION_PROTOCOL_DEFINITION('international standard', 'automotive_design', 2000, #2);
#2 = APPLICATION_CONTEXT('core data for automotive mechanical design processes');
#3 = SHAPE_DEFINITION_REPRESENTATION(#4, #10);
#4 = PRODUCT_DEFINITION_SHAPE('','', #5);
#5 = PRODUCT_DEFINITION('design','', #6, #9);
#6 = PRODUCT_DEFINITION_FORMATION('','', #7);
#7 = PRODUCT('','','', (#8));
#8 = PRODUCT_CONTEXT('', #2, 'mechanical');
#9 = PRODUCT_DEFINITION_CONTEXT('part definition', #2, 'design');
#10 = ADVANCED_BREP_SHAPE_REPRESENTATION('', (#16), #11);
#11 = (
    GEOMETRIC_REPRESENTATION_CONTEXT(3)
    GLOBAL_UNCERTAINTY_ASSIGNED_CONTEXT((#15))
    GLOBAL_UNIT_ASSIGNED_CONTEXT((#12, #13, #14))
    REPRESENTATION_CONTEXT('Context #1', '3D Context with UNIT and UNCERTAINTY')
);
#12 = ( LENGTH_UNIT() NAMED_UNIT(*) SI_UNIT(.MILLI.,.METRE.) );
#13 = ( NAMED_UNIT(*) PLANE_ANGLE_UNIT() SI_UNIT($,.RADIAN.) );
#14 = ( NAMED_UNIT(*) SI_UNIT($,.STERADIAN.) SOLID_ANGLE_UNIT() );
#15 = UNCERTAINTY_MEASURE_WITH_UNIT(LENGTH_MEASURE(1.0E-6), #12, 'distance_accuracy_value','confusion accuracy');
#16 = BREP_WITH_VOIDS('', #17, (#178, #463));
#17 = CLOSED_SHELL('', (#18, #25, #32, #39, #46, #53));
#18 = ADVANCED_FACE('', (#19), #80, .T.);
#19 = FACE_BOUND('', #20, .T.);
#20 = EDGE_LOOP('', (#21, #22, #23, #24));
#21 = ORIENTED_EDGE('', *, *, #60, .T.);
#22 = ORIENTED_EDGE('', *, *, #61, .T.);
#23 = ORIENTED_EDGE('', *, *, #62, .F.);
#24 = ORIENTED_EDGE('', *, *, #63, .F.);
#25 = ADVANCED_FACE('', (#26), #85, .T.);
#26 = FACE_BOUND('', #27, .T.);
#27 = EDGE_LOOP('', (#28, #29, #30, #31));
#28 = ORIENTED_EDGE('', *, *, #64, .T.);
#29 = ORIENTED_EDGE('', *, *, #65, .T.);
#30 = ORIENTED_EDGE('', *, *, #66, .F.);
#31 = ORIENTED_EDGE('', *, *, #67, .F.);
#32 = ADVANCED_FACE('', (#33), #90, .T.);
#33 = FACE_BOUND('', #34, .T.);
#34 = EDGE_LOOP('', (#35, #36, #37, #38));
#35 = ORIENTED_EDGE('', *, *, #63, .T.);
#36 = ORIENTED_EDGE('', *, *, #68, .T.);
#37 = ORIENTED_EDGE('', *, *, #64, .F.);
#38 = ORIENTED_EDGE('', *, *, #69, .F.);
#39 = ADVANCED_FACE('', (#40), #95, .T.);
#40 = FACE_BOUND('', #41, .T.);
#41 = EDGE_LOOP('', (#42, #43, #44, #45));
#42 = ORIENTED_EDGE('', *, *, #61, .F.);
#43 = ORIENTED_EDGE('', *, *, #70, .T.);
#44 = ORIENTED_EDGE('', *, *, #66, .T.);
#45 = ORIENTED_EDGE('', *, *, #71, .F.);
#46 = ADVANCED_FACE('', (#47), #100, .T.);
#47 = FACE_BOUND('', #48, .T.);
#48 = EDGE_LOOP('', (#49, #50, #51, #52));
#49 = ORIENTED_EDGE('', *, *, #60, .F.);
#50 = ORIENTED_EDGE('', *, *, #69, .T.);
#51 = ORIENTED_EDGE('', *, *, #67, .T.);
#52 = ORIENTED_EDGE('', *, *, #70, .F.);
#53 = ADVANCED_FACE('', (#54), #105, .T.);
#54 = FACE_BOUND('', #55, .T.);
#55 = EDGE_LOOP('', (#56, #57, #58, #59));
#56 = ORIENTED_EDGE('', *, *, #62, .T.);
#57 = ORIENTED_EDGE('', *, *, #71, .T.);
#58 = ORIENTED_EDGE('', *, *, #65, .F.);
#59 = ORIENTED_EDGE('', *, *, #68, .F.);
#60 = EDGE_CURVE('', #72, #73, #110, .T.);
#61 = EDGE_CURVE('', #73, #74, #115, .T.);
#62 = EDGE_CURVE('', #75, #74, #120, .T.);
#63 = EDGE_CURVE('', #72, #75, #125, .T.);
#64 = EDGE_CURVE('', #76, #77, #130, .T.);
#65 = EDGE_CURVE('', #77, #78, #135, .T.);
#66 = EDGE_CURVE('', #79, #78, #140, .T.);
#67 = EDGE_CURVE('', #76, #79, #145, .T.);
#68 = EDGE_CURVE('', #75, #77, #150, .T.);
#69 = EDGE_CURVE('', #72, #76, #155, .T.);
#70 = EDGE_CURVE('', #73, #79, #160, .T.);
#71 = EDGE_CURVE('', #74, #78, #165, .T.);
#72 = VERTEX_POINT('', #170);
#73 = VERTEX_POINT('', #171);
#74 = VERTEX_POINT('', #172);
#75 = VERTEX_POINT('', #173);
#76 = VERTEX_POINT('', #174);
#77 = VERTEX_POINT('', #175);
#78 = VERTEX_POINT('', #176);
#79 = VERTEX_POINT('', #177);
#80 = PLANE('', #81);
#81 = AXIS2_PLACEMENT_3D('', #82, #83, #84);
#82 = CARTESIAN_POINT('', (5.0E0, 5.0E0, 0.0E0));
#83 = DIRECTION('', (0.0E0, 0.0E0, -1.0E0));
#84 = DIRECTION('', (0.0E0, 1.0E0, 0.0E0));
#85 = PLANE('', #86);
#86 = AXIS2_PLACEMENT_3D('', #87, #88, #89);
#87 = CARTESIAN_POINT('', (5.0E0, 5.0E0, 1.0E1));
#88 = DIRECTION('', (0.0E0, 0.0E0, 1.0E0));
#89 = DIRECTION('', (1.0E0, 0.0E0, 0.0E0));
#90 = PLANE('', #91);
#91 = AXIS2_PLACEMENT_3D('', #92, #93, #94);
#92 = CARTESIAN_POINT('', (5.0E0, 0.0E0, 5.0E0));
#93 = DIRECTION('', (0.0E0, -1.0E0, 0.0E0));
#94 = DIRECTION('', (1.0E0, 0.0E0, 0.0E0));
#95 = PLANE('', #96);
#96 = AXIS2_PLACEMENT_3D('', #97, #98, #99);
#97 = CARTESIAN_POINT('', (5.0E0, 1.0E1, 5.0E0));
#98 = DIRECTION('', (0.0E0, 1.0E0, -0.0E0));
#99 = DIRECTION('', (-1.0E0, 0.0E0, 0.0E0));
#100 = PLANE('', #101);
#101 = AXIS2_PLACEMENT_3D('', #102, #103, #104);
#102 = CARTESIAN_POINT('', (0.0E0, 5.0E0, 5.0E0));
#103 = DIRECTION('', (-1.0E0, 0.0E0, 0.0E0));
#104 = DIRECTION('', (0.0E0, -1.0E0, 0.0E0));
#105 = PLANE('', #106);
#106 = AXIS2_PLACEMENT_3D('', #107, #108, #109);
#107 = CARTESIAN_POINT('', (1.0E1, 5.0E0, 5.0E0));
#108 = DIRECTION('', (1.0E0, 0.0E0, 0.0E0));
#109 = DIRECTION('', (0.0E0, 1.0E0, 0.0E0));
#110 = SURFACE_CURVE('', #111, (#80, #100), .CURVE_3D.);
#111 = LINE('', #112, #113);
#112 = CARTESIAN_POINT('', (0.0E0, 0.0E0, 0.0E0));
#113 = VECTOR('', #114, 1.0E1);
#114 = DIRECTION('', (0.0E0, 1.0E0, 0.0E0));
#115 = SURFACE_CURVE('', #116, (#80, #95), .CURVE_3D.);
#116 = LINE('', #117, #118);
#117 = CARTESIAN_POINT('', (0.0E0, 1.0E1, 0.0E0));
#118 = VECTOR('', #119, 1.0E1);
#119 = DIRECTION('', (1.0E0, 0.0E0, 0.0E0));
#120 = SURFACE_CURVE('', #121, (#80, #105), .CURVE_3D.);
#121 = LINE('', #122, #123);
#122 = CARTESIAN_POINT('', (1.0E1, 0.0E0, 0.0E0));
#123 = VECTOR('', #124, 1.0E1);
#124 = DIRECTION('', (0.0E0, 1.0E0, 0.0E0));
#125 = SURFACE_CURVE('', #126, (#80, #90), .CURVE_3D.);
#126 = LINE('', #127, #128);
#127 = CARTESIAN_POINT('', (0.0E0, 0.0E0, 0.0E0));
#128 = VECTOR('', #129, 1.0E1);
#129 = DIRECTION('', (1.0E0, 0.0E0, 0.0E0));
#130 = SURFACE_CURVE('', #131, (#85, #90), .CURVE_3D.);
#131 = LINE('', #132, #133);
#132 = CARTESIAN_POINT('', (0.0E0, 0.0E0, 1.0E1));
#133 = VECTOR('', #134, 1.0E1);
#134 = DIRECTION('', (1.0E0, 0.0E0, 0.0E0));
#135 = SURFACE_CURVE('', #136, (#85, #105), .CURVE_3D.);
#136 = LINE('', #137, #138);
#137 = CARTESIAN_POINT('', (1.0E1, 0.0E0, 1.0E1));
#138 = VECTOR('', #139, 1.0E1);
#139 = DIRECTION('', (0.0E0, 1.0E0, 0.0E0));
#140 = SURFACE_CURVE('', #141, (#85, #95), .CURVE_3D.);
#141 = LINE('', #142, #143);
#142 = CARTESIAN_POINT('', (0.0E0, 1.0E1, 1.0E1));
#143 = VECTOR('', #144, 1.0E1);
#144 = DIRECTION('', (1.0E0, 0.0E0, 0.0E0));
#145 = SURFACE_CURVE('', #146, (#85, #100), .CURVE_3D.);
#146 = LINE('', #147, #148);
#147 = CARTESIAN_POINT('', (0.0E0, 0.0E0, 1.0E1));
#148 = VECTOR('', #149, 1.0E1);
#149 = DIRECTION('', (0.0E0, 1.0E0, 0.0E0));
#150 = SURFACE_CURVE('', #151, (#90, #105), .CURVE_3D.);
#151 = LINE('', #152, #153);
#152 = CARTESIAN_POINT('', (1.0E1, 0.0E0, 0.0E0));
#153 = VECTOR('', #154, 1.0E1);
#154 = DIRECTION('', (0.0E0, 0.0E0, 1.0E0));
#155 = SURFACE_CURVE('', #156, (#90, #100), .CURVE_3D.);
#156 = LINE('', #157, #158);
#157 = CARTESIAN_POINT('', (0.0E0, 0.0E0, 0.0E0));
#158 = VECTOR('', #159, 1.0E1);
#159 = DIRECTION('', (0.0E0, 0.0E0, 1.0E0));
#160 = SURFACE_CURVE('', #161, (#95, #100), .CURVE_3D.);
#161 = LINE('', #162, #163);
#162 = CARTESIAN_POINT('', (0.0E0, 1.0E1, 0.0E0));
#163 = VECTOR('', #164, 1.0E1);
#164 = DIRECTION('', (0.0E0, 0.0E0, 1.0E0));
#165 = SURFACE_CURVE('', #166, (#95, #105), .CURVE_3D.);
#166 = LINE('', #167, #168);
#167 = CARTESIAN_POINT('', (1.0E1, 1.0E1, 0.0E0));
#168 = VECTOR('', #169, 1.0E1);
#169 = DIRECTION('', (0.0E0, 0.0E0, 1.0E0));
#170 = CARTESIAN_POINT('', (0.0E0, 0.0E0, 0.0E0));
#171 = CARTESIAN_POINT('', (0.0E0, 1.0E1, 0.0E0));
#172 = CARTESIAN_POINT('', (1.0E1, 1.0E1, 0.0E0));
#173 = CARTESIAN_POINT('', (1.0E1, 0.0E0, 0.0E0));
#174 = CARTESIAN_POINT('', (0.0E0, 0.0E0, 1.0E1));
#175 = CARTESIAN_POINT('', (1.0E1, 0.0E0, 1.0E1));
#176 = CARTESIAN_POINT('', (1.0E1, 1.0E1, 1.0E1));
#177 = CARTESIAN_POINT('', (0.0E0, 1.0E1, 1.0E1));
#178 = ORIENTED_CLOSED_SHELL('', *, #179, .F.);
#179 = CLOSED_SHELL('', (#180));
#180 = ADVANCED_FACE('', (#181), #192, .T.);
#181 = FACE_BOUND('', #182, .T.);
#182 = EDGE_LOOP('', (#183, #184, #185, #186));
#183 = ORIENTED_EDGE('', *, *, #187, .T.);
#184 = ORIENTED_EDGE('', *, *, #188, .T.);
#185 = ORIENTED_EDGE('', *, *, #189, .T.);
#186 = ORIENTED_EDGE('', *, *, #188, .F.);
#187 = EDGE_CURVE('', #190, #190, #238, .T.);
#188 = EDGE_CURVE('', #190, #191, #294, .T.);
#189 = EDGE_CURVE('', #191, #191, #405, .T.);
#190 = VERTEX_POINT('', #461);
#191 = VERTEX_POINT('', #462);
#192 = (
    BOUNDED_SURFACE()
    B_SPLINE_SURFACE(2, 2, ((#193, #194, #195, #196, #197), (#198, #199, #200, #201, #202), (#203, #204, #205, #206, #207), (#208, #209, #210, #211, #212), (#213, #214, #215, #216, #217), (#218, #219, #220, #221, #222), (#223, #224, #225, #226, #227), (#228, #229, #230, #231, #232), (#233, #234, #235, #236, #237)), .UNSPECIFIED., .U., .U., .U.)
    B_SPLINE_SURFACE_WITH_KNOTS((3, 2, 2, 2, 3), (3, 2, 3), (0.0, 1.5707963267948966, 3.141592653589793, 4.71238898038469, 6.283185307179586), (-1.5707963267948966, 0.0, 1.5707963267948966), .UNSPECIFIED.)
    GEOMETRIC_REPRESENTATION_ITEM()
    RATIONAL_B_SPLINE_SURFACE(((1.0, 0.7071067811865476, 1.0, 0.7071067811865476, 1.0), (0.7071067811865476, 0.5000000000000001, 0.7071067811865476, 0.5000000000000001, 0.7071067811865476), (1.0, 0.7071067811865476, 1.0, 0.7071067811865476, 1.0), (0.7071067811865476, 0.5000000000000001, 0.7071067811865476, 0.5000000000000001, 0.7071067811865476), (1.0, 0.7071067811865476, 1.0, 0.7071067811865476, 1.0), (0.7071067811865476, 0.5000000000000001, 0.7071067811865476, 0.5000000000000001, 0.7071067811865476), (1.0, 0.7071067811865476, 1.0, 0.7071067811865476, 1.0), (0.7071067811865476, 0.5000000000000001, 0.7071067811865476, 0.5000000000000001, 0.7071067811865476), (1.0, 0.7071067811865476, 1.0, 0.7071067811865476, 1.0)))
    REPRESENTATION_ITEM('')
    SURFACE()
);
#193 = CARTESIAN_POINT('', (3.0, 5.0, 4.0));
#194 = CARTESIAN_POINT('', (4.0, 5.0, 4.0));
#195 = CARTESIAN_POINT('', (4.0, 5.0, 5.0));
#196 = CARTESIAN_POINT('', (4.0, 5.0, 6.0));
#197 = CARTESIAN_POINT('', (3.0, 5.0, 6.0));
#198 = CARTESIAN_POINT('', (3.0, 5.0, 4.0));
#199 = CARTESIAN_POINT('', (4.0, 6.0, 4.0));
#200 = CARTESIAN_POINT('', (4.0, 6.0, 5.0));
#201 = CARTESIAN_POINT('', (4.0, 6.0, 6.0));
#202 = CARTESIAN_POINT('', (3.0, 5.0, 6.0));
#203 = CARTESIAN_POINT('', (3.0, 5.0, 4.0));
#204 = CARTESIAN_POINT('', (3.0, 6.0, 4.0));
#205 = CARTESIAN_POINT('', (3.0, 6.0, 5.0));
#206 = CARTESIAN_POINT('', (3.0, 6.0, 6.0));
#207 = CARTESIAN_POINT('', (3.0, 5.0, 6.0));
#208 = CARTESIAN_POINT('', (3.0, 5.0, 4.0));
#209 = CARTESIAN_POINT('', (2.0, 6.0, 4.0));
#210 = CARTESIAN_POINT('', (2.0, 6.0, 5.0));
#211 = CARTESIAN_POINT('', (2.0, 6.0, 6.0));
#212 = CARTESIAN_POINT('', (3.0, 5.0, 6.0));
#213 = CARTESIAN_POINT('', (3.0, 5.0, 4.0));
#214 = CARTESIAN_POINT('', (2.0, 5.0, 4.0));
#215 = CARTESIAN_POINT('', (2.0, 5.0, 5.0));
#216 = CARTESIAN_POINT('', (2.0, 5.0, 6.0));
#217 = CARTESIAN_POINT('', (3.0, 5.0, 6.0));
#218 = CARTESIAN_POINT('', (3.0, 5.0, 4.0));
#219 = CARTESIAN_POINT('', (2.0, 4.0, 4.0));
#220 = CARTESIAN_POINT('', (2.0, 4.0, 5.0));
#221 = CARTESIAN_POINT('', (2.0, 4.0, 6.0));
#222 = CARTESIAN_POINT('', (3.0, 5.0, 6.0));
#223 = CARTESIAN_POINT('', (3.0, 5.0, 4.0));
#224 = CARTESIAN_POINT('', (3.0, 4.0, 4.0));
#225 = CARTESIAN_POINT('', (3.0, 4.0, 5.0));
#226 = CARTESIAN_POINT('', (3.0, 4.0, 6.0));
#227 = CARTESIAN_POINT('', (3.0, 5.0, 6.0));
#228 = CARTESIAN_POINT('', (3.0, 5.0, 4.0));
#229 = CARTESIAN_POINT('', (4.0, 4.0, 4.0));
#230 = CARTESIAN_POINT('', (4.0, 4.0, 5.0));
#231 = CARTESIAN_POINT('', (4.0, 4.0, 6.0));
#232 = CARTESIAN_POINT('', (3.0, 5.0, 6.0));
#233 = CARTESIAN_POINT('', (3.0, 5.0, 4.0));
#234 = CARTESIAN_POINT('', (4.0, 5.0, 4.0));
#235 = CARTESIAN_POINT('', (4.0, 5.0, 5.0));
#236 = CARTESIAN_POINT('', (4.0, 5.0, 6.0));
#237 = CARTESIAN_POINT('', (3.0, 5.0, 6.0));
#238 = SURFACE_CURVE('', #239, (#242), .CURVE_3D.);
#239 = (
    BOUNDED_CURVE()
    B_SPLINE_CURVE(1, (#240, #241), .UNSPECIFIED., .U., .U.)
    B_SPLINE_CURVE_WITH_KNOTS((2, 2), (0.0, 1.0), .UNSPECIFIED.)
    CURVE()
    GEOMETRIC_REPRESENTATION_ITEM()
    RATIONAL_B_SPLINE_CURVE((1.0, 1.0))
    REPRESENTATION_ITEM('')
);
#240 = CARTESIAN_POINT('', (3.0, 5.0, 4.0));
#241 = CARTESIAN_POINT('', (3.0, 5.0, 4.0));
#242 = PCURVE('', #243, #289);
#243 = (
    BOUNDED_SURFACE()
    B_SPLINE_SURFACE(2, 2, ((#244, #245, #246, #247, #248), (#249, #250, #251, #252, #253), (#254, #255, #256, #257, #258), (#259, #260, #261, #262, #263), (#264, #265, #266, #267, #268), (#269, #270, #271, #272, #273), (#274, #275, #276, #277, #278), (#279, #280, #281, #282, #283), (#284, #285, #286, #287, #288)), .UNSPECIFIED., .U., .U., .U.)
    B_SPLINE_SURFACE_WITH_KNOTS((3, 2, 2, 2, 3), (3, 2, 3), (0.0, 1.5707963267948966, 3.141592653589793, 4.71238898038469, 6.283185307179586), (-1.5707963267948966, 0.0, 1.5707963267948966), .UNSPECIFIED.)
    GEOMETRIC_REPRESENTATION_ITEM()
    RATIONAL_B_SPLINE_SURFACE(((1.0, 0.7071067811865476, 1.0, 0.7071067811865476, 1.0), (0.7071067811865476, 0.5000000000000001, 0.7071067811865476, 0.5000000000000001, 0.7071067811865476), (1.0, 0.7071067811865476, 1.0, 0.7071067811865476, 1.0), (0.7071067811865476, 0.5000000000000001, 0.7071067811865476, 0.5000000000000001, 0.7071067811865476), (1.0, 0.7071067811865476, 1.0, 0.7071067811865476, 1.0), (0.7071067811865476, 0.5000000000000001, 0.7071067811865476, 0.5000000000000001, 0.7071067811865476), (1.0, 0.7071067811865476, 1.0, 0.7071067811865476, 1.0), (0.7071067811865476, 0.5000000000000001, 0.7071067811865476, 0.5000000000000001, 0.7071067811865476), (1.0, 0.7071067811865476, 1.0, 0.7071067811865476, 1.0)))
    REPRESENTATION_ITEM('')
    SURFACE()
);
#244 = CARTESIAN_POINT('', (3.0, 5.0, 4.0));
#245 = CARTESIAN_POINT('', (4.0, 5.0, 4.0));
#246 = CARTESIAN_POINT('', (4.0, 5.0, 5.0));
#247 = CARTESIAN_POINT('', (4.0, 5.0, 6.0));
#248 = CARTESIAN_POINT('', (3.0, 5.0, 6.0));
#249 = CARTESIAN_POINT('', (3.0, 5.0, 4.0));
#250 = CARTESIAN_POINT('', (4.0, 6.0, 4.0));
#251 = CARTESIAN_POINT('', (4.0, 6.0, 5.0));
#252 = CARTESIAN_POINT('', (4.0, 6.0, 6.0));
#253 = CARTESIAN_POINT('', (3.0, 5.0, 6.0));
#254 = CARTESIAN_POINT('', (3.0, 5.0, 4.0));
#255 = CARTESIAN_POINT('', (3.0, 6.0, 4.0));
#256 = CARTESIAN_POINT('', (3.0, 6.0, 5.0));
#257 = CARTESIAN_POINT('', (3.0, 6.0, 6.0));
#258 = CARTESIAN_POINT('', (3.0, 5.0, 6.0));
#259 = CARTESIAN_POINT('', (3.0, 5.0, 4.0));
#260 = CARTESIAN_POINT('', (2.0, 6.0, 4.0));
#261 = CARTESIAN_POINT('', (2.0, 6.0, 5.0));
#262 = CARTESIAN_POINT('', (2.0, 6.0, 6.0));
#263 = CARTESIAN_POINT('', (3.0, 5.0, 6.0));
#264 = CARTESIAN_POINT('', (3.0, 5.0, 4.0));
#265 = CARTESIAN_POINT('', (2.0, 5.0, 4.0));
#266 = CARTESIAN_POINT('', (2.0, 5.0, 5.0));
#267 = CARTESIAN_POINT('', (2.0, 5.0, 6.0));
#268 = CARTESIAN_POINT('', (3.0, 5.0, 6.0));
#269 = CARTESIAN_POINT('', (3.0, 5.0, 4.0));
#270 = CARTESIAN_POINT('', (2.0, 4.0, 4.0));
#271 = CARTESIAN_POINT('', (2.0, 4.0, 5.0));
#272 = CARTESIAN_POINT('', (2.0, 4.0, 6.0));
#273 = CARTESIAN_POINT('', (3.0, 5.0, 6.0));
#274 = CARTESIAN_POINT('', (3.0, 5.0, 4.0));
#275 = CARTESIAN_POINT('', (3.0, 4.0, 4.0));
#276 = CARTESIAN_POINT('', (3.0, 4.0, 5.0));
#277 = CARTESIAN_POINT('', (3.0, 4.0, 6.0));
#278 = CARTESIAN_POINT('', (3.0, 5.0, 6.0));
#279 = CARTESIAN_POINT('', (3.0, 5.0, 4.0));
#280 = CARTESIAN_POINT('', (4.0, 4.0, 4.0));
#281 = CARTESIAN_POINT('', (4.0, 4.0, 5.0));
#282 = CARTESIAN_POINT('', (4.0, 4.0, 6.0));
#283 = CARTESIAN_POINT('', (3.0, 5.0, 6.0));
#284 = CARTESIAN_POINT('', (3.0, 5.0, 4.0));
#285 = CARTESIAN_POINT('', (4.0, 5.0, 4.0));
#286 = CARTESIAN_POINT('', (4.0, 5.0, 5.0));
#287 = CARTESIAN_POINT('', (4.0, 5.0, 6.0));
#288 = CARTESIAN_POINT('', (3.0, 5.0, 6.0));
#289 = DEFINITIONAL_REPRESENTATION('', (#291), #290);
#290 = (
    GEOMETRIC_REPRESENTATION_CONTEXT(2)
    PARAMETRIC_REPRESENTATION_CONTEXT()
    REPRESENTATION_CONTEXT('2D SPACE', '')
);
#291 = (
    BOUNDED_CURVE()
    B_SPLINE_CURVE(1, (#292, #293), .UNSPECIFIED., .U., .U.)
    B_SPLINE_CURVE_WITH_KNOTS((2, 2), (0.0, 1.0), .UNSPECIFIED.)
    CURVE()
    GEOMETRIC_REPRESENTATION_ITEM()
    RATIONAL_B_SPLINE_CURVE((1.0, 1.0))
    REPRESENTATION_ITEM('')
);
#292 = CARTESIAN_POINT('', (0.0, -1.5707963267948966));
#293 = CARTESIAN_POINT('', (6.283185307179586, -1.5707963267948966));
#294 = SEAM_CURVE('', #295, (#301, #353), .CURVE_3D.);
#295 = (
    BOUNDED_CURVE()
    B_SPLINE_CURVE(2, (#296, #297, #298, #299, #300), .UNSPECIFIED., .U., .U.)
    B_SPLINE_CURVE_WITH_KNOTS((3, 2, 3), (-1.5707963267948966, 0.0, 1.5707963267948966), .UNSPECIFIED.)
    CURVE()
    GEOMETRIC_REPRESENTATION_ITEM()
    RATIONAL_B_SPLINE_CURVE((1.0, 0.7071067811865476, 1.0, 0.7071067811865476, 1.0))
    REPRESENTATION_ITEM('')
);
#296 = CARTESIAN_POINT('', (3.0, 5.0, 4.0));
#297 = CARTESIAN_POINT('', (4.0, 5.0, 4.0));
#298 = CARTESIAN_POINT('', (4.0, 5.0, 5.0));
#299 = CARTESIAN_POINT('', (4.0, 5.0, 6.0));
#300 = CARTESIAN_POINT('', (3.0, 5.0, 6.0));
#301 = PCURVE('', #302, #348);
#302 = (
    BOUNDED_SURFACE()
    B_SPLINE_SURFACE(2, 2, ((#303, #304, #305, #306, #307), (#308, #309, #310, #311, #312), (#313, #314, #315, #316, #317), (#318, #319, #320, #321, #322), (#323, #324, #325, #326, #327), (#328, #329, #330, #331, #332), (#333, #334, #335, #336, #337), (#338, #339, #340, #341, #342), (#343, #344, #345, #346, #347)), .UNSPECIFIED., .U., .U., .U.)
    B_SPLINE_SURFACE_WITH_KNOTS((3, 2, 2, 2, 3), (3, 2, 3), (0.0, 1.5707963267948966, 3.141592653589793, 4.71238898038469, 6.283185307179586), (-1.5707963267948966, 0.0, 1.5707963267948966), .UNSPECIFIED.)
    GEOMETRIC_REPRESENTATION_ITEM()
    RATIONAL_B_SPLINE_SURFACE(((1.0, 0.7071067811865476, 1.0, 0.7071067811865476, 1.0), (0.7071067811865476, 0.5000000000000001, 0.7071067811865476, 0.5000000000000001, 0.7071067811865476), (1.0, 0.7071067811865476, 1.0, 0.7071067811865476, 1.0), (0.7071067811865476, 0.5000000000000001, 0.7071067811865476, 0.5000000000000001, 0.7071067811865476), (1.0, 0.7071067811865476, 1.0, 0.7071067811865476, 1.0), (0.7071067811865476, 0.5000000000000001, 0.7071067811865476, 0.5000000000000001, 0.7071067811865476), (1.0, 0.7071067811865476, 1.0, 0.7071067811865476, 1.0), (0.7071067811865476, 0.5000000000000001, 0.7071067811865476, 0.5000000000000001, 0.7071067811865476), (1.0, 0.7071067811865476, 1.0, 0.7071067811865476, 1.0)))
    REPRESENTATION_ITEM('')
    SURFACE()
);
#303 = CARTESIAN_POINT('', (3.0, 5.0, 4.0));
#304 = CARTESIAN_POINT('', (4.0, 5.0, 4.0));
#305 = CARTESIAN_POINT('', (4.0, 5.0, 5.0));
#306 = CARTESIAN_POINT('', (4.0, 5.0, 6.0));
#307 = CARTESIAN_POINT('', (3.0, 5.0, 6.0));
#308 = CARTESIAN_POINT('', (3.0, 5.0, 4.0));
#309 = CARTESIAN_POINT('', (4.0, 6.0, 4.0));
#310 = CARTESIAN_POINT('', (4.0, 6.0, 5.0));
#311 = CARTESIAN_POINT('', (4.0, 6.0, 6.0));
#312 = CARTESIAN_POINT('', (3.0, 5.0, 6.0));
#313 = CARTESIAN_POINT('', (3.0, 5.0, 4.0));
#314 = CARTESIAN_POINT('', (3.0, 6.0, 4.0));
#315 = CARTESIAN_POINT('', (3.0, 6.0, 5.0));
#316 = CARTESIAN_POINT('', (3.0, 6.0, 6.0));
#317 = CARTESIAN_POINT('', (3.0, 5.0, 6.0));
#318 = CARTESIAN_POINT('', (3.0, 5.0, 4.0));
#319 = CARTESIAN_POINT('', (2.0, 6.0, 4.0));
#320 = CARTESIAN_POINT('', (2.0, 6.0, 5.0));
#321 = CARTESIAN_POINT('', (2.0, 6.0, 6.0));
#322 = CARTESIAN_POINT('', (3.0, 5.0, 6.0));
#323 = CARTESIAN_POINT('', (3.0, 5.0, 4.0));
#324 = CARTESIAN_POINT('', (2.0, 5.0, 4.0));
#325 = CARTESIAN_POINT('', (2.0, 5.0, 5.0));
#326 = CARTESIAN_POINT('', (2.0, 5.0, 6.0));
#327 = CARTESIAN_POINT('', (3.0, 5.0, 6.0));
#328 = CARTESIAN_POINT('', (3.0, 5.0, 4.0));
#329 = CARTESIAN_POINT('', (2.0, 4.0, 4.0));
#330 = CARTESIAN_POINT('', (2.0, 4.0, 5.0));
#331 = CARTESIAN_POINT('', (2.0, 4.0, 6.0));
#332 = CARTESIAN_POINT('', (3.0, 5.0, 6.0));
#333 = CARTESIAN_POINT('', (3.0, 5.0, 4.0));
#334 = CARTESIAN_POINT('', (3.0, 4.0, 4.0));
#335 = CARTESIAN_POINT('', (3.0, 4.0, 5.0));
#336 = CARTESIAN_POINT('', (3.0, 4.0, 6.0));
#337 = CARTESIAN_POINT('', (3.0, 5.0, 6.0));
#338 = CARTESIAN_POINT('', (3.0, 5.0, 4.0));
#339 = CARTESIAN_POINT('', (4.0, 4.0, 4.0));
#340 = CARTESIAN_POINT('', (4.0, 4.0, 5.0));
#341 = CARTESIAN_POINT('', (4.0, 4.0, 6.0));
#342 = CARTESIAN_POINT('', (3.0, 5.0, 6.0));
#343 = CARTESIAN_POINT('', (3.0, 5.0, 4.0));
#344 = CARTESIAN_POINT('', (4.0, 5.0, 4.0));
#345 = CARTESIAN_POINT('', (4.0, 5.0, 5.0));
#346 = CARTESIAN_POINT('', (4.0, 5.0, 6.0));
#347 = CARTESIAN_POINT('', (3.0, 5.0, 6.0));
#348 = DEFINITIONAL_REPRESENTATION('', (#350), #349);
#349 = (
    GEOMETRIC_REPRESENTATION_CONTEXT(2)
    PARAMETRIC_REPRESENTATION_CONTEXT()
    REPRESENTATION_CONTEXT('2D SPACE', '')
);
#350 = (
    BOUNDED_CURVE()
    B_SPLINE_CURVE(1, (#351, #352), .UNSPECIFIED., .U., .U.)
    B_SPLINE_CURVE_WITH_KNOTS((2, 2), (0.0, 1.0), .UNSPECIFIED.)
    CURVE()
    GEOMETRIC_REPRESENTATION_ITEM()
    RATIONAL_B_SPLINE_CURVE((1.0, 1.0))
    REPRESENTATION_ITEM('')
);
#351 = CARTESIAN_POINT('', (6.283185307179586, -1.5707963267948966));
#352 = CARTESIAN_POINT('', (6.283185307179586, 1.5707963267948966));
#353 = PCURVE('', #354, #400);
#354 = (
    BOUNDED_SURFACE()
    B_SPLINE_SURFACE(2, 2, ((#355, #356, #357, #358, #359), (#360, #361, #362, #363, #364), (#365, #366, #367, #368, #369), (#370, #371, #372, #373, #374), (#375, #376, #377, #378, #379), (#380, #381, #382, #383, #384), (#385, #386, #387, #388, #389), (#390, #391, #392, #393, #394), (#395, #396, #397, #398, #399)), .UNSPECIFIED., .U., .U., .U.)
    B_SPLINE_SURFACE_WITH_KNOTS((3, 2, 2, 2, 3), (3, 2, 3), (0.0, 1.5707963267948966, 3.141592653589793, 4.71238898038469, 6.283185307179586), (-1.5707963267948966, 0.0, 1.5707963267948966), .UNSPECIFIED.)
    GEOMETRIC_REPRESENTATION_ITEM()
    RATIONAL_B_SPLINE_SURFACE(((1.0, 0.7071067811865476, 1.0, 0.7071067811865476, 1.0), (0.7071067811865476, 0.5000000000000001, 0.7071067811865476, 0.5000000000000001, 0.7071067811865476), (1.0, 0.7071067811865476, 1.0, 0.7071067811865476, 1.0), (0.7071067811865476, 0.5000000000000001, 0.7071067811865476, 0.5000000000000001, 0.7071067811865476), (1.0, 0.7071067811865476, 1.0, 0.7071067811865476, 1.0), (0.7071067811865476, 0.5000000000000001, 0.7071067811865476, 0.5000000000000001, 0.7071067811865476), (1.0, 0.7071067811865476, 1.0, 0.7071067811865476, 1.0), (0.7071067811865476, 0.5000000000000001, 0.7071067811865476, 0.5000000000000001, 0.7071067811865476), (1.0, 0.7071067811865476, 1.0, 0.7071067811865476, 1.0)))
    REPRESENTATION_ITEM('')
    SURFACE()
);
#355 = CARTESIAN_POINT('', (3.0, 5.0, 4.0));
#356 = CARTESIAN_POINT('', (4.0, 5.0, 4.0));
#357 = CARTESIAN_POINT('', (4.0, 5.0, 5.0));
#358 = CARTESIAN_POINT('', (4.0, 5.0, 6.0));
#359 = CARTESIAN_POINT('', (3.0, 5.0, 6.0));
#360 = CARTESIAN_POINT('', (3.0, 5.0, 4.0));
#361 = CARTESIAN_POINT('', (4.0, 6.0, 4.0));
#362 = CARTESIAN_POINT('', (4.0, 6.0, 5.0));
#363 = CARTESIAN_POINT('', (4.0, 6.0, 6.0));
#364 = CARTESIAN_POINT('', (3.0, 5.0, 6.0));
#365 = CARTESIAN_POINT('', (3.0, 5.0, 4.0));
#366 = CARTESIAN_POINT('', (3.0, 6.0, 4.0));
#367 = CARTESIAN_POINT('', (3.0, 6.0, 5.0));
#368 = CARTESIAN_POINT('', (3.0, 6.0, 6.0));
#369 = CARTESIAN_POINT('', (3.0, 5.0, 6.0));
#370 = CARTESIAN_POINT('', (3.0, 5.0, 4.0));
#371 = CARTESIAN_POINT('', (2.0, 6.0, 4.0));
#372 = CARTESIAN_POINT('', (2.0, 6.0, 5.0));
#373 = CARTESIAN_POINT('', (2.0, 6.0, 6.0));
#374 = CARTESIAN_POINT('', (3.0, 5.0, 6.0));
#375 = CARTESIAN_POINT('', (3.0, 5.0, 4.0));
#376 = CARTESIAN_POINT('', (2.0, 5.0, 4.0));
#377 = CARTESIAN_POINT('', (2.0, 5.0, 5.0));
#378 = CARTESIAN_POINT('', (2.0, 5.0, 6.0));
#379 = CARTESIAN_POINT('', (3.0, 5.0, 6.0));
#380 = CARTESIAN_POINT('', (3.0, 5.0, 4.0));
#381 = CARTESIAN_POINT('', (2.0, 4.0, 4.0));
#382 = CARTESIAN_POINT('', (2.0, 4.0, 5.0));
#383 = CARTESIAN_POINT('', (2.0, 4.0, 6.0));
#384 = CARTESIAN_POINT('', (3.0, 5.0, 6.0));
#385 = CARTESIAN_POINT('', (3.0, 5.0, 4.0));
#386 = CARTESIAN_POINT('', (3.0, 4.0, 4.0));
#387 = CARTESIAN_POINT('', (3.0, 4.0, 5.0));
#388 = CARTESIAN_POINT('', (3.0, 4.0, 6.0));
#389 = CARTESIAN_POINT('', (3.0, 5.0, 6.0));
#390 = CARTESIAN_POINT('', (3.0, 5.0, 4.0));
#391 = CARTESIAN_POINT('', (4.0, 4.0, 4.0));
#392 = CARTESIAN_POINT('', (4.0, 4.0, 5.0));
#393 = CARTESIAN_POINT('', (4.0, 4.0, 6.0));
#394 = CARTESIAN_POINT('', (3.0, 5.0, 6.0));
#395 = CARTESIAN_POINT('', (3.0, 5.0, 4.0));
#396 = CARTESIAN_POINT('', (4.0, 5.0, 4.0));
#397 = CARTESIAN_POINT('', (4.0, 5.0, 5.0));
#398 = CARTESIAN_POINT('', (4.0, 5.0, 6.0));
#399 = CARTESIAN_POINT('', (3.0, 5.0, 6.0));
#400 = DEFINITIONAL_REPRESENTATION('', (#402), #401);
#401 = (
    GEOMETRIC_REPRESENTATION_CONTEXT(2)
    PARAMETRIC_REPRESENTATION_CONTEXT()
    REPRESENTATION_CONTEXT('2D SPACE', '')
);
#402 = (
    BOUNDED_CURVE()
    B_SPLINE_CURVE(1, (#403, #404), .UNSPECIFIED., .U., .U.)
    B_SPLINE_CURVE_WITH_KNOTS((2, 2), (-1.0, -0.0), .UNSPECIFIED.)
    CURVE()
    GEOMETRIC_REPRESENTATION_ITEM()
    RATIONAL_B_SPLINE_CURVE((1.0, 1.0))
    REPRESENTATION_ITEM('')
);
#403 = CARTESIAN_POINT('', (0.0, -1.5707963267948966));
#404 = CARTESIAN_POINT('', (0.0, 1.5707963267948966));
#405 = SURFACE_CURVE('', #406, (#409), .CURVE_3D.);
#406 = (
    BOUNDED_CURVE()
    B_SPLINE_CURVE(1, (#407, #408), .UNSPECIFIED., .U., .U.)
    B_SPLINE_CURVE_WITH_KNOTS((2, 2), (0.0, 1.0), .UNSPECIFIED.)
    CURVE()
    GEOMETRIC_REPRESENTATION_ITEM()
    RATIONAL_B_SPLINE_CURVE((1.0, 1.0))
    REPRESENTATION_ITEM('')
);
#407 = CARTESIAN_POINT('', (3.0, 5.0, 6.0));
#408 = CARTESIAN_POINT('', (3.0, 5.0, 6.0));
#409 = PCURVE('', #410, #456);
#410 = (
    BOUNDED_SURFACE()
    B_SPLINE_SURFACE(2, 2, ((#411, #412, #413, #414, #415), (#416, #417, #418, #419, #420), (#421, #422, #423, #424, #425), (#426, #427, #428, #429, #430), (#431, #432, #433, #434, #435), (#436, #437, #438, #439, #440), (#441, #442, #443, #444, #445), (#446, #447, #448, #449, #450), (#451, #452, #453, #454, #455)), .UNSPECIFIED., .U., .U., .U.)
    B_SPLINE_SURFACE_WITH_KNOTS((3, 2, 2, 2, 3), (3, 2, 3), (0.0, 1.5707963267948966, 3.141592653589793, 4.71238898038469, 6.283185307179586), (-1.5707963267948966, 0.0, 1.5707963267948966), .UNSPECIFIED.)
    GEOMETRIC_REPRESENTATION_ITEM()
    RATIONAL_B_SPLINE_SURFACE(((1.0, 0.7071067811865476, 1.0, 0.7071067811865476, 1.0), (0.7071067811865476, 0.5000000000000001, 0.7071067811865476, 0.5000000000000001, 0.7071067811865476), (1.0, 0.7071067811865476, 1.0, 0.7071067811865476, 1.0), (0.7071067811865476, 0.5000000000000001, 0.7071067811865476, 0.5000000000000001, 0.7071067811865476), (1.0, 0.7071067811865476, 1.0, 0.7071067811865476, 1.0), (0.7071067811865476, 0.5000000000000001, 0.7071067811865476, 0.5000000000000001, 0.7071067811865476), (1.0, 0.7071067811865476, 1.0, 0.7071067811865476, 1.0), (0.7071067811865476, 0.5000000000000001, 0.7071067811865476, 0.5000000000000001, 0.7071067811865476), (1.0, 0.7071067811865476, 1.0, 0.7071067811865476, 1.0)))
    REPRESENTATION_ITEM('')
    SURFACE()
);
#411 = CARTESIAN_POINT('', (3.0, 5.0, 4.0));
#412 = CARTESIAN_POINT('', (4.0, 5.0, 4.0));
#413 = CARTESIAN_POINT('', (4.0, 5.0, 5.0));
#414 = CARTESIAN_POINT('', (4.0, 5.0, 6.0));
#415 = CARTESIAN_POINT('', (3.0, 5.0, 6.0));
#416 = CARTESIAN_POINT('', (3.0, 5.0, 4.0));
#417 = CARTESIAN_POINT('', (4.0, 6.0, 4.0));
#418 = CARTESIAN_POINT('', (4.0, 6.0, 5.0));
#419 = CARTESIAN_POINT('', (4.0, 6.0, 6.0));
#420 = CARTESIAN_POINT('', (3.0, 5.0, 6.0));
#421 = CARTESIAN_POINT('', (3.0, 5.0, 4.0));
#422 = CARTESIAN_POINT('', (3.0, 6.0, 4.0));
#423 = CARTESIAN_POINT('', (3.0, 6.0, 5.0));
#424 = CARTESIAN_POINT('', (3.0, 6.0, 6.0));
#425 = CARTESIAN_POINT('', (3.0, 5.0, 6.0));
#426 = CARTESIAN_POINT('', (3.0, 5.0, 4.0));
#427 = CARTESIAN_POINT('', (2.0, 6.0, 4.0));
#428 = CARTESIAN_POINT('', (2.0, 6.0, 5.0));
#429 = CARTESIAN_POINT('', (2.0, 6.0, 6.0));
#430 = CARTESIAN_POINT('', (3.0, 5.0, 6.0));
#431 = CARTESIAN_POINT('', (3.0, 5.0, 4.0));
#432 = CARTESIAN_POINT('', (2.0, 5.0, 4.0));
#433 = CARTESIAN_POINT('', (2.0, 5.0, 5.0));
#434 = CARTESIAN_POINT('', (2.0, 5.0, 6.0));
#435 = CARTESIAN_POINT('', (3.0, 5.0, 6.0));
#436 = CARTESIAN_POINT('', (3.0, 5.0, 4.0));
#437 = CARTESIAN_POINT('', (2.0, 4.0, 4.0));
#438 = CARTESIAN_POINT('', (2.0, 4.0, 5.0));
#439 = CARTESIAN_POINT('', (2.0, 4.0, 6.0));
#440 = CARTESIAN_POINT('', (3.0, 5.0, 6.0));
#441 = CARTESIAN_POINT('', (3.0, 5.0, 4.0));
#442 = CARTESIAN_POINT('', (3.0, 4.0, 4.0));
#443 = CARTESIAN_POINT('', (3.0, 4.0, 5.0));
#444 = CARTESIAN_POINT('', (3.0, 4.0, 6.0));
#445 = CARTESIAN_POINT('', (3.0, 5.0, 6.0));
#446 = CARTESIAN_POINT('', (3.0, 5.0, 4.0));
#447 = CARTESIAN_POINT('', (4.0, 4.0, 4.0));
#448 = CARTESIAN_POINT('', (4.0, 4.0, 5.0));
#449 = CARTESIAN_POINT('', (4.0, 4.0, 6.0));
#450 = CARTESIAN_POINT('', (3.0, 5.0, 6.0));
#451 = CARTESIAN_POINT('', (3.0, 5.0, 4.0));
#452 = CARTESIAN_POINT('', (4.0, 5.0, 4.0));
#453 = CARTESIAN_POINT('', (4.0, 5.0, 5.0));
#454 = CARTESIAN_POINT('', (4.0, 5.0, 6.0));
#455 = CARTESIAN_POINT('', (3.0, 5.0, 6.0));
#456 = DEFINITIONAL_REPRESENTATION('', (#458), #457);
#457 = (
    GEOMETRIC_REPRESENTATION_CONTEXT(2)
    PARAMETRIC_REPRESENTATION_CONTEXT()
    REPRESENTATION_CONTEXT('2D SPACE', '')
);
#458 = (
    BOUNDED_CURVE()
    B_SPLINE_CURVE(1, (#459, #460), .UNSPECIFIED., .U., .U.)
    B_SPLINE_CURVE_WITH_KNOTS((2, 2), (0.0, 1.0), .UNSPECIFIED.)
    CURVE()
    GEOMETRIC_REPRESENTATION_ITEM()
    RATIONAL_B_SPLINE_CURVE((1.0, 1.0))
    REPRESENTATION_ITEM('')
);
#459 = CARTESIAN_POINT('', (6.283185307179586, 1.5707963267948966));
#460 = CARTESIAN_POINT('', (0.0, 1.5707963267948966));
#461 = CARTESIAN_POINT('', (3.0E0, 5.0E0, 4.0E0));
#462 = CARTESIAN_POINT('', (3.0E0, 5.0E0, 6.0E0));
#463 = ORIENTED_CLOSED_SHELL('', *, #464, .F.);
#464 = CLOSED_SHELL('', (#465));
#465 = ADVANCED_FACE('', (#466), #477, .T.);
#466 = FACE_BOUND('', #467, .T.);
#467 = EDGE_LOOP('', (#468, #469, #470, #471));
#468 = ORIENTED_EDGE('', *, *, #472, .T.);
#469 = ORIENTED_EDGE('', *, *, #473, .T.);
#470 = ORIENTED_EDGE('', *, *, #474, .T.);
#471 = ORIENTED_EDGE('', *, *, #473, .F.);
#472 = EDGE_CURVE('', #475, #475, #523, .T.);
#473 = EDGE_CURVE('', #475, #476, #579, .T.);
#474 = EDGE_CURVE('', #476, #476, #690, .T.);
#475 = VERTEX_POINT('', #746);
#476 = VERTEX_POINT('', #747);
#477 = (
    BOUNDED_SURFACE()
    B_SPLINE_SURFACE(2, 2, ((#478, #479, #480, #481, #482), (#483, #484, #485, #486, #487), (#488, #489, #490, #491, #492), (#493, #494, #495, #496, #497), (#498, #499, #500, #501, #502), (#503, #504, #505, #506, #507), (#508, #509, #510, #511, #512), (#513, #514, #515, #516, #517), (#518, #519, #520, #521, #522)), .UNSPECIFIED., .U., .U., .U.)
    B_SPLINE_SURFACE_WITH_KNOTS((3, 2, 2, 2, 3), (3, 2, 3), (0.0, 1.5707963267948966, 3.141592653589793, 4.71238898038469, 6.283185307179586), (-1.5707963267948966, 0.0, 1.5707963267948966), .UNSPECIFIED.)
    GEOMETRIC_REPRESENTATION_ITEM()
    RATIONAL_B_SPLINE_SURFACE(((1.0, 0.7071067811865476, 1.0, 0.7071067811865476, 1.0), (0.7071067811865476, 0.5000000000000001, 0.7071067811865476, 0.5000000000000001, 0.7071067811865476), (1.0, 0.7071067811865476, 1.0, 0.7071067811865476, 1.0), (0.7071067811865476, 0.5000000000000001, 0.7071067811865476, 0.5000000000000001, 0.7071067811865476), (1.0, 0.7071067811865476, 1.0, 0.7071067811865476, 1.0), (0.7071067811865476, 0.5000000000000001, 0.7071067811865476, 0.5000000000000001, 0.7071067811865476), (1.0, 0.7071067811865476, 1.0, 0.7071067811865476, 1.0), (0.7071067811865476, 0.5000000000000001, 0.7071067811865476, 0.5000000000000001, 0.7071067811865476), (1.0, 0.7071067811865476, 1.0, 0.7071067811865476, 1.0)))
    REPRESENTATION_ITEM('')
    SURFACE()
);
#478 = CARTESIAN_POINT('', (7.0, 5.0, 4.0));
#479 = CARTESIAN_POINT('', (8.0, 5.0, 4.0));
#480 = CARTESIAN_POINT('', (8.0, 5.0, 5.0));
#481 = CARTESIAN_POINT('', (8.0, 5.0, 6.0));
#482 = CARTESIAN_POINT('', (7.0, 5.0, 6.0));
#483 = CARTESIAN_POINT('', (6.999999999999999, 5.0, 4.0));
#484 = CARTESIAN_POINT('', (8.0, 6.0, 4.0));
#485 = CARTESIAN_POINT('', (8.0, 6.0, 5.0));
#486 = CARTESIAN_POINT('', (8.0, 6.0, 6.0));
#487 = CARTESIAN_POINT('', (6.999999999999999, 5.0, 6.0));
#488 = CARTESIAN_POINT('', (7.0, 5.0, 4.0));
#489 = CARTESIAN_POINT('', (6.999999999999999, 6.0, 4.0));
#490 = CARTESIAN_POINT('', (7.0, 6.0, 5.0));
#491 = CARTESIAN_POINT('', (6.999999999999999, 6.0, 6.0));
#492 = CARTESIAN_POINT('', (7.0, 5.0, 6.0));
#493 = CARTESIAN_POINT('', (6.999999999999999, 5.0, 4.0));
#494 = CARTESIAN_POINT('', (6.0, 6.0, 4.0));
#495 = CARTESIAN_POINT('', (6.0, 6.0, 5.0));
#496 = CARTESIAN_POINT('', (6.0, 6.0, 6.0));
#497 = CARTESIAN_POINT('', (6.999999999999999, 5.0, 6.0));
#498 = CARTESIAN_POINT('', (7.0, 5.0, 4.0));
#499 = CARTESIAN_POINT('', (6.0, 5.0, 4.0));
#500 = CARTESIAN_POINT('', (6.0, 5.0, 5.0));
#501 = CARTESIAN_POINT('', (6.0, 5.0, 6.0));
#502 = CARTESIAN_POINT('', (7.0, 5.0, 6.0));
#503 = CARTESIAN_POINT('', (6.999999999999999, 5.0, 4.0));
#504 = CARTESIAN_POINT('', (6.0, 4.0, 4.0));
#505 = CARTESIAN_POINT('', (6.0, 4.0, 5.0));
#506 = CARTESIAN_POINT('', (6.0, 4.0, 6.0));
#507 = CARTESIAN_POINT('', (6.999999999999999, 5.0, 6.0));
#508 = CARTESIAN_POINT('', (7.0, 5.0, 4.0));
#509 = CARTESIAN_POINT('', (6.999999999999999, 4.0, 4.0));
#510 = CARTESIAN_POINT('', (7.0, 4.0, 5.0));
#511 = CARTESIAN_POINT('', (6.999999999999999, 4.0, 6.0));
#512 = CARTESIAN_POINT('', (7.0, 5.0, 6.0));
#513 = CARTESIAN_POINT('', (6.999999999999999, 5.0, 4.0));
#514 = CARTESIAN_POINT('', (8.0, 4.0, 4.0));
#515 = CARTESIAN_POINT('', (8.0, 4.0, 5.0));
#516 = CARTESIAN_POINT('', (8.0, 4.0, 6.0));
#517 = CARTESIAN_POINT('', (6.999999999999999, 5.0, 6.0));
#518 = CARTESIAN_POINT('', (7.0, 5.0, 4.0));
#519 = CARTESIAN_POINT('', (8.0, 5.0, 4.0));
#520 = CARTESIAN_POINT('', (8.0, 5.0, 5.0));
#521 = CARTESIAN_POINT('', (8.0, 5.0, 6.0));
#522 = CARTESIAN_POINT('', (7.0, 5.0, 6.0));
#523 = SURFACE_CURVE('', #524, (#527), .CURVE_3D.);
#524 = (
    BOUNDED_CURVE()
    B_SPLINE_CURVE(1, (#525, #526), .UNSPECIFIED., .U., .U.)
    B_SPLINE_CURVE_WITH_KNOTS((2, 2), (0.0, 1.0), .UNSPECIFIED.)
    CURVE()
    GEOMETRIC_REPRESENTATION_ITEM()
    RATIONAL_B_SPLINE_CURVE((1.0, 1.0))
    REPRESENTATION_ITEM('')
);
#525 = CARTESIAN_POINT('', (7.0, 5.0, 4.0));
#526 = CARTESIAN_POINT('', (7.0, 5.0, 4.0));
#527 = PCURVE('', #528, #574);
#528 = (
    BOUNDED_SURFACE()
    B_SPLINE_SURFACE(2, 2, ((#529, #530, #531, #532, #533), (#534, #535, #536, #537, #538), (#539, #540, #541, #542, #543), (#544, #545, #546, #547, #548), (#549, #550, #551, #552, #553), (#554, #555, #556, #557, #558), (#559, #560, #561, #562, #563), (#564, #565, #566, #567, #568), (#569, #570, #571, #572, #573)), .UNSPECIFIED., .U., .U., .U.)
    B_SPLINE_SURFACE_WITH_KNOTS((3, 2, 2, 2, 3), (3, 2, 3), (0.0, 1.5707963267948966, 3.141592653589793, 4.71238898038469, 6.283185307179586), (-1.5707963267948966, 0.0, 1.5707963267948966), .UNSPECIFIED.)
    GEOMETRIC_REPRESENTATION_ITEM()
    RATIONAL_B_SPLINE_SURFACE(((1.0, 0.7071067811865476, 1.0, 0.7071067811865476, 1.0), (0.7071067811865476, 0.5000000000000001, 0.7071067811865476, 0.5000000000000001, 0.7071067811865476), (1.0, 0.7071067811865476, 1.0, 0.7071067811865476, 1.0), (0.7071067811865476, 0.5000000000000001, 0.7071067811865476, 0.5000000000000001, 0.7071067811865476), (1.0, 0.7071067811865476, 1.0, 0.7071067811865476, 1.0), (0.7071067811865476, 0.5000000000000001, 0.7071067811865476, 0.5000000000000001, 0.7071067811865476), (1.0, 0.7071067811865476, 1.0, 0.7071067811865476, 1.0), (0.7071067811865476, 0.5000000000000001, 0.7071067811865476, 0.5000000000000001, 0.7071067811865476), (1.0, 0.7071067811865476, 1.0, 0.7071067811865476, 1.0)))
    REPRESENTATION_ITEM('')
    SURFACE()
);
#529 = CARTESIAN_POINT('', (7.0, 5.0, 4.0));
#530 = CARTESIAN_POINT('', (8.0, 5.0, 4.0));
#531 = CARTESIAN_POINT('', (8.0, 5.0, 5.0));
#532 = CARTESIAN_POINT('', (8.0, 5.0, 6.0));
#533 = CARTESIAN_POINT('', (7.0, 5.0, 6.0));
#534 = CARTESIAN_POINT('', (6.999999999999999, 5.0, 4.0));
#535 = CARTESIAN_POINT('', (8.0, 6.0, 4.0));
#536 = CARTESIAN_POINT('', (8.0, 6.0, 5.0));
#537 = CARTESIAN_POINT('', (8.0, 6.0, 6.0));
#538 = CARTESIAN_POINT('', (6.999999999999999, 5.0, 6.0));
#539 = CARTESIAN_POINT('', (7.0, 5.0, 4.0));
#540 = CARTESIAN_POINT('', (6.999999999999999, 6.0, 4.0));
#541 = CARTESIAN_POINT('', (7.0, 6.0, 5.0));
#542 = CARTESIAN_POINT('', (6.999999999999999, 6.0, 6.0));
#543 = CARTESIAN_POINT('', (7.0, 5.0, 6.0));
#544 = CARTESIAN_POINT('', (6.999999999999999, 5.0, 4.0));
#545 = CARTESIAN_POINT('', (6.0, 6.0, 4.0));
#546 = CARTESIAN_POINT('', (6.0, 6.0, 5.0));
#547 = CARTESIAN_POINT('', (6.0, 6.0, 6.0));
#548 = CARTESIAN_POINT('', (6.999999999999999, 5.0, 6.0));
#549 = CARTESIAN_POINT('', (7.0, 5.0, 4.0));
#550 = CARTESIAN_POINT('', (6.0, 5.0, 4.0));
#551 = CARTESIAN_POINT('', (6.0, 5.0, 5.0));
#552 = CARTESIAN_POINT('', (6.0, 5.0, 6.0));
#553 = CARTESIAN_POINT('', (7.0, 5.0, 6.0));
#554 = CARTESIAN_POINT('', (6.999999999999999, 5.0, 4.0));
#555 = CARTESIAN_POINT('', (6.0, 4.0, 4.0));
#556 = CARTESIAN_POINT('', (6.0, 4.0, 5.0));
#557 = CARTESIAN_POINT('', (6.0, 4.0, 6.0));
#558 = CARTESIAN_POINT('', (6.999999999999999, 5.0, 6.0));
#559 = CARTESIAN_POINT('', (7.0, 5.0, 4.0));
#560 = CARTESIAN_POINT('', (6.999999999999999, 4.0, 4.0));
#561 = CARTESIAN_POINT('', (7.0, 4.0, 5.0));
#562 = CARTESIAN_POINT('', (6.999999999999999, 4.0, 6.0));
#563 = CARTESIAN_POINT('', (7.0, 5.0, 6.0));
#564 = CARTESIAN_POINT('', (6.999999999999999, 5.0, 4.0));
#565 = CARTESIAN_POINT('', (8.0, 4.0, 4.0));
#566 = CARTESIAN_POINT('', (8.0, 4.0, 5.0));
#567 = CARTESIAN_POINT('', (8.0, 4.0, 6.0));
#568 = CARTESIAN_POINT('', (6.999999999999999, 5.0, 6.0));
#569 = CARTESIAN_POINT('', (7.0, 5.0, 4.0));
#570 = CARTESIAN_POINT('', (8.0, 5.0, 4.0));
#571 = CARTESIAN_POINT('', (8.0, 5.0, 5.0));
#572 = CARTESIAN_POINT('', (8.0, 5.0, 6.0));
#573 = CARTESIAN_POINT('', (7.0, 5.0, 6.0));
#574 = DEFINITIONAL_REPRESENTATION('', (#576), #575);
#575 = (
    GEOMETRIC_REPRESENTATION_CONTEXT(2)
    PARAMETRIC_REPRESENTATION_CONTEXT()
    REPRESENTATION_CONTEXT('2D SPACE', '')
);
#576 = (
    BOUNDED_CURVE()
    B_SPLINE_CURVE(1, (#577, #578), .UNSPECIFIED., .U., .U.)
    B_SPLINE_CURVE_WITH_KNOTS((2, 2), (0.0, 1.0), .UNSPECIFIED.)
    CURVE()
    GEOMETRIC_REPRESENTATION_ITEM()
    RATIONAL_B_SPLINE_CURVE((1.0, 1.0))
    REPRESENTATION_ITEM('')
);
#577 = CARTESIAN_POINT('', (0.0, -1.5707963267948966));
#578 = CARTESIAN_POINT('', (6.283185307179586, -1.5707963267948966));
#579 = SEAM_CURVE('', #580, (#586, #638), .CURVE_3D.);
#580 = (
    BOUNDED_CURVE()
    B_SPLINE_CURVE(2, (#581, #582, #583, #584, #585), .UNSPECIFIED., .U., .U.)
    B_SPLINE_CURVE_WITH_KNOTS((3, 2, 3), (-1.5707963267948966, 0.0, 1.5707963267948966), .UNSPECIFIED.)
    CURVE()
    GEOMETRIC_REPRESENTATION_ITEM()
    RATIONAL_B_SPLINE_CURVE((1.0, 0.7071067811865476, 1.0, 0.7071067811865476, 1.0))
    REPRESENTATION_ITEM('')
);
#581 = CARTESIAN_POINT('', (7.0, 5.0, 4.0));
#582 = CARTESIAN_POINT('', (8.0, 5.0, 4.0));
#583 = CARTESIAN_POINT('', (8.0, 5.0, 5.0));
#584 = CARTESIAN_POINT('', (8.0, 5.0, 6.0));
#585 = CARTESIAN_POINT('', (7.0, 5.0, 6.0));
#586 = PCURVE('', #587, #633);
#587 = (
    BOUNDED_SURFACE()
    B_SPLINE_SURFACE(2, 2, ((#588, #589, #590, #591, #592), (#593, #594, #595, #596, #597), (#598, #599, #600, #601, #602), (#603, #604, #605, #606, #607), (#608, #609, #610, #611, #612), (#613, #614, #615, #616, #617), (#618, #619, #620, #621, #622), (#623, #624, #625, #626, #627), (#628, #629, #630, #631, #632)), .UNSPECIFIED., .U., .U., .U.)
    B_SPLINE_SURFACE_WITH_KNOTS((3, 2, 2, 2, 3), (3, 2, 3), (0.0, 1.5707963267948966, 3.141592653589793, 4.71238898038469, 6.283185307179586), (-1.5707963267948966, 0.0, 1.5707963267948966), .UNSPECIFIED.)
    GEOMETRIC_REPRESENTATION_ITEM()
    RATIONAL_B_SPLINE_SURFACE(((1.0, 0.7071067811865476, 1.0, 0.7071067811865476, 1.0), (0.7071067811865476, 0.5000000000000001, 0.7071067811865476, 0.5000000000000001, 0.7071067811865476), (1.0, 0.7071067811865476, 1.0, 0.7071067811865476, 1.0), (0.7071067811865476, 0.5000000000000001, 0.7071067811865476, 0.5000000000000001, 0.7071067811865476), (1.0, 0.7071067811865476, 1.0, 0.7071067811865476, 1.0), (0.7071067811865476, 0.5000000000000001, 0.7071067811865476, 0.5000000000000001, 0.7071067811865476), (1.0, 0.7071067811865476, 1.0, 0.7071067811865476, 1.0), (0.7071067811865476, 0.5000000000000001, 0.7071067811865476, 0.5000000000000001, 0.7071067811865476), (1.0, 0.7071067811865476, 1.0, 0.7071067811865476, 1.0)))
    REPRESENTATION_ITEM('')
    SURFACE()
);
#588 = CARTESIAN_POINT('', (7.0, 5.0, 4.0));
#589 = CARTESIAN_POINT('', (8.0, 5.0, 4.0));
#590 = CARTESIAN_POINT('', (8.0, 5.0, 5.0));
#591 = CARTESIAN_POINT('', (8.0, 5.0, 6.0));
#592 = CARTESIAN_POINT('', (7.0, 5.0, 6.0));
#593 = CARTESIAN_POINT('', (6.999999999999999, 5.0, 4.0));
#594 = CARTESIAN_POINT('', (8.0, 6.0, 4.0));
#595 = CARTESIAN_POINT('', (8.0, 6.0, 5.0));
#596 = CARTESIAN_POINT('', (8.0, 6.0, 6.0));
#597 = CARTESIAN_POINT('', (6.999999999999999, 5.0, 6.0));
#598 = CARTESIAN_POINT('', (7.0, 5.0, 4.0));
#599 = CARTESIAN_POINT('', (6.999999999999999, 6.0, 4.0));
#600 = CARTESIAN_POINT('', (7.0, 6.0, 5.0));
#601 = CARTESIAN_POINT('', (6.999999999999999, 6.0, 6.0));
#602 = CARTESIAN_POINT('', (7.0, 5.0, 6.0));
#603 = CARTESIAN_POINT('', (6.999999999999999, 5.0, 4.0));
#604 = CARTESIAN_POINT('', (6.0, 6.0, 4.0));
#605 = CARTESIAN_POINT('', (6.0, 6.0, 5.0));
#606 = CARTESIAN_POINT('', (6.0, 6.0, 6.0));
#607 = CARTESIAN_POINT('', (6.999999999999999, 5.0, 6.0));
#608 = CARTESIAN_POINT('', (7.0, 5.0, 4.0));
#609 = CARTESIAN_POINT('', (6.0, 5.0, 4.0));
#610 = CARTESIAN_POINT('', (6.0, 5.0, 5.0));
#611 = CARTESIAN_POINT('', (6.0, 5.0, 6.0));
#612 = CARTESIAN_POINT('', (7.0, 5.0, 6.0));
#613 = CARTESIAN_POINT('', (6.999999999999999, 5.0, 4.0));
#614 = CARTESIAN_POINT('', (6.0, 4.0, 4.0));
#615 = CARTESIAN_POINT('', (6.0, 4.0, 5.0));
#616 = CARTESIAN_POINT('', (6.0, 4.0, 6.0));
#617 = CARTESIAN_POINT('', (6.999999999999999, 5.0, 6.0));
#618 = CARTESIAN_POINT('', (7.0, 5.0, 4.0));
#619 = CARTESIAN_POINT('', (6.999999999999999, 4.0, 4.0));
#620 = CARTESIAN_POINT('', (7.0, 4.0, 5.0));
#621 = CARTESIAN_POINT('', (6.999999999999999, 4.0, 6.0));
#622 = CARTESIAN_POINT('', (7.0, 5.0, 6.0));
#623 = CARTESIAN_POINT('', (6.999999999999999, 5.0, 4.0));
#624 = CARTESIAN_POINT('', (8.0, 4.0, 4.0));
#625 = CARTESIAN_POINT('', (8.0, 4.0, 5.0));
#626 = CARTESIAN_POINT('', (8.0, 4.0, 6.0));
#627 = CARTESIAN_POINT('', (6.999999999999999, 5.0, 6.0));
#628 = CARTESIAN_POINT('', (7.0, 5.0, 4.0));
#629 = CARTESIAN_POINT('', (8.0, 5.0, 4.0));
#630 = CARTESIAN_POINT('', (8.0, 5.0, 5.0));
#631 = CARTESIAN_POINT('', (8.0, 5.0, 6.0));
#632 = CARTESIAN_POINT('', (7.0, 5.0, 6.0));
#633 = DEFINITIONAL_REPRESENTATION('', (#635), #634);
#634 = (
    GEOMETRIC_REPRESENTATION_CONTEXT(2)
    PARAMETRIC_REPRESENTATION_CONTEXT()
    REPRESENTATION_CONTEXT('2D SPACE', '')
);
#635 = (
    BOUNDED_CURVE()
    B_SPLINE_CURVE(1, (#636, #637), .UNSPECIFIED., .U., .U.)
    B_SPLINE_CURVE_WITH_KNOTS((2, 2), (0.0, 1.0), .UNSPECIFIED.)
    CURVE()
    GEOMETRIC_REPRESENTATION_ITEM()
    RATIONAL_B_SPLINE_CURVE((1.0, 1.0))
    REPRESENTATION_ITEM('')
);
#636 = CARTESIAN_POINT('', (6.283185307179586, -1.5707963267948966));
#637 = CARTESIAN_POINT('', (6.283185307179586, 1.5707963267948966));
#638 = PCURVE('', #639, #685);
#639 = (
    BOUNDED_SURFACE()
    B_SPLINE_SURFACE(2, 2, ((#640, #641, #642, #643, #644), (#645, #646, #647, #648, #649), (#650, #651, #652, #653, #654), (#655, #656, #657, #658, #659), (#660, #661, #662, #663, #664), (#665, #666, #667, #668, #669), (#670, #671, #672, #673, #674), (#675, #676, #677, #678, #679), (#680, #681, #682, #683, #684)), .UNSPECIFIED., .U., .U., .U.)
    B_SPLINE_SURFACE_WITH_KNOTS((3, 2, 2, 2, 3), (3, 2, 3), (0.0, 1.5707963267948966, 3.141592653589793, 4.71238898038469, 6.283185307179586), (-1.5707963267948966, 0.0, 1.5707963267948966), .UNSPECIFIED.)
    GEOMETRIC_REPRESENTATION_ITEM()
    RATIONAL_B_SPLINE_SURFACE(((1.0, 0.7071067811865476, 1.0, 0.7071067811865476, 1.0), (0.7071067811865476, 0.5000000000000001, 0.7071067811865476, 0.5000000000000001, 0.7071067811865476), (1.0, 0.7071067811865476, 1.0, 0.7071067811865476, 1.0), (0.7071067811865476, 0.5000000000000001, 0.7071067811865476, 0.5000000000000001, 0.7071067811865476), (1.0, 0.7071067811865476, 1.0, 0.7071067811865476, 1.0), (0.7071067811865476, 0.5000000000000001, 0.7071067811865476, 0.5000000000000001, 0.7071067811865476), (1.0, 0.7071067811865476, 1.0, 0.7071067811865476, 1.0), (0.7071067811865476, 0.5000000000000001, 0.7071067811865476, 0.5000000000000001, 0.7071067811865476), (1.0, 0.7071067811865476, 1.0, 0.7071067811865476, 1.0)))
    REPRESENTATION_ITEM('')
    SURFACE()
);
#640 = CARTESIAN_POINT('', (7.0, 5.0, 4.0));
#641 = CARTESIAN_POINT('', (8.0, 5.0, 4.0));
#642 = CARTESIAN_POINT('', (8.0, 5.0, 5.0));
#643 = CARTESIAN_POINT('', (8.0, 5.0, 6.0));
#644 = CARTESIAN_POINT('', (7.0, 5.0, 6.0));
#645 = CARTESIAN_POINT('', (6.999999999999999, 5.0, 4.0));
#646 = CARTESIAN_POINT('', (8.0, 6.0, 4.0));
#647 = CARTESIAN_POINT('', (8.0, 6.0, 5.0));
#648 = CARTESIAN_POINT('', (8.0, 6.0, 6.0));
#649 = CARTESIAN_POINT('', (6.999999999999999, 5.0, 6.0));
#650 = CARTESIAN_POINT('', (7.0, 5.0, 4.0));
#651 = CARTESIAN_POINT('', (6.999999999999999, 6.0, 4.0));
#652 = CARTESIAN_POINT('', (7.0, 6.0, 5.0));
#653 = CARTESIAN_POINT('', (6.999999999999999, 6.0, 6.0));
#654 = CARTESIAN_POINT('', (7.0, 5.0, 6.0));
#655 = CARTESIAN_POINT('', (6.999999999999999, 5.0, 4.0));
#656 = CARTESIAN_POINT('', (6.0, 6.0, 4.0));
#657 = CARTESIAN_POINT('', (6.0, 6.0, 5.0));
#658 = CARTESIAN_POINT('', (6.0, 6.0, 6.0));
#659 = CARTESIAN_POINT('', (6.999999999999999, 5.0, 6.0));
#660 = CARTESIAN_POINT('', (7.0, 5.0, 4.0));
#661 = CARTESIAN_POINT('', (6.0, 5.0, 4.0));
#662 = CARTESIAN_POINT('', (6.0, 5.0, 5.0));
#663 = CARTESIAN_POINT('', (6.0, 5.0, 6.0));
#664 = CARTESIAN_POINT('', (7.0, 5.0, 6.0));
#665 = CARTESIAN_POINT('', (6.999999999999999, 5.0, 4.0));
#666 = CARTESIAN_POINT('', (6.0, 4.0, 4.0));
#667 = CARTESIAN_POINT('', (6.0, 4.0, 5.0));
#668 = CARTESIAN_POINT('', (6.0, 4.0, 6.0));
#669 = CARTESIAN_POINT('', (6.999999999999999, 5.0, 6.0));
#670 = CARTESIAN_POINT('', (7.0, 5.0, 4.0));
#671 = CARTESIAN_POINT('', (6.999999999999999, 4.0, 4.0));
#672 = CARTESIAN_POINT('', (7.0, 4.0, 5.0));
#673 = CARTESIAN_POINT('', (6.999999999999999, 4.0, 6.0));
#674 = CARTESIAN_POINT('', (7.0, 5.0, 6.0));
#675 = CARTESIAN_POINT('', (6.999999999999999, 5.0, 4.0));
#676 = CARTESIAN_POINT('', (8.0, 4.0, 4.0));
#677 = CARTESIAN_POINT('', (8.0, 4.0, 5.0));
#678 = CARTESIAN_POINT('', (8.0, 4.0, 6.0));
#679 = CARTESIAN_POINT('', (6.999999999999999, 5.0, 6.0));
#680 = CARTESIAN_POINT('', (7.0, 5.0, 4.0));
#681 = CARTESIAN_POINT('', (8.0, 5.0, 4.0));
#682 = CARTESIAN_POINT('', (8.0, 5.0, 5.0));
#683 = CARTESIAN_POINT('', (8.0, 5.0, 6.0));
#684 = CARTESIAN_POINT('', (7.0, 5.0, 6.0));
#685 = DEFINITIONAL_REPRESENTATION('', (#687), #686);
#686 = (
    GEOMETRIC_REPRESENTATION_CONTEXT(2)
    PARAMETRIC_REPRESENTATION_CONTEXT()
    REPRESENTATION_CONTEXT('2D SPACE', '')
);
#687 = (
    BOUNDED_CURVE()
    B_SPLINE_CURVE(1, (#688, #689), .UNSPECIFIED., .U., .U.)
    B_SPLINE_CURVE_WITH_KNOTS((2, 2), (-1.0, -0.0), .UNSPECIFIED.)
    CURVE()
    GEOMETRIC_REPRESENTATION_ITEM()
    RATIONAL_B_SPLINE_CURVE((1.0, 1.0))
    REPRESENTATION_ITEM('')
);
#688 = CARTESIAN_POINT('', (0.0, -1.5707963267948966));
#689 = CARTESIAN_POINT('', (0.0, 1.5707963267948966));
#690 = SURFACE_CURVE('', #691, (#694), .CURVE_3D.);
#691 = (
    BOUNDED_CURVE()
    B_SPLINE_CURVE(1, (#692, #693), .UNSPECIFIED., .U., .U.)
    B_SPLINE_CURVE_WITH_KNOTS((2, 2), (0.0, 1.0), .UNSPECIFIED.)
    CURVE()
    GEOMETRIC_REPRESENTATION_ITEM()
    RATIONAL_B_SPLINE_CURVE((1.0, 1.0))
    REPRESENTATION_ITEM('')
);
#692 = CARTESIAN_POINT('', (7.0, 5.0, 6.0));
#693 = CARTESIAN_POINT('', (7.0, 5.0, 6.0));
#694 = PCURVE('', #695, #741);
#695 = (
    BOUNDED_SURFACE()
    B_SPLINE_SURFACE(2, 2, ((#696, #697, #698, #699, #700), (#701, #702, #703, #704, #705), (#706, #707, #708, #709, #710), (#711, #712, #713, #714, #715), (#716, #717, #718, #719, #720), (#721, #722, #723, #724, #725), (#726, #727, #728, #729, #730), (#731, #732, #733, #734, #735), (#736, #737, #738, #739, #740)), .UNSPECIFIED., .U., .U., .U.)
    B_SPLINE_SURFACE_WITH_KNOTS((3, 2, 2, 2, 3), (3, 2, 3), (0.0, 1.5707963267948966, 3.141592653589793, 4.71238898038469, 6.283185307179586), (-1.5707963267948966, 0.0, 1.5707963267948966), .UNSPECIFIED.)
    GEOMETRIC_REPRESENTATION_ITEM()
    RATIONAL_B_SPLINE_SURFACE(((1.0, 0.7071067811865476, 1.0, 0.7071067811865476, 1.0), (0.7071067811865476, 0.5000000000000001, 0.7071067811865476, 0.5000000000000001, 0.7071067811865476), (1.0, 0.7071067811865476, 1.0, 0.7071067811865476, 1.0), (0.7071067811865476, 0.5000000000000001, 0.7071067811865476, 0.5000000000000001, 0.7071067811865476), (1.0, 0.7071067811865476, 1.0, 0.7071067811865476, 1.0), (0.7071067811865476, 0.5000000000000001, 0.7071067811865476, 0.5000000000000001, 0.7071067811865476), (1.0, 0.7071067811865476, 1.0, 0.7071067811865476, 1.0), (0.7071067811865476, 0.5000000000000001, 0.7071067811865476, 0.5000000000000001, 0.7071067811865476), (1.0, 0.7071067811865476, 1.0, 0.7071067811865476, 1.0)))
    REPRESENTATION_ITEM('')
    SURFACE()
);
#696 = CARTESIAN_POINT('', (7.0, 5.0, 4.0));
#697 = CARTESIAN_POINT('', (8.0, 5.0, 4.0));
#698 = CARTESIAN_POINT('', (8.0, 5.0, 5.0));
#699 = CARTESIAN_POINT('', (8.0, 5.0, 6.0));
#700 = CARTESIAN_POINT('', (7.0, 5.0, 6.0));
#701 = CARTESIAN_POINT('', (6.999999999999999, 5.0, 4.0));
#702 = CARTESIAN_POINT('', (8.0, 6.0, 4.0));
#703 = CARTESIAN_POINT('', (8.0, 6.0, 5.0));
#704 = CARTESIAN_POINT('', (8.0, 6.0, 6.0));
#705 = CARTESIAN_POINT('', (6.999999999999999, 5.0, 6.0));
#706 = CARTESIAN_POINT('', (7.0, 5.0, 4.0));
#707 = CARTESIAN_POINT('', (6.999999999999999, 6.0, 4.0));
#708 = CARTESIAN_POINT('', (7.0, 6.0, 5.0));
#709 = CARTESIAN_POINT('', (6.999999999999999, 6.0, 6.0));
#710 = CARTESIAN_POINT('', (7.0, 5.0, 6.0));
#711 = CARTESIAN_POINT('', (6.999999999999999, 5.0, 4.0));
#712 = CARTESIAN_POINT('', (6.0, 6.0, 4.0));
#713 = CARTESIAN_POINT('', (6.0, 6.0, 5.0));
#714 = CARTESIAN_POINT('', (6.0, 6.0, 6.0));
#715 = CARTESIAN_POINT('', (6.999999999999999, 5.0, 6.0));
#716 = CARTESIAN_POINT('', (7.0, 5.0, 4.0));
#717 = CARTESIAN_POINT('', (6.0, 5.0, 4.0));
#718 = CARTESIAN_POINT('', (6.0, 5.0, 5.0));
#719 = CARTESIAN_POINT('', (6.0, 5.0, 6.0));
#720 = CARTESIAN_POINT('', (7.0, 5.0, 6.0));
#721 = CARTESIAN_POINT('', (6.999999999999999, 5.0, 4.0));
#722 = CARTESIAN_POINT('', (6.0, 4.0, 4.0));
#723 = CARTESIAN_POINT('', (6.0, 4.0, 5.0));
#724 = CARTESIAN_POINT('', (6.0, 4.0, 6.0));
#725 = CARTESIAN_POINT('', (6.999999999999999, 5.0, 6.0));
#726 = CARTESIAN_POINT('', (7.0, 5.0, 4.0));
#727 = CARTESIAN_POINT('', (6.999999999999999, 4.0, 4.0));
#728 = CARTESIAN_POINT('', (7.0, 4.0, 5.0));
#729 = CARTESIAN_POINT('', (6.999999999999999, 4.0, 6.0));
#730 = CARTESIAN_POINT('', (7.0, 5.0, 6.0));
#731 = CARTESIAN_POINT('', (6.999999999999999, 5.0, 4.0));
#732 = CARTESIAN_POINT('', (8.0, 4.0, 4.0));
#733 = CARTESIAN_POINT('', (8.0, 4.0, 5.0));
#734 = CARTESIAN_POINT('', (8.0, 4.0, 6.0));
#735 = CARTESIAN_POINT('', (6.999999999999999, 5.0, 6.0));
#736 = CARTESIAN_POINT('', (7.0, 5.0, 4.0));
#737 = CARTESIAN_POINT('', (8.0, 5.0, 4.0));
#738 = CARTESIAN_POINT('', (8.0, 5.0, 5.0));
#739 = CARTESIAN_POINT('', (8.0, 5.0, 6.0));
#740 = CARTESIAN_POINT('', (7.0, 5.0, 6.0));
#741 = DEFINITIONAL_REPRESENTATION('', (#743), #742);
#742 = (
    GEOMETRIC_REPRESENTATION_CONTEXT(2)
    PARAMETRIC_REPRESENTATION_CONTEXT()
    REPRESENTATION_CONTEXT('2D SPACE', '')
);
#743 = (
    BOUNDED_CURVE()
    B_SPLINE_CURVE(1, (#744, #745), .UNSPECIFIED., .U., .U.)
    B_SPLINE_CURVE_WITH_KNOTS((2, 2), (0.0, 1.0), .UNSPECIFIED.)
    CURVE()
    GEOMETRIC_REPRESENTATION_ITEM()
    RATIONAL_B_SPLINE_CURVE((1.0, 1.0))
    REPRESENTATION_ITEM('')
);
#744 = CARTESIAN_POINT('', (6.283185307179586, 1.5707963267948966));
#745 = CARTESIAN_POINT('', (0.0, 1.5707963267948966));
#746 = CARTESIAN_POINT('', (7.0E0, 5.0E0, 4.0E0));
#747 = CARTESIAN_POINT('', (7.0E0, 5.0E0, 6.0E0));
ENDSEC;
END-ISO-10303-21;
