ISO-10303-21;
HEADER;
FILE_DESCRIPTION(('Shape Data from monstertruck'), '2;1');
FILE_NAME('', '2026-10-10 08:42:00.550936834', (''), (''), 'monstertruck', 'Viboceros', '');
FILE_SCHEMA(('AUTOMOTIVE_DESIGN'));
ENDSEC;
DATA;
#1 = APPLICATION_PROTOCOL_DEFINITION('international standard', 'automotive_design', 2000, #2);
#2 = APPLICATION_CONTEXT('core data for automotive mechanical design processes');
#3 = SHAPE_DEFINITION_REPRESENTATION(#4, #10);
#4 = PRODUCT_DEFINITION_SHAPE('','', #5);
#5 = PRODUCT_DEFINITION('design','', #6, #9);
#6 = PRODUCT_DEFINITION_FORMATION('','', #7);
#7 = PRODUCT('','','', (#8));
#8 = PRODUCT_CONTEXT('', #2, 'mechanical');
#9 = PRODUCT_DEFINITION_CONTEXT('part definition', #2, 'design');
#10 = ADVANCED_BREP_SHAPE_REPRESENTATION('', (#16), #11);
#11 = (
    GEOMETRIC_REPRESENTATION_CONTEXT(3)
    GLOBAL_UNCERTAINTY_ASSIGNED_CONTEXT((#15))
    GLOBAL_UNIT_ASSIGNED_CONTEXT((#12, #13, #14))
    REPRESENTATION_CONTEXT('Context #1', '3D Context with UNIT and UNCERTAINTY')
);
#12 = ( LENGTH_UNIT() NAMED_UNIT(*) SI_UNIT(.MILLI.,.METRE.) );
#13 = ( NAMED_UNIT(*) PLANE_ANGLE_UNIT() SI_UNIT($,.RADIAN.) );
#14 = ( NAMED_UNIT(*) SI_UNIT($,.STERADIAN.) SOLID_ANGLE_UNIT() );
#15 = UNCERTAINTY_MEASURE_WITH_UNIT(LENGTH_MEASURE(1.0E-6), #12, 'distance_accuracy_value','confusion accuracy');
#16 = BREP_WITH_VOIDS('', #17, (#301));
#17 = CLOSED_SHELL('', (#18));
#18 = ADVANCED_FACE('', (#19), #30, .T.);
#19 = FACE_BOUND('', #20, .T.);
#20 = EDGE_LOOP('', (#21, #22, #23, #24));
#21 = ORIENTED_EDGE('', *, *, #25, .T.);
#22 = ORIENTED_EDGE('', *, *, #26, .T.);
#23 = ORIENTED_EDGE('', *, *, #27, .T.);
#24 = ORIENTED_EDGE('', *, *, #26, .F.);
#25 = EDGE_CURVE('', #28, #28, #76, .T.);
#26 = EDGE_CURVE('', #28, #29, #132, .T.);
#27 = EDGE_CURVE('', #29, #29, #243, .T.);
#28 = VERTEX_POINT('', #299);
#29 = VERTEX_POINT('', #300);
#30 = (
    BOUNDED_SURFACE()
    B_SPLINE_SURFACE(2, 2, ((#31, #32, #33, #34, #35), (#36, #37, #38, #39, #40), (#41, #42, #43, #44, #45), (#46, #47, #48, #49, #50), (#51, #52, #53, #54, #55), (#56, #57, #58, #59, #60), (#61, #62, #63, #64, #65), (#66, #67, #68, #69, #70), (#71, #72, #73, #74, #75)), .UNSPECIFIED., .U., .U., .U.)
    B_SPLINE_SURFACE_WITH_KNOTS((3, 2, 2, 2, 3), (3, 2, 3), (0.0, 1.5707963267948966, 3.141592653589793, 4.71238898038469, 6.283185307179586), (-1.5707963267948966, 0.0, 1.5707963267948966), .UNSPECIFIED.)
    GEOMETRIC_REPRESENTATION_ITEM()
    RATIONAL_B_SPLINE_SURFACE(((1.0, 0.7071067811865476, 1.0, 0.7071067811865476, 1.0), (0.7071067811865476, 0.5000000000000001, 0.7071067811865476, 0.5000000000000001, 0.7071067811865476), (1.0, 0.7071067811865476, 1.0, 0.7071067811865476, 1.0), (0.7071067811865476, 0.5000000000000001, 0.7071067811865476, 0.5000000000000001, 0.7071067811865476), (1.0, 0.7071067811865476, 1.0, 0.7071067811865476, 1.0), (0.7071067811865476, 0.5000000000000001, 0.7071067811865476, 0.5000000000000001, 0.7071067811865476), (1.0, 0.7071067811865476, 1.0, 0.7071067811865476, 1.0), (0.7071067811865476, 0.5000000000000001, 0.7071067811865476, 0.5000000000000001, 0.7071067811865476), (1.0, 0.7071067811865476, 1.0, 0.7071067811865476, 1.0)))
    REPRESENTATION_ITEM('')
    SURFACE()
);
#31 = CARTESIAN_POINT('', (0.0, 0.0, -4.0));
#32 = CARTESIAN_POINT('', (4.0, 0.0, -4.0));
#33 = CARTESIAN_POINT('', (4.0, 0.0, 0.0));
#34 = CARTESIAN_POINT('', (4.0, 0.0, 4.0));
#35 = CARTESIAN_POINT('', (0.0, 0.0, 4.0));
#36 = CARTESIAN_POINT('', (0.0, 0.0, -4.0));
#37 = CARTESIAN_POINT('', (4.0, 4.0, -4.0));
#38 = CARTESIAN_POINT('', (4.0, 4.0, 0.0));
#39 = CARTESIAN_POINT('', (4.0, 4.0, 4.0));
#40 = CARTESIAN_POINT('', (0.0, 0.0, 4.0));
#41 = CARTESIAN_POINT('', (0.0, 0.0, -4.0));
#42 = CARTESIAN_POINT('', (0.0, 4.0, -4.0));
#43 = CARTESIAN_POINT('', (0.0, 4.0, 0.0));
#44 = CARTESIAN_POINT('', (0.0, 4.0, 4.0));
#45 = CARTESIAN_POINT('', (0.0, 0.0, 4.0));
#46 = CARTESIAN_POINT('', (0.0, 0.0, -4.0));
#47 = CARTESIAN_POINT('', (-4.0, 4.0, -4.0));
#48 = CARTESIAN_POINT('', (-4.0, 4.0, 0.0));
#49 = CARTESIAN_POINT('', (-4.0, 4.0, 4.0));
#50 = CARTESIAN_POINT('', (0.0, 0.0, 4.0));
#51 = CARTESIAN_POINT('', (0.0, 0.0, -4.0));
#52 = CARTESIAN_POINT('', (-4.0, 0.0, -4.0));
#53 = CARTESIAN_POINT('', (-4.0, 0.0, 0.0));
#54 = CARTESIAN_POINT('', (-4.0, 0.0, 4.0));
#55 = CARTESIAN_POINT('', (0.0, 0.0, 4.0));
#56 = CARTESIAN_POINT('', (0.0, 0.0, -4.0));
#57 = CARTESIAN_POINT('', (-4.0, -4.0, -4.0));
#58 = CARTESIAN_POINT('', (-4.0, -4.0, 0.0));
#59 = CARTESIAN_POINT('', (-4.0, -4.0, 4.0));
#60 = CARTESIAN_POINT('', (0.0, 0.0, 4.0));
#61 = CARTESIAN_POINT('', (0.0, 0.0, -4.0));
#62 = CARTESIAN_POINT('', (0.0, -4.0, -4.0));
#63 = CARTESIAN_POINT('', (0.0, -4.0, 0.0));
#64 = CARTESIAN_POINT('', (0.0, -4.0, 4.0));
#65 = CARTESIAN_POINT('', (0.0, 0.0, 4.0));
#66 = CARTESIAN_POINT('', (0.0, 0.0, -4.0));
#67 = CARTESIAN_POINT('', (4.0, -4.0, -4.0));
#68 = CARTESIAN_POINT('', (4.0, -4.0, 0.0));
#69 = CARTESIAN_POINT('', (4.0, -4.0, 4.0));
#70 = CARTESIAN_POINT('', (0.0, 0.0, 4.0));
#71 = CARTESIAN_POINT('', (0.0, 0.0, -4.0));
#72 = CARTESIAN_POINT('', (4.0, 0.0, -4.0));
#73 = CARTESIAN_POINT('', (4.0, 0.0, 0.0));
#74 = CARTESIAN_POINT('', (4.0, 0.0, 4.0));
#75 = CARTESIAN_POINT('', (0.0, 0.0, 4.0));
#76 = SURFACE_CURVE('', #77, (#80), .CURVE_3D.);
#77 = (
    BOUNDED_CURVE()
    B_SPLINE_CURVE(1, (#78, #79), .UNSPECIFIED., .U., .U.)
    B_SPLINE_CURVE_WITH_KNOTS((2, 2), (0.0, 1.0), .UNSPECIFIED.)
    CURVE()
    GEOMETRIC_REPRESENTATION_ITEM()
    RATIONAL_B_SPLINE_CURVE((1.0, 1.0))
    REPRESENTATION_ITEM('')
);
#78 = CARTESIAN_POINT('', (0.0, 0.0, -4.0));
#79 = CARTESIAN_POINT('', (0.0, 0.0, -4.0));
#80 = PCURVE('', #81, #127);
#81 = (
    BOUNDED_SURFACE()
    B_SPLINE_SURFACE(2, 2, ((#82, #83, #84, #85, #86), (#87, #88, #89, #90, #91), (#92, #93, #94, #95, #96), (#97, #98, #99, #100, #101), (#102, #103, #104, #105, #106), (#107, #108, #109, #110, #111), (#112, #113, #114, #115, #116), (#117, #118, #119, #120, #121), (#122, #123, #124, #125, #126)), .UNSPECIFIED., .U., .U., .U.)
    B_SPLINE_SURFACE_WITH_KNOTS((3, 2, 2, 2, 3), (3, 2, 3), (0.0, 1.5707963267948966, 3.141592653589793, 4.71238898038469, 6.283185307179586), (-1.5707963267948966, 0.0, 1.5707963267948966), .UNSPECIFIED.)
    GEOMETRIC_REPRESENTATION_ITEM()
    RATIONAL_B_SPLINE_SURFACE(((1.0, 0.7071067811865476, 1.0, 0.7071067811865476, 1.0), (0.7071067811865476, 0.5000000000000001, 0.7071067811865476, 0.5000000000000001, 0.7071067811865476), (1.0, 0.7071067811865476, 1.0, 0.7071067811865476, 1.0), (0.7071067811865476, 0.5000000000000001, 0.7071067811865476, 0.5000000000000001, 0.7071067811865476), (1.0, 0.7071067811865476, 1.0, 0.7071067811865476, 1.0), (0.7071067811865476, 0.5000000000000001, 0.7071067811865476, 0.5000000000000001, 0.7071067811865476), (1.0, 0.7071067811865476, 1.0, 0.7071067811865476, 1.0), (0.7071067811865476, 0.5000000000000001, 0.7071067811865476, 0.5000000000000001, 0.7071067811865476), (1.0, 0.7071067811865476, 1.0, 0.7071067811865476, 1.0)))
    REPRESENTATION_ITEM('')
    SURFACE()
);
#82 = CARTESIAN_POINT('', (0.0, 0.0, -4.0));
#83 = CARTESIAN_POINT('', (4.0, 0.0, -4.0));
#84 = CARTESIAN_POINT('', (4.0, 0.0, 0.0));
#85 = CARTESIAN_POINT('', (4.0, 0.0, 4.0));
#86 = CARTESIAN_POINT('', (0.0, 0.0, 4.0));
#87 = CARTESIAN_POINT('', (0.0, 0.0, -4.0));
#88 = CARTESIAN_POINT('', (4.0, 4.0, -4.0));
#89 = CARTESIAN_POINT('', (4.0, 4.0, 0.0));
#90 = CARTESIAN_POINT('', (4.0, 4.0, 4.0));
#91 = CARTESIAN_POINT('', (0.0, 0.0, 4.0));
#92 = CARTESIAN_POINT('', (0.0, 0.0, -4.0));
#93 = CARTESIAN_POINT('', (0.0, 4.0, -4.0));
#94 = CARTESIAN_POINT('', (0.0, 4.0, 0.0));
#95 = CARTESIAN_POINT('', (0.0, 4.0, 4.0));
#96 = CARTESIAN_POINT('', (0.0, 0.0, 4.0));
#97 = CARTESIAN_POINT('', (0.0, 0.0, -4.0));
#98 = CARTESIAN_POINT('', (-4.0, 4.0, -4.0));
#99 = CARTESIAN_POINT('', (-4.0, 4.0, 0.0));
#100 = CARTESIAN_POINT('', (-4.0, 4.0, 4.0));
#101 = CARTESIAN_POINT('', (0.0, 0.0, 4.0));
#102 = CARTESIAN_POINT('', (0.0, 0.0, -4.0));
#103 = CARTESIAN_POINT('', (-4.0, 0.0, -4.0));
#104 = CARTESIAN_POINT('', (-4.0, 0.0, 0.0));
#105 = CARTESIAN_POINT('', (-4.0, 0.0, 4.0));
#106 = CARTESIAN_POINT('', (0.0, 0.0, 4.0));
#107 = CARTESIAN_POINT('', (0.0, 0.0, -4.0));
#108 = CARTESIAN_POINT('', (-4.0, -4.0, -4.0));
#109 = CARTESIAN_POINT('', (-4.0, -4.0, 0.0));
#110 = CARTESIAN_POINT('', (-4.0, -4.0, 4.0));
#111 = CARTESIAN_POINT('', (0.0, 0.0, 4.0));
#112 = CARTESIAN_POINT('', (0.0, 0.0, -4.0));
#113 = CARTESIAN_POINT('', (0.0, -4.0, -4.0));
#114 = CARTESIAN_POINT('', (0.0, -4.0, 0.0));
#115 = CARTESIAN_POINT('', (0.0, -4.0, 4.0));
#116 = CARTESIAN_POINT('', (0.0, 0.0, 4.0));
#117 = CARTESIAN_POINT('', (0.0, 0.0, -4.0));
#118 = CARTESIAN_POINT('', (4.0, -4.0, -4.0));
#119 = CARTESIAN_POINT('', (4.0, -4.0, 0.0));
#120 = CARTESIAN_POINT('', (4.0, -4.0, 4.0));
#121 = CARTESIAN_POINT('', (0.0, 0.0, 4.0));
#122 = CARTESIAN_POINT('', (0.0, 0.0, -4.0));
#123 = CARTESIAN_POINT('', (4.0, 0.0, -4.0));
#124 = CARTESIAN_POINT('', (4.0, 0.0, 0.0));
#125 = CARTESIAN_POINT('', (4.0, 0.0, 4.0));
#126 = CARTESIAN_POINT('', (0.0, 0.0, 4.0));
#127 = DEFINITIONAL_REPRESENTATION('', (#129), #128);
#128 = (
    GEOMETRIC_REPRESENTATION_CONTEXT(2)
    PARAMETRIC_REPRESENTATION_CONTEXT()
    REPRESENTATION_CONTEXT('2D SPACE', '')
);
#129 = (
    BOUNDED_CURVE()
    B_SPLINE_CURVE(1, (#130, #131), .UNSPECIFIED., .U., .U.)
    B_SPLINE_CURVE_WITH_KNOTS((2, 2), (0.0, 1.0), .UNSPECIFIED.)
    CURVE()
    GEOMETRIC_REPRESENTATION_ITEM()
    RATIONAL_B_SPLINE_CURVE((1.0, 1.0))
    REPRESENTATION_ITEM('')
);
#130 = CARTESIAN_POINT('', (0.0, -1.5707963267948966));
#131 = CARTESIAN_POINT('', (6.283185307179586, -1.5707963267948966));
#132 = SEAM_CURVE('', #133, (#139, #191), .CURVE_3D.);
#133 = (
    BOUNDED_CURVE()
    B_SPLINE_CURVE(2, (#134, #135, #136, #137, #138), .UNSPECIFIED., .U., .U.)
    B_SPLINE_CURVE_WITH_KNOTS((3, 2, 3), (-1.5707963267948966, 0.0, 1.5707963267948966), .UNSPECIFIED.)
    CURVE()
    GEOMETRIC_REPRESENTATION_ITEM()
    RATIONAL_B_SPLINE_CURVE((1.0, 0.7071067811865476, 1.0, 0.7071067811865476, 1.0))
    REPRESENTATION_ITEM('')
);
#134 = CARTESIAN_POINT('', (0.0, 0.0, -4.0));
#135 = CARTESIAN_POINT('', (4.0, 0.0, -4.0));
#136 = CARTESIAN_POINT('', (4.0, 0.0, 0.0));
#137 = CARTESIAN_POINT('', (4.0, 0.0, 4.0));
#138 = CARTESIAN_POINT('', (0.0, 0.0, 4.0));
#139 = PCURVE('', #140, #186);
#140 = (
    BOUNDED_SURFACE()
    B_SPLINE_SURFACE(2, 2, ((#141, #142, #143, #144, #145), (#146, #147, #148, #149, #150), (#151, #152, #153, #154, #155), (#156, #157, #158, #159, #160), (#161, #162, #163, #164, #165), (#166, #167, #168, #169, #170), (#171, #172, #173, #174, #175), (#176, #177, #178, #179, #180), (#181, #182, #183, #184, #185)), .UNSPECIFIED., .U., .U., .U.)
    B_SPLINE_SURFACE_WITH_KNOTS((3, 2, 2, 2, 3), (3, 2, 3), (0.0, 1.5707963267948966, 3.141592653589793, 4.71238898038469, 6.283185307179586), (-1.5707963267948966, 0.0, 1.5707963267948966), .UNSPECIFIED.)
    GEOMETRIC_REPRESENTATION_ITEM()
    RATIONAL_B_SPLINE_SURFACE(((1.0, 0.7071067811865476, 1.0, 0.7071067811865476, 1.0), (0.7071067811865476, 0.5000000000000001, 0.7071067811865476, 0.5000000000000001, 0.7071067811865476), (1.0, 0.7071067811865476, 1.0, 0.7071067811865476, 1.0), (0.7071067811865476, 0.5000000000000001, 0.7071067811865476, 0.5000000000000001, 0.7071067811865476), (1.0, 0.7071067811865476, 1.0, 0.7071067811865476, 1.0), (0.7071067811865476, 0.5000000000000001, 0.7071067811865476, 0.5000000000000001, 0.7071067811865476), (1.0, 0.7071067811865476, 1.0, 0.7071067811865476, 1.0), (0.7071067811865476, 0.5000000000000001, 0.7071067811865476, 0.5000000000000001, 0.7071067811865476), (1.0, 0.7071067811865476, 1.0, 0.7071067811865476, 1.0)))
    REPRESENTATION_ITEM('')
    SURFACE()
);
#141 = CARTESIAN_POINT('', (0.0, 0.0, -4.0));
#142 = CARTESIAN_POINT('', (4.0, 0.0, -4.0));
#143 = CARTESIAN_POINT('', (4.0, 0.0, 0.0));
#144 = CARTESIAN_POINT('', (4.0, 0.0, 4.0));
#145 = CARTESIAN_POINT('', (0.0, 0.0, 4.0));
#146 = CARTESIAN_POINT('', (0.0, 0.0, -4.0));
#147 = CARTESIAN_POINT('', (4.0, 4.0, -4.0));
#148 = CARTESIAN_POINT('', (4.0, 4.0, 0.0));
#149 = CARTESIAN_POINT('', (4.0, 4.0, 4.0));
#150 = CARTESIAN_POINT('', (0.0, 0.0, 4.0));
#151 = CARTESIAN_POINT('', (0.0, 0.0, -4.0));
#152 = CARTESIAN_POINT('', (0.0, 4.0, -4.0));
#153 = CARTESIAN_POINT('', (0.0, 4.0, 0.0));
#154 = CARTESIAN_POINT('', (0.0, 4.0, 4.0));
#155 = CARTESIAN_POINT('', (0.0, 0.0, 4.0));
#156 = CARTESIAN_POINT('', (0.0, 0.0, -4.0));
#157 = CARTESIAN_POINT('', (-4.0, 4.0, -4.0));
#158 = CARTESIAN_POINT('', (-4.0, 4.0, 0.0));
#159 = CARTESIAN_POINT('', (-4.0, 4.0, 4.0));
#160 = CARTESIAN_POINT('', (0.0, 0.0, 4.0));
#161 = CARTESIAN_POINT('', (0.0, 0.0, -4.0));
#162 = CARTESIAN_POINT('', (-4.0, 0.0, -4.0));
#163 = CARTESIAN_POINT('', (-4.0, 0.0, 0.0));
#164 = CARTESIAN_POINT('', (-4.0, 0.0, 4.0));
#165 = CARTESIAN_POINT('', (0.0, 0.0, 4.0));
#166 = CARTESIAN_POINT('', (0.0, 0.0, -4.0));
#167 = CARTESIAN_POINT('', (-4.0, -4.0, -4.0));
#168 = CARTESIAN_POINT('', (-4.0, -4.0, 0.0));
#169 = CARTESIAN_POINT('', (-4.0, -4.0, 4.0));
#170 = CARTESIAN_POINT('', (0.0, 0.0, 4.0));
#171 = CARTESIAN_POINT('', (0.0, 0.0, -4.0));
#172 = CARTESIAN_POINT('', (0.0, -4.0, -4.0));
#173 = CARTESIAN_POINT('', (0.0, -4.0, 0.0));
#174 = CARTESIAN_POINT('', (0.0, -4.0, 4.0));
#175 = CARTESIAN_POINT('', (0.0, 0.0, 4.0));
#176 = CARTESIAN_POINT('', (0.0, 0.0, -4.0));
#177 = CARTESIAN_POINT('', (4.0, -4.0, -4.0));
#178 = CARTESIAN_POINT('', (4.0, -4.0, 0.0));
#179 = CARTESIAN_POINT('', (4.0, -4.0, 4.0));
#180 = CARTESIAN_POINT('', (0.0, 0.0, 4.0));
#181 = CARTESIAN_POINT('', (0.0, 0.0, -4.0));
#182 = CARTESIAN_POINT('', (4.0, 0.0, -4.0));
#183 = CARTESIAN_POINT('', (4.0, 0.0, 0.0));
#184 = CARTESIAN_POINT('', (4.0, 0.0, 4.0));
#185 = CARTESIAN_POINT('', (0.0, 0.0, 4.0));
#186 = DEFINITIONAL_REPRESENTATION('', (#188), #187);
#187 = (
    GEOMETRIC_REPRESENTATION_CONTEXT(2)
    PARAMETRIC_REPRESENTATION_CONTEXT()
    REPRESENTATION_CONTEXT('2D SPACE', '')
);
#188 = (
    BOUNDED_CURVE()
    B_SPLINE_CURVE(1, (#189, #190), .UNSPECIFIED., .U., .U.)
    B_SPLINE_CURVE_WITH_KNOTS((2, 2), (0.0, 1.0), .UNSPECIFIED.)
    CURVE()
    GEOMETRIC_REPRESENTATION_ITEM()
    RATIONAL_B_SPLINE_CURVE((1.0, 1.0))
    REPRESENTATION_ITEM('')
);
#189 = CARTESIAN_POINT('', (6.283185307179586, -1.5707963267948966));
#190 = CARTESIAN_POINT('', (6.283185307179586, 1.5707963267948966));
#191 = PCURVE('', #192, #238);
#192 = (
    BOUNDED_SURFACE()
    B_SPLINE_SURFACE(2, 2, ((#193, #194, #195, #196, #197), (#198, #199, #200, #201, #202), (#203, #204, #205, #206, #207), (#208, #209, #210, #211, #212), (#213, #214, #215, #216, #217), (#218, #219, #220, #221, #222), (#223, #224, #225, #226, #227), (#228, #229, #230, #231, #232), (#233, #234, #235, #236, #237)), .UNSPECIFIED., .U., .U., .U.)
    B_SPLINE_SURFACE_WITH_KNOTS((3, 2, 2, 2, 3), (3, 2, 3), (0.0, 1.5707963267948966, 3.141592653589793, 4.71238898038469, 6.283185307179586), (-1.5707963267948966, 0.0, 1.5707963267948966), .UNSPECIFIED.)
    GEOMETRIC_REPRESENTATION_ITEM()
    RATIONAL_B_SPLINE_SURFACE(((1.0, 0.7071067811865476, 1.0, 0.7071067811865476, 1.0), (0.7071067811865476, 0.5000000000000001, 0.7071067811865476, 0.5000000000000001, 0.7071067811865476), (1.0, 0.7071067811865476, 1.0, 0.7071067811865476, 1.0), (0.7071067811865476, 0.5000000000000001, 0.7071067811865476, 0.5000000000000001, 0.7071067811865476), (1.0, 0.7071067811865476, 1.0, 0.7071067811865476, 1.0), (0.7071067811865476, 0.5000000000000001, 0.7071067811865476, 0.5000000000000001, 0.7071067811865476), (1.0, 0.7071067811865476, 1.0, 0.7071067811865476, 1.0), (0.7071067811865476, 0.5000000000000001, 0.7071067811865476, 0.5000000000000001, 0.7071067811865476), (1.0, 0.7071067811865476, 1.0, 0.7071067811865476, 1.0)))
    REPRESENTATION_ITEM('')
    SURFACE()
);
#193 = CARTESIAN_POINT('', (0.0, 0.0, -4.0));
#194 = CARTESIAN_POINT('', (4.0, 0.0, -4.0));
#195 = CARTESIAN_POINT('', (4.0, 0.0, 0.0));
#196 = CARTESIAN_POINT('', (4.0, 0.0, 4.0));
#197 = CARTESIAN_POINT('', (0.0, 0.0, 4.0));
#198 = CARTESIAN_POINT('', (0.0, 0.0, -4.0));
#199 = CARTESIAN_POINT('', (4.0, 4.0, -4.0));
#200 = CARTESIAN_POINT('', (4.0, 4.0, 0.0));
#201 = CARTESIAN_POINT('', (4.0, 4.0, 4.0));
#202 = CARTESIAN_POINT('', (0.0, 0.0, 4.0));
#203 = CARTESIAN_POINT('', (0.0, 0.0, -4.0));
#204 = CARTESIAN_POINT('', (0.0, 4.0, -4.0));
#205 = CARTESIAN_POINT('', (0.0, 4.0, 0.0));
#206 = CARTESIAN_POINT('', (0.0, 4.0, 4.0));
#207 = CARTESIAN_POINT('', (0.0, 0.0, 4.0));
#208 = CARTESIAN_POINT('', (0.0, 0.0, -4.0));
#209 = CARTESIAN_POINT('', (-4.0, 4.0, -4.0));
#210 = CARTESIAN_POINT('', (-4.0, 4.0, 0.0));
#211 = CARTESIAN_POINT('', (-4.0, 4.0, 4.0));
#212 = CARTESIAN_POINT('', (0.0, 0.0, 4.0));
#213 = CARTESIAN_POINT('', (0.0, 0.0, -4.0));
#214 = CARTESIAN_POINT('', (-4.0, 0.0, -4.0));
#215 = CARTESIAN_POINT('', (-4.0, 0.0, 0.0));
#216 = CARTESIAN_POINT('', (-4.0, 0.0, 4.0));
#217 = CARTESIAN_POINT('', (0.0, 0.0, 4.0));
#218 = CARTESIAN_POINT('', (0.0, 0.0, -4.0));
#219 = CARTESIAN_POINT('', (-4.0, -4.0, -4.0));
#220 = CARTESIAN_POINT('', (-4.0, -4.0, 0.0));
#221 = CARTESIAN_POINT('', (-4.0, -4.0, 4.0));
#222 = CARTESIAN_POINT('', (0.0, 0.0, 4.0));
#223 = CARTESIAN_POINT('', (0.0, 0.0, -4.0));
#224 = CARTESIAN_POINT('', (0.0, -4.0, -4.0));
#225 = CARTESIAN_POINT('', (0.0, -4.0, 0.0));
#226 = CARTESIAN_POINT('', (0.0, -4.0, 4.0));
#227 = CARTESIAN_POINT('', (0.0, 0.0, 4.0));
#228 = CARTESIAN_POINT('', (0.0, 0.0, -4.0));
#229 = CARTESIAN_POINT('', (4.0, -4.0, -4.0));
#230 = CARTESIAN_POINT('', (4.0, -4.0, 0.0));
#231 = CARTESIAN_POINT('', (4.0, -4.0, 4.0));
#232 = CARTESIAN_POINT('', (0.0, 0.0, 4.0));
#233 = CARTESIAN_POINT('', (0.0, 0.0, -4.0));
#234 = CARTESIAN_POINT('', (4.0, 0.0, -4.0));
#235 = CARTESIAN_POINT('', (4.0, 0.0, 0.0));
#236 = CARTESIAN_POINT('', (4.0, 0.0, 4.0));
#237 = CARTESIAN_POINT('', (0.0, 0.0, 4.0));
#238 = DEFINITIONAL_REPRESENTATION('', (#240), #239);
#239 = (
    GEOMETRIC_REPRESENTATION_CONTEXT(2)
    PARAMETRIC_REPRESENTATION_CONTEXT()
    REPRESENTATION_CONTEXT('2D SPACE', '')
);
#240 = (
    BOUNDED_CURVE()
    B_SPLINE_CURVE(1, (#241, #242), .UNSPECIFIED., .U., .U.)
    B_SPLINE_CURVE_WITH_KNOTS((2, 2), (-1.0, -0.0), .UNSPECIFIED.)
    CURVE()
    GEOMETRIC_REPRESENTATION_ITEM()
    RATIONAL_B_SPLINE_CURVE((1.0, 1.0))
    REPRESENTATION_ITEM('')
);
#241 = CARTESIAN_POINT('', (0.0, -1.5707963267948966));
#242 = CARTESIAN_POINT('', (0.0, 1.5707963267948966));
#243 = SURFACE_CURVE('', #244, (#247), .CURVE_3D.);
#244 = (
    BOUNDED_CURVE()
    B_SPLINE_CURVE(1, (#245, #246), .UNSPECIFIED., .U., .U.)
    B_SPLINE_CURVE_WITH_KNOTS((2, 2), (0.0, 1.0), .UNSPECIFIED.)
    CURVE()
    GEOMETRIC_REPRESENTATION_ITEM()
    RATIONAL_B_SPLINE_CURVE((1.0, 1.0))
    REPRESENTATION_ITEM('')
);
#245 = CARTESIAN_POINT('', (0.0, 0.0, 4.0));
#246 = CARTESIAN_POINT('', (0.0, 0.0, 4.0));
#247 = PCURVE('', #248, #294);
#248 = (
    BOUNDED_SURFACE()
    B_SPLINE_SURFACE(2, 2, ((#249, #250, #251, #252, #253), (#254, #255, #256, #257, #258), (#259, #260, #261, #262, #263), (#264, #265, #266, #267, #268), (#269, #270, #271, #272, #273), (#274, #275, #276, #277, #278), (#279, #280, #281, #282, #283), (#284, #285, #286, #287, #288), (#289, #290, #291, #292, #293)), .UNSPECIFIED., .U., .U., .U.)
    B_SPLINE_SURFACE_WITH_KNOTS((3, 2, 2, 2, 3), (3, 2, 3), (0.0, 1.5707963267948966, 3.141592653589793, 4.71238898038469, 6.283185307179586), (-1.5707963267948966, 0.0, 1.5707963267948966), .UNSPECIFIED.)
    GEOMETRIC_REPRESENTATION_ITEM()
    RATIONAL_B_SPLINE_SURFACE(((1.0, 0.7071067811865476, 1.0, 0.7071067811865476, 1.0), (0.7071067811865476, 0.5000000000000001, 0.7071067811865476, 0.5000000000000001, 0.7071067811865476), (1.0, 0.7071067811865476, 1.0, 0.7071067811865476, 1.0), (0.7071067811865476, 0.5000000000000001, 0.7071067811865476, 0.5000000000000001, 0.7071067811865476), (1.0, 0.7071067811865476, 1.0, 0.7071067811865476, 1.0), (0.7071067811865476, 0.5000000000000001, 0.7071067811865476, 0.5000000000000001, 0.7071067811865476), (1.0, 0.7071067811865476, 1.0, 0.7071067811865476, 1.0), (0.7071067811865476, 0.5000000000000001, 0.7071067811865476, 0.5000000000000001, 0.7071067811865476), (1.0, 0.7071067811865476, 1.0, 0.7071067811865476, 1.0)))
    REPRESENTATION_ITEM('')
    SURFACE()
);
#249 = CARTESIAN_POINT('', (0.0, 0.0, -4.0));
#250 = CARTESIAN_POINT('', (4.0, 0.0, -4.0));
#251 = CARTESIAN_POINT('', (4.0, 0.0, 0.0));
#252 = CARTESIAN_POINT('', (4.0, 0.0, 4.0));
#253 = CARTESIAN_POINT('', (0.0, 0.0, 4.0));
#254 = CARTESIAN_POINT('', (0.0, 0.0, -4.0));
#255 = CARTESIAN_POINT('', (4.0, 4.0, -4.0));
#256 = CARTESIAN_POINT('', (4.0, 4.0, 0.0));
#257 = CARTESIAN_POINT('', (4.0, 4.0, 4.0));
#258 = CARTESIAN_POINT('', (0.0, 0.0, 4.0));
#259 = CARTESIAN_POINT('', (0.0, 0.0, -4.0));
#260 = CARTESIAN_POINT('', (0.0, 4.0, -4.0));
#261 = CARTESIAN_POINT('', (0.0, 4.0, 0.0));
#262 = CARTESIAN_POINT('', (0.0, 4.0, 4.0));
#263 = CARTESIAN_POINT('', (0.0, 0.0, 4.0));
#264 = CARTESIAN_POINT('', (0.0, 0.0, -4.0));
#265 = CARTESIAN_POINT('', (-4.0, 4.0, -4.0));
#266 = CARTESIAN_POINT('', (-4.0, 4.0, 0.0));
#267 = CARTESIAN_POINT('', (-4.0, 4.0, 4.0));
#268 = CARTESIAN_POINT('', (0.0, 0.0, 4.0));
#269 = CARTESIAN_POINT('', (0.0, 0.0, -4.0));
#270 = CARTESIAN_POINT('', (-4.0, 0.0, -4.0));
#271 = CARTESIAN_POINT('', (-4.0, 0.0, 0.0));
#272 = CARTESIAN_POINT('', (-4.0, 0.0, 4.0));
#273 = CARTESIAN_POINT('', (0.0, 0.0, 4.0));
#274 = CARTESIAN_POINT('', (0.0, 0.0, -4.0));
#275 = CARTESIAN_POINT('', (-4.0, -4.0, -4.0));
#276 = CARTESIAN_POINT('', (-4.0, -4.0, 0.0));
#277 = CARTESIAN_POINT('', (-4.0, -4.0, 4.0));
#278 = CARTESIAN_POINT('', (0.0, 0.0, 4.0));
#279 = CARTESIAN_POINT('', (0.0, 0.0, -4.0));
#280 = CARTESIAN_POINT('', (0.0, -4.0, -4.0));
#281 = CARTESIAN_POINT('', (0.0, -4.0, 0.0));
#282 = CARTESIAN_POINT('', (0.0, -4.0, 4.0));
#283 = CARTESIAN_POINT('', (0.0, 0.0, 4.0));
#284 = CARTESIAN_POINT('', (0.0, 0.0, -4.0));
#285 = CARTESIAN_POINT('', (4.0, -4.0, -4.0));
#286 = CARTESIAN_POINT('', (4.0, -4.0, 0.0));
#287 = CARTESIAN_POINT('', (4.0, -4.0, 4.0));
#288 = CARTESIAN_POINT('', (0.0, 0.0, 4.0));
#289 = CARTESIAN_POINT('', (0.0, 0.0, -4.0));
#290 = CARTESIAN_POINT('', (4.0, 0.0, -4.0));
#291 = CARTESIAN_POINT('', (4.0, 0.0, 0.0));
#292 = CARTESIAN_POINT('', (4.0, 0.0, 4.0));
#293 = CARTESIAN_POINT('', (0.0, 0.0, 4.0));
#294 = DEFINITIONAL_REPRESENTATION('', (#296), #295);
#295 = (
    GEOMETRIC_REPRESENTATION_CONTEXT(2)
    PARAMETRIC_REPRESENTATION_CONTEXT()
    REPRESENTATION_CONTEXT('2D SPACE', '')
);
#296 = (
    BOUNDED_CURVE()
    B_SPLINE_CURVE(1, (#297, #298), .UNSPECIFIED., .U., .U.)
    B_SPLINE_CURVE_WITH_KNOTS((2, 2), (0.0, 1.0), .UNSPECIFIED.)
    CURVE()
    GEOMETRIC_REPRESENTATION_ITEM()
    RATIONAL_B_SPLINE_CURVE((1.0, 1.0))
    REPRESENTATION_ITEM('')
);
#297 = CARTESIAN_POINT('', (6.283185307179586, 1.5707963267948966));
#298 = CARTESIAN_POINT('', (0.0, 1.5707963267948966));
#299 = CARTESIAN_POINT('', (0.0E0, 0.0E0, -4.0E0));
#300 = CARTESIAN_POINT('', (0.0E0, 0.0E0, 4.0E0));
#301 = ORIENTED_CLOSED_SHELL('', *, #302, .F.);
#302 = CLOSED_SHELL('', (#303));
#303 = ADVANCED_FACE('', (#304), #315, .T.);
#304 = FACE_BOUND('', #305, .T.);
#305 = EDGE_LOOP('', (#306, #307, #308, #309));
#306 = ORIENTED_EDGE('', *, *, #310, .T.);
#307 = ORIENTED_EDGE('', *, *, #311, .T.);
#308 = ORIENTED_EDGE('', *, *, #312, .T.);
#309 = ORIENTED_EDGE('', *, *, #311, .F.);
#310 = EDGE_CURVE('', #313, #313, #361, .T.);
#311 = EDGE_CURVE('', #313, #314, #417, .T.);
#312 = EDGE_CURVE('', #314, #314, #528, .T.);
#313 = VERTEX_POINT('', #584);
#314 = VERTEX_POINT('', #585);
#315 = (
    BOUNDED_SURFACE()
    B_SPLINE_SURFACE(2, 2, ((#316, #317, #318, #319, #320), (#321, #322, #323, #324, #325), (#326, #327, #328, #329, #330), (#331, #332, #333, #334, #335), (#336, #337, #338, #339, #340), (#341, #342, #343, #344, #345), (#346, #347, #348, #349, #350), (#351, #352, #353, #354, #355), (#356, #357, #358, #359, #360)), .UNSPECIFIED., .U., .U., .U.)
    B_SPLINE_SURFACE_WITH_KNOTS((3, 2, 2, 2, 3), (3, 2, 3), (0.0, 1.5707963267948966, 3.141592653589793, 4.71238898038469, 6.283185307179586), (-1.5707963267948966, 0.0, 1.5707963267948966), .UNSPECIFIED.)
    GEOMETRIC_REPRESENTATION_ITEM()
    RATIONAL_B_SPLINE_SURFACE(((1.0, 0.7071067811865476, 1.0, 0.7071067811865476, 1.0), (0.7071067811865476, 0.5000000000000001, 0.7071067811865476, 0.5000000000000001, 0.7071067811865476), (1.0, 0.7071067811865476, 1.0, 0.7071067811865476, 1.0), (0.7071067811865476, 0.5000000000000001, 0.7071067811865476, 0.5000000000000001, 0.7071067811865476), (1.0, 0.7071067811865476, 1.0, 0.7071067811865476, 1.0), (0.7071067811865476, 0.5000000000000001, 0.7071067811865476, 0.5000000000000001, 0.7071067811865476), (1.0, 0.7071067811865476, 1.0, 0.7071067811865476, 1.0), (0.7071067811865476, 0.5000000000000001, 0.7071067811865476, 0.5000000000000001, 0.7071067811865476), (1.0, 0.7071067811865476, 1.0, 0.7071067811865476, 1.0)))
    REPRESENTATION_ITEM('')
    SURFACE()
);
#316 = CARTESIAN_POINT('', (0.0, 0.0, -2.0));
#317 = CARTESIAN_POINT('', (2.0, 0.0, -2.0));
#318 = CARTESIAN_POINT('', (2.0, 0.0, 0.0));
#319 = CARTESIAN_POINT('', (2.0, 0.0, 2.0));
#320 = CARTESIAN_POINT('', (0.0, 0.0, 2.0));
#321 = CARTESIAN_POINT('', (0.0, 0.0, -2.0));
#322 = CARTESIAN_POINT('', (2.0, 2.0, -2.0));
#323 = CARTESIAN_POINT('', (2.0, 2.0, 0.0));
#324 = CARTESIAN_POINT('', (2.0, 2.0, 2.0));
#325 = CARTESIAN_POINT('', (0.0, 0.0, 2.0));
#326 = CARTESIAN_POINT('', (0.0, 0.0, -2.0));
#327 = CARTESIAN_POINT('', (0.0, 2.0, -2.0));
#328 = CARTESIAN_POINT('', (0.0, 2.0, 0.0));
#329 = CARTESIAN_POINT('', (0.0, 2.0, 2.0));
#330 = CARTESIAN_POINT('', (0.0, 0.0, 2.0));
#331 = CARTESIAN_POINT('', (0.0, 0.0, -2.0));
#332 = CARTESIAN_POINT('', (-2.0, 2.0, -2.0));
#333 = CARTESIAN_POINT('', (-2.0, 2.0, 0.0));
#334 = CARTESIAN_POINT('', (-2.0, 2.0, 2.0));
#335 = CARTESIAN_POINT('', (0.0, 0.0, 2.0));
#336 = CARTESIAN_POINT('', (0.0, 0.0, -2.0));
#337 = CARTESIAN_POINT('', (-2.0, 0.0, -2.0));
#338 = CARTESIAN_POINT('', (-2.0, 0.0, 0.0));
#339 = CARTESIAN_POINT('', (-2.0, 0.0, 2.0));
#340 = CARTESIAN_POINT('', (0.0, 0.0, 2.0));
#341 = CARTESIAN_POINT('', (0.0, 0.0, -2.0));
#342 = CARTESIAN_POINT('', (-2.0, -2.0, -2.0));
#343 = CARTESIAN_POINT('', (-2.0, -2.0, 0.0));
#344 = CARTESIAN_POINT('', (-2.0, -2.0, 2.0));
#345 = CARTESIAN_POINT('', (0.0, 0.0, 2.0));
#346 = CARTESIAN_POINT('', (0.0, 0.0, -2.0));
#347 = CARTESIAN_POINT('', (0.0, -2.0, -2.0));
#348 = CARTESIAN_POINT('', (0.0, -2.0, 0.0));
#349 = CARTESIAN_POINT('', (0.0, -2.0, 2.0));
#350 = CARTESIAN_POINT('', (0.0, 0.0, 2.0));
#351 = CARTESIAN_POINT('', (0.0, 0.0, -2.0));
#352 = CARTESIAN_POINT('', (2.0, -2.0, -2.0));
#353 = CARTESIAN_POINT('', (2.0, -2.0, 0.0));
#354 = CARTESIAN_POINT('', (2.0, -2.0, 2.0));
#355 = CARTESIAN_POINT('', (0.0, 0.0, 2.0));
#356 = CARTESIAN_POINT('', (0.0, 0.0, -2.0));
#357 = CARTESIAN_POINT('', (2.0, 0.0, -2.0));
#358 = CARTESIAN_POINT('', (2.0, 0.0, 0.0));
#359 = CARTESIAN_POINT('', (2.0, 0.0, 2.0));
#360 = CARTESIAN_POINT('', (0.0, 0.0, 2.0));
#361 = SURFACE_CURVE('', #362, (#365), .CURVE_3D.);
#362 = (
    BOUNDED_CURVE()
    B_SPLINE_CURVE(1, (#363, #364), .UNSPECIFIED., .U., .U.)
    B_SPLINE_CURVE_WITH_KNOTS((2, 2), (0.0, 1.0), .UNSPECIFIED.)
    CURVE()
    GEOMETRIC_REPRESENTATION_ITEM()
    RATIONAL_B_SPLINE_CURVE((1.0, 1.0))
    REPRESENTATION_ITEM('')
);
#363 = CARTESIAN_POINT('', (0.0, 0.0, -2.0));
#364 = CARTESIAN_POINT('', (0.0, 0.0, -2.0));
#365 = PCURVE('', #366, #412);
#366 = (
    BOUNDED_SURFACE()
    B_SPLINE_SURFACE(2, 2, ((#367, #368, #369, #370, #371), (#372, #373, #374, #375, #376), (#377, #378, #379, #380, #381), (#382, #383, #384, #385, #386), (#387, #388, #389, #390, #391), (#392, #393, #394, #395, #396), (#397, #398, #399, #400, #401), (#402, #403, #404, #405, #406), (#407, #408, #409, #410, #411)), .UNSPECIFIED., .U., .U., .U.)
    B_SPLINE_SURFACE_WITH_KNOTS((3, 2, 2, 2, 3), (3, 2, 3), (0.0, 1.5707963267948966, 3.141592653589793, 4.71238898038469, 6.283185307179586), (-1.5707963267948966, 0.0, 1.5707963267948966), .UNSPECIFIED.)
    GEOMETRIC_REPRESENTATION_ITEM()
    RATIONAL_B_SPLINE_SURFACE(((1.0, 0.7071067811865476, 1.0, 0.7071067811865476, 1.0), (0.7071067811865476, 0.5000000000000001, 0.7071067811865476, 0.5000000000000001, 0.7071067811865476), (1.0, 0.7071067811865476, 1.0, 0.7071067811865476, 1.0), (0.7071067811865476, 0.5000000000000001, 0.7071067811865476, 0.5000000000000001, 0.7071067811865476), (1.0, 0.7071067811865476, 1.0, 0.7071067811865476, 1.0), (0.7071067811865476, 0.5000000000000001, 0.7071067811865476, 0.5000000000000001, 0.7071067811865476), (1.0, 0.7071067811865476, 1.0, 0.7071067811865476, 1.0), (0.7071067811865476, 0.5000000000000001, 0.7071067811865476, 0.5000000000000001, 0.7071067811865476), (1.0, 0.7071067811865476, 1.0, 0.7071067811865476, 1.0)))
    REPRESENTATION_ITEM('')
    SURFACE()
);
#367 = CARTESIAN_POINT('', (0.0, 0.0, -2.0));
#368 = CARTESIAN_POINT('', (2.0, 0.0, -2.0));
#369 = CARTESIAN_POINT('', (2.0, 0.0, 0.0));
#370 = CARTESIAN_POINT('', (2.0, 0.0, 2.0));
#371 = CARTESIAN_POINT('', (0.0, 0.0, 2.0));
#372 = CARTESIAN_POINT('', (0.0, 0.0, -2.0));
#373 = CARTESIAN_POINT('', (2.0, 2.0, -2.0));
#374 = CARTESIAN_POINT('', (2.0, 2.0, 0.0));
#375 = CARTESIAN_POINT('', (2.0, 2.0, 2.0));
#376 = CARTESIAN_POINT('', (0.0, 0.0, 2.0));
#377 = CARTESIAN_POINT('', (0.0, 0.0, -2.0));
#378 = CARTESIAN_POINT('', (0.0, 2.0, -2.0));
#379 = CARTESIAN_POINT('', (0.0, 2.0, 0.0));
#380 = CARTESIAN_POINT('', (0.0, 2.0, 2.0));
#381 = CARTESIAN_POINT('', (0.0, 0.0, 2.0));
#382 = CARTESIAN_POINT('', (0.0, 0.0, -2.0));
#383 = CARTESIAN_POINT('', (-2.0, 2.0, -2.0));
#384 = CARTESIAN_POINT('', (-2.0, 2.0, 0.0));
#385 = CARTESIAN_POINT('', (-2.0, 2.0, 2.0));
#386 = CARTESIAN_POINT('', (0.0, 0.0, 2.0));
#387 = CARTESIAN_POINT('', (0.0, 0.0, -2.0));
#388 = CARTESIAN_POINT('', (-2.0, 0.0, -2.0));
#389 = CARTESIAN_POINT('', (-2.0, 0.0, 0.0));
#390 = CARTESIAN_POINT('', (-2.0, 0.0, 2.0));
#391 = CARTESIAN_POINT('', (0.0, 0.0, 2.0));
#392 = CARTESIAN_POINT('', (0.0, 0.0, -2.0));
#393 = CARTESIAN_POINT('', (-2.0, -2.0, -2.0));
#394 = CARTESIAN_POINT('', (-2.0, -2.0, 0.0));
#395 = CARTESIAN_POINT('', (-2.0, -2.0, 2.0));
#396 = CARTESIAN_POINT('', (0.0, 0.0, 2.0));
#397 = CARTESIAN_POINT('', (0.0, 0.0, -2.0));
#398 = CARTESIAN_POINT('', (0.0, -2.0, -2.0));
#399 = CARTESIAN_POINT('', (0.0, -2.0, 0.0));
#400 = CARTESIAN_POINT('', (0.0, -2.0, 2.0));
#401 = CARTESIAN_POINT('', (0.0, 0.0, 2.0));
#402 = CARTESIAN_POINT('', (0.0, 0.0, -2.0));
#403 = CARTESIAN_POINT('', (2.0, -2.0, -2.0));
#404 = CARTESIAN_POINT('', (2.0, -2.0, 0.0));
#405 = CARTESIAN_POINT('', (2.0, -2.0, 2.0));
#406 = CARTESIAN_POINT('', (0.0, 0.0, 2.0));
#407 = CARTESIAN_POINT('', (0.0, 0.0, -2.0));
#408 = CARTESIAN_POINT('', (2.0, 0.0, -2.0));
#409 = CARTESIAN_POINT('', (2.0, 0.0, 0.0));
#410 = CARTESIAN_POINT('', (2.0, 0.0, 2.0));
#411 = CARTESIAN_POINT('', (0.0, 0.0, 2.0));
#412 = DEFINITIONAL_REPRESENTATION('', (#414), #413);
#413 = (
    GEOMETRIC_REPRESENTATION_CONTEXT(2)
    PARAMETRIC_REPRESENTATION_CONTEXT()
    REPRESENTATION_CONTEXT('2D SPACE', '')
);
#414 = (
    BOUNDED_CURVE()
    B_SPLINE_CURVE(1, (#415, #416), .UNSPECIFIED., .U., .U.)
    B_SPLINE_CURVE_WITH_KNOTS((2, 2), (0.0, 1.0), .UNSPECIFIED.)
    CURVE()
    GEOMETRIC_REPRESENTATION_ITEM()
    RATIONAL_B_SPLINE_CURVE((1.0, 1.0))
    REPRESENTATION_ITEM('')
);
#415 = CARTESIAN_POINT('', (0.0, -1.5707963267948966));
#416 = CARTESIAN_POINT('', (6.283185307179586, -1.5707963267948966));
#417 = SEAM_CURVE('', #418, (#424, #476), .CURVE_3D.);
#418 = (
    BOUNDED_CURVE()
    B_SPLINE_CURVE(2, (#419, #420, #421, #422, #423), .UNSPECIFIED., .U., .U.)
    B_SPLINE_CURVE_WITH_KNOTS((3, 2, 3), (-1.5707963267948966, 0.0, 1.5707963267948966), .UNSPECIFIED.)
    CURVE()
    GEOMETRIC_REPRESENTATION_ITEM()
    RATIONAL_B_SPLINE_CURVE((1.0, 0.7071067811865476, 1.0, 0.7071067811865476, 1.0))
    REPRESENTATION_ITEM('')
);
#419 = CARTESIAN_POINT('', (0.0, 0.0, -2.0));
#420 = CARTESIAN_POINT('', (2.0, 0.0, -2.0));
#421 = CARTESIAN_POINT('', (2.0, 0.0, 0.0));
#422 = CARTESIAN_POINT('', (2.0, 0.0, 2.0));
#423 = CARTESIAN_POINT('', (0.0, 0.0, 2.0));
#424 = PCURVE('', #425, #471);
#425 = (
    BOUNDED_SURFACE()
    B_SPLINE_SURFACE(2, 2, ((#426, #427, #428, #429, #430), (#431, #432, #433, #434, #435), (#436, #437, #438, #439, #440), (#441, #442, #443, #444, #445), (#446, #447, #448, #449, #450), (#451, #452, #453, #454, #455), (#456, #457, #458, #459, #460), (#461, #462, #463, #464, #465), (#466, #467, #468, #469, #470)), .UNSPECIFIED., .U., .U., .U.)
    B_SPLINE_SURFACE_WITH_KNOTS((3, 2, 2, 2, 3), (3, 2, 3), (0.0, 1.5707963267948966, 3.141592653589793, 4.71238898038469, 6.283185307179586), (-1.5707963267948966, 0.0, 1.5707963267948966), .UNSPECIFIED.)
    GEOMETRIC_REPRESENTATION_ITEM()
    RATIONAL_B_SPLINE_SURFACE(((1.0, 0.7071067811865476, 1.0, 0.7071067811865476, 1.0), (0.7071067811865476, 0.5000000000000001, 0.7071067811865476, 0.5000000000000001, 0.7071067811865476), (1.0, 0.7071067811865476, 1.0, 0.7071067811865476, 1.0), (0.7071067811865476, 0.5000000000000001, 0.7071067811865476, 0.5000000000000001, 0.7071067811865476), (1.0, 0.7071067811865476, 1.0, 0.7071067811865476, 1.0), (0.7071067811865476, 0.5000000000000001, 0.7071067811865476, 0.5000000000000001, 0.7071067811865476), (1.0, 0.7071067811865476, 1.0, 0.7071067811865476, 1.0), (0.7071067811865476, 0.5000000000000001, 0.7071067811865476, 0.5000000000000001, 0.7071067811865476), (1.0, 0.7071067811865476, 1.0, 0.7071067811865476, 1.0)))
    REPRESENTATION_ITEM('')
    SURFACE()
);
#426 = CARTESIAN_POINT('', (0.0, 0.0, -2.0));
#427 = CARTESIAN_POINT('', (2.0, 0.0, -2.0));
#428 = CARTESIAN_POINT('', (2.0, 0.0, 0.0));
#429 = CARTESIAN_POINT('', (2.0, 0.0, 2.0));
#430 = CARTESIAN_POINT('', (0.0, 0.0, 2.0));
#431 = CARTESIAN_POINT('', (0.0, 0.0, -2.0));
#432 = CARTESIAN_POINT('', (2.0, 2.0, -2.0));
#433 = CARTESIAN_POINT('', (2.0, 2.0, 0.0));
#434 = CARTESIAN_POINT('', (2.0, 2.0, 2.0));
#435 = CARTESIAN_POINT('', (0.0, 0.0, 2.0));
#436 = CARTESIAN_POINT('', (0.0, 0.0, -2.0));
#437 = CARTESIAN_POINT('', (0.0, 2.0, -2.0));
#438 = CARTESIAN_POINT('', (0.0, 2.0, 0.0));
#439 = CARTESIAN_POINT('', (0.0, 2.0, 2.0));
#440 = CARTESIAN_POINT('', (0.0, 0.0, 2.0));
#441 = CARTESIAN_POINT('', (0.0, 0.0, -2.0));
#442 = CARTESIAN_POINT('', (-2.0, 2.0, -2.0));
#443 = CARTESIAN_POINT('', (-2.0, 2.0, 0.0));
#444 = CARTESIAN_POINT('', (-2.0, 2.0, 2.0));
#445 = CARTESIAN_POINT('', (0.0, 0.0, 2.0));
#446 = CARTESIAN_POINT('', (0.0, 0.0, -2.0));
#447 = CARTESIAN_POINT('', (-2.0, 0.0, -2.0));
#448 = CARTESIAN_POINT('', (-2.0, 0.0, 0.0));
#449 = CARTESIAN_POINT('', (-2.0, 0.0, 2.0));
#450 = CARTESIAN_POINT('', (0.0, 0.0, 2.0));
#451 = CARTESIAN_POINT('', (0.0, 0.0, -2.0));
#452 = CARTESIAN_POINT('', (-2.0, -2.0, -2.0));
#453 = CARTESIAN_POINT('', (-2.0, -2.0, 0.0));
#454 = CARTESIAN_POINT('', (-2.0, -2.0, 2.0));
#455 = CARTESIAN_POINT('', (0.0, 0.0, 2.0));
#456 = CARTESIAN_POINT('', (0.0, 0.0, -2.0));
#457 = CARTESIAN_POINT('', (0.0, -2.0, -2.0));
#458 = CARTESIAN_POINT('', (0.0, -2.0, 0.0));
#459 = CARTESIAN_POINT('', (0.0, -2.0, 2.0));
#460 = CARTESIAN_POINT('', (0.0, 0.0, 2.0));
#461 = CARTESIAN_POINT('', (0.0, 0.0, -2.0));
#462 = CARTESIAN_POINT('', (2.0, -2.0, -2.0));
#463 = CARTESIAN_POINT('', (2.0, -2.0, 0.0));
#464 = CARTESIAN_POINT('', (2.0, -2.0, 2.0));
#465 = CARTESIAN_POINT('', (0.0, 0.0, 2.0));
#466 = CARTESIAN_POINT('', (0.0, 0.0, -2.0));
#467 = CARTESIAN_POINT('', (2.0, 0.0, -2.0));
#468 = CARTESIAN_POINT('', (2.0, 0.0, 0.0));
#469 = CARTESIAN_POINT('', (2.0, 0.0, 2.0));
#470 = CARTESIAN_POINT('', (0.0, 0.0, 2.0));
#471 = DEFINITIONAL_REPRESENTATION('', (#473), #472);
#472 = (
    GEOMETRIC_REPRESENTATION_CONTEXT(2)
    PARAMETRIC_REPRESENTATION_CONTEXT()
    REPRESENTATION_CONTEXT('2D SPACE', '')
);
#473 = (
    BOUNDED_CURVE()
    B_SPLINE_CURVE(1, (#474, #475), .UNSPECIFIED., .U., .U.)
    B_SPLINE_CURVE_WITH_KNOTS((2, 2), (0.0, 1.0), .UNSPECIFIED.)
    CURVE()
    GEOMETRIC_REPRESENTATION_ITEM()
    RATIONAL_B_SPLINE_CURVE((1.0, 1.0))
    REPRESENTATION_ITEM('')
);
#474 = CARTESIAN_POINT('', (6.283185307179586, -1.5707963267948966));
#475 = CARTESIAN_POINT('', (6.283185307179586, 1.5707963267948966));
#476 = PCURVE('', #477, #523);
#477 = (
    BOUNDED_SURFACE()
    B_SPLINE_SURFACE(2, 2, ((#478, #479, #480, #481, #482), (#483, #484, #485, #486, #487), (#488, #489, #490, #491, #492), (#493, #494, #495, #496, #497), (#498, #499, #500, #501, #502), (#503, #504, #505, #506, #507), (#508, #509, #510, #511, #512), (#513, #514, #515, #516, #517), (#518, #519, #520, #521, #522)), .UNSPECIFIED., .U., .U., .U.)
    B_SPLINE_SURFACE_WITH_KNOTS((3, 2, 2, 2, 3), (3, 2, 3), (0.0, 1.5707963267948966, 3.141592653589793, 4.71238898038469, 6.283185307179586), (-1.5707963267948966, 0.0, 1.5707963267948966), .UNSPECIFIED.)
    GEOMETRIC_REPRESENTATION_ITEM()
    RATIONAL_B_SPLINE_SURFACE(((1.0, 0.7071067811865476, 1.0, 0.7071067811865476, 1.0), (0.7071067811865476, 0.5000000000000001, 0.7071067811865476, 0.5000000000000001, 0.7071067811865476), (1.0, 0.7071067811865476, 1.0, 0.7071067811865476, 1.0), (0.7071067811865476, 0.5000000000000001, 0.7071067811865476, 0.5000000000000001, 0.7071067811865476), (1.0, 0.7071067811865476, 1.0, 0.7071067811865476, 1.0), (0.7071067811865476, 0.5000000000000001, 0.7071067811865476, 0.5000000000000001, 0.7071067811865476), (1.0, 0.7071067811865476, 1.0, 0.7071067811865476, 1.0), (0.7071067811865476, 0.5000000000000001, 0.7071067811865476, 0.5000000000000001, 0.7071067811865476), (1.0, 0.7071067811865476, 1.0, 0.7071067811865476, 1.0)))
    REPRESENTATION_ITEM('')
    SURFACE()
);
#478 = CARTESIAN_POINT('', (0.0, 0.0, -2.0));
#479 = CARTESIAN_POINT('', (2.0, 0.0, -2.0));
#480 = CARTESIAN_POINT('', (2.0, 0.0, 0.0));
#481 = CARTESIAN_POINT('', (2.0, 0.0, 2.0));
#482 = CARTESIAN_POINT('', (0.0, 0.0, 2.0));
#483 = CARTESIAN_POINT('', (0.0, 0.0, -2.0));
#484 = CARTESIAN_POINT('', (2.0, 2.0, -2.0));
#485 = CARTESIAN_POINT('', (2.0, 2.0, 0.0));
#486 = CARTESIAN_POINT('', (2.0, 2.0, 2.0));
#487 = CARTESIAN_POINT('', (0.0, 0.0, 2.0));
#488 = CARTESIAN_POINT('', (0.0, 0.0, -2.0));
#489 = CARTESIAN_POINT('', (0.0, 2.0, -2.0));
#490 = CARTESIAN_POINT('', (0.0, 2.0, 0.0));
#491 = CARTESIAN_POINT('', (0.0, 2.0, 2.0));
#492 = CARTESIAN_POINT('', (0.0, 0.0, 2.0));
#493 = CARTESIAN_POINT('', (0.0, 0.0, -2.0));
#494 = CARTESIAN_POINT('', (-2.0, 2.0, -2.0));
#495 = CARTESIAN_POINT('', (-2.0, 2.0, 0.0));
#496 = CARTESIAN_POINT('', (-2.0, 2.0, 2.0));
#497 = CARTESIAN_POINT('', (0.0, 0.0, 2.0));
#498 = CARTESIAN_POINT('', (0.0, 0.0, -2.0));
#499 = CARTESIAN_POINT('', (-2.0, 0.0, -2.0));
#500 = CARTESIAN_POINT('', (-2.0, 0.0, 0.0));
#501 = CARTESIAN_POINT('', (-2.0, 0.0, 2.0));
#502 = CARTESIAN_POINT('', (0.0, 0.0, 2.0));
#503 = CARTESIAN_POINT('', (0.0, 0.0, -2.0));
#504 = CARTESIAN_POINT('', (-2.0, -2.0, -2.0));
#505 = CARTESIAN_POINT('', (-2.0, -2.0, 0.0));
#506 = CARTESIAN_POINT('', (-2.0, -2.0, 2.0));
#507 = CARTESIAN_POINT('', (0.0, 0.0, 2.0));
#508 = CARTESIAN_POINT('', (0.0, 0.0, -2.0));
#509 = CARTESIAN_POINT('', (0.0, -2.0, -2.0));
#510 = CARTESIAN_POINT('', (0.0, -2.0, 0.0));
#511 = CARTESIAN_POINT('', (0.0, -2.0, 2.0));
#512 = CARTESIAN_POINT('', (0.0, 0.0, 2.0));
#513 = CARTESIAN_POINT('', (0.0, 0.0, -2.0));
#514 = CARTESIAN_POINT('', (2.0, -2.0, -2.0));
#515 = CARTESIAN_POINT('', (2.0, -2.0, 0.0));
#516 = CARTESIAN_POINT('', (2.0, -2.0, 2.0));
#517 = CARTESIAN_POINT('', (0.0, 0.0, 2.0));
#518 = CARTESIAN_POINT('', (0.0, 0.0, -2.0));
#519 = CARTESIAN_POINT('', (2.0, 0.0, -2.0));
#520 = CARTESIAN_POINT('', (2.0, 0.0, 0.0));
#521 = CARTESIAN_POINT('', (2.0, 0.0, 2.0));
#522 = CARTESIAN_POINT('', (0.0, 0.0, 2.0));
#523 = DEFINITIONAL_REPRESENTATION('', (#525), #524);
#524 = (
    GEOMETRIC_REPRESENTATION_CONTEXT(2)
    PARAMETRIC_REPRESENTATION_CONTEXT()
    REPRESENTATION_CONTEXT('2D SPACE', '')
);
#525 = (
    BOUNDED_CURVE()
    B_SPLINE_CURVE(1, (#526, #527), .UNSPECIFIED., .U., .U.)
    B_SPLINE_CURVE_WITH_KNOTS((2, 2), (-1.0, -0.0), .UNSPECIFIED.)
    CURVE()
    GEOMETRIC_REPRESENTATION_ITEM()
    RATIONAL_B_SPLINE_CURVE((1.0, 1.0))
    REPRESENTATION_ITEM('')
);
#526 = CARTESIAN_POINT('', (0.0, -1.5707963267948966));
#527 = CARTESIAN_POINT('', (0.0, 1.5707963267948966));
#528 = SURFACE_CURVE('', #529, (#532), .CURVE_3D.);
#529 = (
    BOUNDED_CURVE()
    B_SPLINE_CURVE(1, (#530, #531), .UNSPECIFIED., .U., .U.)
    B_SPLINE_CURVE_WITH_KNOTS((2, 2), (0.0, 1.0), .UNSPECIFIED.)
    CURVE()
    GEOMETRIC_REPRESENTATION_ITEM()
    RATIONAL_B_SPLINE_CURVE((1.0, 1.0))
    REPRESENTATION_ITEM('')
);
#530 = CARTESIAN_POINT('', (0.0, 0.0, 2.0));
#531 = CARTESIAN_POINT('', (0.0, 0.0, 2.0));
#532 = PCURVE('', #533, #579);
#533 = (
    BOUNDED_SURFACE()
    B_SPLINE_SURFACE(2, 2, ((#534, #535, #536, #537, #538), (#539, #540, #541, #542, #543), (#544, #545, #546, #547, #548), (#549, #550, #551, #552, #553), (#554, #555, #556, #557, #558), (#559, #560, #561, #562, #563), (#564, #565, #566, #567, #568), (#569, #570, #571, #572, #573), (#574, #575, #576, #577, #578)), .UNSPECIFIED., .U., .U., .U.)
    B_SPLINE_SURFACE_WITH_KNOTS((3, 2, 2, 2, 3), (3, 2, 3), (0.0, 1.5707963267948966, 3.141592653589793, 4.71238898038469, 6.283185307179586), (-1.5707963267948966, 0.0, 1.5707963267948966), .UNSPECIFIED.)
    GEOMETRIC_REPRESENTATION_ITEM()
    RATIONAL_B_SPLINE_SURFACE(((1.0, 0.7071067811865476, 1.0, 0.7071067811865476, 1.0), (0.7071067811865476, 0.5000000000000001, 0.7071067811865476, 0.5000000000000001, 0.7071067811865476), (1.0, 0.7071067811865476, 1.0, 0.7071067811865476, 1.0), (0.7071067811865476, 0.5000000000000001, 0.7071067811865476, 0.5000000000000001, 0.7071067811865476), (1.0, 0.7071067811865476, 1.0, 0.7071067811865476, 1.0), (0.7071067811865476, 0.5000000000000001, 0.7071067811865476, 0.5000000000000001, 0.7071067811865476), (1.0, 0.7071067811865476, 1.0, 0.7071067811865476, 1.0), (0.7071067811865476, 0.5000000000000001, 0.7071067811865476, 0.5000000000000001, 0.7071067811865476), (1.0, 0.7071067811865476, 1.0, 0.7071067811865476, 1.0)))
    REPRESENTATION_ITEM('')
    SURFACE()
);
#534 = CARTESIAN_POINT('', (0.0, 0.0, -2.0));
#535 = CARTESIAN_POINT('', (2.0, 0.0, -2.0));
#536 = CARTESIAN_POINT('', (2.0, 0.0, 0.0));
#537 = CARTESIAN_POINT('', (2.0, 0.0, 2.0));
#538 = CARTESIAN_POINT('', (0.0, 0.0, 2.0));
#539 = CARTESIAN_POINT('', (0.0, 0.0, -2.0));
#540 = CARTESIAN_POINT('', (2.0, 2.0, -2.0));
#541 = CARTESIAN_POINT('', (2.0, 2.0, 0.0));
#542 = CARTESIAN_POINT('', (2.0, 2.0, 2.0));
#543 = CARTESIAN_POINT('', (0.0, 0.0, 2.0));
#544 = CARTESIAN_POINT('', (0.0, 0.0, -2.0));
#545 = CARTESIAN_POINT('', (0.0, 2.0, -2.0));
#546 = CARTESIAN_POINT('', (0.0, 2.0, 0.0));
#547 = CARTESIAN_POINT('', (0.0, 2.0, 2.0));
#548 = CARTESIAN_POINT('', (0.0, 0.0, 2.0));
#549 = CARTESIAN_POINT('', (0.0, 0.0, -2.0));
#550 = CARTESIAN_POINT('', (-2.0, 2.0, -2.0));
#551 = CARTESIAN_POINT('', (-2.0, 2.0, 0.0));
#552 = CARTESIAN_POINT('', (-2.0, 2.0, 2.0));
#553 = CARTESIAN_POINT('', (0.0, 0.0, 2.0));
#554 = CARTESIAN_POINT('', (0.0, 0.0, -2.0));
#555 = CARTESIAN_POINT('', (-2.0, 0.0, -2.0));
#556 = CARTESIAN_POINT('', (-2.0, 0.0, 0.0));
#557 = CARTESIAN_POINT('', (-2.0, 0.0, 2.0));
#558 = CARTESIAN_POINT('', (0.0, 0.0, 2.0));
#559 = CARTESIAN_POINT('', (0.0, 0.0, -2.0));
#560 = CARTESIAN_POINT('', (-2.0, -2.0, -2.0));
#561 = CARTESIAN_POINT('', (-2.0, -2.0, 0.0));
#562 = CARTESIAN_POINT('', (-2.0, -2.0, 2.0));
#563 = CARTESIAN_POINT('', (0.0, 0.0, 2.0));
#564 = CARTESIAN_POINT('', (0.0, 0.0, -2.0));
#565 = CARTESIAN_POINT('', (0.0, -2.0, -2.0));
#566 = CARTESIAN_POINT('', (0.0, -2.0, 0.0));
#567 = CARTESIAN_POINT('', (0.0, -2.0, 2.0));
#568 = CARTESIAN_POINT('', (0.0, 0.0, 2.0));
#569 = CARTESIAN_POINT('', (0.0, 0.0, -2.0));
#570 = CARTESIAN_POINT('', (2.0, -2.0, -2.0));
#571 = CARTESIAN_POINT('', (2.0, -2.0, 0.0));
#572 = CARTESIAN_POINT('', (2.0, -2.0, 2.0));
#573 = CARTESIAN_POINT('', (0.0, 0.0, 2.0));
#574 = CARTESIAN_POINT('', (0.0, 0.0, -2.0));
#575 = CARTESIAN_POINT('', (2.0, 0.0, -2.0));
#576 = CARTESIAN_POINT('', (2.0, 0.0, 0.0));
#577 = CARTESIAN_POINT('', (2.0, 0.0, 2.0));
#578 = CARTESIAN_POINT('', (0.0, 0.0, 2.0));
#579 = DEFINITIONAL_REPRESENTATION('', (#581), #580);
#580 = (
    GEOMETRIC_REPRESENTATION_CONTEXT(2)
    PARAMETRIC_REPRESENTATION_CONTEXT()
    REPRESENTATION_CONTEXT('2D SPACE', '')
);
#581 = (
    BOUNDED_CURVE()
    B_SPLINE_CURVE(1, (#582, #583), .UNSPECIFIED., .U., .U.)
    B_SPLINE_CURVE_WITH_KNOTS((2, 2), (0.0, 1.0), .UNSPECIFIED.)
    CURVE()
    GEOMETRIC_REPRESENTATION_ITEM()
    RATIONAL_B_SPLINE_CURVE((1.0, 1.0))
    REPRESENTATION_ITEM('')
);
#582 = CARTESIAN_POINT('', (6.283185307179586, 1.5707963267948966));
#583 = CARTESIAN_POINT('', (0.0, 1.5707963267948966));
#584 = CARTESIAN_POINT('', (0.0E0, 0.0E0, -2.0E0));
#585 = CARTESIAN_POINT('', (0.0E0, 0.0E0, 2.0E0));
ENDSEC;
END-ISO-10303-21;
