ISO-10303-21;
HEADER;
FILE_DESCRIPTION(('Shape Data from monstertruck'), '2;1');
FILE_NAME('', '2026-10-10 08:42:00.643037603', (''), (''), 'monstertruck', 'Viboceros', '');
FILE_SCHEMA(('AUTOMOTIVE_DESIGN'));
ENDSEC;
DATA;
#1 = APPLICATION_PROTOCOL_DEFINITION('international standard', 'automotive_design', 2000, #2);
#2 = APPLICATION_CONTEXT('core data for automotive mechanical design processes');
#3 = SHAPE_DEFINITION_REPRESENTATION(#4, #10);
#4 = PRODUCT_DEFINITION_SHAPE('','', #5);
#5 = PRODUCT_DEFINITION('design','', #6, #9);
#6 = PRODUCT_DEFINITION_FORMATION('','', #7);
#7 = PRODUCT('','','', (#8));
#8 = PRODUCT_CONTEXT('', #2, 'mechanical');
#9 = PRODUCT_DEFINITION_CONTEXT('part definition', #2, 'design');
#10 = ADVANCED_BREP_SHAPE_REPRESENTATION('', (#16), #11);
#11 = (
    GEOMETRIC_REPRESENTATION_CONTEXT(3)
    GLOBAL_UNCERTAINTY_ASSIGNED_CONTEXT((#15))
    GLOBAL_UNIT_ASSIGNED_CONTEXT((#12, #13, #14))
    REPRESENTATION_CONTEXT('Context #1', '3D Context with UNIT and UNCERTAINTY')
);
#12 = ( LENGTH_UNIT() NAMED_UNIT(*) SI_UNIT(.MILLI.,.METRE.) );
#13 = ( NAMED_UNIT(*) PLANE_ANGLE_UNIT() SI_UNIT($,.RADIAN.) );
#14 = ( NAMED_UNIT(*) SI_UNIT($,.STERADIAN.) SOLID_ANGLE_UNIT() );
#15 = UNCERTAINTY_MEASURE_WITH_UNIT(LENGTH_MEASURE(1.0E-6), #12, 'distance_accuracy_value','confusion accuracy');
#16 = BREP_WITH_VOIDS('', #17, (#308));
#17 = CLOSED_SHELL('', (#18, #25));
#18 = ADVANCED_FACE('', (#19), #40, .T.);
#19 = FACE_BOUND('', #20, .T.);
#20 = EDGE_LOOP('', (#21, #22, #23, #24));
#21 = ORIENTED_EDGE('', *, *, #32, .T.);
#22 = ORIENTED_EDGE('', *, *, #33, .T.);
#23 = ORIENTED_EDGE('', *, *, #34, .T.);
#24 = ORIENTED_EDGE('', *, *, #33, .F.);
#25 = ADVANCED_FACE('', (#26), #59, .T.);
#26 = FACE_BOUND('', #27, .T.);
#27 = EDGE_LOOP('', (#28, #29, #30, #31));
#28 = ORIENTED_EDGE('', *, *, #35, .T.);
#29 = ORIENTED_EDGE('', *, *, #36, .T.);
#30 = ORIENTED_EDGE('', *, *, #32, .F.);
#31 = ORIENTED_EDGE('', *, *, #36, .F.);
#32 = EDGE_CURVE('', #37, #37, #78, .T.);
#33 = EDGE_CURVE('', #37, #38, #139, .T.);
#34 = EDGE_CURVE('', #38, #38, #193, .T.);
#35 = EDGE_CURVE('', #39, #39, #222, .T.);
#36 = EDGE_CURVE('', #39, #37, #251, .T.);
#37 = VERTEX_POINT('', #305);
#38 = VERTEX_POINT('', #306);
#39 = VERTEX_POINT('', #307);
#40 = (
    BOUNDED_SURFACE()
    B_SPLINE_SURFACE(2, 1, ((#41, #42), (#43, #44), (#45, #46), (#47, #48), (#49, #50), (#51, #52), (#53, #54), (#55, #56), (#57, #58)), .UNSPECIFIED., .U., .U., .U.)
    B_SPLINE_SURFACE_WITH_KNOTS((3, 2, 2, 2, 3), (2, 2), (0.0, 1.5707963267948966, 3.141592653589793, 4.71238898038469, 6.283185307179586), (-5.0, 0.0), .UNSPECIFIED.)
    GEOMETRIC_REPRESENTATION_ITEM()
    RATIONAL_B_SPLINE_SURFACE(((1.0, 1.0), (0.7071067811865476, 0.7071067811865476), (1.0, 1.0), (0.7071067811865476, 0.7071067811865476), (1.0, 1.0), (0.7071067811865476, 0.7071067811865476), (1.0, 1.0), (0.7071067811865476, 0.7071067811865476), (1.0, 1.0)))
    REPRESENTATION_ITEM('')
    SURFACE()
);
#41 = CARTESIAN_POINT('', (2.0, 0.0, 0.0));
#42 = CARTESIAN_POINT('', (0.0, 0.0, 5.0));
#43 = CARTESIAN_POINT('', (2.0, 2.0, 0.0));
#44 = CARTESIAN_POINT('', (0.0, 0.0, 5.0));
#45 = CARTESIAN_POINT('', (0.0, 2.0, 0.0));
#46 = CARTESIAN_POINT('', (0.0, 0.0, 5.0));
#47 = CARTESIAN_POINT('', (-2.0, 2.0, 0.0));
#48 = CARTESIAN_POINT('', (0.0, 0.0, 5.0));
#49 = CARTESIAN_POINT('', (-2.0, 0.0, 0.0));
#50 = CARTESIAN_POINT('', (0.0, 0.0, 5.0));
#51 = CARTESIAN_POINT('', (-2.0, -2.0, 0.0));
#52 = CARTESIAN_POINT('', (0.0, 0.0, 5.0));
#53 = CARTESIAN_POINT('', (0.0, -2.0, 0.0));
#54 = CARTESIAN_POINT('', (0.0, 0.0, 5.0));
#55 = CARTESIAN_POINT('', (2.0, -2.0, 0.0));
#56 = CARTESIAN_POINT('', (0.0, 0.0, 5.0));
#57 = CARTESIAN_POINT('', (2.0, 0.0, 0.0));
#58 = CARTESIAN_POINT('', (0.0, 0.0, 5.0));
#59 = (
    BOUNDED_SURFACE()
    B_SPLINE_SURFACE(2, 1, ((#60, #61), (#62, #63), (#64, #65), (#66, #67), (#68, #69), (#70, #71), (#72, #73), (#74, #75), (#76, #77)), .UNSPECIFIED., .U., .U., .U.)
    B_SPLINE_SURFACE_WITH_KNOTS((3, 2, 2, 2, 3), (2, 2), (0.0, 1.5707963267948966, 3.141592653589793, 4.71238898038469, 6.283185307179586), (0.0, 2.0), .UNSPECIFIED.)
    GEOMETRIC_REPRESENTATION_ITEM()
    RATIONAL_B_SPLINE_SURFACE(((1.0, 1.0), (0.7071067811865476, 0.7071067811865476), (1.0, 1.0), (0.7071067811865476, 0.7071067811865476), (1.0, 1.0), (0.7071067811865476, 0.7071067811865476), (1.0, 1.0), (0.7071067811865476, 0.7071067811865476), (1.0, 1.0)))
    REPRESENTATION_ITEM('')
    SURFACE()
);
#60 = CARTESIAN_POINT('', (0.0, 0.0, 0.0));
#61 = CARTESIAN_POINT('', (2.0, 0.0, 0.0));
#62 = CARTESIAN_POINT('', (0.0, 0.0, 0.0));
#63 = CARTESIAN_POINT('', (2.0, 2.0, 0.0));
#64 = CARTESIAN_POINT('', (0.0, 0.0, 0.0));
#65 = CARTESIAN_POINT('', (0.0, 2.0, 0.0));
#66 = CARTESIAN_POINT('', (0.0, 0.0, 0.0));
#67 = CARTESIAN_POINT('', (-2.0, 2.0, 0.0));
#68 = CARTESIAN_POINT('', (0.0, 0.0, 0.0));
#69 = CARTESIAN_POINT('', (-2.0, 0.0, 0.0));
#70 = CARTESIAN_POINT('', (0.0, 0.0, 0.0));
#71 = CARTESIAN_POINT('', (-2.0, -2.0, 0.0));
#72 = CARTESIAN_POINT('', (0.0, 0.0, 0.0));
#73 = CARTESIAN_POINT('', (0.0, -2.0, 0.0));
#74 = CARTESIAN_POINT('', (0.0, 0.0, 0.0));
#75 = CARTESIAN_POINT('', (2.0, -2.0, 0.0));
#76 = CARTESIAN_POINT('', (0.0, 0.0, 0.0));
#77 = CARTESIAN_POINT('', (2.0, 0.0, 0.0));
#78 = SURFACE_CURVE('', #79, (#89, #114), .CURVE_3D.);
#79 = (
    BOUNDED_CURVE()
    B_SPLINE_CURVE(2, (#80, #81, #82, #83, #84, #85, #86, #87, #88), .UNSPECIFIED., .U., .U.)
    B_SPLINE_CURVE_WITH_KNOTS((3, 2, 2, 2, 3), (0.0, 1.5707963267948966, 3.141592653589793, 4.71238898038469, 6.283185307179586), .UNSPECIFIED.)
    CURVE()
    GEOMETRIC_REPRESENTATION_ITEM()
    RATIONAL_B_SPLINE_CURVE((1.0, 0.7071067811865476, 1.0, 0.7071067811865476, 1.0, 0.7071067811865476, 1.0, 0.7071067811865476, 1.0))
    REPRESENTATION_ITEM('')
);
#80 = CARTESIAN_POINT('', (2.0, 0.0, 0.0));
#81 = CARTESIAN_POINT('', (2.0, 2.0, 0.0));
#82 = CARTESIAN_POINT('', (0.0, 2.0, 0.0));
#83 = CARTESIAN_POINT('', (-2.0, 2.0, 0.0));
#84 = CARTESIAN_POINT('', (-2.0, 0.0, 0.0));
#85 = CARTESIAN_POINT('', (-2.0, -2.0, 0.0));
#86 = CARTESIAN_POINT('', (0.0, -2.0, 0.0));
#87 = CARTESIAN_POINT('', (2.0, -2.0, 0.0));
#88 = CARTESIAN_POINT('', (2.0, 0.0, 0.0));
#89 = PCURVE('', #90, #109);
#90 = (
    BOUNDED_SURFACE()
    B_SPLINE_SURFACE(2, 1, ((#91, #92), (#93, #94), (#95, #96), (#97, #98), (#99, #100), (#101, #102), (#103, #104), (#105, #106), (#107, #108)), .UNSPECIFIED., .U., .U., .U.)
    B_SPLINE_SURFACE_WITH_KNOTS((3, 2, 2, 2, 3), (2, 2), (0.0, 1.5707963267948966, 3.141592653589793, 4.71238898038469, 6.283185307179586), (-5.0, 0.0), .UNSPECIFIED.)
    GEOMETRIC_REPRESENTATION_ITEM()
    RATIONAL_B_SPLINE_SURFACE(((1.0, 1.0), (0.7071067811865476, 0.7071067811865476), (1.0, 1.0), (0.7071067811865476, 0.7071067811865476), (1.0, 1.0), (0.7071067811865476, 0.7071067811865476), (1.0, 1.0), (0.7071067811865476, 0.7071067811865476), (1.0, 1.0)))
    REPRESENTATION_ITEM('')
    SURFACE()
);
#91 = CARTESIAN_POINT('', (2.0, 0.0, 0.0));
#92 = CARTESIAN_POINT('', (0.0, 0.0, 5.0));
#93 = CARTESIAN_POINT('', (2.0, 2.0, 0.0));
#94 = CARTESIAN_POINT('', (0.0, 0.0, 5.0));
#95 = CARTESIAN_POINT('', (0.0, 2.0, 0.0));
#96 = CARTESIAN_POINT('', (0.0, 0.0, 5.0));
#97 = CARTESIAN_POINT('', (-2.0, 2.0, 0.0));
#98 = CARTESIAN_POINT('', (0.0, 0.0, 5.0));
#99 = CARTESIAN_POINT('', (-2.0, 0.0, 0.0));
#100 = CARTESIAN_POINT('', (0.0, 0.0, 5.0));
#101 = CARTESIAN_POINT('', (-2.0, -2.0, 0.0));
#102 = CARTESIAN_POINT('', (0.0, 0.0, 5.0));
#103 = CARTESIAN_POINT('', (0.0, -2.0, 0.0));
#104 = CARTESIAN_POINT('', (0.0, 0.0, 5.0));
#105 = CARTESIAN_POINT('', (2.0, -2.0, 0.0));
#106 = CARTESIAN_POINT('', (0.0, 0.0, 5.0));
#107 = CARTESIAN_POINT('', (2.0, 0.0, 0.0));
#108 = CARTESIAN_POINT('', (0.0, 0.0, 5.0));
#109 = DEFINITIONAL_REPRESENTATION('', (#111), #110);
#110 = (
    GEOMETRIC_REPRESENTATION_CONTEXT(2)
    PARAMETRIC_REPRESENTATION_CONTEXT()
    REPRESENTATION_CONTEXT('2D SPACE', '')
);
#111 = (
    BOUNDED_CURVE()
    B_SPLINE_CURVE(1, (#112, #113), .UNSPECIFIED., .U., .U.)
    B_SPLINE_CURVE_WITH_KNOTS((2, 2), (0.0, 1.0), .UNSPECIFIED.)
    CURVE()
    GEOMETRIC_REPRESENTATION_ITEM()
    RATIONAL_B_SPLINE_CURVE((1.0, 1.0))
    REPRESENTATION_ITEM('')
);
#112 = CARTESIAN_POINT('', (0.0, -5.0));
#113 = CARTESIAN_POINT('', (6.283185307179586, -5.0));
#114 = PCURVE('', #115, #134);
#115 = (
    BOUNDED_SURFACE()
    B_SPLINE_SURFACE(2, 1, ((#116, #117), (#118, #119), (#120, #121), (#122, #123), (#124, #125), (#126, #127), (#128, #129), (#130, #131), (#132, #133)), .UNSPECIFIED., .U., .U., .U.)
    B_SPLINE_SURFACE_WITH_KNOTS((3, 2, 2, 2, 3), (2, 2), (0.0, 1.5707963267948966, 3.141592653589793, 4.71238898038469, 6.283185307179586), (0.0, 2.0), .UNSPECIFIED.)
    GEOMETRIC_REPRESENTATION_ITEM()
    RATIONAL_B_SPLINE_SURFACE(((1.0, 1.0), (0.7071067811865476, 0.7071067811865476), (1.0, 1.0), (0.7071067811865476, 0.7071067811865476), (1.0, 1.0), (0.7071067811865476, 0.7071067811865476), (1.0, 1.0), (0.7071067811865476, 0.7071067811865476), (1.0, 1.0)))
    REPRESENTATION_ITEM('')
    SURFACE()
);
#116 = CARTESIAN_POINT('', (0.0, 0.0, 0.0));
#117 = CARTESIAN_POINT('', (2.0, 0.0, 0.0));
#118 = CARTESIAN_POINT('', (0.0, 0.0, 0.0));
#119 = CARTESIAN_POINT('', (2.0, 2.0, 0.0));
#120 = CARTESIAN_POINT('', (0.0, 0.0, 0.0));
#121 = CARTESIAN_POINT('', (0.0, 2.0, 0.0));
#122 = CARTESIAN_POINT('', (0.0, 0.0, 0.0));
#123 = CARTESIAN_POINT('', (-2.0, 2.0, 0.0));
#124 = CARTESIAN_POINT('', (0.0, 0.0, 0.0));
#125 = CARTESIAN_POINT('', (-2.0, 0.0, 0.0));
#126 = CARTESIAN_POINT('', (0.0, 0.0, 0.0));
#127 = CARTESIAN_POINT('', (-2.0, -2.0, 0.0));
#128 = CARTESIAN_POINT('', (0.0, 0.0, 0.0));
#129 = CARTESIAN_POINT('', (0.0, -2.0, 0.0));
#130 = CARTESIAN_POINT('', (0.0, 0.0, 0.0));
#131 = CARTESIAN_POINT('', (2.0, -2.0, 0.0));
#132 = CARTESIAN_POINT('', (0.0, 0.0, 0.0));
#133 = CARTESIAN_POINT('', (2.0, 0.0, 0.0));
#134 = DEFINITIONAL_REPRESENTATION('', (#136), #135);
#135 = (
    GEOMETRIC_REPRESENTATION_CONTEXT(2)
    PARAMETRIC_REPRESENTATION_CONTEXT()
    REPRESENTATION_CONTEXT('2D SPACE', '')
);
#136 = (
    BOUNDED_CURVE()
    B_SPLINE_CURVE(1, (#137, #138), .UNSPECIFIED., .U., .U.)
    B_SPLINE_CURVE_WITH_KNOTS((2, 2), (-1.0, -0.0), .UNSPECIFIED.)
    CURVE()
    GEOMETRIC_REPRESENTATION_ITEM()
    RATIONAL_B_SPLINE_CURVE((1.0, 1.0))
    REPRESENTATION_ITEM('')
);
#137 = CARTESIAN_POINT('', (0.0, 2.0));
#138 = CARTESIAN_POINT('', (6.283185307179586, 2.0));
#139 = SEAM_CURVE('', #140, (#143, #168), .CURVE_3D.);
#140 = (
    BOUNDED_CURVE()
    B_SPLINE_CURVE(1, (#141, #142), .UNSPECIFIED., .U., .U.)
    B_SPLINE_CURVE_WITH_KNOTS((2, 2), (0.0, 5.385164807134504), .UNSPECIFIED.)
    CURVE()
    GEOMETRIC_REPRESENTATION_ITEM()
    RATIONAL_B_SPLINE_CURVE((1.0, 1.0))
    REPRESENTATION_ITEM('')
);
#141 = CARTESIAN_POINT('', (2.0, 0.0, 0.0));
#142 = CARTESIAN_POINT('', (0.0, 0.0, 5.0));
#143 = PCURVE('', #144, #163);
#144 = (
    BOUNDED_SURFACE()
    B_SPLINE_SURFACE(2, 1, ((#145, #146), (#147, #148), (#149, #150), (#151, #152), (#153, #154), (#155, #156), (#157, #158), (#159, #160), (#161, #162)), .UNSPECIFIED., .U., .U., .U.)
    B_SPLINE_SURFACE_WITH_KNOTS((3, 2, 2, 2, 3), (2, 2), (0.0, 1.5707963267948966, 3.141592653589793, 4.71238898038469, 6.283185307179586), (-5.0, 0.0), .UNSPECIFIED.)
    GEOMETRIC_REPRESENTATION_ITEM()
    RATIONAL_B_SPLINE_SURFACE(((1.0, 1.0), (0.7071067811865476, 0.7071067811865476), (1.0, 1.0), (0.7071067811865476, 0.7071067811865476), (1.0, 1.0), (0.7071067811865476, 0.7071067811865476), (1.0, 1.0), (0.7071067811865476, 0.7071067811865476), (1.0, 1.0)))
    REPRESENTATION_ITEM('')
    SURFACE()
);
#145 = CARTESIAN_POINT('', (2.0, 0.0, 0.0));
#146 = CARTESIAN_POINT('', (0.0, 0.0, 5.0));
#147 = CARTESIAN_POINT('', (2.0, 2.0, 0.0));
#148 = CARTESIAN_POINT('', (0.0, 0.0, 5.0));
#149 = CARTESIAN_POINT('', (0.0, 2.0, 0.0));
#150 = CARTESIAN_POINT('', (0.0, 0.0, 5.0));
#151 = CARTESIAN_POINT('', (-2.0, 2.0, 0.0));
#152 = CARTESIAN_POINT('', (0.0, 0.0, 5.0));
#153 = CARTESIAN_POINT('', (-2.0, 0.0, 0.0));
#154 = CARTESIAN_POINT('', (0.0, 0.0, 5.0));
#155 = CARTESIAN_POINT('', (-2.0, -2.0, 0.0));
#156 = CARTESIAN_POINT('', (0.0, 0.0, 5.0));
#157 = CARTESIAN_POINT('', (0.0, -2.0, 0.0));
#158 = CARTESIAN_POINT('', (0.0, 0.0, 5.0));
#159 = CARTESIAN_POINT('', (2.0, -2.0, 0.0));
#160 = CARTESIAN_POINT('', (0.0, 0.0, 5.0));
#161 = CARTESIAN_POINT('', (2.0, 0.0, 0.0));
#162 = CARTESIAN_POINT('', (0.0, 0.0, 5.0));
#163 = DEFINITIONAL_REPRESENTATION('', (#165), #164);
#164 = (
    GEOMETRIC_REPRESENTATION_CONTEXT(2)
    PARAMETRIC_REPRESENTATION_CONTEXT()
    REPRESENTATION_CONTEXT('2D SPACE', '')
);
#165 = (
    BOUNDED_CURVE()
    B_SPLINE_CURVE(1, (#166, #167), .UNSPECIFIED., .U., .U.)
    B_SPLINE_CURVE_WITH_KNOTS((2, 2), (0.0, 1.0), .UNSPECIFIED.)
    CURVE()
    GEOMETRIC_REPRESENTATION_ITEM()
    RATIONAL_B_SPLINE_CURVE((1.0, 1.0))
    REPRESENTATION_ITEM('')
);
#166 = CARTESIAN_POINT('', (6.283185307179586, -5.0));
#167 = CARTESIAN_POINT('', (6.283185307179586, 0.0));
#168 = PCURVE('', #169, #188);
#169 = (
    BOUNDED_SURFACE()
    B_SPLINE_SURFACE(2, 1, ((#170, #171), (#172, #173), (#174, #175), (#176, #177), (#178, #179), (#180, #181), (#182, #183), (#184, #185), (#186, #187)), .UNSPECIFIED., .U., .U., .U.)
    B_SPLINE_SURFACE_WITH_KNOTS((3, 2, 2, 2, 3), (2, 2), (0.0, 1.5707963267948966, 3.141592653589793, 4.71238898038469, 6.283185307179586), (-5.0, 0.0), .UNSPECIFIED.)
    GEOMETRIC_REPRESENTATION_ITEM()
    RATIONAL_B_SPLINE_SURFACE(((1.0, 1.0), (0.7071067811865476, 0.7071067811865476), (1.0, 1.0), (0.7071067811865476, 0.7071067811865476), (1.0, 1.0), (0.7071067811865476, 0.7071067811865476), (1.0, 1.0), (0.7071067811865476, 0.7071067811865476), (1.0, 1.0)))
    REPRESENTATION_ITEM('')
    SURFACE()
);
#170 = CARTESIAN_POINT('', (2.0, 0.0, 0.0));
#171 = CARTESIAN_POINT('', (0.0, 0.0, 5.0));
#172 = CARTESIAN_POINT('', (2.0, 2.0, 0.0));
#173 = CARTESIAN_POINT('', (0.0, 0.0, 5.0));
#174 = CARTESIAN_POINT('', (0.0, 2.0, 0.0));
#175 = CARTESIAN_POINT('', (0.0, 0.0, 5.0));
#176 = CARTESIAN_POINT('', (-2.0, 2.0, 0.0));
#177 = CARTESIAN_POINT('', (0.0, 0.0, 5.0));
#178 = CARTESIAN_POINT('', (-2.0, 0.0, 0.0));
#179 = CARTESIAN_POINT('', (0.0, 0.0, 5.0));
#180 = CARTESIAN_POINT('', (-2.0, -2.0, 0.0));
#181 = CARTESIAN_POINT('', (0.0, 0.0, 5.0));
#182 = CARTESIAN_POINT('', (0.0, -2.0, 0.0));
#183 = CARTESIAN_POINT('', (0.0, 0.0, 5.0));
#184 = CARTESIAN_POINT('', (2.0, -2.0, 0.0));
#185 = CARTESIAN_POINT('', (0.0, 0.0, 5.0));
#186 = CARTESIAN_POINT('', (2.0, 0.0, 0.0));
#187 = CARTESIAN_POINT('', (0.0, 0.0, 5.0));
#188 = DEFINITIONAL_REPRESENTATION('', (#190), #189);
#189 = (
    GEOMETRIC_REPRESENTATION_CONTEXT(2)
    PARAMETRIC_REPRESENTATION_CONTEXT()
    REPRESENTATION_CONTEXT('2D SPACE', '')
);
#190 = (
    BOUNDED_CURVE()
    B_SPLINE_CURVE(1, (#191, #192), .UNSPECIFIED., .U., .U.)
    B_SPLINE_CURVE_WITH_KNOTS((2, 2), (-1.0, -0.0), .UNSPECIFIED.)
    CURVE()
    GEOMETRIC_REPRESENTATION_ITEM()
    RATIONAL_B_SPLINE_CURVE((1.0, 1.0))
    REPRESENTATION_ITEM('')
);
#191 = CARTESIAN_POINT('', (0.0, -5.0));
#192 = CARTESIAN_POINT('', (0.0, 0.0));
#193 = SURFACE_CURVE('', #194, (#197), .CURVE_3D.);
#194 = (
    BOUNDED_CURVE()
    B_SPLINE_CURVE(1, (#195, #196), .UNSPECIFIED., .U., .U.)
    B_SPLINE_CURVE_WITH_KNOTS((2, 2), (0.0, 1.0), .UNSPECIFIED.)
    CURVE()
    GEOMETRIC_REPRESENTATION_ITEM()
    RATIONAL_B_SPLINE_CURVE((1.0, 1.0))
    REPRESENTATION_ITEM('')
);
#195 = CARTESIAN_POINT('', (0.0, 0.0, 5.0));
#196 = CARTESIAN_POINT('', (0.0, 0.0, 5.0));
#197 = PCURVE('', #198, #217);
#198 = (
    BOUNDED_SURFACE()
    B_SPLINE_SURFACE(2, 1, ((#199, #200), (#201, #202), (#203, #204), (#205, #206), (#207, #208), (#209, #210), (#211, #212), (#213, #214), (#215, #216)), .UNSPECIFIED., .U., .U., .U.)
    B_SPLINE_SURFACE_WITH_KNOTS((3, 2, 2, 2, 3), (2, 2), (0.0, 1.5707963267948966, 3.141592653589793, 4.71238898038469, 6.283185307179586), (-5.0, 0.0), .UNSPECIFIED.)
    GEOMETRIC_REPRESENTATION_ITEM()
    RATIONAL_B_SPLINE_SURFACE(((1.0, 1.0), (0.7071067811865476, 0.7071067811865476), (1.0, 1.0), (0.7071067811865476, 0.7071067811865476), (1.0, 1.0), (0.7071067811865476, 0.7071067811865476), (1.0, 1.0), (0.7071067811865476, 0.7071067811865476), (1.0, 1.0)))
    REPRESENTATION_ITEM('')
    SURFACE()
);
#199 = CARTESIAN_POINT('', (2.0, 0.0, 0.0));
#200 = CARTESIAN_POINT('', (0.0, 0.0, 5.0));
#201 = CARTESIAN_POINT('', (2.0, 2.0, 0.0));
#202 = CARTESIAN_POINT('', (0.0, 0.0, 5.0));
#203 = CARTESIAN_POINT('', (0.0, 2.0, 0.0));
#204 = CARTESIAN_POINT('', (0.0, 0.0, 5.0));
#205 = CARTESIAN_POINT('', (-2.0, 2.0, 0.0));
#206 = CARTESIAN_POINT('', (0.0, 0.0, 5.0));
#207 = CARTESIAN_POINT('', (-2.0, 0.0, 0.0));
#208 = CARTESIAN_POINT('', (0.0, 0.0, 5.0));
#209 = CARTESIAN_POINT('', (-2.0, -2.0, 0.0));
#210 = CARTESIAN_POINT('', (0.0, 0.0, 5.0));
#211 = CARTESIAN_POINT('', (0.0, -2.0, 0.0));
#212 = CARTESIAN_POINT('', (0.0, 0.0, 5.0));
#213 = CARTESIAN_POINT('', (2.0, -2.0, 0.0));
#214 = CARTESIAN_POINT('', (0.0, 0.0, 5.0));
#215 = CARTESIAN_POINT('', (2.0, 0.0, 0.0));
#216 = CARTESIAN_POINT('', (0.0, 0.0, 5.0));
#217 = DEFINITIONAL_REPRESENTATION('', (#219), #218);
#218 = (
    GEOMETRIC_REPRESENTATION_CONTEXT(2)
    PARAMETRIC_REPRESENTATION_CONTEXT()
    REPRESENTATION_CONTEXT('2D SPACE', '')
);
#219 = (
    BOUNDED_CURVE()
    B_SPLINE_CURVE(1, (#220, #221), .UNSPECIFIED., .U., .U.)
    B_SPLINE_CURVE_WITH_KNOTS((2, 2), (0.0, 1.0), .UNSPECIFIED.)
    CURVE()
    GEOMETRIC_REPRESENTATION_ITEM()
    RATIONAL_B_SPLINE_CURVE((1.0, 1.0))
    REPRESENTATION_ITEM('')
);
#220 = CARTESIAN_POINT('', (6.283185307179586, 0.0));
#221 = CARTESIAN_POINT('', (0.0, 0.0));
#222 = SURFACE_CURVE('', #223, (#226), .CURVE_3D.);
#223 = (
    BOUNDED_CURVE()
    B_SPLINE_CURVE(1, (#224, #225), .UNSPECIFIED., .U., .U.)
    B_SPLINE_CURVE_WITH_KNOTS((2, 2), (0.0, 1.0), .UNSPECIFIED.)
    CURVE()
    GEOMETRIC_REPRESENTATION_ITEM()
    RATIONAL_B_SPLINE_CURVE((1.0, 1.0))
    REPRESENTATION_ITEM('')
);
#224 = CARTESIAN_POINT('', (0.0, 0.0, 0.0));
#225 = CARTESIAN_POINT('', (0.0, 0.0, 0.0));
#226 = PCURVE('', #227, #246);
#227 = (
    BOUNDED_SURFACE()
    B_SPLINE_SURFACE(2, 1, ((#228, #229), (#230, #231), (#232, #233), (#234, #235), (#236, #237), (#238, #239), (#240, #241), (#242, #243), (#244, #245)), .UNSPECIFIED., .U., .U., .U.)
    B_SPLINE_SURFACE_WITH_KNOTS((3, 2, 2, 2, 3), (2, 2), (0.0, 1.5707963267948966, 3.141592653589793, 4.71238898038469, 6.283185307179586), (0.0, 2.0), .UNSPECIFIED.)
    GEOMETRIC_REPRESENTATION_ITEM()
    RATIONAL_B_SPLINE_SURFACE(((1.0, 1.0), (0.7071067811865476, 0.7071067811865476), (1.0, 1.0), (0.7071067811865476, 0.7071067811865476), (1.0, 1.0), (0.7071067811865476, 0.7071067811865476), (1.0, 1.0), (0.7071067811865476, 0.7071067811865476), (1.0, 1.0)))
    REPRESENTATION_ITEM('')
    SURFACE()
);
#228 = CARTESIAN_POINT('', (0.0, 0.0, 0.0));
#229 = CARTESIAN_POINT('', (2.0, 0.0, 0.0));
#230 = CARTESIAN_POINT('', (0.0, 0.0, 0.0));
#231 = CARTESIAN_POINT('', (2.0, 2.0, 0.0));
#232 = CARTESIAN_POINT('', (0.0, 0.0, 0.0));
#233 = CARTESIAN_POINT('', (0.0, 2.0, 0.0));
#234 = CARTESIAN_POINT('', (0.0, 0.0, 0.0));
#235 = CARTESIAN_POINT('', (-2.0, 2.0, 0.0));
#236 = CARTESIAN_POINT('', (0.0, 0.0, 0.0));
#237 = CARTESIAN_POINT('', (-2.0, 0.0, 0.0));
#238 = CARTESIAN_POINT('', (0.0, 0.0, 0.0));
#239 = CARTESIAN_POINT('', (-2.0, -2.0, 0.0));
#240 = CARTESIAN_POINT('', (0.0, 0.0, 0.0));
#241 = CARTESIAN_POINT('', (0.0, -2.0, 0.0));
#242 = CARTESIAN_POINT('', (0.0, 0.0, 0.0));
#243 = CARTESIAN_POINT('', (2.0, -2.0, 0.0));
#244 = CARTESIAN_POINT('', (0.0, 0.0, 0.0));
#245 = CARTESIAN_POINT('', (2.0, 0.0, 0.0));
#246 = DEFINITIONAL_REPRESENTATION('', (#248), #247);
#247 = (
    GEOMETRIC_REPRESENTATION_CONTEXT(2)
    PARAMETRIC_REPRESENTATION_CONTEXT()
    REPRESENTATION_CONTEXT('2D SPACE', '')
);
#248 = (
    BOUNDED_CURVE()
    B_SPLINE_CURVE(1, (#249, #250), .UNSPECIFIED., .U., .U.)
    B_SPLINE_CURVE_WITH_KNOTS((2, 2), (0.0, 1.0), .UNSPECIFIED.)
    CURVE()
    GEOMETRIC_REPRESENTATION_ITEM()
    RATIONAL_B_SPLINE_CURVE((1.0, 1.0))
    REPRESENTATION_ITEM('')
);
#249 = CARTESIAN_POINT('', (0.0, 0.0));
#250 = CARTESIAN_POINT('', (6.283185307179586, 0.0));
#251 = SEAM_CURVE('', #252, (#255, #280), .CURVE_3D.);
#252 = (
    BOUNDED_CURVE()
    B_SPLINE_CURVE(1, (#253, #254), .UNSPECIFIED., .U., .U.)
    B_SPLINE_CURVE_WITH_KNOTS((2, 2), (0.0, 2.0), .UNSPECIFIED.)
    CURVE()
    GEOMETRIC_REPRESENTATION_ITEM()
    RATIONAL_B_SPLINE_CURVE((1.0, 1.0))
    REPRESENTATION_ITEM('')
);
#253 = CARTESIAN_POINT('', (0.0, 0.0, 0.0));
#254 = CARTESIAN_POINT('', (2.0, 0.0, 0.0));
#255 = PCURVE('', #256, #275);
#256 = (
    BOUNDED_SURFACE()
    B_SPLINE_SURFACE(2, 1, ((#257, #258), (#259, #260), (#261, #262), (#263, #264), (#265, #266), (#267, #268), (#269, #270), (#271, #272), (#273, #274)), .UNSPECIFIED., .U., .U., .U.)
    B_SPLINE_SURFACE_WITH_KNOTS((3, 2, 2, 2, 3), (2, 2), (0.0, 1.5707963267948966, 3.141592653589793, 4.71238898038469, 6.283185307179586), (0.0, 2.0), .UNSPECIFIED.)
    GEOMETRIC_REPRESENTATION_ITEM()
    RATIONAL_B_SPLINE_SURFACE(((1.0, 1.0), (0.7071067811865476, 0.7071067811865476), (1.0, 1.0), (0.7071067811865476, 0.7071067811865476), (1.0, 1.0), (0.7071067811865476, 0.7071067811865476), (1.0, 1.0), (0.7071067811865476, 0.7071067811865476), (1.0, 1.0)))
    REPRESENTATION_ITEM('')
    SURFACE()
);
#257 = CARTESIAN_POINT('', (0.0, 0.0, 0.0));
#258 = CARTESIAN_POINT('', (2.0, 0.0, 0.0));
#259 = CARTESIAN_POINT('', (0.0, 0.0, 0.0));
#260 = CARTESIAN_POINT('', (2.0, 2.0, 0.0));
#261 = CARTESIAN_POINT('', (0.0, 0.0, 0.0));
#262 = CARTESIAN_POINT('', (0.0, 2.0, 0.0));
#263 = CARTESIAN_POINT('', (0.0, 0.0, 0.0));
#264 = CARTESIAN_POINT('', (-2.0, 2.0, 0.0));
#265 = CARTESIAN_POINT('', (0.0, 0.0, 0.0));
#266 = CARTESIAN_POINT('', (-2.0, 0.0, 0.0));
#267 = CARTESIAN_POINT('', (0.0, 0.0, 0.0));
#268 = CARTESIAN_POINT('', (-2.0, -2.0, 0.0));
#269 = CARTESIAN_POINT('', (0.0, 0.0, 0.0));
#270 = CARTESIAN_POINT('', (0.0, -2.0, 0.0));
#271 = CARTESIAN_POINT('', (0.0, 0.0, 0.0));
#272 = CARTESIAN_POINT('', (2.0, -2.0, 0.0));
#273 = CARTESIAN_POINT('', (0.0, 0.0, 0.0));
#274 = CARTESIAN_POINT('', (2.0, 0.0, 0.0));
#275 = DEFINITIONAL_REPRESENTATION('', (#277), #276);
#276 = (
    GEOMETRIC_REPRESENTATION_CONTEXT(2)
    PARAMETRIC_REPRESENTATION_CONTEXT()
    REPRESENTATION_CONTEXT('2D SPACE', '')
);
#277 = (
    BOUNDED_CURVE()
    B_SPLINE_CURVE(1, (#278, #279), .UNSPECIFIED., .U., .U.)
    B_SPLINE_CURVE_WITH_KNOTS((2, 2), (0.0, 1.0), .UNSPECIFIED.)
    CURVE()
    GEOMETRIC_REPRESENTATION_ITEM()
    RATIONAL_B_SPLINE_CURVE((1.0, 1.0))
    REPRESENTATION_ITEM('')
);
#278 = CARTESIAN_POINT('', (6.283185307179586, 0.0));
#279 = CARTESIAN_POINT('', (6.283185307179586, 2.0));
#280 = PCURVE('', #281, #300);
#281 = (
    BOUNDED_SURFACE()
    B_SPLINE_SURFACE(2, 1, ((#282, #283), (#284, #285), (#286, #287), (#288, #289), (#290, #291), (#292, #293), (#294, #295), (#296, #297), (#298, #299)), .UNSPECIFIED., .U., .U., .U.)
    B_SPLINE_SURFACE_WITH_KNOTS((3, 2, 2, 2, 3), (2, 2), (0.0, 1.5707963267948966, 3.141592653589793, 4.71238898038469, 6.283185307179586), (0.0, 2.0), .UNSPECIFIED.)
    GEOMETRIC_REPRESENTATION_ITEM()
    RATIONAL_B_SPLINE_SURFACE(((1.0, 1.0), (0.7071067811865476, 0.7071067811865476), (1.0, 1.0), (0.7071067811865476, 0.7071067811865476), (1.0, 1.0), (0.7071067811865476, 0.7071067811865476), (1.0, 1.0), (0.7071067811865476, 0.7071067811865476), (1.0, 1.0)))
    REPRESENTATION_ITEM('')
    SURFACE()
);
#282 = CARTESIAN_POINT('', (0.0, 0.0, 0.0));
#283 = CARTESIAN_POINT('', (2.0, 0.0, 0.0));
#284 = CARTESIAN_POINT('', (0.0, 0.0, 0.0));
#285 = CARTESIAN_POINT('', (2.0, 2.0, 0.0));
#286 = CARTESIAN_POINT('', (0.0, 0.0, 0.0));
#287 = CARTESIAN_POINT('', (0.0, 2.0, 0.0));
#288 = CARTESIAN_POINT('', (0.0, 0.0, 0.0));
#289 = CARTESIAN_POINT('', (-2.0, 2.0, 0.0));
#290 = CARTESIAN_POINT('', (0.0, 0.0, 0.0));
#291 = CARTESIAN_POINT('', (-2.0, 0.0, 0.0));
#292 = CARTESIAN_POINT('', (0.0, 0.0, 0.0));
#293 = CARTESIAN_POINT('', (-2.0, -2.0, 0.0));
#294 = CARTESIAN_POINT('', (0.0, 0.0, 0.0));
#295 = CARTESIAN_POINT('', (0.0, -2.0, 0.0));
#296 = CARTESIAN_POINT('', (0.0, 0.0, 0.0));
#297 = CARTESIAN_POINT('', (2.0, -2.0, 0.0));
#298 = CARTESIAN_POINT('', (0.0, 0.0, 0.0));
#299 = CARTESIAN_POINT('', (2.0, 0.0, 0.0));
#300 = DEFINITIONAL_REPRESENTATION('', (#302), #301);
#301 = (
    GEOMETRIC_REPRESENTATION_CONTEXT(2)
    PARAMETRIC_REPRESENTATION_CONTEXT()
    REPRESENTATION_CONTEXT('2D SPACE', '')
);
#302 = (
    BOUNDED_CURVE()
    B_SPLINE_CURVE(1, (#303, #304), .UNSPECIFIED., .U., .U.)
    B_SPLINE_CURVE_WITH_KNOTS((2, 2), (-1.0, -0.0), .UNSPECIFIED.)
    CURVE()
    GEOMETRIC_REPRESENTATION_ITEM()
    RATIONAL_B_SPLINE_CURVE((1.0, 1.0))
    REPRESENTATION_ITEM('')
);
#303 = CARTESIAN_POINT('', (0.0, 0.0));
#304 = CARTESIAN_POINT('', (0.0, 2.0));
#305 = CARTESIAN_POINT('', (2.0E0, 0.0E0, 0.0E0));
#306 = CARTESIAN_POINT('', (0.0E0, 0.0E0, 5.0E0));
#307 = CARTESIAN_POINT('', (0.0E0, 0.0E0, 0.0E0));
#308 = ORIENTED_CLOSED_SHELL('', *, #309, .F.);
#309 = CLOSED_SHELL('', (#310));
#310 = ADVANCED_FACE('', (#311), #322, .T.);
#311 = FACE_BOUND('', #312, .T.);
#312 = EDGE_LOOP('', (#313, #314, #315, #316));
#313 = ORIENTED_EDGE('', *, *, #317, .T.);
#314 = ORIENTED_EDGE('', *, *, #318, .T.);
#315 = ORIENTED_EDGE('', *, *, #319, .T.);
#316 = ORIENTED_EDGE('', *, *, #318, .F.);
#317 = EDGE_CURVE('', #320, #320, #368, .T.);
#318 = EDGE_CURVE('', #320, #321, #424, .T.);
#319 = EDGE_CURVE('', #321, #321, #535, .T.);
#320 = VERTEX_POINT('', #591);
#321 = VERTEX_POINT('', #592);
#322 = (
    BOUNDED_SURFACE()
    B_SPLINE_SURFACE(2, 2, ((#323, #324, #325, #326, #327), (#328, #329, #330, #331, #332), (#333, #334, #335, #336, #337), (#338, #339, #340, #341, #342), (#343, #344, #345, #346, #347), (#348, #349, #350, #351, #352), (#353, #354, #355, #356, #357), (#358, #359, #360, #361, #362), (#363, #364, #365, #366, #367)), .UNSPECIFIED., .U., .U., .U.)
    B_SPLINE_SURFACE_WITH_KNOTS((3, 2, 2, 2, 3), (3, 2, 3), (0.0, 1.5707963267948966, 3.141592653589793, 4.71238898038469, 6.283185307179586), (-1.5707963267948966, 0.0, 1.5707963267948966), .UNSPECIFIED.)
    GEOMETRIC_REPRESENTATION_ITEM()
    RATIONAL_B_SPLINE_SURFACE(((1.0, 0.7071067811865476, 1.0, 0.7071067811865476, 1.0), (0.7071067811865476, 0.5000000000000001, 0.7071067811865476, 0.5000000000000001, 0.7071067811865476), (1.0, 0.7071067811865476, 1.0, 0.7071067811865476, 1.0), (0.7071067811865476, 0.5000000000000001, 0.7071067811865476, 0.5000000000000001, 0.7071067811865476), (1.0, 0.7071067811865476, 1.0, 0.7071067811865476, 1.0), (0.7071067811865476, 0.5000000000000001, 0.7071067811865476, 0.5000000000000001, 0.7071067811865476), (1.0, 0.7071067811865476, 1.0, 0.7071067811865476, 1.0), (0.7071067811865476, 0.5000000000000001, 0.7071067811865476, 0.5000000000000001, 0.7071067811865476), (1.0, 0.7071067811865476, 1.0, 0.7071067811865476, 1.0)))
    REPRESENTATION_ITEM('')
    SURFACE()
);
#323 = CARTESIAN_POINT('', (0.0, 0.0, 0.75));
#324 = CARTESIAN_POINT('', (0.25, 0.0, 0.75));
#325 = CARTESIAN_POINT('', (0.25, 0.0, 1.0));
#326 = CARTESIAN_POINT('', (0.25, 0.0, 1.25));
#327 = CARTESIAN_POINT('', (0.0, 0.0, 1.25));
#328 = CARTESIAN_POINT('', (0.0, 0.0, 0.75));
#329 = CARTESIAN_POINT('', (0.25, 0.25, 0.75));
#330 = CARTESIAN_POINT('', (0.25, 0.25, 1.0));
#331 = CARTESIAN_POINT('', (0.25, 0.25, 1.25));
#332 = CARTESIAN_POINT('', (0.0, 0.0, 1.25));
#333 = CARTESIAN_POINT('', (0.0, 0.0, 0.75));
#334 = CARTESIAN_POINT('', (0.0, 0.25, 0.75));
#335 = CARTESIAN_POINT('', (0.0, 0.25, 1.0));
#336 = CARTESIAN_POINT('', (0.0, 0.25, 1.25));
#337 = CARTESIAN_POINT('', (0.0, 0.0, 1.25));
#338 = CARTESIAN_POINT('', (0.0, 0.0, 0.75));
#339 = CARTESIAN_POINT('', (-0.25, 0.25, 0.75));
#340 = CARTESIAN_POINT('', (-0.25, 0.25, 1.0));
#341 = CARTESIAN_POINT('', (-0.25, 0.25, 1.25));
#342 = CARTESIAN_POINT('', (0.0, 0.0, 1.25));
#343 = CARTESIAN_POINT('', (0.0, 0.0, 0.75));
#344 = CARTESIAN_POINT('', (-0.25, 0.0, 0.75));
#345 = CARTESIAN_POINT('', (-0.25, 0.0, 1.0));
#346 = CARTESIAN_POINT('', (-0.25, 0.0, 1.25));
#347 = CARTESIAN_POINT('', (0.0, 0.0, 1.25));
#348 = CARTESIAN_POINT('', (0.0, 0.0, 0.75));
#349 = CARTESIAN_POINT('', (-0.25, -0.25, 0.75));
#350 = CARTESIAN_POINT('', (-0.25, -0.25, 1.0));
#351 = CARTESIAN_POINT('', (-0.25, -0.25, 1.25));
#352 = CARTESIAN_POINT('', (0.0, 0.0, 1.25));
#353 = CARTESIAN_POINT('', (0.0, 0.0, 0.75));
#354 = CARTESIAN_POINT('', (0.0, -0.25, 0.75));
#355 = CARTESIAN_POINT('', (0.0, -0.25, 1.0));
#356 = CARTESIAN_POINT('', (0.0, -0.25, 1.25));
#357 = CARTESIAN_POINT('', (0.0, 0.0, 1.25));
#358 = CARTESIAN_POINT('', (0.0, 0.0, 0.75));
#359 = CARTESIAN_POINT('', (0.25, -0.25, 0.75));
#360 = CARTESIAN_POINT('', (0.25, -0.25, 1.0));
#361 = CARTESIAN_POINT('', (0.25, -0.25, 1.25));
#362 = CARTESIAN_POINT('', (0.0, 0.0, 1.25));
#363 = CARTESIAN_POINT('', (0.0, 0.0, 0.75));
#364 = CARTESIAN_POINT('', (0.25, 0.0, 0.75));
#365 = CARTESIAN_POINT('', (0.25, 0.0, 1.0));
#366 = CARTESIAN_POINT('', (0.25, 0.0, 1.25));
#367 = CARTESIAN_POINT('', (0.0, 0.0, 1.25));
#368 = SURFACE_CURVE('', #369, (#372), .CURVE_3D.);
#369 = (
    BOUNDED_CURVE()
    B_SPLINE_CURVE(1, (#370, #371), .UNSPECIFIED., .U., .U.)
    B_SPLINE_CURVE_WITH_KNOTS((2, 2), (0.0, 1.0), .UNSPECIFIED.)
    CURVE()
    GEOMETRIC_REPRESENTATION_ITEM()
    RATIONAL_B_SPLINE_CURVE((1.0, 1.0))
    REPRESENTATION_ITEM('')
);
#370 = CARTESIAN_POINT('', (0.0, 0.0, 0.75));
#371 = CARTESIAN_POINT('', (0.0, 0.0, 0.75));
#372 = PCURVE('', #373, #419);
#373 = (
    BOUNDED_SURFACE()
    B_SPLINE_SURFACE(2, 2, ((#374, #375, #376, #377, #378), (#379, #380, #381, #382, #383), (#384, #385, #386, #387, #388), (#389, #390, #391, #392, #393), (#394, #395, #396, #397, #398), (#399, #400, #401, #402, #403), (#404, #405, #406, #407, #408), (#409, #410, #411, #412, #413), (#414, #415, #416, #417, #418)), .UNSPECIFIED., .U., .U., .U.)
    B_SPLINE_SURFACE_WITH_KNOTS((3, 2, 2, 2, 3), (3, 2, 3), (0.0, 1.5707963267948966, 3.141592653589793, 4.71238898038469, 6.283185307179586), (-1.5707963267948966, 0.0, 1.5707963267948966), .UNSPECIFIED.)
    GEOMETRIC_REPRESENTATION_ITEM()
    RATIONAL_B_SPLINE_SURFACE(((1.0, 0.7071067811865476, 1.0, 0.7071067811865476, 1.0), (0.7071067811865476, 0.5000000000000001, 0.7071067811865476, 0.5000000000000001, 0.7071067811865476), (1.0, 0.7071067811865476, 1.0, 0.7071067811865476, 1.0), (0.7071067811865476, 0.5000000000000001, 0.7071067811865476, 0.5000000000000001, 0.7071067811865476), (1.0, 0.7071067811865476, 1.0, 0.7071067811865476, 1.0), (0.7071067811865476, 0.5000000000000001, 0.7071067811865476, 0.5000000000000001, 0.7071067811865476), (1.0, 0.7071067811865476, 1.0, 0.7071067811865476, 1.0), (0.7071067811865476, 0.5000000000000001, 0.7071067811865476, 0.5000000000000001, 0.7071067811865476), (1.0, 0.7071067811865476, 1.0, 0.7071067811865476, 1.0)))
    REPRESENTATION_ITEM('')
    SURFACE()
);
#374 = CARTESIAN_POINT('', (0.0, 0.0, 0.75));
#375 = CARTESIAN_POINT('', (0.25, 0.0, 0.75));
#376 = CARTESIAN_POINT('', (0.25, 0.0, 1.0));
#377 = CARTESIAN_POINT('', (0.25, 0.0, 1.25));
#378 = CARTESIAN_POINT('', (0.0, 0.0, 1.25));
#379 = CARTESIAN_POINT('', (0.0, 0.0, 0.75));
#380 = CARTESIAN_POINT('', (0.25, 0.25, 0.75));
#381 = CARTESIAN_POINT('', (0.25, 0.25, 1.0));
#382 = CARTESIAN_POINT('', (0.25, 0.25, 1.25));
#383 = CARTESIAN_POINT('', (0.0, 0.0, 1.25));
#384 = CARTESIAN_POINT('', (0.0, 0.0, 0.75));
#385 = CARTESIAN_POINT('', (0.0, 0.25, 0.75));
#386 = CARTESIAN_POINT('', (0.0, 0.25, 1.0));
#387 = CARTESIAN_POINT('', (0.0, 0.25, 1.25));
#388 = CARTESIAN_POINT('', (0.0, 0.0, 1.25));
#389 = CARTESIAN_POINT('', (0.0, 0.0, 0.75));
#390 = CARTESIAN_POINT('', (-0.25, 0.25, 0.75));
#391 = CARTESIAN_POINT('', (-0.25, 0.25, 1.0));
#392 = CARTESIAN_POINT('', (-0.25, 0.25, 1.25));
#393 = CARTESIAN_POINT('', (0.0, 0.0, 1.25));
#394 = CARTESIAN_POINT('', (0.0, 0.0, 0.75));
#395 = CARTESIAN_POINT('', (-0.25, 0.0, 0.75));
#396 = CARTESIAN_POINT('', (-0.25, 0.0, 1.0));
#397 = CARTESIAN_POINT('', (-0.25, 0.0, 1.25));
#398 = CARTESIAN_POINT('', (0.0, 0.0, 1.25));
#399 = CARTESIAN_POINT('', (0.0, 0.0, 0.75));
#400 = CARTESIAN_POINT('', (-0.25, -0.25, 0.75));
#401 = CARTESIAN_POINT('', (-0.25, -0.25, 1.0));
#402 = CARTESIAN_POINT('', (-0.25, -0.25, 1.25));
#403 = CARTESIAN_POINT('', (0.0, 0.0, 1.25));
#404 = CARTESIAN_POINT('', (0.0, 0.0, 0.75));
#405 = CARTESIAN_POINT('', (0.0, -0.25, 0.75));
#406 = CARTESIAN_POINT('', (0.0, -0.25, 1.0));
#407 = CARTESIAN_POINT('', (0.0, -0.25, 1.25));
#408 = CARTESIAN_POINT('', (0.0, 0.0, 1.25));
#409 = CARTESIAN_POINT('', (0.0, 0.0, 0.75));
#410 = CARTESIAN_POINT('', (0.25, -0.25, 0.75));
#411 = CARTESIAN_POINT('', (0.25, -0.25, 1.0));
#412 = CARTESIAN_POINT('', (0.25, -0.25, 1.25));
#413 = CARTESIAN_POINT('', (0.0, 0.0, 1.25));
#414 = CARTESIAN_POINT('', (0.0, 0.0, 0.75));
#415 = CARTESIAN_POINT('', (0.25, 0.0, 0.75));
#416 = CARTESIAN_POINT('', (0.25, 0.0, 1.0));
#417 = CARTESIAN_POINT('', (0.25, 0.0, 1.25));
#418 = CARTESIAN_POINT('', (0.0, 0.0, 1.25));
#419 = DEFINITIONAL_REPRESENTATION('', (#421), #420);
#420 = (
    GEOMETRIC_REPRESENTATION_CONTEXT(2)
    PARAMETRIC_REPRESENTATION_CONTEXT()
    REPRESENTATION_CONTEXT('2D SPACE', '')
);
#421 = (
    BOUNDED_CURVE()
    B_SPLINE_CURVE(1, (#422, #423), .UNSPECIFIED., .U., .U.)
    B_SPLINE_CURVE_WITH_KNOTS((2, 2), (0.0, 1.0), .UNSPECIFIED.)
    CURVE()
    GEOMETRIC_REPRESENTATION_ITEM()
    RATIONAL_B_SPLINE_CURVE((1.0, 1.0))
    REPRESENTATION_ITEM('')
);
#422 = CARTESIAN_POINT('', (0.0, -1.5707963267948966));
#423 = CARTESIAN_POINT('', (6.283185307179586, -1.5707963267948966));
#424 = SEAM_CURVE('', #425, (#431, #483), .CURVE_3D.);
#425 = (
    BOUNDED_CURVE()
    B_SPLINE_CURVE(2, (#426, #427, #428, #429, #430), .UNSPECIFIED., .U., .U.)
    B_SPLINE_CURVE_WITH_KNOTS((3, 2, 3), (-1.5707963267948966, 0.0, 1.5707963267948966), .UNSPECIFIED.)
    CURVE()
    GEOMETRIC_REPRESENTATION_ITEM()
    RATIONAL_B_SPLINE_CURVE((1.0, 0.7071067811865476, 1.0, 0.7071067811865476, 1.0))
    REPRESENTATION_ITEM('')
);
#426 = CARTESIAN_POINT('', (0.0, 0.0, 0.75));
#427 = CARTESIAN_POINT('', (0.25, 0.0, 0.75));
#428 = CARTESIAN_POINT('', (0.25, 0.0, 1.0));
#429 = CARTESIAN_POINT('', (0.25, 0.0, 1.25));
#430 = CARTESIAN_POINT('', (0.0, 0.0, 1.25));
#431 = PCURVE('', #432, #478);
#432 = (
    BOUNDED_SURFACE()
    B_SPLINE_SURFACE(2, 2, ((#433, #434, #435, #436, #437), (#438, #439, #440, #441, #442), (#443, #444, #445, #446, #447), (#448, #449, #450, #451, #452), (#453, #454, #455, #456, #457), (#458, #459, #460, #461, #462), (#463, #464, #465, #466, #467), (#468, #469, #470, #471, #472), (#473, #474, #475, #476, #477)), .UNSPECIFIED., .U., .U., .U.)
    B_SPLINE_SURFACE_WITH_KNOTS((3, 2, 2, 2, 3), (3, 2, 3), (0.0, 1.5707963267948966, 3.141592653589793, 4.71238898038469, 6.283185307179586), (-1.5707963267948966, 0.0, 1.5707963267948966), .UNSPECIFIED.)
    GEOMETRIC_REPRESENTATION_ITEM()
    RATIONAL_B_SPLINE_SURFACE(((1.0, 0.7071067811865476, 1.0, 0.7071067811865476, 1.0), (0.7071067811865476, 0.5000000000000001, 0.7071067811865476, 0.5000000000000001, 0.7071067811865476), (1.0, 0.7071067811865476, 1.0, 0.7071067811865476, 1.0), (0.7071067811865476, 0.5000000000000001, 0.7071067811865476, 0.5000000000000001, 0.7071067811865476), (1.0, 0.7071067811865476, 1.0, 0.7071067811865476, 1.0), (0.7071067811865476, 0.5000000000000001, 0.7071067811865476, 0.5000000000000001, 0.7071067811865476), (1.0, 0.7071067811865476, 1.0, 0.7071067811865476, 1.0), (0.7071067811865476, 0.5000000000000001, 0.7071067811865476, 0.5000000000000001, 0.7071067811865476), (1.0, 0.7071067811865476, 1.0, 0.7071067811865476, 1.0)))
    REPRESENTATION_ITEM('')
    SURFACE()
);
#433 = CARTESIAN_POINT('', (0.0, 0.0, 0.75));
#434 = CARTESIAN_POINT('', (0.25, 0.0, 0.75));
#435 = CARTESIAN_POINT('', (0.25, 0.0, 1.0));
#436 = CARTESIAN_POINT('', (0.25, 0.0, 1.25));
#437 = CARTESIAN_POINT('', (0.0, 0.0, 1.25));
#438 = CARTESIAN_POINT('', (0.0, 0.0, 0.75));
#439 = CARTESIAN_POINT('', (0.25, 0.25, 0.75));
#440 = CARTESIAN_POINT('', (0.25, 0.25, 1.0));
#441 = CARTESIAN_POINT('', (0.25, 0.25, 1.25));
#442 = CARTESIAN_POINT('', (0.0, 0.0, 1.25));
#443 = CARTESIAN_POINT('', (0.0, 0.0, 0.75));
#444 = CARTESIAN_POINT('', (0.0, 0.25, 0.75));
#445 = CARTESIAN_POINT('', (0.0, 0.25, 1.0));
#446 = CARTESIAN_POINT('', (0.0, 0.25, 1.25));
#447 = CARTESIAN_POINT('', (0.0, 0.0, 1.25));
#448 = CARTESIAN_POINT('', (0.0, 0.0, 0.75));
#449 = CARTESIAN_POINT('', (-0.25, 0.25, 0.75));
#450 = CARTESIAN_POINT('', (-0.25, 0.25, 1.0));
#451 = CARTESIAN_POINT('', (-0.25, 0.25, 1.25));
#452 = CARTESIAN_POINT('', (0.0, 0.0, 1.25));
#453 = CARTESIAN_POINT('', (0.0, 0.0, 0.75));
#454 = CARTESIAN_POINT('', (-0.25, 0.0, 0.75));
#455 = CARTESIAN_POINT('', (-0.25, 0.0, 1.0));
#456 = CARTESIAN_POINT('', (-0.25, 0.0, 1.25));
#457 = CARTESIAN_POINT('', (0.0, 0.0, 1.25));
#458 = CARTESIAN_POINT('', (0.0, 0.0, 0.75));
#459 = CARTESIAN_POINT('', (-0.25, -0.25, 0.75));
#460 = CARTESIAN_POINT('', (-0.25, -0.25, 1.0));
#461 = CARTESIAN_POINT('', (-0.25, -0.25, 1.25));
#462 = CARTESIAN_POINT('', (0.0, 0.0, 1.25));
#463 = CARTESIAN_POINT('', (0.0, 0.0, 0.75));
#464 = CARTESIAN_POINT('', (0.0, -0.25, 0.75));
#465 = CARTESIAN_POINT('', (0.0, -0.25, 1.0));
#466 = CARTESIAN_POINT('', (0.0, -0.25, 1.25));
#467 = CARTESIAN_POINT('', (0.0, 0.0, 1.25));
#468 = CARTESIAN_POINT('', (0.0, 0.0, 0.75));
#469 = CARTESIAN_POINT('', (0.25, -0.25, 0.75));
#470 = CARTESIAN_POINT('', (0.25, -0.25, 1.0));
#471 = CARTESIAN_POINT('', (0.25, -0.25, 1.25));
#472 = CARTESIAN_POINT('', (0.0, 0.0, 1.25));
#473 = CARTESIAN_POINT('', (0.0, 0.0, 0.75));
#474 = CARTESIAN_POINT('', (0.25, 0.0, 0.75));
#475 = CARTESIAN_POINT('', (0.25, 0.0, 1.0));
#476 = CARTESIAN_POINT('', (0.25, 0.0, 1.25));
#477 = CARTESIAN_POINT('', (0.0, 0.0, 1.25));
#478 = DEFINITIONAL_REPRESENTATION('', (#480), #479);
#479 = (
    GEOMETRIC_REPRESENTATION_CONTEXT(2)
    PARAMETRIC_REPRESENTATION_CONTEXT()
    REPRESENTATION_CONTEXT('2D SPACE', '')
);
#480 = (
    BOUNDED_CURVE()
    B_SPLINE_CURVE(1, (#481, #482), .UNSPECIFIED., .U., .U.)
    B_SPLINE_CURVE_WITH_KNOTS((2, 2), (0.0, 1.0), .UNSPECIFIED.)
    CURVE()
    GEOMETRIC_REPRESENTATION_ITEM()
    RATIONAL_B_SPLINE_CURVE((1.0, 1.0))
    REPRESENTATION_ITEM('')
);
#481 = CARTESIAN_POINT('', (6.283185307179586, -1.5707963267948966));
#482 = CARTESIAN_POINT('', (6.283185307179586, 1.5707963267948966));
#483 = PCURVE('', #484, #530);
#484 = (
    BOUNDED_SURFACE()
    B_SPLINE_SURFACE(2, 2, ((#485, #486, #487, #488, #489), (#490, #491, #492, #493, #494), (#495, #496, #497, #498, #499), (#500, #501, #502, #503, #504), (#505, #506, #507, #508, #509), (#510, #511, #512, #513, #514), (#515, #516, #517, #518, #519), (#520, #521, #522, #523, #524), (#525, #526, #527, #528, #529)), .UNSPECIFIED., .U., .U., .U.)
    B_SPLINE_SURFACE_WITH_KNOTS((3, 2, 2, 2, 3), (3, 2, 3), (0.0, 1.5707963267948966, 3.141592653589793, 4.71238898038469, 6.283185307179586), (-1.5707963267948966, 0.0, 1.5707963267948966), .UNSPECIFIED.)
    GEOMETRIC_REPRESENTATION_ITEM()
    RATIONAL_B_SPLINE_SURFACE(((1.0, 0.7071067811865476, 1.0, 0.7071067811865476, 1.0), (0.7071067811865476, 0.5000000000000001, 0.7071067811865476, 0.5000000000000001, 0.7071067811865476), (1.0, 0.7071067811865476, 1.0, 0.7071067811865476, 1.0), (0.7071067811865476, 0.5000000000000001, 0.7071067811865476, 0.5000000000000001, 0.7071067811865476), (1.0, 0.7071067811865476, 1.0, 0.7071067811865476, 1.0), (0.7071067811865476, 0.5000000000000001, 0.7071067811865476, 0.5000000000000001, 0.7071067811865476), (1.0, 0.7071067811865476, 1.0, 0.7071067811865476, 1.0), (0.7071067811865476, 0.5000000000000001, 0.7071067811865476, 0.5000000000000001, 0.7071067811865476), (1.0, 0.7071067811865476, 1.0, 0.7071067811865476, 1.0)))
    REPRESENTATION_ITEM('')
    SURFACE()
);
#485 = CARTESIAN_POINT('', (0.0, 0.0, 0.75));
#486 = CARTESIAN_POINT('', (0.25, 0.0, 0.75));
#487 = CARTESIAN_POINT('', (0.25, 0.0, 1.0));
#488 = CARTESIAN_POINT('', (0.25, 0.0, 1.25));
#489 = CARTESIAN_POINT('', (0.0, 0.0, 1.25));
#490 = CARTESIAN_POINT('', (0.0, 0.0, 0.75));
#491 = CARTESIAN_POINT('', (0.25, 0.25, 0.75));
#492 = CARTESIAN_POINT('', (0.25, 0.25, 1.0));
#493 = CARTESIAN_POINT('', (0.25, 0.25, 1.25));
#494 = CARTESIAN_POINT('', (0.0, 0.0, 1.25));
#495 = CARTESIAN_POINT('', (0.0, 0.0, 0.75));
#496 = CARTESIAN_POINT('', (0.0, 0.25, 0.75));
#497 = CARTESIAN_POINT('', (0.0, 0.25, 1.0));
#498 = CARTESIAN_POINT('', (0.0, 0.25, 1.25));
#499 = CARTESIAN_POINT('', (0.0, 0.0, 1.25));
#500 = CARTESIAN_POINT('', (0.0, 0.0, 0.75));
#501 = CARTESIAN_POINT('', (-0.25, 0.25, 0.75));
#502 = CARTESIAN_POINT('', (-0.25, 0.25, 1.0));
#503 = CARTESIAN_POINT('', (-0.25, 0.25, 1.25));
#504 = CARTESIAN_POINT('', (0.0, 0.0, 1.25));
#505 = CARTESIAN_POINT('', (0.0, 0.0, 0.75));
#506 = CARTESIAN_POINT('', (-0.25, 0.0, 0.75));
#507 = CARTESIAN_POINT('', (-0.25, 0.0, 1.0));
#508 = CARTESIAN_POINT('', (-0.25, 0.0, 1.25));
#509 = CARTESIAN_POINT('', (0.0, 0.0, 1.25));
#510 = CARTESIAN_POINT('', (0.0, 0.0, 0.75));
#511 = CARTESIAN_POINT('', (-0.25, -0.25, 0.75));
#512 = CARTESIAN_POINT('', (-0.25, -0.25, 1.0));
#513 = CARTESIAN_POINT('', (-0.25, -0.25, 1.25));
#514 = CARTESIAN_POINT('', (0.0, 0.0, 1.25));
#515 = CARTESIAN_POINT('', (0.0, 0.0, 0.75));
#516 = CARTESIAN_POINT('', (0.0, -0.25, 0.75));
#517 = CARTESIAN_POINT('', (0.0, -0.25, 1.0));
#518 = CARTESIAN_POINT('', (0.0, -0.25, 1.25));
#519 = CARTESIAN_POINT('', (0.0, 0.0, 1.25));
#520 = CARTESIAN_POINT('', (0.0, 0.0, 0.75));
#521 = CARTESIAN_POINT('', (0.25, -0.25, 0.75));
#522 = CARTESIAN_POINT('', (0.25, -0.25, 1.0));
#523 = CARTESIAN_POINT('', (0.25, -0.25, 1.25));
#524 = CARTESIAN_POINT('', (0.0, 0.0, 1.25));
#525 = CARTESIAN_POINT('', (0.0, 0.0, 0.75));
#526 = CARTESIAN_POINT('', (0.25, 0.0, 0.75));
#527 = CARTESIAN_POINT('', (0.25, 0.0, 1.0));
#528 = CARTESIAN_POINT('', (0.25, 0.0, 1.25));
#529 = CARTESIAN_POINT('', (0.0, 0.0, 1.25));
#530 = DEFINITIONAL_REPRESENTATION('', (#532), #531);
#531 = (
    GEOMETRIC_REPRESENTATION_CONTEXT(2)
    PARAMETRIC_REPRESENTATION_CONTEXT()
    REPRESENTATION_CONTEXT('2D SPACE', '')
);
#532 = (
    BOUNDED_CURVE()
    B_SPLINE_CURVE(1, (#533, #534), .UNSPECIFIED., .U., .U.)
    B_SPLINE_CURVE_WITH_KNOTS((2, 2), (-1.0, -0.0), .UNSPECIFIED.)
    CURVE()
    GEOMETRIC_REPRESENTATION_ITEM()
    RATIONAL_B_SPLINE_CURVE((1.0, 1.0))
    REPRESENTATION_ITEM('')
);
#533 = CARTESIAN_POINT('', (0.0, -1.5707963267948966));
#534 = CARTESIAN_POINT('', (0.0, 1.5707963267948966));
#535 = SURFACE_CURVE('', #536, (#539), .CURVE_3D.);
#536 = (
    BOUNDED_CURVE()
    B_SPLINE_CURVE(1, (#537, #538), .UNSPECIFIED., .U., .U.)
    B_SPLINE_CURVE_WITH_KNOTS((2, 2), (0.0, 1.0), .UNSPECIFIED.)
    CURVE()
    GEOMETRIC_REPRESENTATION_ITEM()
    RATIONAL_B_SPLINE_CURVE((1.0, 1.0))
    REPRESENTATION_ITEM('')
);
#537 = CARTESIAN_POINT('', (0.0, 0.0, 1.25));
#538 = CARTESIAN_POINT('', (0.0, 0.0, 1.25));
#539 = PCURVE('', #540, #586);
#540 = (
    BOUNDED_SURFACE()
    B_SPLINE_SURFACE(2, 2, ((#541, #542, #543, #544, #545), (#546, #547, #548, #549, #550), (#551, #552, #553, #554, #555), (#556, #557, #558, #559, #560), (#561, #562, #563, #564, #565), (#566, #567, #568, #569, #570), (#571, #572, #573, #574, #575), (#576, #577, #578, #579, #580), (#581, #582, #583, #584, #585)), .UNSPECIFIED., .U., .U., .U.)
    B_SPLINE_SURFACE_WITH_KNOTS((3, 2, 2, 2, 3), (3, 2, 3), (0.0, 1.5707963267948966, 3.141592653589793, 4.71238898038469, 6.283185307179586), (-1.5707963267948966, 0.0, 1.5707963267948966), .UNSPECIFIED.)
    GEOMETRIC_REPRESENTATION_ITEM()
    RATIONAL_B_SPLINE_SURFACE(((1.0, 0.7071067811865476, 1.0, 0.7071067811865476, 1.0), (0.7071067811865476, 0.5000000000000001, 0.7071067811865476, 0.5000000000000001, 0.7071067811865476), (1.0, 0.7071067811865476, 1.0, 0.7071067811865476, 1.0), (0.7071067811865476, 0.5000000000000001, 0.7071067811865476, 0.5000000000000001, 0.7071067811865476), (1.0, 0.7071067811865476, 1.0, 0.7071067811865476, 1.0), (0.7071067811865476, 0.5000000000000001, 0.7071067811865476, 0.5000000000000001, 0.7071067811865476), (1.0, 0.7071067811865476, 1.0, 0.7071067811865476, 1.0), (0.7071067811865476, 0.5000000000000001, 0.7071067811865476, 0.5000000000000001, 0.7071067811865476), (1.0, 0.7071067811865476, 1.0, 0.7071067811865476, 1.0)))
    REPRESENTATION_ITEM('')
    SURFACE()
);
#541 = CARTESIAN_POINT('', (0.0, 0.0, 0.75));
#542 = CARTESIAN_POINT('', (0.25, 0.0, 0.75));
#543 = CARTESIAN_POINT('', (0.25, 0.0, 1.0));
#544 = CARTESIAN_POINT('', (0.25, 0.0, 1.25));
#545 = CARTESIAN_POINT('', (0.0, 0.0, 1.25));
#546 = CARTESIAN_POINT('', (0.0, 0.0, 0.75));
#547 = CARTESIAN_POINT('', (0.25, 0.25, 0.75));
#548 = CARTESIAN_POINT('', (0.25, 0.25, 1.0));
#549 = CARTESIAN_POINT('', (0.25, 0.25, 1.25));
#550 = CARTESIAN_POINT('', (0.0, 0.0, 1.25));
#551 = CARTESIAN_POINT('', (0.0, 0.0, 0.75));
#552 = CARTESIAN_POINT('', (0.0, 0.25, 0.75));
#553 = CARTESIAN_POINT('', (0.0, 0.25, 1.0));
#554 = CARTESIAN_POINT('', (0.0, 0.25, 1.25));
#555 = CARTESIAN_POINT('', (0.0, 0.0, 1.25));
#556 = CARTESIAN_POINT('', (0.0, 0.0, 0.75));
#557 = CARTESIAN_POINT('', (-0.25, 0.25, 0.75));
#558 = CARTESIAN_POINT('', (-0.25, 0.25, 1.0));
#559 = CARTESIAN_POINT('', (-0.25, 0.25, 1.25));
#560 = CARTESIAN_POINT('', (0.0, 0.0, 1.25));
#561 = CARTESIAN_POINT('', (0.0, 0.0, 0.75));
#562 = CARTESIAN_POINT('', (-0.25, 0.0, 0.75));
#563 = CARTESIAN_POINT('', (-0.25, 0.0, 1.0));
#564 = CARTESIAN_POINT('', (-0.25, 0.0, 1.25));
#565 = CARTESIAN_POINT('', (0.0, 0.0, 1.25));
#566 = CARTESIAN_POINT('', (0.0, 0.0, 0.75));
#567 = CARTESIAN_POINT('', (-0.25, -0.25, 0.75));
#568 = CARTESIAN_POINT('', (-0.25, -0.25, 1.0));
#569 = CARTESIAN_POINT('', (-0.25, -0.25, 1.25));
#570 = CARTESIAN_POINT('', (0.0, 0.0, 1.25));
#571 = CARTESIAN_POINT('', (0.0, 0.0, 0.75));
#572 = CARTESIAN_POINT('', (0.0, -0.25, 0.75));
#573 = CARTESIAN_POINT('', (0.0, -0.25, 1.0));
#574 = CARTESIAN_POINT('', (0.0, -0.25, 1.25));
#575 = CARTESIAN_POINT('', (0.0, 0.0, 1.25));
#576 = CARTESIAN_POINT('', (0.0, 0.0, 0.75));
#577 = CARTESIAN_POINT('', (0.25, -0.25, 0.75));
#578 = CARTESIAN_POINT('', (0.25, -0.25, 1.0));
#579 = CARTESIAN_POINT('', (0.25, -0.25, 1.25));
#580 = CARTESIAN_POINT('', (0.0, 0.0, 1.25));
#581 = CARTESIAN_POINT('', (0.0, 0.0, 0.75));
#582 = CARTESIAN_POINT('', (0.25, 0.0, 0.75));
#583 = CARTESIAN_POINT('', (0.25, 0.0, 1.0));
#584 = CARTESIAN_POINT('', (0.25, 0.0, 1.25));
#585 = CARTESIAN_POINT('', (0.0, 0.0, 1.25));
#586 = DEFINITIONAL_REPRESENTATION('', (#588), #587);
#587 = (
    GEOMETRIC_REPRESENTATION_CONTEXT(2)
    PARAMETRIC_REPRESENTATION_CONTEXT()
    REPRESENTATION_CONTEXT('2D SPACE', '')
);
#588 = (
    BOUNDED_CURVE()
    B_SPLINE_CURVE(1, (#589, #590), .UNSPECIFIED., .U., .U.)
    B_SPLINE_CURVE_WITH_KNOTS((2, 2), (0.0, 1.0), .UNSPECIFIED.)
    CURVE()
    GEOMETRIC_REPRESENTATION_ITEM()
    RATIONAL_B_SPLINE_CURVE((1.0, 1.0))
    REPRESENTATION_ITEM('')
);
#589 = CARTESIAN_POINT('', (6.283185307179586, 1.5707963267948966));
#590 = CARTESIAN_POINT('', (0.0, 1.5707963267948966));
#591 = CARTESIAN_POINT('', (0.0E0, 0.0E0, 7.5E-1));
#592 = CARTESIAN_POINT('', (0.0E0, 0.0E0, 1.25E0));
ENDSEC;
END-ISO-10303-21;
