ISO-10303-21;
HEADER;
FILE_DESCRIPTION(('Shape Data from monstertruck'), '2;1');
FILE_NAME('', '2026-10-10 08:42:00.574055214', (''), (''), 'monstertruck', 'Viboceros', '');
FILE_SCHEMA(('AUTOMOTIVE_DESIGN'));
ENDSEC;
DATA;
#1 = APPLICATION_PROTOCOL_DEFINITION('international standard', 'automotive_design', 2000, #2);
#2 = APPLICATION_CONTEXT('core data for automotive mechanical design processes');
#3 = SHAPE_DEFINITION_REPRESENTATION(#4, #10);
#4 = PRODUCT_DEFINITION_SHAPE('','', #5);
#5 = PRODUCT_DEFINITION('design','', #6, #9);
#6 = PRODUCT_DEFINITION_FORMATION('','', #7);
#7 = PRODUCT('','','', (#8));
#8 = PRODUCT_CONTEXT('', #2, 'mechanical');
#9 = PRODUCT_DEFINITION_CONTEXT('part definition', #2, 'design');
#10 = ADVANCED_BREP_SHAPE_REPRESENTATION('', (#16, #301), #11);
#11 = (
    GEOMETRIC_REPRESENTATION_CONTEXT(3)
    GLOBAL_UNCERTAINTY_ASSIGNED_CONTEXT((#15))
    GLOBAL_UNIT_ASSIGNED_CONTEXT((#12, #13, #14))
    REPRESENTATION_CONTEXT('Context #1', '3D Context with UNIT and UNCERTAINTY')
);
#12 = ( LENGTH_UNIT() NAMED_UNIT(*) SI_UNIT(.MILLI.,.METRE.) );
#13 = ( NAMED_UNIT(*) PLANE_ANGLE_UNIT() SI_UNIT($,.RADIAN.) );
#14 = ( NAMED_UNIT(*) SI_UNIT($,.STERADIAN.) SOLID_ANGLE_UNIT() );
#15 = UNCERTAINTY_MEASURE_WITH_UNIT(LENGTH_MEASURE(1.0E-6), #12, 'distance_accuracy_value','confusion accuracy');
#16 = MANIFOLD_SOLID_BREP('', #17);
#17 = CLOSED_SHELL('', (#18));
#18 = ADVANCED_FACE('', (#19), #30, .T.);
#19 = FACE_BOUND('', #20, .T.);
#20 = EDGE_LOOP('', (#21, #22, #23, #24));
#21 = ORIENTED_EDGE('', *, *, #25, .T.);
#22 = ORIENTED_EDGE('', *, *, #26, .T.);
#23 = ORIENTED_EDGE('', *, *, #27, .T.);
#24 = ORIENTED_EDGE('', *, *, #26, .F.);
#25 = EDGE_CURVE('', #28, #28, #76, .T.);
#26 = EDGE_CURVE('', #28, #29, #132, .T.);
#27 = EDGE_CURVE('', #29, #29, #243, .T.);
#28 = VERTEX_POINT('', #299);
#29 = VERTEX_POINT('', #300);
#30 = (
    BOUNDED_SURFACE()
    B_SPLINE_SURFACE(2, 2, ((#31, #32, #33, #34, #35), (#36, #37, #38, #39, #40), (#41, #42, #43, #44, #45), (#46, #47, #48, #49, #50), (#51, #52, #53, #54, #55), (#56, #57, #58, #59, #60), (#61, #62, #63, #64, #65), (#66, #67, #68, #69, #70), (#71, #72, #73, #74, #75)), .UNSPECIFIED., .U., .U., .U.)
    B_SPLINE_SURFACE_WITH_KNOTS((3, 2, 2, 2, 3), (3, 2, 3), (0.0, 1.5707963267948966, 3.141592653589793, 4.71238898038469, 6.283185307179586), (-1.5707963267948966, 0.0, 1.5707963267948966), .UNSPECIFIED.)
    GEOMETRIC_REPRESENTATION_ITEM()
    RATIONAL_B_SPLINE_SURFACE(((1.0, 0.7071067811865476, 1.0, 0.7071067811865476, 1.0), (0.7071067811865476, 0.5000000000000001, 0.7071067811865476, 0.5000000000000001, 0.7071067811865476), (1.0, 0.7071067811865476, 1.0, 0.7071067811865476, 1.0), (0.7071067811865476, 0.5000000000000001, 0.7071067811865476, 0.5000000000000001, 0.7071067811865476), (1.0, 0.7071067811865476, 1.0, 0.7071067811865476, 1.0), (0.7071067811865476, 0.5000000000000001, 0.7071067811865476, 0.5000000000000001, 0.7071067811865476), (1.0, 0.7071067811865476, 1.0, 0.7071067811865476, 1.0), (0.7071067811865476, 0.5000000000000001, 0.7071067811865476, 0.5000000000000001, 0.7071067811865476), (1.0, 0.7071067811865476, 1.0, 0.7071067811865476, 1.0)))
    REPRESENTATION_ITEM('')
    SURFACE()
);
#31 = CARTESIAN_POINT('', (0.0, 0.0, -0.5));
#32 = CARTESIAN_POINT('', (0.5, 0.0, -0.5));
#33 = CARTESIAN_POINT('', (0.5, 0.0, 0.0));
#34 = CARTESIAN_POINT('', (0.5, 0.0, 0.5));
#35 = CARTESIAN_POINT('', (0.0, 0.0, 0.5));
#36 = CARTESIAN_POINT('', (0.0, 0.0, -0.5));
#37 = CARTESIAN_POINT('', (0.5, 0.5, -0.5));
#38 = CARTESIAN_POINT('', (0.5, 0.5, 0.0));
#39 = CARTESIAN_POINT('', (0.5, 0.5, 0.5));
#40 = CARTESIAN_POINT('', (0.0, 0.0, 0.5));
#41 = CARTESIAN_POINT('', (0.0, 0.0, -0.5));
#42 = CARTESIAN_POINT('', (0.0, 0.5, -0.5));
#43 = CARTESIAN_POINT('', (0.0, 0.5, 0.0));
#44 = CARTESIAN_POINT('', (0.0, 0.5, 0.5));
#45 = CARTESIAN_POINT('', (0.0, 0.0, 0.5));
#46 = CARTESIAN_POINT('', (0.0, 0.0, -0.5));
#47 = CARTESIAN_POINT('', (-0.5, 0.5, -0.5));
#48 = CARTESIAN_POINT('', (-0.5, 0.5, 0.0));
#49 = CARTESIAN_POINT('', (-0.5, 0.5, 0.5));
#50 = CARTESIAN_POINT('', (0.0, 0.0, 0.5));
#51 = CARTESIAN_POINT('', (0.0, 0.0, -0.5));
#52 = CARTESIAN_POINT('', (-0.5, 0.0, -0.5));
#53 = CARTESIAN_POINT('', (-0.5, 0.0, 0.0));
#54 = CARTESIAN_POINT('', (-0.5, 0.0, 0.5));
#55 = CARTESIAN_POINT('', (0.0, 0.0, 0.5));
#56 = CARTESIAN_POINT('', (0.0, 0.0, -0.5));
#57 = CARTESIAN_POINT('', (-0.5, -0.5, -0.5));
#58 = CARTESIAN_POINT('', (-0.5, -0.5, 0.0));
#59 = CARTESIAN_POINT('', (-0.5, -0.5, 0.5));
#60 = CARTESIAN_POINT('', (0.0, 0.0, 0.5));
#61 = CARTESIAN_POINT('', (0.0, 0.0, -0.5));
#62 = CARTESIAN_POINT('', (0.0, -0.5, -0.5));
#63 = CARTESIAN_POINT('', (0.0, -0.5, 0.0));
#64 = CARTESIAN_POINT('', (0.0, -0.5, 0.5));
#65 = CARTESIAN_POINT('', (0.0, 0.0, 0.5));
#66 = CARTESIAN_POINT('', (0.0, 0.0, -0.5));
#67 = CARTESIAN_POINT('', (0.5, -0.5, -0.5));
#68 = CARTESIAN_POINT('', (0.5, -0.5, 0.0));
#69 = CARTESIAN_POINT('', (0.5, -0.5, 0.5));
#70 = CARTESIAN_POINT('', (0.0, 0.0, 0.5));
#71 = CARTESIAN_POINT('', (0.0, 0.0, -0.5));
#72 = CARTESIAN_POINT('', (0.5, 0.0, -0.5));
#73 = CARTESIAN_POINT('', (0.5, 0.0, 0.0));
#74 = CARTESIAN_POINT('', (0.5, 0.0, 0.5));
#75 = CARTESIAN_POINT('', (0.0, 0.0, 0.5));
#76 = SURFACE_CURVE('', #77, (#80), .CURVE_3D.);
#77 = (
    BOUNDED_CURVE()
    B_SPLINE_CURVE(1, (#78, #79), .UNSPECIFIED., .U., .U.)
    B_SPLINE_CURVE_WITH_KNOTS((2, 2), (0.0, 1.0), .UNSPECIFIED.)
    CURVE()
    GEOMETRIC_REPRESENTATION_ITEM()
    RATIONAL_B_SPLINE_CURVE((1.0, 1.0))
    REPRESENTATION_ITEM('')
);
#78 = CARTESIAN_POINT('', (0.0, 0.0, -0.5));
#79 = CARTESIAN_POINT('', (0.0, 0.0, -0.5));
#80 = PCURVE('', #81, #127);
#81 = (
    BOUNDED_SURFACE()
    B_SPLINE_SURFACE(2, 2, ((#82, #83, #84, #85, #86), (#87, #88, #89, #90, #91), (#92, #93, #94, #95, #96), (#97, #98, #99, #100, #101), (#102, #103, #104, #105, #106), (#107, #108, #109, #110, #111), (#112, #113, #114, #115, #116), (#117, #118, #119, #120, #121), (#122, #123, #124, #125, #126)), .UNSPECIFIED., .U., .U., .U.)
    B_SPLINE_SURFACE_WITH_KNOTS((3, 2, 2, 2, 3), (3, 2, 3), (0.0, 1.5707963267948966, 3.141592653589793, 4.71238898038469, 6.283185307179586), (-1.5707963267948966, 0.0, 1.5707963267948966), .UNSPECIFIED.)
    GEOMETRIC_REPRESENTATION_ITEM()
    RATIONAL_B_SPLINE_SURFACE(((1.0, 0.7071067811865476, 1.0, 0.7071067811865476, 1.0), (0.7071067811865476, 0.5000000000000001, 0.7071067811865476, 0.5000000000000001, 0.7071067811865476), (1.0, 0.7071067811865476, 1.0, 0.7071067811865476, 1.0), (0.7071067811865476, 0.5000000000000001, 0.7071067811865476, 0.5000000000000001, 0.7071067811865476), (1.0, 0.7071067811865476, 1.0, 0.7071067811865476, 1.0), (0.7071067811865476, 0.5000000000000001, 0.7071067811865476, 0.5000000000000001, 0.7071067811865476), (1.0, 0.7071067811865476, 1.0, 0.7071067811865476, 1.0), (0.7071067811865476, 0.5000000000000001, 0.7071067811865476, 0.5000000000000001, 0.7071067811865476), (1.0, 0.7071067811865476, 1.0, 0.7071067811865476, 1.0)))
    REPRESENTATION_ITEM('')
    SURFACE()
);
#82 = CARTESIAN_POINT('', (0.0, 0.0, -0.5));
#83 = CARTESIAN_POINT('', (0.5, 0.0, -0.5));
#84 = CARTESIAN_POINT('', (0.5, 0.0, 0.0));
#85 = CARTESIAN_POINT('', (0.5, 0.0, 0.5));
#86 = CARTESIAN_POINT('', (0.0, 0.0, 0.5));
#87 = CARTESIAN_POINT('', (0.0, 0.0, -0.5));
#88 = CARTESIAN_POINT('', (0.5, 0.5, -0.5));
#89 = CARTESIAN_POINT('', (0.5, 0.5, 0.0));
#90 = CARTESIAN_POINT('', (0.5, 0.5, 0.5));
#91 = CARTESIAN_POINT('', (0.0, 0.0, 0.5));
#92 = CARTESIAN_POINT('', (0.0, 0.0, -0.5));
#93 = CARTESIAN_POINT('', (0.0, 0.5, -0.5));
#94 = CARTESIAN_POINT('', (0.0, 0.5, 0.0));
#95 = CARTESIAN_POINT('', (0.0, 0.5, 0.5));
#96 = CARTESIAN_POINT('', (0.0, 0.0, 0.5));
#97 = CARTESIAN_POINT('', (0.0, 0.0, -0.5));
#98 = CARTESIAN_POINT('', (-0.5, 0.5, -0.5));
#99 = CARTESIAN_POINT('', (-0.5, 0.5, 0.0));
#100 = CARTESIAN_POINT('', (-0.5, 0.5, 0.5));
#101 = CARTESIAN_POINT('', (0.0, 0.0, 0.5));
#102 = CARTESIAN_POINT('', (0.0, 0.0, -0.5));
#103 = CARTESIAN_POINT('', (-0.5, 0.0, -0.5));
#104 = CARTESIAN_POINT('', (-0.5, 0.0, 0.0));
#105 = CARTESIAN_POINT('', (-0.5, 0.0, 0.5));
#106 = CARTESIAN_POINT('', (0.0, 0.0, 0.5));
#107 = CARTESIAN_POINT('', (0.0, 0.0, -0.5));
#108 = CARTESIAN_POINT('', (-0.5, -0.5, -0.5));
#109 = CARTESIAN_POINT('', (-0.5, -0.5, 0.0));
#110 = CARTESIAN_POINT('', (-0.5, -0.5, 0.5));
#111 = CARTESIAN_POINT('', (0.0, 0.0, 0.5));
#112 = CARTESIAN_POINT('', (0.0, 0.0, -0.5));
#113 = CARTESIAN_POINT('', (0.0, -0.5, -0.5));
#114 = CARTESIAN_POINT('', (0.0, -0.5, 0.0));
#115 = CARTESIAN_POINT('', (0.0, -0.5, 0.5));
#116 = CARTESIAN_POINT('', (0.0, 0.0, 0.5));
#117 = CARTESIAN_POINT('', (0.0, 0.0, -0.5));
#118 = CARTESIAN_POINT('', (0.5, -0.5, -0.5));
#119 = CARTESIAN_POINT('', (0.5, -0.5, 0.0));
#120 = CARTESIAN_POINT('', (0.5, -0.5, 0.5));
#121 = CARTESIAN_POINT('', (0.0, 0.0, 0.5));
#122 = CARTESIAN_POINT('', (0.0, 0.0, -0.5));
#123 = CARTESIAN_POINT('', (0.5, 0.0, -0.5));
#124 = CARTESIAN_POINT('', (0.5, 0.0, 0.0));
#125 = CARTESIAN_POINT('', (0.5, 0.0, 0.5));
#126 = CARTESIAN_POINT('', (0.0, 0.0, 0.5));
#127 = DEFINITIONAL_REPRESENTATION('', (#129), #128);
#128 = (
    GEOMETRIC_REPRESENTATION_CONTEXT(2)
    PARAMETRIC_REPRESENTATION_CONTEXT()
    REPRESENTATION_CONTEXT('2D SPACE', '')
);
#129 = (
    BOUNDED_CURVE()
    B_SPLINE_CURVE(1, (#130, #131), .UNSPECIFIED., .U., .U.)
    B_SPLINE_CURVE_WITH_KNOTS((2, 2), (0.0, 1.0), .UNSPECIFIED.)
    CURVE()
    GEOMETRIC_REPRESENTATION_ITEM()
    RATIONAL_B_SPLINE_CURVE((1.0, 1.0))
    REPRESENTATION_ITEM('')
);
#130 = CARTESIAN_POINT('', (0.0, -1.5707963267948966));
#131 = CARTESIAN_POINT('', (6.283185307179586, -1.5707963267948966));
#132 = SEAM_CURVE('', #133, (#139, #191), .CURVE_3D.);
#133 = (
    BOUNDED_CURVE()
    B_SPLINE_CURVE(2, (#134, #135, #136, #137, #138), .UNSPECIFIED., .U., .U.)
    B_SPLINE_CURVE_WITH_KNOTS((3, 2, 3), (-1.5707963267948966, 0.0, 1.5707963267948966), .UNSPECIFIED.)
    CURVE()
    GEOMETRIC_REPRESENTATION_ITEM()
    RATIONAL_B_SPLINE_CURVE((1.0, 0.7071067811865476, 1.0, 0.7071067811865476, 1.0))
    REPRESENTATION_ITEM('')
);
#134 = CARTESIAN_POINT('', (0.0, 0.0, -0.5));
#135 = CARTESIAN_POINT('', (0.5, 0.0, -0.5));
#136 = CARTESIAN_POINT('', (0.5, 0.0, 0.0));
#137 = CARTESIAN_POINT('', (0.5, 0.0, 0.5));
#138 = CARTESIAN_POINT('', (0.0, 0.0, 0.5));
#139 = PCURVE('', #140, #186);
#140 = (
    BOUNDED_SURFACE()
    B_SPLINE_SURFACE(2, 2, ((#141, #142, #143, #144, #145), (#146, #147, #148, #149, #150), (#151, #152, #153, #154, #155), (#156, #157, #158, #159, #160), (#161, #162, #163, #164, #165), (#166, #167, #168, #169, #170), (#171, #172, #173, #174, #175), (#176, #177, #178, #179, #180), (#181, #182, #183, #184, #185)), .UNSPECIFIED., .U., .U., .U.)
    B_SPLINE_SURFACE_WITH_KNOTS((3, 2, 2, 2, 3), (3, 2, 3), (0.0, 1.5707963267948966, 3.141592653589793, 4.71238898038469, 6.283185307179586), (-1.5707963267948966, 0.0, 1.5707963267948966), .UNSPECIFIED.)
    GEOMETRIC_REPRESENTATION_ITEM()
    RATIONAL_B_SPLINE_SURFACE(((1.0, 0.7071067811865476, 1.0, 0.7071067811865476, 1.0), (0.7071067811865476, 0.5000000000000001, 0.7071067811865476, 0.5000000000000001, 0.7071067811865476), (1.0, 0.7071067811865476, 1.0, 0.7071067811865476, 1.0), (0.7071067811865476, 0.5000000000000001, 0.7071067811865476, 0.5000000000000001, 0.7071067811865476), (1.0, 0.7071067811865476, 1.0, 0.7071067811865476, 1.0), (0.7071067811865476, 0.5000000000000001, 0.7071067811865476, 0.5000000000000001, 0.7071067811865476), (1.0, 0.7071067811865476, 1.0, 0.7071067811865476, 1.0), (0.7071067811865476, 0.5000000000000001, 0.7071067811865476, 0.5000000000000001, 0.7071067811865476), (1.0, 0.7071067811865476, 1.0, 0.7071067811865476, 1.0)))
    REPRESENTATION_ITEM('')
    SURFACE()
);
#141 = CARTESIAN_POINT('', (0.0, 0.0, -0.5));
#142 = CARTESIAN_POINT('', (0.5, 0.0, -0.5));
#143 = CARTESIAN_POINT('', (0.5, 0.0, 0.0));
#144 = CARTESIAN_POINT('', (0.5, 0.0, 0.5));
#145 = CARTESIAN_POINT('', (0.0, 0.0, 0.5));
#146 = CARTESIAN_POINT('', (0.0, 0.0, -0.5));
#147 = CARTESIAN_POINT('', (0.5, 0.5, -0.5));
#148 = CARTESIAN_POINT('', (0.5, 0.5, 0.0));
#149 = CARTESIAN_POINT('', (0.5, 0.5, 0.5));
#150 = CARTESIAN_POINT('', (0.0, 0.0, 0.5));
#151 = CARTESIAN_POINT('', (0.0, 0.0, -0.5));
#152 = CARTESIAN_POINT('', (0.0, 0.5, -0.5));
#153 = CARTESIAN_POINT('', (0.0, 0.5, 0.0));
#154 = CARTESIAN_POINT('', (0.0, 0.5, 0.5));
#155 = CARTESIAN_POINT('', (0.0, 0.0, 0.5));
#156 = CARTESIAN_POINT('', (0.0, 0.0, -0.5));
#157 = CARTESIAN_POINT('', (-0.5, 0.5, -0.5));
#158 = CARTESIAN_POINT('', (-0.5, 0.5, 0.0));
#159 = CARTESIAN_POINT('', (-0.5, 0.5, 0.5));
#160 = CARTESIAN_POINT('', (0.0, 0.0, 0.5));
#161 = CARTESIAN_POINT('', (0.0, 0.0, -0.5));
#162 = CARTESIAN_POINT('', (-0.5, 0.0, -0.5));
#163 = CARTESIAN_POINT('', (-0.5, 0.0, 0.0));
#164 = CARTESIAN_POINT('', (-0.5, 0.0, 0.5));
#165 = CARTESIAN_POINT('', (0.0, 0.0, 0.5));
#166 = CARTESIAN_POINT('', (0.0, 0.0, -0.5));
#167 = CARTESIAN_POINT('', (-0.5, -0.5, -0.5));
#168 = CARTESIAN_POINT('', (-0.5, -0.5, 0.0));
#169 = CARTESIAN_POINT('', (-0.5, -0.5, 0.5));
#170 = CARTESIAN_POINT('', (0.0, 0.0, 0.5));
#171 = CARTESIAN_POINT('', (0.0, 0.0, -0.5));
#172 = CARTESIAN_POINT('', (0.0, -0.5, -0.5));
#173 = CARTESIAN_POINT('', (0.0, -0.5, 0.0));
#174 = CARTESIAN_POINT('', (0.0, -0.5, 0.5));
#175 = CARTESIAN_POINT('', (0.0, 0.0, 0.5));
#176 = CARTESIAN_POINT('', (0.0, 0.0, -0.5));
#177 = CARTESIAN_POINT('', (0.5, -0.5, -0.5));
#178 = CARTESIAN_POINT('', (0.5, -0.5, 0.0));
#179 = CARTESIAN_POINT('', (0.5, -0.5, 0.5));
#180 = CARTESIAN_POINT('', (0.0, 0.0, 0.5));
#181 = CARTESIAN_POINT('', (0.0, 0.0, -0.5));
#182 = CARTESIAN_POINT('', (0.5, 0.0, -0.5));
#183 = CARTESIAN_POINT('', (0.5, 0.0, 0.0));
#184 = CARTESIAN_POINT('', (0.5, 0.0, 0.5));
#185 = CARTESIAN_POINT('', (0.0, 0.0, 0.5));
#186 = DEFINITIONAL_REPRESENTATION('', (#188), #187);
#187 = (
    GEOMETRIC_REPRESENTATION_CONTEXT(2)
    PARAMETRIC_REPRESENTATION_CONTEXT()
    REPRESENTATION_CONTEXT('2D SPACE', '')
);
#188 = (
    BOUNDED_CURVE()
    B_SPLINE_CURVE(1, (#189, #190), .UNSPECIFIED., .U., .U.)
    B_SPLINE_CURVE_WITH_KNOTS((2, 2), (0.0, 1.0), .UNSPECIFIED.)
    CURVE()
    GEOMETRIC_REPRESENTATION_ITEM()
    RATIONAL_B_SPLINE_CURVE((1.0, 1.0))
    REPRESENTATION_ITEM('')
);
#189 = CARTESIAN_POINT('', (6.283185307179586, -1.5707963267948966));
#190 = CARTESIAN_POINT('', (6.283185307179586, 1.5707963267948966));
#191 = PCURVE('', #192, #238);
#192 = (
    BOUNDED_SURFACE()
    B_SPLINE_SURFACE(2, 2, ((#193, #194, #195, #196, #197), (#198, #199, #200, #201, #202), (#203, #204, #205, #206, #207), (#208, #209, #210, #211, #212), (#213, #214, #215, #216, #217), (#218, #219, #220, #221, #222), (#223, #224, #225, #226, #227), (#228, #229, #230, #231, #232), (#233, #234, #235, #236, #237)), .UNSPECIFIED., .U., .U., .U.)
    B_SPLINE_SURFACE_WITH_KNOTS((3, 2, 2, 2, 3), (3, 2, 3), (0.0, 1.5707963267948966, 3.141592653589793, 4.71238898038469, 6.283185307179586), (-1.5707963267948966, 0.0, 1.5707963267948966), .UNSPECIFIED.)
    GEOMETRIC_REPRESENTATION_ITEM()
    RATIONAL_B_SPLINE_SURFACE(((1.0, 0.7071067811865476, 1.0, 0.7071067811865476, 1.0), (0.7071067811865476, 0.5000000000000001, 0.7071067811865476, 0.5000000000000001, 0.7071067811865476), (1.0, 0.7071067811865476, 1.0, 0.7071067811865476, 1.0), (0.7071067811865476, 0.5000000000000001, 0.7071067811865476, 0.5000000000000001, 0.7071067811865476), (1.0, 0.7071067811865476, 1.0, 0.7071067811865476, 1.0), (0.7071067811865476, 0.5000000000000001, 0.7071067811865476, 0.5000000000000001, 0.7071067811865476), (1.0, 0.7071067811865476, 1.0, 0.7071067811865476, 1.0), (0.7071067811865476, 0.5000000000000001, 0.7071067811865476, 0.5000000000000001, 0.7071067811865476), (1.0, 0.7071067811865476, 1.0, 0.7071067811865476, 1.0)))
    REPRESENTATION_ITEM('')
    SURFACE()
);
#193 = CARTESIAN_POINT('', (0.0, 0.0, -0.5));
#194 = CARTESIAN_POINT('', (0.5, 0.0, -0.5));
#195 = CARTESIAN_POINT('', (0.5, 0.0, 0.0));
#196 = CARTESIAN_POINT('', (0.5, 0.0, 0.5));
#197 = CARTESIAN_POINT('', (0.0, 0.0, 0.5));
#198 = CARTESIAN_POINT('', (0.0, 0.0, -0.5));
#199 = CARTESIAN_POINT('', (0.5, 0.5, -0.5));
#200 = CARTESIAN_POINT('', (0.5, 0.5, 0.0));
#201 = CARTESIAN_POINT('', (0.5, 0.5, 0.5));
#202 = CARTESIAN_POINT('', (0.0, 0.0, 0.5));
#203 = CARTESIAN_POINT('', (0.0, 0.0, -0.5));
#204 = CARTESIAN_POINT('', (0.0, 0.5, -0.5));
#205 = CARTESIAN_POINT('', (0.0, 0.5, 0.0));
#206 = CARTESIAN_POINT('', (0.0, 0.5, 0.5));
#207 = CARTESIAN_POINT('', (0.0, 0.0, 0.5));
#208 = CARTESIAN_POINT('', (0.0, 0.0, -0.5));
#209 = CARTESIAN_POINT('', (-0.5, 0.5, -0.5));
#210 = CARTESIAN_POINT('', (-0.5, 0.5, 0.0));
#211 = CARTESIAN_POINT('', (-0.5, 0.5, 0.5));
#212 = CARTESIAN_POINT('', (0.0, 0.0, 0.5));
#213 = CARTESIAN_POINT('', (0.0, 0.0, -0.5));
#214 = CARTESIAN_POINT('', (-0.5, 0.0, -0.5));
#215 = CARTESIAN_POINT('', (-0.5, 0.0, 0.0));
#216 = CARTESIAN_POINT('', (-0.5, 0.0, 0.5));
#217 = CARTESIAN_POINT('', (0.0, 0.0, 0.5));
#218 = CARTESIAN_POINT('', (0.0, 0.0, -0.5));
#219 = CARTESIAN_POINT('', (-0.5, -0.5, -0.5));
#220 = CARTESIAN_POINT('', (-0.5, -0.5, 0.0));
#221 = CARTESIAN_POINT('', (-0.5, -0.5, 0.5));
#222 = CARTESIAN_POINT('', (0.0, 0.0, 0.5));
#223 = CARTESIAN_POINT('', (0.0, 0.0, -0.5));
#224 = CARTESIAN_POINT('', (0.0, -0.5, -0.5));
#225 = CARTESIAN_POINT('', (0.0, -0.5, 0.0));
#226 = CARTESIAN_POINT('', (0.0, -0.5, 0.5));
#227 = CARTESIAN_POINT('', (0.0, 0.0, 0.5));
#228 = CARTESIAN_POINT('', (0.0, 0.0, -0.5));
#229 = CARTESIAN_POINT('', (0.5, -0.5, -0.5));
#230 = CARTESIAN_POINT('', (0.5, -0.5, 0.0));
#231 = CARTESIAN_POINT('', (0.5, -0.5, 0.5));
#232 = CARTESIAN_POINT('', (0.0, 0.0, 0.5));
#233 = CARTESIAN_POINT('', (0.0, 0.0, -0.5));
#234 = CARTESIAN_POINT('', (0.5, 0.0, -0.5));
#235 = CARTESIAN_POINT('', (0.5, 0.0, 0.0));
#236 = CARTESIAN_POINT('', (0.5, 0.0, 0.5));
#237 = CARTESIAN_POINT('', (0.0, 0.0, 0.5));
#238 = DEFINITIONAL_REPRESENTATION('', (#240), #239);
#239 = (
    GEOMETRIC_REPRESENTATION_CONTEXT(2)
    PARAMETRIC_REPRESENTATION_CONTEXT()
    REPRESENTATION_CONTEXT('2D SPACE', '')
);
#240 = (
    BOUNDED_CURVE()
    B_SPLINE_CURVE(1, (#241, #242), .UNSPECIFIED., .U., .U.)
    B_SPLINE_CURVE_WITH_KNOTS((2, 2), (-1.0, -0.0), .UNSPECIFIED.)
    CURVE()
    GEOMETRIC_REPRESENTATION_ITEM()
    RATIONAL_B_SPLINE_CURVE((1.0, 1.0))
    REPRESENTATION_ITEM('')
);
#241 = CARTESIAN_POINT('', (0.0, -1.5707963267948966));
#242 = CARTESIAN_POINT('', (0.0, 1.5707963267948966));
#243 = SURFACE_CURVE('', #244, (#247), .CURVE_3D.);
#244 = (
    BOUNDED_CURVE()
    B_SPLINE_CURVE(1, (#245, #246), .UNSPECIFIED., .U., .U.)
    B_SPLINE_CURVE_WITH_KNOTS((2, 2), (0.0, 1.0), .UNSPECIFIED.)
    CURVE()
    GEOMETRIC_REPRESENTATION_ITEM()
    RATIONAL_B_SPLINE_CURVE((1.0, 1.0))
    REPRESENTATION_ITEM('')
);
#245 = CARTESIAN_POINT('', (0.0, 0.0, 0.5));
#246 = CARTESIAN_POINT('', (0.0, 0.0, 0.5));
#247 = PCURVE('', #248, #294);
#248 = (
    BOUNDED_SURFACE()
    B_SPLINE_SURFACE(2, 2, ((#249, #250, #251, #252, #253), (#254, #255, #256, #257, #258), (#259, #260, #261, #262, #263), (#264, #265, #266, #267, #268), (#269, #270, #271, #272, #273), (#274, #275, #276, #277, #278), (#279, #280, #281, #282, #283), (#284, #285, #286, #287, #288), (#289, #290, #291, #292, #293)), .UNSPECIFIED., .U., .U., .U.)
    B_SPLINE_SURFACE_WITH_KNOTS((3, 2, 2, 2, 3), (3, 2, 3), (0.0, 1.5707963267948966, 3.141592653589793, 4.71238898038469, 6.283185307179586), (-1.5707963267948966, 0.0, 1.5707963267948966), .UNSPECIFIED.)
    GEOMETRIC_REPRESENTATION_ITEM()
    RATIONAL_B_SPLINE_SURFACE(((1.0, 0.7071067811865476, 1.0, 0.7071067811865476, 1.0), (0.7071067811865476, 0.5000000000000001, 0.7071067811865476, 0.5000000000000001, 0.7071067811865476), (1.0, 0.7071067811865476, 1.0, 0.7071067811865476, 1.0), (0.7071067811865476, 0.5000000000000001, 0.7071067811865476, 0.5000000000000001, 0.7071067811865476), (1.0, 0.7071067811865476, 1.0, 0.7071067811865476, 1.0), (0.7071067811865476, 0.5000000000000001, 0.7071067811865476, 0.5000000000000001, 0.7071067811865476), (1.0, 0.7071067811865476, 1.0, 0.7071067811865476, 1.0), (0.7071067811865476, 0.5000000000000001, 0.7071067811865476, 0.5000000000000001, 0.7071067811865476), (1.0, 0.7071067811865476, 1.0, 0.7071067811865476, 1.0)))
    REPRESENTATION_ITEM('')
    SURFACE()
);
#249 = CARTESIAN_POINT('', (0.0, 0.0, -0.5));
#250 = CARTESIAN_POINT('', (0.5, 0.0, -0.5));
#251 = CARTESIAN_POINT('', (0.5, 0.0, 0.0));
#252 = CARTESIAN_POINT('', (0.5, 0.0, 0.5));
#253 = CARTESIAN_POINT('', (0.0, 0.0, 0.5));
#254 = CARTESIAN_POINT('', (0.0, 0.0, -0.5));
#255 = CARTESIAN_POINT('', (0.5, 0.5, -0.5));
#256 = CARTESIAN_POINT('', (0.5, 0.5, 0.0));
#257 = CARTESIAN_POINT('', (0.5, 0.5, 0.5));
#258 = CARTESIAN_POINT('', (0.0, 0.0, 0.5));
#259 = CARTESIAN_POINT('', (0.0, 0.0, -0.5));
#260 = CARTESIAN_POINT('', (0.0, 0.5, -0.5));
#261 = CARTESIAN_POINT('', (0.0, 0.5, 0.0));
#262 = CARTESIAN_POINT('', (0.0, 0.5, 0.5));
#263 = CARTESIAN_POINT('', (0.0, 0.0, 0.5));
#264 = CARTESIAN_POINT('', (0.0, 0.0, -0.5));
#265 = CARTESIAN_POINT('', (-0.5, 0.5, -0.5));
#266 = CARTESIAN_POINT('', (-0.5, 0.5, 0.0));
#267 = CARTESIAN_POINT('', (-0.5, 0.5, 0.5));
#268 = CARTESIAN_POINT('', (0.0, 0.0, 0.5));
#269 = CARTESIAN_POINT('', (0.0, 0.0, -0.5));
#270 = CARTESIAN_POINT('', (-0.5, 0.0, -0.5));
#271 = CARTESIAN_POINT('', (-0.5, 0.0, 0.0));
#272 = CARTESIAN_POINT('', (-0.5, 0.0, 0.5));
#273 = CARTESIAN_POINT('', (0.0, 0.0, 0.5));
#274 = CARTESIAN_POINT('', (0.0, 0.0, -0.5));
#275 = CARTESIAN_POINT('', (-0.5, -0.5, -0.5));
#276 = CARTESIAN_POINT('', (-0.5, -0.5, 0.0));
#277 = CARTESIAN_POINT('', (-0.5, -0.5, 0.5));
#278 = CARTESIAN_POINT('', (0.0, 0.0, 0.5));
#279 = CARTESIAN_POINT('', (0.0, 0.0, -0.5));
#280 = CARTESIAN_POINT('', (0.0, -0.5, -0.5));
#281 = CARTESIAN_POINT('', (0.0, -0.5, 0.0));
#282 = CARTESIAN_POINT('', (0.0, -0.5, 0.5));
#283 = CARTESIAN_POINT('', (0.0, 0.0, 0.5));
#284 = CARTESIAN_POINT('', (0.0, 0.0, -0.5));
#285 = CARTESIAN_POINT('', (0.5, -0.5, -0.5));
#286 = CARTESIAN_POINT('', (0.5, -0.5, 0.0));
#287 = CARTESIAN_POINT('', (0.5, -0.5, 0.5));
#288 = CARTESIAN_POINT('', (0.0, 0.0, 0.5));
#289 = CARTESIAN_POINT('', (0.0, 0.0, -0.5));
#290 = CARTESIAN_POINT('', (0.5, 0.0, -0.5));
#291 = CARTESIAN_POINT('', (0.5, 0.0, 0.0));
#292 = CARTESIAN_POINT('', (0.5, 0.0, 0.5));
#293 = CARTESIAN_POINT('', (0.0, 0.0, 0.5));
#294 = DEFINITIONAL_REPRESENTATION('', (#296), #295);
#295 = (
    GEOMETRIC_REPRESENTATION_CONTEXT(2)
    PARAMETRIC_REPRESENTATION_CONTEXT()
    REPRESENTATION_CONTEXT('2D SPACE', '')
);
#296 = (
    BOUNDED_CURVE()
    B_SPLINE_CURVE(1, (#297, #298), .UNSPECIFIED., .U., .U.)
    B_SPLINE_CURVE_WITH_KNOTS((2, 2), (0.0, 1.0), .UNSPECIFIED.)
    CURVE()
    GEOMETRIC_REPRESENTATION_ITEM()
    RATIONAL_B_SPLINE_CURVE((1.0, 1.0))
    REPRESENTATION_ITEM('')
);
#297 = CARTESIAN_POINT('', (6.283185307179586, 1.5707963267948966));
#298 = CARTESIAN_POINT('', (0.0, 1.5707963267948966));
#299 = CARTESIAN_POINT('', (0.0E0, 0.0E0, -5.0E-1));
#300 = CARTESIAN_POINT('', (0.0E0, 0.0E0, 5.0E-1));
#301 = BREP_WITH_VOIDS('', #302, (#586));
#302 = CLOSED_SHELL('', (#303));
#303 = ADVANCED_FACE('', (#304), #315, .T.);
#304 = FACE_BOUND('', #305, .T.);
#305 = EDGE_LOOP('', (#306, #307, #308, #309));
#306 = ORIENTED_EDGE('', *, *, #310, .T.);
#307 = ORIENTED_EDGE('', *, *, #311, .T.);
#308 = ORIENTED_EDGE('', *, *, #312, .T.);
#309 = ORIENTED_EDGE('', *, *, #311, .F.);
#310 = EDGE_CURVE('', #313, #313, #361, .T.);
#311 = EDGE_CURVE('', #313, #314, #417, .T.);
#312 = EDGE_CURVE('', #314, #314, #528, .T.);
#313 = VERTEX_POINT('', #584);
#314 = VERTEX_POINT('', #585);
#315 = (
    BOUNDED_SURFACE()
    B_SPLINE_SURFACE(2, 2, ((#316, #317, #318, #319, #320), (#321, #322, #323, #324, #325), (#326, #327, #328, #329, #330), (#331, #332, #333, #334, #335), (#336, #337, #338, #339, #340), (#341, #342, #343, #344, #345), (#346, #347, #348, #349, #350), (#351, #352, #353, #354, #355), (#356, #357, #358, #359, #360)), .UNSPECIFIED., .U., .U., .U.)
    B_SPLINE_SURFACE_WITH_KNOTS((3, 2, 2, 2, 3), (3, 2, 3), (0.0, 1.5707963267948966, 3.141592653589793, 4.71238898038469, 6.283185307179586), (-1.5707963267948966, 0.0, 1.5707963267948966), .UNSPECIFIED.)
    GEOMETRIC_REPRESENTATION_ITEM()
    RATIONAL_B_SPLINE_SURFACE(((1.0, 0.7071067811865476, 1.0, 0.7071067811865476, 1.0), (0.7071067811865476, 0.5000000000000001, 0.7071067811865476, 0.5000000000000001, 0.7071067811865476), (1.0, 0.7071067811865476, 1.0, 0.7071067811865476, 1.0), (0.7071067811865476, 0.5000000000000001, 0.7071067811865476, 0.5000000000000001, 0.7071067811865476), (1.0, 0.7071067811865476, 1.0, 0.7071067811865476, 1.0), (0.7071067811865476, 0.5000000000000001, 0.7071067811865476, 0.5000000000000001, 0.7071067811865476), (1.0, 0.7071067811865476, 1.0, 0.7071067811865476, 1.0), (0.7071067811865476, 0.5000000000000001, 0.7071067811865476, 0.5000000000000001, 0.7071067811865476), (1.0, 0.7071067811865476, 1.0, 0.7071067811865476, 1.0)))
    REPRESENTATION_ITEM('')
    SURFACE()
);
#316 = CARTESIAN_POINT('', (0.0, 0.0, -4.0));
#317 = CARTESIAN_POINT('', (4.0, 0.0, -4.0));
#318 = CARTESIAN_POINT('', (4.0, 0.0, 0.0));
#319 = CARTESIAN_POINT('', (4.0, 0.0, 4.0));
#320 = CARTESIAN_POINT('', (0.0, 0.0, 4.0));
#321 = CARTESIAN_POINT('', (0.0, 0.0, -4.0));
#322 = CARTESIAN_POINT('', (4.0, 4.0, -4.0));
#323 = CARTESIAN_POINT('', (4.0, 4.0, 0.0));
#324 = CARTESIAN_POINT('', (4.0, 4.0, 4.0));
#325 = CARTESIAN_POINT('', (0.0, 0.0, 4.0));
#326 = CARTESIAN_POINT('', (0.0, 0.0, -4.0));
#327 = CARTESIAN_POINT('', (0.0, 4.0, -4.0));
#328 = CARTESIAN_POINT('', (0.0, 4.0, 0.0));
#329 = CARTESIAN_POINT('', (0.0, 4.0, 4.0));
#330 = CARTESIAN_POINT('', (0.0, 0.0, 4.0));
#331 = CARTESIAN_POINT('', (0.0, 0.0, -4.0));
#332 = CARTESIAN_POINT('', (-4.0, 4.0, -4.0));
#333 = CARTESIAN_POINT('', (-4.0, 4.0, 0.0));
#334 = CARTESIAN_POINT('', (-4.0, 4.0, 4.0));
#335 = CARTESIAN_POINT('', (0.0, 0.0, 4.0));
#336 = CARTESIAN_POINT('', (0.0, 0.0, -4.0));
#337 = CARTESIAN_POINT('', (-4.0, 0.0, -4.0));
#338 = CARTESIAN_POINT('', (-4.0, 0.0, 0.0));
#339 = CARTESIAN_POINT('', (-4.0, 0.0, 4.0));
#340 = CARTESIAN_POINT('', (0.0, 0.0, 4.0));
#341 = CARTESIAN_POINT('', (0.0, 0.0, -4.0));
#342 = CARTESIAN_POINT('', (-4.0, -4.0, -4.0));
#343 = CARTESIAN_POINT('', (-4.0, -4.0, 0.0));
#344 = CARTESIAN_POINT('', (-4.0, -4.0, 4.0));
#345 = CARTESIAN_POINT('', (0.0, 0.0, 4.0));
#346 = CARTESIAN_POINT('', (0.0, 0.0, -4.0));
#347 = CARTESIAN_POINT('', (0.0, -4.0, -4.0));
#348 = CARTESIAN_POINT('', (0.0, -4.0, 0.0));
#349 = CARTESIAN_POINT('', (0.0, -4.0, 4.0));
#350 = CARTESIAN_POINT('', (0.0, 0.0, 4.0));
#351 = CARTESIAN_POINT('', (0.0, 0.0, -4.0));
#352 = CARTESIAN_POINT('', (4.0, -4.0, -4.0));
#353 = CARTESIAN_POINT('', (4.0, -4.0, 0.0));
#354 = CARTESIAN_POINT('', (4.0, -4.0, 4.0));
#355 = CARTESIAN_POINT('', (0.0, 0.0, 4.0));
#356 = CARTESIAN_POINT('', (0.0, 0.0, -4.0));
#357 = CARTESIAN_POINT('', (4.0, 0.0, -4.0));
#358 = CARTESIAN_POINT('', (4.0, 0.0, 0.0));
#359 = CARTESIAN_POINT('', (4.0, 0.0, 4.0));
#360 = CARTESIAN_POINT('', (0.0, 0.0, 4.0));
#361 = SURFACE_CURVE('', #362, (#365), .CURVE_3D.);
#362 = (
    BOUNDED_CURVE()
    B_SPLINE_CURVE(1, (#363, #364), .UNSPECIFIED., .U., .U.)
    B_SPLINE_CURVE_WITH_KNOTS((2, 2), (0.0, 1.0), .UNSPECIFIED.)
    CURVE()
    GEOMETRIC_REPRESENTATION_ITEM()
    RATIONAL_B_SPLINE_CURVE((1.0, 1.0))
    REPRESENTATION_ITEM('')
);
#363 = CARTESIAN_POINT('', (0.0, 0.0, -4.0));
#364 = CARTESIAN_POINT('', (0.0, 0.0, -4.0));
#365 = PCURVE('', #366, #412);
#366 = (
    BOUNDED_SURFACE()
    B_SPLINE_SURFACE(2, 2, ((#367, #368, #369, #370, #371), (#372, #373, #374, #375, #376), (#377, #378, #379, #380, #381), (#382, #383, #384, #385, #386), (#387, #388, #389, #390, #391), (#392, #393, #394, #395, #396), (#397, #398, #399, #400, #401), (#402, #403, #404, #405, #406), (#407, #408, #409, #410, #411)), .UNSPECIFIED., .U., .U., .U.)
    B_SPLINE_SURFACE_WITH_KNOTS((3, 2, 2, 2, 3), (3, 2, 3), (0.0, 1.5707963267948966, 3.141592653589793, 4.71238898038469, 6.283185307179586), (-1.5707963267948966, 0.0, 1.5707963267948966), .UNSPECIFIED.)
    GEOMETRIC_REPRESENTATION_ITEM()
    RATIONAL_B_SPLINE_SURFACE(((1.0, 0.7071067811865476, 1.0, 0.7071067811865476, 1.0), (0.7071067811865476, 0.5000000000000001, 0.7071067811865476, 0.5000000000000001, 0.7071067811865476), (1.0, 0.7071067811865476, 1.0, 0.7071067811865476, 1.0), (0.7071067811865476, 0.5000000000000001, 0.7071067811865476, 0.5000000000000001, 0.7071067811865476), (1.0, 0.7071067811865476, 1.0, 0.7071067811865476, 1.0), (0.7071067811865476, 0.5000000000000001, 0.7071067811865476, 0.5000000000000001, 0.7071067811865476), (1.0, 0.7071067811865476, 1.0, 0.7071067811865476, 1.0), (0.7071067811865476, 0.5000000000000001, 0.7071067811865476, 0.5000000000000001, 0.7071067811865476), (1.0, 0.7071067811865476, 1.0, 0.7071067811865476, 1.0)))
    REPRESENTATION_ITEM('')
    SURFACE()
);
#367 = CARTESIAN_POINT('', (0.0, 0.0, -4.0));
#368 = CARTESIAN_POINT('', (4.0, 0.0, -4.0));
#369 = CARTESIAN_POINT('', (4.0, 0.0, 0.0));
#370 = CARTESIAN_POINT('', (4.0, 0.0, 4.0));
#371 = CARTESIAN_POINT('', (0.0, 0.0, 4.0));
#372 = CARTESIAN_POINT('', (0.0, 0.0, -4.0));
#373 = CARTESIAN_POINT('', (4.0, 4.0, -4.0));
#374 = CARTESIAN_POINT('', (4.0, 4.0, 0.0));
#375 = CARTESIAN_POINT('', (4.0, 4.0, 4.0));
#376 = CARTESIAN_POINT('', (0.0, 0.0, 4.0));
#377 = CARTESIAN_POINT('', (0.0, 0.0, -4.0));
#378 = CARTESIAN_POINT('', (0.0, 4.0, -4.0));
#379 = CARTESIAN_POINT('', (0.0, 4.0, 0.0));
#380 = CARTESIAN_POINT('', (0.0, 4.0, 4.0));
#381 = CARTESIAN_POINT('', (0.0, 0.0, 4.0));
#382 = CARTESIAN_POINT('', (0.0, 0.0, -4.0));
#383 = CARTESIAN_POINT('', (-4.0, 4.0, -4.0));
#384 = CARTESIAN_POINT('', (-4.0, 4.0, 0.0));
#385 = CARTESIAN_POINT('', (-4.0, 4.0, 4.0));
#386 = CARTESIAN_POINT('', (0.0, 0.0, 4.0));
#387 = CARTESIAN_POINT('', (0.0, 0.0, -4.0));
#388 = CARTESIAN_POINT('', (-4.0, 0.0, -4.0));
#389 = CARTESIAN_POINT('', (-4.0, 0.0, 0.0));
#390 = CARTESIAN_POINT('', (-4.0, 0.0, 4.0));
#391 = CARTESIAN_POINT('', (0.0, 0.0, 4.0));
#392 = CARTESIAN_POINT('', (0.0, 0.0, -4.0));
#393 = CARTESIAN_POINT('', (-4.0, -4.0, -4.0));
#394 = CARTESIAN_POINT('', (-4.0, -4.0, 0.0));
#395 = CARTESIAN_POINT('', (-4.0, -4.0, 4.0));
#396 = CARTESIAN_POINT('', (0.0, 0.0, 4.0));
#397 = CARTESIAN_POINT('', (0.0, 0.0, -4.0));
#398 = CARTESIAN_POINT('', (0.0, -4.0, -4.0));
#399 = CARTESIAN_POINT('', (0.0, -4.0, 0.0));
#400 = CARTESIAN_POINT('', (0.0, -4.0, 4.0));
#401 = CARTESIAN_POINT('', (0.0, 0.0, 4.0));
#402 = CARTESIAN_POINT('', (0.0, 0.0, -4.0));
#403 = CARTESIAN_POINT('', (4.0, -4.0, -4.0));
#404 = CARTESIAN_POINT('', (4.0, -4.0, 0.0));
#405 = CARTESIAN_POINT('', (4.0, -4.0, 4.0));
#406 = CARTESIAN_POINT('', (0.0, 0.0, 4.0));
#407 = CARTESIAN_POINT('', (0.0, 0.0, -4.0));
#408 = CARTESIAN_POINT('', (4.0, 0.0, -4.0));
#409 = CARTESIAN_POINT('', (4.0, 0.0, 0.0));
#410 = CARTESIAN_POINT('', (4.0, 0.0, 4.0));
#411 = CARTESIAN_POINT('', (0.0, 0.0, 4.0));
#412 = DEFINITIONAL_REPRESENTATION('', (#414), #413);
#413 = (
    GEOMETRIC_REPRESENTATION_CONTEXT(2)
    PARAMETRIC_REPRESENTATION_CONTEXT()
    REPRESENTATION_CONTEXT('2D SPACE', '')
);
#414 = (
    BOUNDED_CURVE()
    B_SPLINE_CURVE(1, (#415, #416), .UNSPECIFIED., .U., .U.)
    B_SPLINE_CURVE_WITH_KNOTS((2, 2), (0.0, 1.0), .UNSPECIFIED.)
    CURVE()
    GEOMETRIC_REPRESENTATION_ITEM()
    RATIONAL_B_SPLINE_CURVE((1.0, 1.0))
    REPRESENTATION_ITEM('')
);
#415 = CARTESIAN_POINT('', (0.0, -1.5707963267948966));
#416 = CARTESIAN_POINT('', (6.283185307179586, -1.5707963267948966));
#417 = SEAM_CURVE('', #418, (#424, #476), .CURVE_3D.);
#418 = (
    BOUNDED_CURVE()
    B_SPLINE_CURVE(2, (#419, #420, #421, #422, #423), .UNSPECIFIED., .U., .U.)
    B_SPLINE_CURVE_WITH_KNOTS((3, 2, 3), (-1.5707963267948966, 0.0, 1.5707963267948966), .UNSPECIFIED.)
    CURVE()
    GEOMETRIC_REPRESENTATION_ITEM()
    RATIONAL_B_SPLINE_CURVE((1.0, 0.7071067811865476, 1.0, 0.7071067811865476, 1.0))
    REPRESENTATION_ITEM('')
);
#419 = CARTESIAN_POINT('', (0.0, 0.0, -4.0));
#420 = CARTESIAN_POINT('', (4.0, 0.0, -4.0));
#421 = CARTESIAN_POINT('', (4.0, 0.0, 0.0));
#422 = CARTESIAN_POINT('', (4.0, 0.0, 4.0));
#423 = CARTESIAN_POINT('', (0.0, 0.0, 4.0));
#424 = PCURVE('', #425, #471);
#425 = (
    BOUNDED_SURFACE()
    B_SPLINE_SURFACE(2, 2, ((#426, #427, #428, #429, #430), (#431, #432, #433, #434, #435), (#436, #437, #438, #439, #440), (#441, #442, #443, #444, #445), (#446, #447, #448, #449, #450), (#451, #452, #453, #454, #455), (#456, #457, #458, #459, #460), (#461, #462, #463, #464, #465), (#466, #467, #468, #469, #470)), .UNSPECIFIED., .U., .U., .U.)
    B_SPLINE_SURFACE_WITH_KNOTS((3, 2, 2, 2, 3), (3, 2, 3), (0.0, 1.5707963267948966, 3.141592653589793, 4.71238898038469, 6.283185307179586), (-1.5707963267948966, 0.0, 1.5707963267948966), .UNSPECIFIED.)
    GEOMETRIC_REPRESENTATION_ITEM()
    RATIONAL_B_SPLINE_SURFACE(((1.0, 0.7071067811865476, 1.0, 0.7071067811865476, 1.0), (0.7071067811865476, 0.5000000000000001, 0.7071067811865476, 0.5000000000000001, 0.7071067811865476), (1.0, 0.7071067811865476, 1.0, 0.7071067811865476, 1.0), (0.7071067811865476, 0.5000000000000001, 0.7071067811865476, 0.5000000000000001, 0.7071067811865476), (1.0, 0.7071067811865476, 1.0, 0.7071067811865476, 1.0), (0.7071067811865476, 0.5000000000000001, 0.7071067811865476, 0.5000000000000001, 0.7071067811865476), (1.0, 0.7071067811865476, 1.0, 0.7071067811865476, 1.0), (0.7071067811865476, 0.5000000000000001, 0.7071067811865476, 0.5000000000000001, 0.7071067811865476), (1.0, 0.7071067811865476, 1.0, 0.7071067811865476, 1.0)))
    REPRESENTATION_ITEM('')
    SURFACE()
);
#426 = CARTESIAN_POINT('', (0.0, 0.0, -4.0));
#427 = CARTESIAN_POINT('', (4.0, 0.0, -4.0));
#428 = CARTESIAN_POINT('', (4.0, 0.0, 0.0));
#429 = CARTESIAN_POINT('', (4.0, 0.0, 4.0));
#430 = CARTESIAN_POINT('', (0.0, 0.0, 4.0));
#431 = CARTESIAN_POINT('', (0.0, 0.0, -4.0));
#432 = CARTESIAN_POINT('', (4.0, 4.0, -4.0));
#433 = CARTESIAN_POINT('', (4.0, 4.0, 0.0));
#434 = CARTESIAN_POINT('', (4.0, 4.0, 4.0));
#435 = CARTESIAN_POINT('', (0.0, 0.0, 4.0));
#436 = CARTESIAN_POINT('', (0.0, 0.0, -4.0));
#437 = CARTESIAN_POINT('', (0.0, 4.0, -4.0));
#438 = CARTESIAN_POINT('', (0.0, 4.0, 0.0));
#439 = CARTESIAN_POINT('', (0.0, 4.0, 4.0));
#440 = CARTESIAN_POINT('', (0.0, 0.0, 4.0));
#441 = CARTESIAN_POINT('', (0.0, 0.0, -4.0));
#442 = CARTESIAN_POINT('', (-4.0, 4.0, -4.0));
#443 = CARTESIAN_POINT('', (-4.0, 4.0, 0.0));
#444 = CARTESIAN_POINT('', (-4.0, 4.0, 4.0));
#445 = CARTESIAN_POINT('', (0.0, 0.0, 4.0));
#446 = CARTESIAN_POINT('', (0.0, 0.0, -4.0));
#447 = CARTESIAN_POINT('', (-4.0, 0.0, -4.0));
#448 = CARTESIAN_POINT('', (-4.0, 0.0, 0.0));
#449 = CARTESIAN_POINT('', (-4.0, 0.0, 4.0));
#450 = CARTESIAN_POINT('', (0.0, 0.0, 4.0));
#451 = CARTESIAN_POINT('', (0.0, 0.0, -4.0));
#452 = CARTESIAN_POINT('', (-4.0, -4.0, -4.0));
#453 = CARTESIAN_POINT('', (-4.0, -4.0, 0.0));
#454 = CARTESIAN_POINT('', (-4.0, -4.0, 4.0));
#455 = CARTESIAN_POINT('', (0.0, 0.0, 4.0));
#456 = CARTESIAN_POINT('', (0.0, 0.0, -4.0));
#457 = CARTESIAN_POINT('', (0.0, -4.0, -4.0));
#458 = CARTESIAN_POINT('', (0.0, -4.0, 0.0));
#459 = CARTESIAN_POINT('', (0.0, -4.0, 4.0));
#460 = CARTESIAN_POINT('', (0.0, 0.0, 4.0));
#461 = CARTESIAN_POINT('', (0.0, 0.0, -4.0));
#462 = CARTESIAN_POINT('', (4.0, -4.0, -4.0));
#463 = CARTESIAN_POINT('', (4.0, -4.0, 0.0));
#464 = CARTESIAN_POINT('', (4.0, -4.0, 4.0));
#465 = CARTESIAN_POINT('', (0.0, 0.0, 4.0));
#466 = CARTESIAN_POINT('', (0.0, 0.0, -4.0));
#467 = CARTESIAN_POINT('', (4.0, 0.0, -4.0));
#468 = CARTESIAN_POINT('', (4.0, 0.0, 0.0));
#469 = CARTESIAN_POINT('', (4.0, 0.0, 4.0));
#470 = CARTESIAN_POINT('', (0.0, 0.0, 4.0));
#471 = DEFINITIONAL_REPRESENTATION('', (#473), #472);
#472 = (
    GEOMETRIC_REPRESENTATION_CONTEXT(2)
    PARAMETRIC_REPRESENTATION_CONTEXT()
    REPRESENTATION_CONTEXT('2D SPACE', '')
);
#473 = (
    BOUNDED_CURVE()
    B_SPLINE_CURVE(1, (#474, #475), .UNSPECIFIED., .U., .U.)
    B_SPLINE_CURVE_WITH_KNOTS((2, 2), (0.0, 1.0), .UNSPECIFIED.)
    CURVE()
    GEOMETRIC_REPRESENTATION_ITEM()
    RATIONAL_B_SPLINE_CURVE((1.0, 1.0))
    REPRESENTATION_ITEM('')
);
#474 = CARTESIAN_POINT('', (6.283185307179586, -1.5707963267948966));
#475 = CARTESIAN_POINT('', (6.283185307179586, 1.5707963267948966));
#476 = PCURVE('', #477, #523);
#477 = (
    BOUNDED_SURFACE()
    B_SPLINE_SURFACE(2, 2, ((#478, #479, #480, #481, #482), (#483, #484, #485, #486, #487), (#488, #489, #490, #491, #492), (#493, #494, #495, #496, #497), (#498, #499, #500, #501, #502), (#503, #504, #505, #506, #507), (#508, #509, #510, #511, #512), (#513, #514, #515, #516, #517), (#518, #519, #520, #521, #522)), .UNSPECIFIED., .U., .U., .U.)
    B_SPLINE_SURFACE_WITH_KNOTS((3, 2, 2, 2, 3), (3, 2, 3), (0.0, 1.5707963267948966, 3.141592653589793, 4.71238898038469, 6.283185307179586), (-1.5707963267948966, 0.0, 1.5707963267948966), .UNSPECIFIED.)
    GEOMETRIC_REPRESENTATION_ITEM()
    RATIONAL_B_SPLINE_SURFACE(((1.0, 0.7071067811865476, 1.0, 0.7071067811865476, 1.0), (0.7071067811865476, 0.5000000000000001, 0.7071067811865476, 0.5000000000000001, 0.7071067811865476), (1.0, 0.7071067811865476, 1.0, 0.7071067811865476, 1.0), (0.7071067811865476, 0.5000000000000001, 0.7071067811865476, 0.5000000000000001, 0.7071067811865476), (1.0, 0.7071067811865476, 1.0, 0.7071067811865476, 1.0), (0.7071067811865476, 0.5000000000000001, 0.7071067811865476, 0.5000000000000001, 0.7071067811865476), (1.0, 0.7071067811865476, 1.0, 0.7071067811865476, 1.0), (0.7071067811865476, 0.5000000000000001, 0.7071067811865476, 0.5000000000000001, 0.7071067811865476), (1.0, 0.7071067811865476, 1.0, 0.7071067811865476, 1.0)))
    REPRESENTATION_ITEM('')
    SURFACE()
);
#478 = CARTESIAN_POINT('', (0.0, 0.0, -4.0));
#479 = CARTESIAN_POINT('', (4.0, 0.0, -4.0));
#480 = CARTESIAN_POINT('', (4.0, 0.0, 0.0));
#481 = CARTESIAN_POINT('', (4.0, 0.0, 4.0));
#482 = CARTESIAN_POINT('', (0.0, 0.0, 4.0));
#483 = CARTESIAN_POINT('', (0.0, 0.0, -4.0));
#484 = CARTESIAN_POINT('', (4.0, 4.0, -4.0));
#485 = CARTESIAN_POINT('', (4.0, 4.0, 0.0));
#486 = CARTESIAN_POINT('', (4.0, 4.0, 4.0));
#487 = CARTESIAN_POINT('', (0.0, 0.0, 4.0));
#488 = CARTESIAN_POINT('', (0.0, 0.0, -4.0));
#489 = CARTESIAN_POINT('', (0.0, 4.0, -4.0));
#490 = CARTESIAN_POINT('', (0.0, 4.0, 0.0));
#491 = CARTESIAN_POINT('', (0.0, 4.0, 4.0));
#492 = CARTESIAN_POINT('', (0.0, 0.0, 4.0));
#493 = CARTESIAN_POINT('', (0.0, 0.0, -4.0));
#494 = CARTESIAN_POINT('', (-4.0, 4.0, -4.0));
#495 = CARTESIAN_POINT('', (-4.0, 4.0, 0.0));
#496 = CARTESIAN_POINT('', (-4.0, 4.0, 4.0));
#497 = CARTESIAN_POINT('', (0.0, 0.0, 4.0));
#498 = CARTESIAN_POINT('', (0.0, 0.0, -4.0));
#499 = CARTESIAN_POINT('', (-4.0, 0.0, -4.0));
#500 = CARTESIAN_POINT('', (-4.0, 0.0, 0.0));
#501 = CARTESIAN_POINT('', (-4.0, 0.0, 4.0));
#502 = CARTESIAN_POINT('', (0.0, 0.0, 4.0));
#503 = CARTESIAN_POINT('', (0.0, 0.0, -4.0));
#504 = CARTESIAN_POINT('', (-4.0, -4.0, -4.0));
#505 = CARTESIAN_POINT('', (-4.0, -4.0, 0.0));
#506 = CARTESIAN_POINT('', (-4.0, -4.0, 4.0));
#507 = CARTESIAN_POINT('', (0.0, 0.0, 4.0));
#508 = CARTESIAN_POINT('', (0.0, 0.0, -4.0));
#509 = CARTESIAN_POINT('', (0.0, -4.0, -4.0));
#510 = CARTESIAN_POINT('', (0.0, -4.0, 0.0));
#511 = CARTESIAN_POINT('', (0.0, -4.0, 4.0));
#512 = CARTESIAN_POINT('', (0.0, 0.0, 4.0));
#513 = CARTESIAN_POINT('', (0.0, 0.0, -4.0));
#514 = CARTESIAN_POINT('', (4.0, -4.0, -4.0));
#515 = CARTESIAN_POINT('', (4.0, -4.0, 0.0));
#516 = CARTESIAN_POINT('', (4.0, -4.0, 4.0));
#517 = CARTESIAN_POINT('', (0.0, 0.0, 4.0));
#518 = CARTESIAN_POINT('', (0.0, 0.0, -4.0));
#519 = CARTESIAN_POINT('', (4.0, 0.0, -4.0));
#520 = CARTESIAN_POINT('', (4.0, 0.0, 0.0));
#521 = CARTESIAN_POINT('', (4.0, 0.0, 4.0));
#522 = CARTESIAN_POINT('', (0.0, 0.0, 4.0));
#523 = DEFINITIONAL_REPRESENTATION('', (#525), #524);
#524 = (
    GEOMETRIC_REPRESENTATION_CONTEXT(2)
    PARAMETRIC_REPRESENTATION_CONTEXT()
    REPRESENTATION_CONTEXT('2D SPACE', '')
);
#525 = (
    BOUNDED_CURVE()
    B_SPLINE_CURVE(1, (#526, #527), .UNSPECIFIED., .U., .U.)
    B_SPLINE_CURVE_WITH_KNOTS((2, 2), (-1.0, -0.0), .UNSPECIFIED.)
    CURVE()
    GEOMETRIC_REPRESENTATION_ITEM()
    RATIONAL_B_SPLINE_CURVE((1.0, 1.0))
    REPRESENTATION_ITEM('')
);
#526 = CARTESIAN_POINT('', (0.0, -1.5707963267948966));
#527 = CARTESIAN_POINT('', (0.0, 1.5707963267948966));
#528 = SURFACE_CURVE('', #529, (#532), .CURVE_3D.);
#529 = (
    BOUNDED_CURVE()
    B_SPLINE_CURVE(1, (#530, #531), .UNSPECIFIED., .U., .U.)
    B_SPLINE_CURVE_WITH_KNOTS((2, 2), (0.0, 1.0), .UNSPECIFIED.)
    CURVE()
    GEOMETRIC_REPRESENTATION_ITEM()
    RATIONAL_B_SPLINE_CURVE((1.0, 1.0))
    REPRESENTATION_ITEM('')
);
#530 = CARTESIAN_POINT('', (0.0, 0.0, 4.0));
#531 = CARTESIAN_POINT('', (0.0, 0.0, 4.0));
#532 = PCURVE('', #533, #579);
#533 = (
    BOUNDED_SURFACE()
    B_SPLINE_SURFACE(2, 2, ((#534, #535, #536, #537, #538), (#539, #540, #541, #542, #543), (#544, #545, #546, #547, #548), (#549, #550, #551, #552, #553), (#554, #555, #556, #557, #558), (#559, #560, #561, #562, #563), (#564, #565, #566, #567, #568), (#569, #570, #571, #572, #573), (#574, #575, #576, #577, #578)), .UNSPECIFIED., .U., .U., .U.)
    B_SPLINE_SURFACE_WITH_KNOTS((3, 2, 2, 2, 3), (3, 2, 3), (0.0, 1.5707963267948966, 3.141592653589793, 4.71238898038469, 6.283185307179586), (-1.5707963267948966, 0.0, 1.5707963267948966), .UNSPECIFIED.)
    GEOMETRIC_REPRESENTATION_ITEM()
    RATIONAL_B_SPLINE_SURFACE(((1.0, 0.7071067811865476, 1.0, 0.7071067811865476, 1.0), (0.7071067811865476, 0.5000000000000001, 0.7071067811865476, 0.5000000000000001, 0.7071067811865476), (1.0, 0.7071067811865476, 1.0, 0.7071067811865476, 1.0), (0.7071067811865476, 0.5000000000000001, 0.7071067811865476, 0.5000000000000001, 0.7071067811865476), (1.0, 0.7071067811865476, 1.0, 0.7071067811865476, 1.0), (0.7071067811865476, 0.5000000000000001, 0.7071067811865476, 0.5000000000000001, 0.7071067811865476), (1.0, 0.7071067811865476, 1.0, 0.7071067811865476, 1.0), (0.7071067811865476, 0.5000000000000001, 0.7071067811865476, 0.5000000000000001, 0.7071067811865476), (1.0, 0.7071067811865476, 1.0, 0.7071067811865476, 1.0)))
    REPRESENTATION_ITEM('')
    SURFACE()
);
#534 = CARTESIAN_POINT('', (0.0, 0.0, -4.0));
#535 = CARTESIAN_POINT('', (4.0, 0.0, -4.0));
#536 = CARTESIAN_POINT('', (4.0, 0.0, 0.0));
#537 = CARTESIAN_POINT('', (4.0, 0.0, 4.0));
#538 = CARTESIAN_POINT('', (0.0, 0.0, 4.0));
#539 = CARTESIAN_POINT('', (0.0, 0.0, -4.0));
#540 = CARTESIAN_POINT('', (4.0, 4.0, -4.0));
#541 = CARTESIAN_POINT('', (4.0, 4.0, 0.0));
#542 = CARTESIAN_POINT('', (4.0, 4.0, 4.0));
#543 = CARTESIAN_POINT('', (0.0, 0.0, 4.0));
#544 = CARTESIAN_POINT('', (0.0, 0.0, -4.0));
#545 = CARTESIAN_POINT('', (0.0, 4.0, -4.0));
#546 = CARTESIAN_POINT('', (0.0, 4.0, 0.0));
#547 = CARTESIAN_POINT('', (0.0, 4.0, 4.0));
#548 = CARTESIAN_POINT('', (0.0, 0.0, 4.0));
#549 = CARTESIAN_POINT('', (0.0, 0.0, -4.0));
#550 = CARTESIAN_POINT('', (-4.0, 4.0, -4.0));
#551 = CARTESIAN_POINT('', (-4.0, 4.0, 0.0));
#552 = CARTESIAN_POINT('', (-4.0, 4.0, 4.0));
#553 = CARTESIAN_POINT('', (0.0, 0.0, 4.0));
#554 = CARTESIAN_POINT('', (0.0, 0.0, -4.0));
#555 = CARTESIAN_POINT('', (-4.0, 0.0, -4.0));
#556 = CARTESIAN_POINT('', (-4.0, 0.0, 0.0));
#557 = CARTESIAN_POINT('', (-4.0, 0.0, 4.0));
#558 = CARTESIAN_POINT('', (0.0, 0.0, 4.0));
#559 = CARTESIAN_POINT('', (0.0, 0.0, -4.0));
#560 = CARTESIAN_POINT('', (-4.0, -4.0, -4.0));
#561 = CARTESIAN_POINT('', (-4.0, -4.0, 0.0));
#562 = CARTESIAN_POINT('', (-4.0, -4.0, 4.0));
#563 = CARTESIAN_POINT('', (0.0, 0.0, 4.0));
#564 = CARTESIAN_POINT('', (0.0, 0.0, -4.0));
#565 = CARTESIAN_POINT('', (0.0, -4.0, -4.0));
#566 = CARTESIAN_POINT('', (0.0, -4.0, 0.0));
#567 = CARTESIAN_POINT('', (0.0, -4.0, 4.0));
#568 = CARTESIAN_POINT('', (0.0, 0.0, 4.0));
#569 = CARTESIAN_POINT('', (0.0, 0.0, -4.0));
#570 = CARTESIAN_POINT('', (4.0, -4.0, -4.0));
#571 = CARTESIAN_POINT('', (4.0, -4.0, 0.0));
#572 = CARTESIAN_POINT('', (4.0, -4.0, 4.0));
#573 = CARTESIAN_POINT('', (0.0, 0.0, 4.0));
#574 = CARTESIAN_POINT('', (0.0, 0.0, -4.0));
#575 = CARTESIAN_POINT('', (4.0, 0.0, -4.0));
#576 = CARTESIAN_POINT('', (4.0, 0.0, 0.0));
#577 = CARTESIAN_POINT('', (4.0, 0.0, 4.0));
#578 = CARTESIAN_POINT('', (0.0, 0.0, 4.0));
#579 = DEFINITIONAL_REPRESENTATION('', (#581), #580);
#580 = (
    GEOMETRIC_REPRESENTATION_CONTEXT(2)
    PARAMETRIC_REPRESENTATION_CONTEXT()
    REPRESENTATION_CONTEXT('2D SPACE', '')
);
#581 = (
    BOUNDED_CURVE()
    B_SPLINE_CURVE(1, (#582, #583), .UNSPECIFIED., .U., .U.)
    B_SPLINE_CURVE_WITH_KNOTS((2, 2), (0.0, 1.0), .UNSPECIFIED.)
    CURVE()
    GEOMETRIC_REPRESENTATION_ITEM()
    RATIONAL_B_SPLINE_CURVE((1.0, 1.0))
    REPRESENTATION_ITEM('')
);
#582 = CARTESIAN_POINT('', (6.283185307179586, 1.5707963267948966));
#583 = CARTESIAN_POINT('', (0.0, 1.5707963267948966));
#584 = CARTESIAN_POINT('', (0.0E0, 0.0E0, -4.0E0));
#585 = CARTESIAN_POINT('', (0.0E0, 0.0E0, 4.0E0));
#586 = ORIENTED_CLOSED_SHELL('', *, #587, .F.);
#587 = CLOSED_SHELL('', (#588));
#588 = ADVANCED_FACE('', (#589), #600, .T.);
#589 = FACE_BOUND('', #590, .T.);
#590 = EDGE_LOOP('', (#591, #592, #593, #594));
#591 = ORIENTED_EDGE('', *, *, #595, .T.);
#592 = ORIENTED_EDGE('', *, *, #596, .T.);
#593 = ORIENTED_EDGE('', *, *, #597, .T.);
#594 = ORIENTED_EDGE('', *, *, #596, .F.);
#595 = EDGE_CURVE('', #598, #598, #646, .T.);
#596 = EDGE_CURVE('', #598, #599, #702, .T.);
#597 = EDGE_CURVE('', #599, #599, #813, .T.);
#598 = VERTEX_POINT('', #869);
#599 = VERTEX_POINT('', #870);
#600 = (
    BOUNDED_SURFACE()
    B_SPLINE_SURFACE(2, 2, ((#601, #602, #603, #604, #605), (#606, #607, #608, #609, #610), (#611, #612, #613, #614, #615), (#616, #617, #618, #619, #620), (#621, #622, #623, #624, #625), (#626, #627, #628, #629, #630), (#631, #632, #633, #634, #635), (#636, #637, #638, #639, #640), (#641, #642, #643, #644, #645)), .UNSPECIFIED., .U., .U., .U.)
    B_SPLINE_SURFACE_WITH_KNOTS((3, 2, 2, 2, 3), (3, 2, 3), (0.0, 1.5707963267948966, 3.141592653589793, 4.71238898038469, 6.283185307179586), (-1.5707963267948966, 0.0, 1.5707963267948966), .UNSPECIFIED.)
    GEOMETRIC_REPRESENTATION_ITEM()
    RATIONAL_B_SPLINE_SURFACE(((1.0, 0.7071067811865476, 1.0, 0.7071067811865476, 1.0), (0.7071067811865476, 0.5000000000000001, 0.7071067811865476, 0.5000000000000001, 0.7071067811865476), (1.0, 0.7071067811865476, 1.0, 0.7071067811865476, 1.0), (0.7071067811865476, 0.5000000000000001, 0.7071067811865476, 0.5000000000000001, 0.7071067811865476), (1.0, 0.7071067811865476, 1.0, 0.7071067811865476, 1.0), (0.7071067811865476, 0.5000000000000001, 0.7071067811865476, 0.5000000000000001, 0.7071067811865476), (1.0, 0.7071067811865476, 1.0, 0.7071067811865476, 1.0), (0.7071067811865476, 0.5000000000000001, 0.7071067811865476, 0.5000000000000001, 0.7071067811865476), (1.0, 0.7071067811865476, 1.0, 0.7071067811865476, 1.0)))
    REPRESENTATION_ITEM('')
    SURFACE()
);
#601 = CARTESIAN_POINT('', (0.0, 0.0, -2.0));
#602 = CARTESIAN_POINT('', (2.0, 0.0, -2.0));
#603 = CARTESIAN_POINT('', (2.0, 0.0, 0.0));
#604 = CARTESIAN_POINT('', (2.0, 0.0, 2.0));
#605 = CARTESIAN_POINT('', (0.0, 0.0, 2.0));
#606 = CARTESIAN_POINT('', (0.0, 0.0, -2.0));
#607 = CARTESIAN_POINT('', (2.0, 2.0, -2.0));
#608 = CARTESIAN_POINT('', (2.0, 2.0, 0.0));
#609 = CARTESIAN_POINT('', (2.0, 2.0, 2.0));
#610 = CARTESIAN_POINT('', (0.0, 0.0, 2.0));
#611 = CARTESIAN_POINT('', (0.0, 0.0, -2.0));
#612 = CARTESIAN_POINT('', (0.0, 2.0, -2.0));
#613 = CARTESIAN_POINT('', (0.0, 2.0, 0.0));
#614 = CARTESIAN_POINT('', (0.0, 2.0, 2.0));
#615 = CARTESIAN_POINT('', (0.0, 0.0, 2.0));
#616 = CARTESIAN_POINT('', (0.0, 0.0, -2.0));
#617 = CARTESIAN_POINT('', (-2.0, 2.0, -2.0));
#618 = CARTESIAN_POINT('', (-2.0, 2.0, 0.0));
#619 = CARTESIAN_POINT('', (-2.0, 2.0, 2.0));
#620 = CARTESIAN_POINT('', (0.0, 0.0, 2.0));
#621 = CARTESIAN_POINT('', (0.0, 0.0, -2.0));
#622 = CARTESIAN_POINT('', (-2.0, 0.0, -2.0));
#623 = CARTESIAN_POINT('', (-2.0, 0.0, 0.0));
#624 = CARTESIAN_POINT('', (-2.0, 0.0, 2.0));
#625 = CARTESIAN_POINT('', (0.0, 0.0, 2.0));
#626 = CARTESIAN_POINT('', (0.0, 0.0, -2.0));
#627 = CARTESIAN_POINT('', (-2.0, -2.0, -2.0));
#628 = CARTESIAN_POINT('', (-2.0, -2.0, 0.0));
#629 = CARTESIAN_POINT('', (-2.0, -2.0, 2.0));
#630 = CARTESIAN_POINT('', (0.0, 0.0, 2.0));
#631 = CARTESIAN_POINT('', (0.0, 0.0, -2.0));
#632 = CARTESIAN_POINT('', (0.0, -2.0, -2.0));
#633 = CARTESIAN_POINT('', (0.0, -2.0, 0.0));
#634 = CARTESIAN_POINT('', (0.0, -2.0, 2.0));
#635 = CARTESIAN_POINT('', (0.0, 0.0, 2.0));
#636 = CARTESIAN_POINT('', (0.0, 0.0, -2.0));
#637 = CARTESIAN_POINT('', (2.0, -2.0, -2.0));
#638 = CARTESIAN_POINT('', (2.0, -2.0, 0.0));
#639 = CARTESIAN_POINT('', (2.0, -2.0, 2.0));
#640 = CARTESIAN_POINT('', (0.0, 0.0, 2.0));
#641 = CARTESIAN_POINT('', (0.0, 0.0, -2.0));
#642 = CARTESIAN_POINT('', (2.0, 0.0, -2.0));
#643 = CARTESIAN_POINT('', (2.0, 0.0, 0.0));
#644 = CARTESIAN_POINT('', (2.0, 0.0, 2.0));
#645 = CARTESIAN_POINT('', (0.0, 0.0, 2.0));
#646 = SURFACE_CURVE('', #647, (#650), .CURVE_3D.);
#647 = (
    BOUNDED_CURVE()
    B_SPLINE_CURVE(1, (#648, #649), .UNSPECIFIED., .U., .U.)
    B_SPLINE_CURVE_WITH_KNOTS((2, 2), (0.0, 1.0), .UNSPECIFIED.)
    CURVE()
    GEOMETRIC_REPRESENTATION_ITEM()
    RATIONAL_B_SPLINE_CURVE((1.0, 1.0))
    REPRESENTATION_ITEM('')
);
#648 = CARTESIAN_POINT('', (0.0, 0.0, -2.0));
#649 = CARTESIAN_POINT('', (0.0, 0.0, -2.0));
#650 = PCURVE('', #651, #697);
#651 = (
    BOUNDED_SURFACE()
    B_SPLINE_SURFACE(2, 2, ((#652, #653, #654, #655, #656), (#657, #658, #659, #660, #661), (#662, #663, #664, #665, #666), (#667, #668, #669, #670, #671), (#672, #673, #674, #675, #676), (#677, #678, #679, #680, #681), (#682, #683, #684, #685, #686), (#687, #688, #689, #690, #691), (#692, #693, #694, #695, #696)), .UNSPECIFIED., .U., .U., .U.)
    B_SPLINE_SURFACE_WITH_KNOTS((3, 2, 2, 2, 3), (3, 2, 3), (0.0, 1.5707963267948966, 3.141592653589793, 4.71238898038469, 6.283185307179586), (-1.5707963267948966, 0.0, 1.5707963267948966), .UNSPECIFIED.)
    GEOMETRIC_REPRESENTATION_ITEM()
    RATIONAL_B_SPLINE_SURFACE(((1.0, 0.7071067811865476, 1.0, 0.7071067811865476, 1.0), (0.7071067811865476, 0.5000000000000001, 0.7071067811865476, 0.5000000000000001, 0.7071067811865476), (1.0, 0.7071067811865476, 1.0, 0.7071067811865476, 1.0), (0.7071067811865476, 0.5000000000000001, 0.7071067811865476, 0.5000000000000001, 0.7071067811865476), (1.0, 0.7071067811865476, 1.0, 0.7071067811865476, 1.0), (0.7071067811865476, 0.5000000000000001, 0.7071067811865476, 0.5000000000000001, 0.7071067811865476), (1.0, 0.7071067811865476, 1.0, 0.7071067811865476, 1.0), (0.7071067811865476, 0.5000000000000001, 0.7071067811865476, 0.5000000000000001, 0.7071067811865476), (1.0, 0.7071067811865476, 1.0, 0.7071067811865476, 1.0)))
    REPRESENTATION_ITEM('')
    SURFACE()
);
#652 = CARTESIAN_POINT('', (0.0, 0.0, -2.0));
#653 = CARTESIAN_POINT('', (2.0, 0.0, -2.0));
#654 = CARTESIAN_POINT('', (2.0, 0.0, 0.0));
#655 = CARTESIAN_POINT('', (2.0, 0.0, 2.0));
#656 = CARTESIAN_POINT('', (0.0, 0.0, 2.0));
#657 = CARTESIAN_POINT('', (0.0, 0.0, -2.0));
#658 = CARTESIAN_POINT('', (2.0, 2.0, -2.0));
#659 = CARTESIAN_POINT('', (2.0, 2.0, 0.0));
#660 = CARTESIAN_POINT('', (2.0, 2.0, 2.0));
#661 = CARTESIAN_POINT('', (0.0, 0.0, 2.0));
#662 = CARTESIAN_POINT('', (0.0, 0.0, -2.0));
#663 = CARTESIAN_POINT('', (0.0, 2.0, -2.0));
#664 = CARTESIAN_POINT('', (0.0, 2.0, 0.0));
#665 = CARTESIAN_POINT('', (0.0, 2.0, 2.0));
#666 = CARTESIAN_POINT('', (0.0, 0.0, 2.0));
#667 = CARTESIAN_POINT('', (0.0, 0.0, -2.0));
#668 = CARTESIAN_POINT('', (-2.0, 2.0, -2.0));
#669 = CARTESIAN_POINT('', (-2.0, 2.0, 0.0));
#670 = CARTESIAN_POINT('', (-2.0, 2.0, 2.0));
#671 = CARTESIAN_POINT('', (0.0, 0.0, 2.0));
#672 = CARTESIAN_POINT('', (0.0, 0.0, -2.0));
#673 = CARTESIAN_POINT('', (-2.0, 0.0, -2.0));
#674 = CARTESIAN_POINT('', (-2.0, 0.0, 0.0));
#675 = CARTESIAN_POINT('', (-2.0, 0.0, 2.0));
#676 = CARTESIAN_POINT('', (0.0, 0.0, 2.0));
#677 = CARTESIAN_POINT('', (0.0, 0.0, -2.0));
#678 = CARTESIAN_POINT('', (-2.0, -2.0, -2.0));
#679 = CARTESIAN_POINT('', (-2.0, -2.0, 0.0));
#680 = CARTESIAN_POINT('', (-2.0, -2.0, 2.0));
#681 = CARTESIAN_POINT('', (0.0, 0.0, 2.0));
#682 = CARTESIAN_POINT('', (0.0, 0.0, -2.0));
#683 = CARTESIAN_POINT('', (0.0, -2.0, -2.0));
#684 = CARTESIAN_POINT('', (0.0, -2.0, 0.0));
#685 = CARTESIAN_POINT('', (0.0, -2.0, 2.0));
#686 = CARTESIAN_POINT('', (0.0, 0.0, 2.0));
#687 = CARTESIAN_POINT('', (0.0, 0.0, -2.0));
#688 = CARTESIAN_POINT('', (2.0, -2.0, -2.0));
#689 = CARTESIAN_POINT('', (2.0, -2.0, 0.0));
#690 = CARTESIAN_POINT('', (2.0, -2.0, 2.0));
#691 = CARTESIAN_POINT('', (0.0, 0.0, 2.0));
#692 = CARTESIAN_POINT('', (0.0, 0.0, -2.0));
#693 = CARTESIAN_POINT('', (2.0, 0.0, -2.0));
#694 = CARTESIAN_POINT('', (2.0, 0.0, 0.0));
#695 = CARTESIAN_POINT('', (2.0, 0.0, 2.0));
#696 = CARTESIAN_POINT('', (0.0, 0.0, 2.0));
#697 = DEFINITIONAL_REPRESENTATION('', (#699), #698);
#698 = (
    GEOMETRIC_REPRESENTATION_CONTEXT(2)
    PARAMETRIC_REPRESENTATION_CONTEXT()
    REPRESENTATION_CONTEXT('2D SPACE', '')
);
#699 = (
    BOUNDED_CURVE()
    B_SPLINE_CURVE(1, (#700, #701), .UNSPECIFIED., .U., .U.)
    B_SPLINE_CURVE_WITH_KNOTS((2, 2), (0.0, 1.0), .UNSPECIFIED.)
    CURVE()
    GEOMETRIC_REPRESENTATION_ITEM()
    RATIONAL_B_SPLINE_CURVE((1.0, 1.0))
    REPRESENTATION_ITEM('')
);
#700 = CARTESIAN_POINT('', (0.0, -1.5707963267948966));
#701 = CARTESIAN_POINT('', (6.283185307179586, -1.5707963267948966));
#702 = SEAM_CURVE('', #703, (#709, #761), .CURVE_3D.);
#703 = (
    BOUNDED_CURVE()
    B_SPLINE_CURVE(2, (#704, #705, #706, #707, #708), .UNSPECIFIED., .U., .U.)
    B_SPLINE_CURVE_WITH_KNOTS((3, 2, 3), (-1.5707963267948966, 0.0, 1.5707963267948966), .UNSPECIFIED.)
    CURVE()
    GEOMETRIC_REPRESENTATION_ITEM()
    RATIONAL_B_SPLINE_CURVE((1.0, 0.7071067811865476, 1.0, 0.7071067811865476, 1.0))
    REPRESENTATION_ITEM('')
);
#704 = CARTESIAN_POINT('', (0.0, 0.0, -2.0));
#705 = CARTESIAN_POINT('', (2.0, 0.0, -2.0));
#706 = CARTESIAN_POINT('', (2.0, 0.0, 0.0));
#707 = CARTESIAN_POINT('', (2.0, 0.0, 2.0));
#708 = CARTESIAN_POINT('', (0.0, 0.0, 2.0));
#709 = PCURVE('', #710, #756);
#710 = (
    BOUNDED_SURFACE()
    B_SPLINE_SURFACE(2, 2, ((#711, #712, #713, #714, #715), (#716, #717, #718, #719, #720), (#721, #722, #723, #724, #725), (#726, #727, #728, #729, #730), (#731, #732, #733, #734, #735), (#736, #737, #738, #739, #740), (#741, #742, #743, #744, #745), (#746, #747, #748, #749, #750), (#751, #752, #753, #754, #755)), .UNSPECIFIED., .U., .U., .U.)
    B_SPLINE_SURFACE_WITH_KNOTS((3, 2, 2, 2, 3), (3, 2, 3), (0.0, 1.5707963267948966, 3.141592653589793, 4.71238898038469, 6.283185307179586), (-1.5707963267948966, 0.0, 1.5707963267948966), .UNSPECIFIED.)
    GEOMETRIC_REPRESENTATION_ITEM()
    RATIONAL_B_SPLINE_SURFACE(((1.0, 0.7071067811865476, 1.0, 0.7071067811865476, 1.0), (0.7071067811865476, 0.5000000000000001, 0.7071067811865476, 0.5000000000000001, 0.7071067811865476), (1.0, 0.7071067811865476, 1.0, 0.7071067811865476, 1.0), (0.7071067811865476, 0.5000000000000001, 0.7071067811865476, 0.5000000000000001, 0.7071067811865476), (1.0, 0.7071067811865476, 1.0, 0.7071067811865476, 1.0), (0.7071067811865476, 0.5000000000000001, 0.7071067811865476, 0.5000000000000001, 0.7071067811865476), (1.0, 0.7071067811865476, 1.0, 0.7071067811865476, 1.0), (0.7071067811865476, 0.5000000000000001, 0.7071067811865476, 0.5000000000000001, 0.7071067811865476), (1.0, 0.7071067811865476, 1.0, 0.7071067811865476, 1.0)))
    REPRESENTATION_ITEM('')
    SURFACE()
);
#711 = CARTESIAN_POINT('', (0.0, 0.0, -2.0));
#712 = CARTESIAN_POINT('', (2.0, 0.0, -2.0));
#713 = CARTESIAN_POINT('', (2.0, 0.0, 0.0));
#714 = CARTESIAN_POINT('', (2.0, 0.0, 2.0));
#715 = CARTESIAN_POINT('', (0.0, 0.0, 2.0));
#716 = CARTESIAN_POINT('', (0.0, 0.0, -2.0));
#717 = CARTESIAN_POINT('', (2.0, 2.0, -2.0));
#718 = CARTESIAN_POINT('', (2.0, 2.0, 0.0));
#719 = CARTESIAN_POINT('', (2.0, 2.0, 2.0));
#720 = CARTESIAN_POINT('', (0.0, 0.0, 2.0));
#721 = CARTESIAN_POINT('', (0.0, 0.0, -2.0));
#722 = CARTESIAN_POINT('', (0.0, 2.0, -2.0));
#723 = CARTESIAN_POINT('', (0.0, 2.0, 0.0));
#724 = CARTESIAN_POINT('', (0.0, 2.0, 2.0));
#725 = CARTESIAN_POINT('', (0.0, 0.0, 2.0));
#726 = CARTESIAN_POINT('', (0.0, 0.0, -2.0));
#727 = CARTESIAN_POINT('', (-2.0, 2.0, -2.0));
#728 = CARTESIAN_POINT('', (-2.0, 2.0, 0.0));
#729 = CARTESIAN_POINT('', (-2.0, 2.0, 2.0));
#730 = CARTESIAN_POINT('', (0.0, 0.0, 2.0));
#731 = CARTESIAN_POINT('', (0.0, 0.0, -2.0));
#732 = CARTESIAN_POINT('', (-2.0, 0.0, -2.0));
#733 = CARTESIAN_POINT('', (-2.0, 0.0, 0.0));
#734 = CARTESIAN_POINT('', (-2.0, 0.0, 2.0));
#735 = CARTESIAN_POINT('', (0.0, 0.0, 2.0));
#736 = CARTESIAN_POINT('', (0.0, 0.0, -2.0));
#737 = CARTESIAN_POINT('', (-2.0, -2.0, -2.0));
#738 = CARTESIAN_POINT('', (-2.0, -2.0, 0.0));
#739 = CARTESIAN_POINT('', (-2.0, -2.0, 2.0));
#740 = CARTESIAN_POINT('', (0.0, 0.0, 2.0));
#741 = CARTESIAN_POINT('', (0.0, 0.0, -2.0));
#742 = CARTESIAN_POINT('', (0.0, -2.0, -2.0));
#743 = CARTESIAN_POINT('', (0.0, -2.0, 0.0));
#744 = CARTESIAN_POINT('', (0.0, -2.0, 2.0));
#745 = CARTESIAN_POINT('', (0.0, 0.0, 2.0));
#746 = CARTESIAN_POINT('', (0.0, 0.0, -2.0));
#747 = CARTESIAN_POINT('', (2.0, -2.0, -2.0));
#748 = CARTESIAN_POINT('', (2.0, -2.0, 0.0));
#749 = CARTESIAN_POINT('', (2.0, -2.0, 2.0));
#750 = CARTESIAN_POINT('', (0.0, 0.0, 2.0));
#751 = CARTESIAN_POINT('', (0.0, 0.0, -2.0));
#752 = CARTESIAN_POINT('', (2.0, 0.0, -2.0));
#753 = CARTESIAN_POINT('', (2.0, 0.0, 0.0));
#754 = CARTESIAN_POINT('', (2.0, 0.0, 2.0));
#755 = CARTESIAN_POINT('', (0.0, 0.0, 2.0));
#756 = DEFINITIONAL_REPRESENTATION('', (#758), #757);
#757 = (
    GEOMETRIC_REPRESENTATION_CONTEXT(2)
    PARAMETRIC_REPRESENTATION_CONTEXT()
    REPRESENTATION_CONTEXT('2D SPACE', '')
);
#758 = (
    BOUNDED_CURVE()
    B_SPLINE_CURVE(1, (#759, #760), .UNSPECIFIED., .U., .U.)
    B_SPLINE_CURVE_WITH_KNOTS((2, 2), (0.0, 1.0), .UNSPECIFIED.)
    CURVE()
    GEOMETRIC_REPRESENTATION_ITEM()
    RATIONAL_B_SPLINE_CURVE((1.0, 1.0))
    REPRESENTATION_ITEM('')
);
#759 = CARTESIAN_POINT('', (6.283185307179586, -1.5707963267948966));
#760 = CARTESIAN_POINT('', (6.283185307179586, 1.5707963267948966));
#761 = PCURVE('', #762, #808);
#762 = (
    BOUNDED_SURFACE()
    B_SPLINE_SURFACE(2, 2, ((#763, #764, #765, #766, #767), (#768, #769, #770, #771, #772), (#773, #774, #775, #776, #777), (#778, #779, #780, #781, #782), (#783, #784, #785, #786, #787), (#788, #789, #790, #791, #792), (#793, #794, #795, #796, #797), (#798, #799, #800, #801, #802), (#803, #804, #805, #806, #807)), .UNSPECIFIED., .U., .U., .U.)
    B_SPLINE_SURFACE_WITH_KNOTS((3, 2, 2, 2, 3), (3, 2, 3), (0.0, 1.5707963267948966, 3.141592653589793, 4.71238898038469, 6.283185307179586), (-1.5707963267948966, 0.0, 1.5707963267948966), .UNSPECIFIED.)
    GEOMETRIC_REPRESENTATION_ITEM()
    RATIONAL_B_SPLINE_SURFACE(((1.0, 0.7071067811865476, 1.0, 0.7071067811865476, 1.0), (0.7071067811865476, 0.5000000000000001, 0.7071067811865476, 0.5000000000000001, 0.7071067811865476), (1.0, 0.7071067811865476, 1.0, 0.7071067811865476, 1.0), (0.7071067811865476, 0.5000000000000001, 0.7071067811865476, 0.5000000000000001, 0.7071067811865476), (1.0, 0.7071067811865476, 1.0, 0.7071067811865476, 1.0), (0.7071067811865476, 0.5000000000000001, 0.7071067811865476, 0.5000000000000001, 0.7071067811865476), (1.0, 0.7071067811865476, 1.0, 0.7071067811865476, 1.0), (0.7071067811865476, 0.5000000000000001, 0.7071067811865476, 0.5000000000000001, 0.7071067811865476), (1.0, 0.7071067811865476, 1.0, 0.7071067811865476, 1.0)))
    REPRESENTATION_ITEM('')
    SURFACE()
);
#763 = CARTESIAN_POINT('', (0.0, 0.0, -2.0));
#764 = CARTESIAN_POINT('', (2.0, 0.0, -2.0));
#765 = CARTESIAN_POINT('', (2.0, 0.0, 0.0));
#766 = CARTESIAN_POINT('', (2.0, 0.0, 2.0));
#767 = CARTESIAN_POINT('', (0.0, 0.0, 2.0));
#768 = CARTESIAN_POINT('', (0.0, 0.0, -2.0));
#769 = CARTESIAN_POINT('', (2.0, 2.0, -2.0));
#770 = CARTESIAN_POINT('', (2.0, 2.0, 0.0));
#771 = CARTESIAN_POINT('', (2.0, 2.0, 2.0));
#772 = CARTESIAN_POINT('', (0.0, 0.0, 2.0));
#773 = CARTESIAN_POINT('', (0.0, 0.0, -2.0));
#774 = CARTESIAN_POINT('', (0.0, 2.0, -2.0));
#775 = CARTESIAN_POINT('', (0.0, 2.0, 0.0));
#776 = CARTESIAN_POINT('', (0.0, 2.0, 2.0));
#777 = CARTESIAN_POINT('', (0.0, 0.0, 2.0));
#778 = CARTESIAN_POINT('', (0.0, 0.0, -2.0));
#779 = CARTESIAN_POINT('', (-2.0, 2.0, -2.0));
#780 = CARTESIAN_POINT('', (-2.0, 2.0, 0.0));
#781 = CARTESIAN_POINT('', (-2.0, 2.0, 2.0));
#782 = CARTESIAN_POINT('', (0.0, 0.0, 2.0));
#783 = CARTESIAN_POINT('', (0.0, 0.0, -2.0));
#784 = CARTESIAN_POINT('', (-2.0, 0.0, -2.0));
#785 = CARTESIAN_POINT('', (-2.0, 0.0, 0.0));
#786 = CARTESIAN_POINT('', (-2.0, 0.0, 2.0));
#787 = CARTESIAN_POINT('', (0.0, 0.0, 2.0));
#788 = CARTESIAN_POINT('', (0.0, 0.0, -2.0));
#789 = CARTESIAN_POINT('', (-2.0, -2.0, -2.0));
#790 = CARTESIAN_POINT('', (-2.0, -2.0, 0.0));
#791 = CARTESIAN_POINT('', (-2.0, -2.0, 2.0));
#792 = CARTESIAN_POINT('', (0.0, 0.0, 2.0));
#793 = CARTESIAN_POINT('', (0.0, 0.0, -2.0));
#794 = CARTESIAN_POINT('', (0.0, -2.0, -2.0));
#795 = CARTESIAN_POINT('', (0.0, -2.0, 0.0));
#796 = CARTESIAN_POINT('', (0.0, -2.0, 2.0));
#797 = CARTESIAN_POINT('', (0.0, 0.0, 2.0));
#798 = CARTESIAN_POINT('', (0.0, 0.0, -2.0));
#799 = CARTESIAN_POINT('', (2.0, -2.0, -2.0));
#800 = CARTESIAN_POINT('', (2.0, -2.0, 0.0));
#801 = CARTESIAN_POINT('', (2.0, -2.0, 2.0));
#802 = CARTESIAN_POINT('', (0.0, 0.0, 2.0));
#803 = CARTESIAN_POINT('', (0.0, 0.0, -2.0));
#804 = CARTESIAN_POINT('', (2.0, 0.0, -2.0));
#805 = CARTESIAN_POINT('', (2.0, 0.0, 0.0));
#806 = CARTESIAN_POINT('', (2.0, 0.0, 2.0));
#807 = CARTESIAN_POINT('', (0.0, 0.0, 2.0));
#808 = DEFINITIONAL_REPRESENTATION('', (#810), #809);
#809 = (
    GEOMETRIC_REPRESENTATION_CONTEXT(2)
    PARAMETRIC_REPRESENTATION_CONTEXT()
    REPRESENTATION_CONTEXT('2D SPACE', '')
);
#810 = (
    BOUNDED_CURVE()
    B_SPLINE_CURVE(1, (#811, #812), .UNSPECIFIED., .U., .U.)
    B_SPLINE_CURVE_WITH_KNOTS((2, 2), (-1.0, -0.0), .UNSPECIFIED.)
    CURVE()
    GEOMETRIC_REPRESENTATION_ITEM()
    RATIONAL_B_SPLINE_CURVE((1.0, 1.0))
    REPRESENTATION_ITEM('')
);
#811 = CARTESIAN_POINT('', (0.0, -1.5707963267948966));
#812 = CARTESIAN_POINT('', (0.0, 1.5707963267948966));
#813 = SURFACE_CURVE('', #814, (#817), .CURVE_3D.);
#814 = (
    BOUNDED_CURVE()
    B_SPLINE_CURVE(1, (#815, #816), .UNSPECIFIED., .U., .U.)
    B_SPLINE_CURVE_WITH_KNOTS((2, 2), (0.0, 1.0), .UNSPECIFIED.)
    CURVE()
    GEOMETRIC_REPRESENTATION_ITEM()
    RATIONAL_B_SPLINE_CURVE((1.0, 1.0))
    REPRESENTATION_ITEM('')
);
#815 = CARTESIAN_POINT('', (0.0, 0.0, 2.0));
#816 = CARTESIAN_POINT('', (0.0, 0.0, 2.0));
#817 = PCURVE('', #818, #864);
#818 = (
    BOUNDED_SURFACE()
    B_SPLINE_SURFACE(2, 2, ((#819, #820, #821, #822, #823), (#824, #825, #826, #827, #828), (#829, #830, #831, #832, #833), (#834, #835, #836, #837, #838), (#839, #840, #841, #842, #843), (#844, #845, #846, #847, #848), (#849, #850, #851, #852, #853), (#854, #855, #856, #857, #858), (#859, #860, #861, #862, #863)), .UNSPECIFIED., .U., .U., .U.)
    B_SPLINE_SURFACE_WITH_KNOTS((3, 2, 2, 2, 3), (3, 2, 3), (0.0, 1.5707963267948966, 3.141592653589793, 4.71238898038469, 6.283185307179586), (-1.5707963267948966, 0.0, 1.5707963267948966), .UNSPECIFIED.)
    GEOMETRIC_REPRESENTATION_ITEM()
    RATIONAL_B_SPLINE_SURFACE(((1.0, 0.7071067811865476, 1.0, 0.7071067811865476, 1.0), (0.7071067811865476, 0.5000000000000001, 0.7071067811865476, 0.5000000000000001, 0.7071067811865476), (1.0, 0.7071067811865476, 1.0, 0.7071067811865476, 1.0), (0.7071067811865476, 0.5000000000000001, 0.7071067811865476, 0.5000000000000001, 0.7071067811865476), (1.0, 0.7071067811865476, 1.0, 0.7071067811865476, 1.0), (0.7071067811865476, 0.5000000000000001, 0.7071067811865476, 0.5000000000000001, 0.7071067811865476), (1.0, 0.7071067811865476, 1.0, 0.7071067811865476, 1.0), (0.7071067811865476, 0.5000000000000001, 0.7071067811865476, 0.5000000000000001, 0.7071067811865476), (1.0, 0.7071067811865476, 1.0, 0.7071067811865476, 1.0)))
    REPRESENTATION_ITEM('')
    SURFACE()
);
#819 = CARTESIAN_POINT('', (0.0, 0.0, -2.0));
#820 = CARTESIAN_POINT('', (2.0, 0.0, -2.0));
#821 = CARTESIAN_POINT('', (2.0, 0.0, 0.0));
#822 = CARTESIAN_POINT('', (2.0, 0.0, 2.0));
#823 = CARTESIAN_POINT('', (0.0, 0.0, 2.0));
#824 = CARTESIAN_POINT('', (0.0, 0.0, -2.0));
#825 = CARTESIAN_POINT('', (2.0, 2.0, -2.0));
#826 = CARTESIAN_POINT('', (2.0, 2.0, 0.0));
#827 = CARTESIAN_POINT('', (2.0, 2.0, 2.0));
#828 = CARTESIAN_POINT('', (0.0, 0.0, 2.0));
#829 = CARTESIAN_POINT('', (0.0, 0.0, -2.0));
#830 = CARTESIAN_POINT('', (0.0, 2.0, -2.0));
#831 = CARTESIAN_POINT('', (0.0, 2.0, 0.0));
#832 = CARTESIAN_POINT('', (0.0, 2.0, 2.0));
#833 = CARTESIAN_POINT('', (0.0, 0.0, 2.0));
#834 = CARTESIAN_POINT('', (0.0, 0.0, -2.0));
#835 = CARTESIAN_POINT('', (-2.0, 2.0, -2.0));
#836 = CARTESIAN_POINT('', (-2.0, 2.0, 0.0));
#837 = CARTESIAN_POINT('', (-2.0, 2.0, 2.0));
#838 = CARTESIAN_POINT('', (0.0, 0.0, 2.0));
#839 = CARTESIAN_POINT('', (0.0, 0.0, -2.0));
#840 = CARTESIAN_POINT('', (-2.0, 0.0, -2.0));
#841 = CARTESIAN_POINT('', (-2.0, 0.0, 0.0));
#842 = CARTESIAN_POINT('', (-2.0, 0.0, 2.0));
#843 = CARTESIAN_POINT('', (0.0, 0.0, 2.0));
#844 = CARTESIAN_POINT('', (0.0, 0.0, -2.0));
#845 = CARTESIAN_POINT('', (-2.0, -2.0, -2.0));
#846 = CARTESIAN_POINT('', (-2.0, -2.0, 0.0));
#847 = CARTESIAN_POINT('', (-2.0, -2.0, 2.0));
#848 = CARTESIAN_POINT('', (0.0, 0.0, 2.0));
#849 = CARTESIAN_POINT('', (0.0, 0.0, -2.0));
#850 = CARTESIAN_POINT('', (0.0, -2.0, -2.0));
#851 = CARTESIAN_POINT('', (0.0, -2.0, 0.0));
#852 = CARTESIAN_POINT('', (0.0, -2.0, 2.0));
#853 = CARTESIAN_POINT('', (0.0, 0.0, 2.0));
#854 = CARTESIAN_POINT('', (0.0, 0.0, -2.0));
#855 = CARTESIAN_POINT('', (2.0, -2.0, -2.0));
#856 = CARTESIAN_POINT('', (2.0, -2.0, 0.0));
#857 = CARTESIAN_POINT('', (2.0, -2.0, 2.0));
#858 = CARTESIAN_POINT('', (0.0, 0.0, 2.0));
#859 = CARTESIAN_POINT('', (0.0, 0.0, -2.0));
#860 = CARTESIAN_POINT('', (2.0, 0.0, -2.0));
#861 = CARTESIAN_POINT('', (2.0, 0.0, 0.0));
#862 = CARTESIAN_POINT('', (2.0, 0.0, 2.0));
#863 = CARTESIAN_POINT('', (0.0, 0.0, 2.0));
#864 = DEFINITIONAL_REPRESENTATION('', (#866), #865);
#865 = (
    GEOMETRIC_REPRESENTATION_CONTEXT(2)
    PARAMETRIC_REPRESENTATION_CONTEXT()
    REPRESENTATION_CONTEXT('2D SPACE', '')
);
#866 = (
    BOUNDED_CURVE()
    B_SPLINE_CURVE(1, (#867, #868), .UNSPECIFIED., .U., .U.)
    B_SPLINE_CURVE_WITH_KNOTS((2, 2), (0.0, 1.0), .UNSPECIFIED.)
    CURVE()
    GEOMETRIC_REPRESENTATION_ITEM()
    RATIONAL_B_SPLINE_CURVE((1.0, 1.0))
    REPRESENTATION_ITEM('')
);
#867 = CARTESIAN_POINT('', (6.283185307179586, 1.5707963267948966));
#868 = CARTESIAN_POINT('', (0.0, 1.5707963267948966));
#869 = CARTESIAN_POINT('', (0.0E0, 0.0E0, -2.0E0));
#870 = CARTESIAN_POINT('', (0.0E0, 0.0E0, 2.0E0));
ENDSEC;
END-ISO-10303-21;
