ISO-10303-21;
HEADER;
FILE_DESCRIPTION(('Shape Data from monstertruck'), '2;1');
FILE_NAME('', '2026-10-10 08:42:00.593385344', (''), (''), 'monstertruck', 'Viboceros', '');
FILE_SCHEMA(('AUTOMOTIVE_DESIGN'));
ENDSEC;
DATA;
#1 = APPLICATION_PROTOCOL_DEFINITION('international standard', 'automotive_design', 2000, #2);
#2 = APPLICATION_CONTEXT('core data for automotive mechanical design processes');
#3 = SHAPE_DEFINITION_REPRESENTATION(#4, #10);
#4 = PRODUCT_DEFINITION_SHAPE('','', #5);
#5 = PRODUCT_DEFINITION('design','', #6, #9);
#6 = PRODUCT_DEFINITION_FORMATION('','', #7);
#7 = PRODUCT('','','', (#8));
#8 = PRODUCT_CONTEXT('', #2, 'mechanical');
#9 = PRODUCT_DEFINITION_CONTEXT('part definition', #2, 'design');
#10 = ADVANCED_BREP_SHAPE_REPRESENTATION('', (#16), #11);
#11 = (
    GEOMETRIC_REPRESENTATION_CONTEXT(3)
    GLOBAL_UNCERTAINTY_ASSIGNED_CONTEXT((#15))
    GLOBAL_UNIT_ASSIGNED_CONTEXT((#12, #13, #14))
    REPRESENTATION_CONTEXT('Context #1', '3D Context with UNIT and UNCERTAINTY')
);
#12 = ( LENGTH_UNIT() NAMED_UNIT(*) SI_UNIT(.MILLI.,.METRE.) );
#13 = ( NAMED_UNIT(*) PLANE_ANGLE_UNIT() SI_UNIT($,.RADIAN.) );
#14 = ( NAMED_UNIT(*) SI_UNIT($,.STERADIAN.) SOLID_ANGLE_UNIT() );
#15 = UNCERTAINTY_MEASURE_WITH_UNIT(LENGTH_MEASURE(1.0E-6), #12, 'distance_accuracy_value','confusion accuracy');
#16 = BREP_WITH_VOIDS('', #17, (#485));
#17 = CLOSED_SHELL('', (#18));
#18 = ADVANCED_FACE('', (#19), #28, .T.);
#19 = FACE_BOUND('', #20, .T.);
#20 = EDGE_LOOP('', (#21, #22, #23, #24));
#21 = ORIENTED_EDGE('', *, *, #25, .T.);
#22 = ORIENTED_EDGE('', *, *, #26, .T.);
#23 = ORIENTED_EDGE('', *, *, #25, .F.);
#24 = ORIENTED_EDGE('', *, *, #26, .F.);
#25 = EDGE_CURVE('', #27, #27, #110, .T.);
#26 = EDGE_CURVE('', #27, #27, #297, .T.);
#27 = VERTEX_POINT('', #484);
#28 = (
    BOUNDED_SURFACE()
    B_SPLINE_SURFACE(2, 2, ((#29, #30, #31, #32, #33, #34, #35, #36, #37), (#38, #39, #40, #41, #42, #43, #44, #45, #46), (#47, #48, #49, #50, #51, #52, #53, #54, #55), (#56, #57, #58, #59, #60, #61, #62, #63, #64), (#65, #66, #67, #68, #69, #70, #71, #72, #73), (#74, #75, #76, #77, #78, #79, #80, #81, #82), (#83, #84, #85, #86, #87, #88, #89, #90, #91), (#92, #93, #94, #95, #96, #97, #98, #99, #100), (#101, #102, #103, #104, #105, #106, #107, #108, #109)), .UNSPECIFIED., .U., .U., .U.)
    B_SPLINE_SURFACE_WITH_KNOTS((3, 2, 2, 2, 3), (3, 2, 2, 2, 3), (0.0, 6.283185307179586, 12.566370614359172, 18.84955592153876, 25.132741228718345), (0.0, 1.5707963267948966, 3.141592653589793, 4.71238898038469, 6.283185307179586), .UNSPECIFIED.)
    GEOMETRIC_REPRESENTATION_ITEM()
    RATIONAL_B_SPLINE_SURFACE(((1.0, 0.7071067811865476, 1.0, 0.7071067811865476, 1.0, 0.7071067811865476, 1.0, 0.7071067811865476, 1.0), (0.7071067811865476, 0.5000000000000001, 0.7071067811865476, 0.5000000000000001, 0.7071067811865476, 0.5000000000000001, 0.7071067811865476, 0.5000000000000001, 0.7071067811865476), (1.0, 0.7071067811865476, 1.0, 0.7071067811865476, 1.0, 0.7071067811865476, 1.0, 0.7071067811865476, 1.0), (0.7071067811865476, 0.5000000000000001, 0.7071067811865476, 0.5000000000000001, 0.7071067811865476, 0.5000000000000001, 0.7071067811865476, 0.5000000000000001, 0.7071067811865476), (1.0, 0.7071067811865476, 1.0, 0.7071067811865476, 1.0, 0.7071067811865476, 1.0, 0.7071067811865476, 1.0), (0.7071067811865476, 0.5000000000000001, 0.7071067811865476, 0.5000000000000001, 0.7071067811865476, 0.5000000000000001, 0.7071067811865476, 0.5000000000000001, 0.7071067811865476), (1.0, 0.7071067811865476, 1.0, 0.7071067811865476, 1.0, 0.7071067811865476, 1.0, 0.7071067811865476, 1.0), (0.7071067811865476, 0.5000000000000001, 0.7071067811865476, 0.5000000000000001, 0.7071067811865476, 0.5000000000000001, 0.7071067811865476, 0.5000000000000001, 0.7071067811865476), (1.0, 0.7071067811865476, 1.0, 0.7071067811865476, 1.0, 0.7071067811865476, 1.0, 0.7071067811865476, 1.0)))
    REPRESENTATION_ITEM('')
    SURFACE()
);
#29 = CARTESIAN_POINT('', (5.0, 0.0, 0.0));
#30 = CARTESIAN_POINT('', (5.0, 0.0, 1.0));
#31 = CARTESIAN_POINT('', (4.0, 0.0, 1.0));
#32 = CARTESIAN_POINT('', (3.0, 0.0, 1.0));
#33 = CARTESIAN_POINT('', (3.0, 0.0, 0.0));
#34 = CARTESIAN_POINT('', (3.0, 0.0, -1.0));
#35 = CARTESIAN_POINT('', (4.0, 0.0, -1.0));
#36 = CARTESIAN_POINT('', (5.0, 0.0, -1.0));
#37 = CARTESIAN_POINT('', (5.0, 0.0, 0.0));
#38 = CARTESIAN_POINT('', (5.0, 5.0, 0.0));
#39 = CARTESIAN_POINT('', (5.0, 5.0, 1.0));
#40 = CARTESIAN_POINT('', (4.0, 4.0, 1.0));
#41 = CARTESIAN_POINT('', (3.0, 3.0, 1.0));
#42 = CARTESIAN_POINT('', (3.0, 3.0, 0.0));
#43 = CARTESIAN_POINT('', (3.0, 3.0, -1.0));
#44 = CARTESIAN_POINT('', (4.0, 4.0, -1.0));
#45 = CARTESIAN_POINT('', (5.0, 5.0, -1.0));
#46 = CARTESIAN_POINT('', (5.0, 5.0, 0.0));
#47 = CARTESIAN_POINT('', (0.0, 5.0, 0.0));
#48 = CARTESIAN_POINT('', (0.0, 5.0, 1.0));
#49 = CARTESIAN_POINT('', (0.0, 4.0, 1.0));
#50 = CARTESIAN_POINT('', (0.0, 3.0, 1.0));
#51 = CARTESIAN_POINT('', (0.0, 3.0, 0.0));
#52 = CARTESIAN_POINT('', (0.0, 3.0, -1.0));
#53 = CARTESIAN_POINT('', (0.0, 4.0, -1.0));
#54 = CARTESIAN_POINT('', (0.0, 5.0, -1.0));
#55 = CARTESIAN_POINT('', (0.0, 5.0, 0.0));
#56 = CARTESIAN_POINT('', (-5.0, 5.0, 0.0));
#57 = CARTESIAN_POINT('', (-5.0, 5.0, 1.0));
#58 = CARTESIAN_POINT('', (-4.0, 4.0, 1.0));
#59 = CARTESIAN_POINT('', (-3.0, 3.0, 1.0));
#60 = CARTESIAN_POINT('', (-3.0, 3.0, 0.0));
#61 = CARTESIAN_POINT('', (-3.0, 3.0, -1.0));
#62 = CARTESIAN_POINT('', (-4.0, 4.0, -1.0));
#63 = CARTESIAN_POINT('', (-5.0, 5.0, -1.0));
#64 = CARTESIAN_POINT('', (-5.0, 5.0, 0.0));
#65 = CARTESIAN_POINT('', (-5.0, 0.0, 0.0));
#66 = CARTESIAN_POINT('', (-5.0, 0.0, 1.0));
#67 = CARTESIAN_POINT('', (-4.0, 0.0, 1.0));
#68 = CARTESIAN_POINT('', (-3.0, 0.0, 1.0));
#69 = CARTESIAN_POINT('', (-3.0, 0.0, 0.0));
#70 = CARTESIAN_POINT('', (-3.0, 0.0, -1.0));
#71 = CARTESIAN_POINT('', (-4.0, 0.0, -1.0));
#72 = CARTESIAN_POINT('', (-5.0, 0.0, -1.0));
#73 = CARTESIAN_POINT('', (-5.0, 0.0, 0.0));
#74 = CARTESIAN_POINT('', (-5.0, -5.0, 0.0));
#75 = CARTESIAN_POINT('', (-5.0, -5.0, 1.0));
#76 = CARTESIAN_POINT('', (-4.0, -4.0, 1.0));
#77 = CARTESIAN_POINT('', (-3.0, -3.0, 1.0));
#78 = CARTESIAN_POINT('', (-3.0, -3.0, 0.0));
#79 = CARTESIAN_POINT('', (-3.0, -3.0, -1.0));
#80 = CARTESIAN_POINT('', (-4.0, -4.0, -1.0));
#81 = CARTESIAN_POINT('', (-5.0, -5.0, -1.0));
#82 = CARTESIAN_POINT('', (-5.0, -5.0, 0.0));
#83 = CARTESIAN_POINT('', (0.0, -5.0, 0.0));
#84 = CARTESIAN_POINT('', (0.0, -5.0, 1.0));
#85 = CARTESIAN_POINT('', (0.0, -4.0, 1.0));
#86 = CARTESIAN_POINT('', (0.0, -3.0, 1.0));
#87 = CARTESIAN_POINT('', (0.0, -3.0, 0.0));
#88 = CARTESIAN_POINT('', (0.0, -3.0, -1.0));
#89 = CARTESIAN_POINT('', (0.0, -4.0, -1.0));
#90 = CARTESIAN_POINT('', (0.0, -5.0, -1.0));
#91 = CARTESIAN_POINT('', (0.0, -5.0, 0.0));
#92 = CARTESIAN_POINT('', (5.0, -5.0, 0.0));
#93 = CARTESIAN_POINT('', (5.0, -5.0, 1.0));
#94 = CARTESIAN_POINT('', (4.0, -4.0, 1.0));
#95 = CARTESIAN_POINT('', (3.0, -3.0, 1.0));
#96 = CARTESIAN_POINT('', (3.0, -3.0, 0.0));
#97 = CARTESIAN_POINT('', (3.0, -3.0, -1.0));
#98 = CARTESIAN_POINT('', (4.0, -4.0, -1.0));
#99 = CARTESIAN_POINT('', (5.0, -5.0, -1.0));
#100 = CARTESIAN_POINT('', (5.0, -5.0, 0.0));
#101 = CARTESIAN_POINT('', (5.0, 0.0, 0.0));
#102 = CARTESIAN_POINT('', (5.0, 0.0, 1.0));
#103 = CARTESIAN_POINT('', (4.0, 0.0, 1.0));
#104 = CARTESIAN_POINT('', (3.0, 0.0, 1.0));
#105 = CARTESIAN_POINT('', (3.0, 0.0, 0.0));
#106 = CARTESIAN_POINT('', (3.0, 0.0, -1.0));
#107 = CARTESIAN_POINT('', (4.0, 0.0, -1.0));
#108 = CARTESIAN_POINT('', (5.0, 0.0, -1.0));
#109 = CARTESIAN_POINT('', (5.0, 0.0, 0.0));
#110 = SEAM_CURVE('', #111, (#121, #209), .CURVE_3D.);
#111 = (
    BOUNDED_CURVE()
    B_SPLINE_CURVE(2, (#112, #113, #114, #115, #116, #117, #118, #119, #120), .UNSPECIFIED., .U., .U.)
    B_SPLINE_CURVE_WITH_KNOTS((3, 2, 2, 2, 3), (0.0, 6.283185307179586, 12.566370614359172, 18.84955592153876, 25.132741228718345), .UNSPECIFIED.)
    CURVE()
    GEOMETRIC_REPRESENTATION_ITEM()
    RATIONAL_B_SPLINE_CURVE((1.0, 0.7071067811865476, 1.0, 0.7071067811865476, 1.0, 0.7071067811865476, 1.0, 0.7071067811865476, 1.0))
    REPRESENTATION_ITEM('')
);
#112 = CARTESIAN_POINT('', (5.0, 0.0, 0.0));
#113 = CARTESIAN_POINT('', (5.0, 5.0, 0.0));
#114 = CARTESIAN_POINT('', (0.0, 5.0, 0.0));
#115 = CARTESIAN_POINT('', (-5.0, 5.0, 0.0));
#116 = CARTESIAN_POINT('', (-5.0, 0.0, 0.0));
#117 = CARTESIAN_POINT('', (-5.0, -5.0, 0.0));
#118 = CARTESIAN_POINT('', (0.0, -5.0, 0.0));
#119 = CARTESIAN_POINT('', (5.0, -5.0, 0.0));
#120 = CARTESIAN_POINT('', (5.0, 0.0, 0.0));
#121 = PCURVE('', #122, #204);
#122 = (
    BOUNDED_SURFACE()
    B_SPLINE_SURFACE(2, 2, ((#123, #124, #125, #126, #127, #128, #129, #130, #131), (#132, #133, #134, #135, #136, #137, #138, #139, #140), (#141, #142, #143, #144, #145, #146, #147, #148, #149), (#150, #151, #152, #153, #154, #155, #156, #157, #158), (#159, #160, #161, #162, #163, #164, #165, #166, #167), (#168, #169, #170, #171, #172, #173, #174, #175, #176), (#177, #178, #179, #180, #181, #182, #183, #184, #185), (#186, #187, #188, #189, #190, #191, #192, #193, #194), (#195, #196, #197, #198, #199, #200, #201, #202, #203)), .UNSPECIFIED., .U., .U., .U.)
    B_SPLINE_SURFACE_WITH_KNOTS((3, 2, 2, 2, 3), (3, 2, 2, 2, 3), (0.0, 6.283185307179586, 12.566370614359172, 18.84955592153876, 25.132741228718345), (0.0, 1.5707963267948966, 3.141592653589793, 4.71238898038469, 6.283185307179586), .UNSPECIFIED.)
    GEOMETRIC_REPRESENTATION_ITEM()
    RATIONAL_B_SPLINE_SURFACE(((1.0, 0.7071067811865476, 1.0, 0.7071067811865476, 1.0, 0.7071067811865476, 1.0, 0.7071067811865476, 1.0), (0.7071067811865476, 0.5000000000000001, 0.7071067811865476, 0.5000000000000001, 0.7071067811865476, 0.5000000000000001, 0.7071067811865476, 0.5000000000000001, 0.7071067811865476), (1.0, 0.7071067811865476, 1.0, 0.7071067811865476, 1.0, 0.7071067811865476, 1.0, 0.7071067811865476, 1.0), (0.7071067811865476, 0.5000000000000001, 0.7071067811865476, 0.5000000000000001, 0.7071067811865476, 0.5000000000000001, 0.7071067811865476, 0.5000000000000001, 0.7071067811865476), (1.0, 0.7071067811865476, 1.0, 0.7071067811865476, 1.0, 0.7071067811865476, 1.0, 0.7071067811865476, 1.0), (0.7071067811865476, 0.5000000000000001, 0.7071067811865476, 0.5000000000000001, 0.7071067811865476, 0.5000000000000001, 0.7071067811865476, 0.5000000000000001, 0.7071067811865476), (1.0, 0.7071067811865476, 1.0, 0.7071067811865476, 1.0, 0.7071067811865476, 1.0, 0.7071067811865476, 1.0), (0.7071067811865476, 0.5000000000000001, 0.7071067811865476, 0.5000000000000001, 0.7071067811865476, 0.5000000000000001, 0.7071067811865476, 0.5000000000000001, 0.7071067811865476), (1.0, 0.7071067811865476, 1.0, 0.7071067811865476, 1.0, 0.7071067811865476, 1.0, 0.7071067811865476, 1.0)))
    REPRESENTATION_ITEM('')
    SURFACE()
);
#123 = CARTESIAN_POINT('', (5.0, 0.0, 0.0));
#124 = CARTESIAN_POINT('', (5.0, 0.0, 1.0));
#125 = CARTESIAN_POINT('', (4.0, 0.0, 1.0));
#126 = CARTESIAN_POINT('', (3.0, 0.0, 1.0));
#127 = CARTESIAN_POINT('', (3.0, 0.0, 0.0));
#128 = CARTESIAN_POINT('', (3.0, 0.0, -1.0));
#129 = CARTESIAN_POINT('', (4.0, 0.0, -1.0));
#130 = CARTESIAN_POINT('', (5.0, 0.0, -1.0));
#131 = CARTESIAN_POINT('', (5.0, 0.0, 0.0));
#132 = CARTESIAN_POINT('', (5.0, 5.0, 0.0));
#133 = CARTESIAN_POINT('', (5.0, 5.0, 1.0));
#134 = CARTESIAN_POINT('', (4.0, 4.0, 1.0));
#135 = CARTESIAN_POINT('', (3.0, 3.0, 1.0));
#136 = CARTESIAN_POINT('', (3.0, 3.0, 0.0));
#137 = CARTESIAN_POINT('', (3.0, 3.0, -1.0));
#138 = CARTESIAN_POINT('', (4.0, 4.0, -1.0));
#139 = CARTESIAN_POINT('', (5.0, 5.0, -1.0));
#140 = CARTESIAN_POINT('', (5.0, 5.0, 0.0));
#141 = CARTESIAN_POINT('', (0.0, 5.0, 0.0));
#142 = CARTESIAN_POINT('', (0.0, 5.0, 1.0));
#143 = CARTESIAN_POINT('', (0.0, 4.0, 1.0));
#144 = CARTESIAN_POINT('', (0.0, 3.0, 1.0));
#145 = CARTESIAN_POINT('', (0.0, 3.0, 0.0));
#146 = CARTESIAN_POINT('', (0.0, 3.0, -1.0));
#147 = CARTESIAN_POINT('', (0.0, 4.0, -1.0));
#148 = CARTESIAN_POINT('', (0.0, 5.0, -1.0));
#149 = CARTESIAN_POINT('', (0.0, 5.0, 0.0));
#150 = CARTESIAN_POINT('', (-5.0, 5.0, 0.0));
#151 = CARTESIAN_POINT('', (-5.0, 5.0, 1.0));
#152 = CARTESIAN_POINT('', (-4.0, 4.0, 1.0));
#153 = CARTESIAN_POINT('', (-3.0, 3.0, 1.0));
#154 = CARTESIAN_POINT('', (-3.0, 3.0, 0.0));
#155 = CARTESIAN_POINT('', (-3.0, 3.0, -1.0));
#156 = CARTESIAN_POINT('', (-4.0, 4.0, -1.0));
#157 = CARTESIAN_POINT('', (-5.0, 5.0, -1.0));
#158 = CARTESIAN_POINT('', (-5.0, 5.0, 0.0));
#159 = CARTESIAN_POINT('', (-5.0, 0.0, 0.0));
#160 = CARTESIAN_POINT('', (-5.0, 0.0, 1.0));
#161 = CARTESIAN_POINT('', (-4.0, 0.0, 1.0));
#162 = CARTESIAN_POINT('', (-3.0, 0.0, 1.0));
#163 = CARTESIAN_POINT('', (-3.0, 0.0, 0.0));
#164 = CARTESIAN_POINT('', (-3.0, 0.0, -1.0));
#165 = CARTESIAN_POINT('', (-4.0, 0.0, -1.0));
#166 = CARTESIAN_POINT('', (-5.0, 0.0, -1.0));
#167 = CARTESIAN_POINT('', (-5.0, 0.0, 0.0));
#168 = CARTESIAN_POINT('', (-5.0, -5.0, 0.0));
#169 = CARTESIAN_POINT('', (-5.0, -5.0, 1.0));
#170 = CARTESIAN_POINT('', (-4.0, -4.0, 1.0));
#171 = CARTESIAN_POINT('', (-3.0, -3.0, 1.0));
#172 = CARTESIAN_POINT('', (-3.0, -3.0, 0.0));
#173 = CARTESIAN_POINT('', (-3.0, -3.0, -1.0));
#174 = CARTESIAN_POINT('', (-4.0, -4.0, -1.0));
#175 = CARTESIAN_POINT('', (-5.0, -5.0, -1.0));
#176 = CARTESIAN_POINT('', (-5.0, -5.0, 0.0));
#177 = CARTESIAN_POINT('', (0.0, -5.0, 0.0));
#178 = CARTESIAN_POINT('', (0.0, -5.0, 1.0));
#179 = CARTESIAN_POINT('', (0.0, -4.0, 1.0));
#180 = CARTESIAN_POINT('', (0.0, -3.0, 1.0));
#181 = CARTESIAN_POINT('', (0.0, -3.0, 0.0));
#182 = CARTESIAN_POINT('', (0.0, -3.0, -1.0));
#183 = CARTESIAN_POINT('', (0.0, -4.0, -1.0));
#184 = CARTESIAN_POINT('', (0.0, -5.0, -1.0));
#185 = CARTESIAN_POINT('', (0.0, -5.0, 0.0));
#186 = CARTESIAN_POINT('', (5.0, -5.0, 0.0));
#187 = CARTESIAN_POINT('', (5.0, -5.0, 1.0));
#188 = CARTESIAN_POINT('', (4.0, -4.0, 1.0));
#189 = CARTESIAN_POINT('', (3.0, -3.0, 1.0));
#190 = CARTESIAN_POINT('', (3.0, -3.0, 0.0));
#191 = CARTESIAN_POINT('', (3.0, -3.0, -1.0));
#192 = CARTESIAN_POINT('', (4.0, -4.0, -1.0));
#193 = CARTESIAN_POINT('', (5.0, -5.0, -1.0));
#194 = CARTESIAN_POINT('', (5.0, -5.0, 0.0));
#195 = CARTESIAN_POINT('', (5.0, 0.0, 0.0));
#196 = CARTESIAN_POINT('', (5.0, 0.0, 1.0));
#197 = CARTESIAN_POINT('', (4.0, 0.0, 1.0));
#198 = CARTESIAN_POINT('', (3.0, 0.0, 1.0));
#199 = CARTESIAN_POINT('', (3.0, 0.0, 0.0));
#200 = CARTESIAN_POINT('', (3.0, 0.0, -1.0));
#201 = CARTESIAN_POINT('', (4.0, 0.0, -1.0));
#202 = CARTESIAN_POINT('', (5.0, 0.0, -1.0));
#203 = CARTESIAN_POINT('', (5.0, 0.0, 0.0));
#204 = DEFINITIONAL_REPRESENTATION('', (#206), #205);
#205 = (
    GEOMETRIC_REPRESENTATION_CONTEXT(2)
    PARAMETRIC_REPRESENTATION_CONTEXT()
    REPRESENTATION_CONTEXT('2D SPACE', '')
);
#206 = (
    BOUNDED_CURVE()
    B_SPLINE_CURVE(1, (#207, #208), .UNSPECIFIED., .U., .U.)
    B_SPLINE_CURVE_WITH_KNOTS((2, 2), (0.0, 1.0), .UNSPECIFIED.)
    CURVE()
    GEOMETRIC_REPRESENTATION_ITEM()
    RATIONAL_B_SPLINE_CURVE((1.0, 1.0))
    REPRESENTATION_ITEM('')
);
#207 = CARTESIAN_POINT('', (0.0, 0.0));
#208 = CARTESIAN_POINT('', (25.132741228718345, 0.0));
#209 = PCURVE('', #210, #292);
#210 = (
    BOUNDED_SURFACE()
    B_SPLINE_SURFACE(2, 2, ((#211, #212, #213, #214, #215, #216, #217, #218, #219), (#220, #221, #222, #223, #224, #225, #226, #227, #228), (#229, #230, #231, #232, #233, #234, #235, #236, #237), (#238, #239, #240, #241, #242, #243, #244, #245, #246), (#247, #248, #249, #250, #251, #252, #253, #254, #255), (#256, #257, #258, #259, #260, #261, #262, #263, #264), (#265, #266, #267, #268, #269, #270, #271, #272, #273), (#274, #275, #276, #277, #278, #279, #280, #281, #282), (#283, #284, #285, #286, #287, #288, #289, #290, #291)), .UNSPECIFIED., .U., .U., .U.)
    B_SPLINE_SURFACE_WITH_KNOTS((3, 2, 2, 2, 3), (3, 2, 2, 2, 3), (0.0, 6.283185307179586, 12.566370614359172, 18.84955592153876, 25.132741228718345), (0.0, 1.5707963267948966, 3.141592653589793, 4.71238898038469, 6.283185307179586), .UNSPECIFIED.)
    GEOMETRIC_REPRESENTATION_ITEM()
    RATIONAL_B_SPLINE_SURFACE(((1.0, 0.7071067811865476, 1.0, 0.7071067811865476, 1.0, 0.7071067811865476, 1.0, 0.7071067811865476, 1.0), (0.7071067811865476, 0.5000000000000001, 0.7071067811865476, 0.5000000000000001, 0.7071067811865476, 0.5000000000000001, 0.7071067811865476, 0.5000000000000001, 0.7071067811865476), (1.0, 0.7071067811865476, 1.0, 0.7071067811865476, 1.0, 0.7071067811865476, 1.0, 0.7071067811865476, 1.0), (0.7071067811865476, 0.5000000000000001, 0.7071067811865476, 0.5000000000000001, 0.7071067811865476, 0.5000000000000001, 0.7071067811865476, 0.5000000000000001, 0.7071067811865476), (1.0, 0.7071067811865476, 1.0, 0.7071067811865476, 1.0, 0.7071067811865476, 1.0, 0.7071067811865476, 1.0), (0.7071067811865476, 0.5000000000000001, 0.7071067811865476, 0.5000000000000001, 0.7071067811865476, 0.5000000000000001, 0.7071067811865476, 0.5000000000000001, 0.7071067811865476), (1.0, 0.7071067811865476, 1.0, 0.7071067811865476, 1.0, 0.7071067811865476, 1.0, 0.7071067811865476, 1.0), (0.7071067811865476, 0.5000000000000001, 0.7071067811865476, 0.5000000000000001, 0.7071067811865476, 0.5000000000000001, 0.7071067811865476, 0.5000000000000001, 0.7071067811865476), (1.0, 0.7071067811865476, 1.0, 0.7071067811865476, 1.0, 0.7071067811865476, 1.0, 0.7071067811865476, 1.0)))
    REPRESENTATION_ITEM('')
    SURFACE()
);
#211 = CARTESIAN_POINT('', (5.0, 0.0, 0.0));
#212 = CARTESIAN_POINT('', (5.0, 0.0, 1.0));
#213 = CARTESIAN_POINT('', (4.0, 0.0, 1.0));
#214 = CARTESIAN_POINT('', (3.0, 0.0, 1.0));
#215 = CARTESIAN_POINT('', (3.0, 0.0, 0.0));
#216 = CARTESIAN_POINT('', (3.0, 0.0, -1.0));
#217 = CARTESIAN_POINT('', (4.0, 0.0, -1.0));
#218 = CARTESIAN_POINT('', (5.0, 0.0, -1.0));
#219 = CARTESIAN_POINT('', (5.0, 0.0, 0.0));
#220 = CARTESIAN_POINT('', (5.0, 5.0, 0.0));
#221 = CARTESIAN_POINT('', (5.0, 5.0, 1.0));
#222 = CARTESIAN_POINT('', (4.0, 4.0, 1.0));
#223 = CARTESIAN_POINT('', (3.0, 3.0, 1.0));
#224 = CARTESIAN_POINT('', (3.0, 3.0, 0.0));
#225 = CARTESIAN_POINT('', (3.0, 3.0, -1.0));
#226 = CARTESIAN_POINT('', (4.0, 4.0, -1.0));
#227 = CARTESIAN_POINT('', (5.0, 5.0, -1.0));
#228 = CARTESIAN_POINT('', (5.0, 5.0, 0.0));
#229 = CARTESIAN_POINT('', (0.0, 5.0, 0.0));
#230 = CARTESIAN_POINT('', (0.0, 5.0, 1.0));
#231 = CARTESIAN_POINT('', (0.0, 4.0, 1.0));
#232 = CARTESIAN_POINT('', (0.0, 3.0, 1.0));
#233 = CARTESIAN_POINT('', (0.0, 3.0, 0.0));
#234 = CARTESIAN_POINT('', (0.0, 3.0, -1.0));
#235 = CARTESIAN_POINT('', (0.0, 4.0, -1.0));
#236 = CARTESIAN_POINT('', (0.0, 5.0, -1.0));
#237 = CARTESIAN_POINT('', (0.0, 5.0, 0.0));
#238 = CARTESIAN_POINT('', (-5.0, 5.0, 0.0));
#239 = CARTESIAN_POINT('', (-5.0, 5.0, 1.0));
#240 = CARTESIAN_POINT('', (-4.0, 4.0, 1.0));
#241 = CARTESIAN_POINT('', (-3.0, 3.0, 1.0));
#242 = CARTESIAN_POINT('', (-3.0, 3.0, 0.0));
#243 = CARTESIAN_POINT('', (-3.0, 3.0, -1.0));
#244 = CARTESIAN_POINT('', (-4.0, 4.0, -1.0));
#245 = CARTESIAN_POINT('', (-5.0, 5.0, -1.0));
#246 = CARTESIAN_POINT('', (-5.0, 5.0, 0.0));
#247 = CARTESIAN_POINT('', (-5.0, 0.0, 0.0));
#248 = CARTESIAN_POINT('', (-5.0, 0.0, 1.0));
#249 = CARTESIAN_POINT('', (-4.0, 0.0, 1.0));
#250 = CARTESIAN_POINT('', (-3.0, 0.0, 1.0));
#251 = CARTESIAN_POINT('', (-3.0, 0.0, 0.0));
#252 = CARTESIAN_POINT('', (-3.0, 0.0, -1.0));
#253 = CARTESIAN_POINT('', (-4.0, 0.0, -1.0));
#254 = CARTESIAN_POINT('', (-5.0, 0.0, -1.0));
#255 = CARTESIAN_POINT('', (-5.0, 0.0, 0.0));
#256 = CARTESIAN_POINT('', (-5.0, -5.0, 0.0));
#257 = CARTESIAN_POINT('', (-5.0, -5.0, 1.0));
#258 = CARTESIAN_POINT('', (-4.0, -4.0, 1.0));
#259 = CARTESIAN_POINT('', (-3.0, -3.0, 1.0));
#260 = CARTESIAN_POINT('', (-3.0, -3.0, 0.0));
#261 = CARTESIAN_POINT('', (-3.0, -3.0, -1.0));
#262 = CARTESIAN_POINT('', (-4.0, -4.0, -1.0));
#263 = CARTESIAN_POINT('', (-5.0, -5.0, -1.0));
#264 = CARTESIAN_POINT('', (-5.0, -5.0, 0.0));
#265 = CARTESIAN_POINT('', (0.0, -5.0, 0.0));
#266 = CARTESIAN_POINT('', (0.0, -5.0, 1.0));
#267 = CARTESIAN_POINT('', (0.0, -4.0, 1.0));
#268 = CARTESIAN_POINT('', (0.0, -3.0, 1.0));
#269 = CARTESIAN_POINT('', (0.0, -3.0, 0.0));
#270 = CARTESIAN_POINT('', (0.0, -3.0, -1.0));
#271 = CARTESIAN_POINT('', (0.0, -4.0, -1.0));
#272 = CARTESIAN_POINT('', (0.0, -5.0, -1.0));
#273 = CARTESIAN_POINT('', (0.0, -5.0, 0.0));
#274 = CARTESIAN_POINT('', (5.0, -5.0, 0.0));
#275 = CARTESIAN_POINT('', (5.0, -5.0, 1.0));
#276 = CARTESIAN_POINT('', (4.0, -4.0, 1.0));
#277 = CARTESIAN_POINT('', (3.0, -3.0, 1.0));
#278 = CARTESIAN_POINT('', (3.0, -3.0, 0.0));
#279 = CARTESIAN_POINT('', (3.0, -3.0, -1.0));
#280 = CARTESIAN_POINT('', (4.0, -4.0, -1.0));
#281 = CARTESIAN_POINT('', (5.0, -5.0, -1.0));
#282 = CARTESIAN_POINT('', (5.0, -5.0, 0.0));
#283 = CARTESIAN_POINT('', (5.0, 0.0, 0.0));
#284 = CARTESIAN_POINT('', (5.0, 0.0, 1.0));
#285 = CARTESIAN_POINT('', (4.0, 0.0, 1.0));
#286 = CARTESIAN_POINT('', (3.0, 0.0, 1.0));
#287 = CARTESIAN_POINT('', (3.0, 0.0, 0.0));
#288 = CARTESIAN_POINT('', (3.0, 0.0, -1.0));
#289 = CARTESIAN_POINT('', (4.0, 0.0, -1.0));
#290 = CARTESIAN_POINT('', (5.0, 0.0, -1.0));
#291 = CARTESIAN_POINT('', (5.0, 0.0, 0.0));
#292 = DEFINITIONAL_REPRESENTATION('', (#294), #293);
#293 = (
    GEOMETRIC_REPRESENTATION_CONTEXT(2)
    PARAMETRIC_REPRESENTATION_CONTEXT()
    REPRESENTATION_CONTEXT('2D SPACE', '')
);
#294 = (
    BOUNDED_CURVE()
    B_SPLINE_CURVE(1, (#295, #296), .UNSPECIFIED., .U., .U.)
    B_SPLINE_CURVE_WITH_KNOTS((2, 2), (-1.0, -0.0), .UNSPECIFIED.)
    CURVE()
    GEOMETRIC_REPRESENTATION_ITEM()
    RATIONAL_B_SPLINE_CURVE((1.0, 1.0))
    REPRESENTATION_ITEM('')
);
#295 = CARTESIAN_POINT('', (0.0, 6.283185307179586));
#296 = CARTESIAN_POINT('', (25.132741228718345, 6.283185307179586));
#297 = SEAM_CURVE('', #298, (#308, #396), .CURVE_3D.);
#298 = (
    BOUNDED_CURVE()
    B_SPLINE_CURVE(2, (#299, #300, #301, #302, #303, #304, #305, #306, #307), .UNSPECIFIED., .U., .U.)
    B_SPLINE_CURVE_WITH_KNOTS((3, 2, 2, 2, 3), (0.0, 1.5707963267948966, 3.141592653589793, 4.71238898038469, 6.283185307179586), .UNSPECIFIED.)
    CURVE()
    GEOMETRIC_REPRESENTATION_ITEM()
    RATIONAL_B_SPLINE_CURVE((1.0, 0.7071067811865476, 1.0, 0.7071067811865476, 1.0, 0.7071067811865476, 1.0, 0.7071067811865476, 1.0))
    REPRESENTATION_ITEM('')
);
#299 = CARTESIAN_POINT('', (5.0, 0.0, 0.0));
#300 = CARTESIAN_POINT('', (5.0, 0.0, 1.0));
#301 = CARTESIAN_POINT('', (4.0, 0.0, 1.0));
#302 = CARTESIAN_POINT('', (3.0, 0.0, 1.0));
#303 = CARTESIAN_POINT('', (3.0, 0.0, 0.0));
#304 = CARTESIAN_POINT('', (3.0, 0.0, -1.0));
#305 = CARTESIAN_POINT('', (4.0, 0.0, -1.0));
#306 = CARTESIAN_POINT('', (5.0, 0.0, -1.0));
#307 = CARTESIAN_POINT('', (5.0, 0.0, 0.0));
#308 = PCURVE('', #309, #391);
#309 = (
    BOUNDED_SURFACE()
    B_SPLINE_SURFACE(2, 2, ((#310, #311, #312, #313, #314, #315, #316, #317, #318), (#319, #320, #321, #322, #323, #324, #325, #326, #327), (#328, #329, #330, #331, #332, #333, #334, #335, #336), (#337, #338, #339, #340, #341, #342, #343, #344, #345), (#346, #347, #348, #349, #350, #351, #352, #353, #354), (#355, #356, #357, #358, #359, #360, #361, #362, #363), (#364, #365, #366, #367, #368, #369, #370, #371, #372), (#373, #374, #375, #376, #377, #378, #379, #380, #381), (#382, #383, #384, #385, #386, #387, #388, #389, #390)), .UNSPECIFIED., .U., .U., .U.)
    B_SPLINE_SURFACE_WITH_KNOTS((3, 2, 2, 2, 3), (3, 2, 2, 2, 3), (0.0, 6.283185307179586, 12.566370614359172, 18.84955592153876, 25.132741228718345), (0.0, 1.5707963267948966, 3.141592653589793, 4.71238898038469, 6.283185307179586), .UNSPECIFIED.)
    GEOMETRIC_REPRESENTATION_ITEM()
    RATIONAL_B_SPLINE_SURFACE(((1.0, 0.7071067811865476, 1.0, 0.7071067811865476, 1.0, 0.7071067811865476, 1.0, 0.7071067811865476, 1.0), (0.7071067811865476, 0.5000000000000001, 0.7071067811865476, 0.5000000000000001, 0.7071067811865476, 0.5000000000000001, 0.7071067811865476, 0.5000000000000001, 0.7071067811865476), (1.0, 0.7071067811865476, 1.0, 0.7071067811865476, 1.0, 0.7071067811865476, 1.0, 0.7071067811865476, 1.0), (0.7071067811865476, 0.5000000000000001, 0.7071067811865476, 0.5000000000000001, 0.7071067811865476, 0.5000000000000001, 0.7071067811865476, 0.5000000000000001, 0.7071067811865476), (1.0, 0.7071067811865476, 1.0, 0.7071067811865476, 1.0, 0.7071067811865476, 1.0, 0.7071067811865476, 1.0), (0.7071067811865476, 0.5000000000000001, 0.7071067811865476, 0.5000000000000001, 0.7071067811865476, 0.5000000000000001, 0.7071067811865476, 0.5000000000000001, 0.7071067811865476), (1.0, 0.7071067811865476, 1.0, 0.7071067811865476, 1.0, 0.7071067811865476, 1.0, 0.7071067811865476, 1.0), (0.7071067811865476, 0.5000000000000001, 0.7071067811865476, 0.5000000000000001, 0.7071067811865476, 0.5000000000000001, 0.7071067811865476, 0.5000000000000001, 0.7071067811865476), (1.0, 0.7071067811865476, 1.0, 0.7071067811865476, 1.0, 0.7071067811865476, 1.0, 0.7071067811865476, 1.0)))
    REPRESENTATION_ITEM('')
    SURFACE()
);
#310 = CARTESIAN_POINT('', (5.0, 0.0, 0.0));
#311 = CARTESIAN_POINT('', (5.0, 0.0, 1.0));
#312 = CARTESIAN_POINT('', (4.0, 0.0, 1.0));
#313 = CARTESIAN_POINT('', (3.0, 0.0, 1.0));
#314 = CARTESIAN_POINT('', (3.0, 0.0, 0.0));
#315 = CARTESIAN_POINT('', (3.0, 0.0, -1.0));
#316 = CARTESIAN_POINT('', (4.0, 0.0, -1.0));
#317 = CARTESIAN_POINT('', (5.0, 0.0, -1.0));
#318 = CARTESIAN_POINT('', (5.0, 0.0, 0.0));
#319 = CARTESIAN_POINT('', (5.0, 5.0, 0.0));
#320 = CARTESIAN_POINT('', (5.0, 5.0, 1.0));
#321 = CARTESIAN_POINT('', (4.0, 4.0, 1.0));
#322 = CARTESIAN_POINT('', (3.0, 3.0, 1.0));
#323 = CARTESIAN_POINT('', (3.0, 3.0, 0.0));
#324 = CARTESIAN_POINT('', (3.0, 3.0, -1.0));
#325 = CARTESIAN_POINT('', (4.0, 4.0, -1.0));
#326 = CARTESIAN_POINT('', (5.0, 5.0, -1.0));
#327 = CARTESIAN_POINT('', (5.0, 5.0, 0.0));
#328 = CARTESIAN_POINT('', (0.0, 5.0, 0.0));
#329 = CARTESIAN_POINT('', (0.0, 5.0, 1.0));
#330 = CARTESIAN_POINT('', (0.0, 4.0, 1.0));
#331 = CARTESIAN_POINT('', (0.0, 3.0, 1.0));
#332 = CARTESIAN_POINT('', (0.0, 3.0, 0.0));
#333 = CARTESIAN_POINT('', (0.0, 3.0, -1.0));
#334 = CARTESIAN_POINT('', (0.0, 4.0, -1.0));
#335 = CARTESIAN_POINT('', (0.0, 5.0, -1.0));
#336 = CARTESIAN_POINT('', (0.0, 5.0, 0.0));
#337 = CARTESIAN_POINT('', (-5.0, 5.0, 0.0));
#338 = CARTESIAN_POINT('', (-5.0, 5.0, 1.0));
#339 = CARTESIAN_POINT('', (-4.0, 4.0, 1.0));
#340 = CARTESIAN_POINT('', (-3.0, 3.0, 1.0));
#341 = CARTESIAN_POINT('', (-3.0, 3.0, 0.0));
#342 = CARTESIAN_POINT('', (-3.0, 3.0, -1.0));
#343 = CARTESIAN_POINT('', (-4.0, 4.0, -1.0));
#344 = CARTESIAN_POINT('', (-5.0, 5.0, -1.0));
#345 = CARTESIAN_POINT('', (-5.0, 5.0, 0.0));
#346 = CARTESIAN_POINT('', (-5.0, 0.0, 0.0));
#347 = CARTESIAN_POINT('', (-5.0, 0.0, 1.0));
#348 = CARTESIAN_POINT('', (-4.0, 0.0, 1.0));
#349 = CARTESIAN_POINT('', (-3.0, 0.0, 1.0));
#350 = CARTESIAN_POINT('', (-3.0, 0.0, 0.0));
#351 = CARTESIAN_POINT('', (-3.0, 0.0, -1.0));
#352 = CARTESIAN_POINT('', (-4.0, 0.0, -1.0));
#353 = CARTESIAN_POINT('', (-5.0, 0.0, -1.0));
#354 = CARTESIAN_POINT('', (-5.0, 0.0, 0.0));
#355 = CARTESIAN_POINT('', (-5.0, -5.0, 0.0));
#356 = CARTESIAN_POINT('', (-5.0, -5.0, 1.0));
#357 = CARTESIAN_POINT('', (-4.0, -4.0, 1.0));
#358 = CARTESIAN_POINT('', (-3.0, -3.0, 1.0));
#359 = CARTESIAN_POINT('', (-3.0, -3.0, 0.0));
#360 = CARTESIAN_POINT('', (-3.0, -3.0, -1.0));
#361 = CARTESIAN_POINT('', (-4.0, -4.0, -1.0));
#362 = CARTESIAN_POINT('', (-5.0, -5.0, -1.0));
#363 = CARTESIAN_POINT('', (-5.0, -5.0, 0.0));
#364 = CARTESIAN_POINT('', (0.0, -5.0, 0.0));
#365 = CARTESIAN_POINT('', (0.0, -5.0, 1.0));
#366 = CARTESIAN_POINT('', (0.0, -4.0, 1.0));
#367 = CARTESIAN_POINT('', (0.0, -3.0, 1.0));
#368 = CARTESIAN_POINT('', (0.0, -3.0, 0.0));
#369 = CARTESIAN_POINT('', (0.0, -3.0, -1.0));
#370 = CARTESIAN_POINT('', (0.0, -4.0, -1.0));
#371 = CARTESIAN_POINT('', (0.0, -5.0, -1.0));
#372 = CARTESIAN_POINT('', (0.0, -5.0, 0.0));
#373 = CARTESIAN_POINT('', (5.0, -5.0, 0.0));
#374 = CARTESIAN_POINT('', (5.0, -5.0, 1.0));
#375 = CARTESIAN_POINT('', (4.0, -4.0, 1.0));
#376 = CARTESIAN_POINT('', (3.0, -3.0, 1.0));
#377 = CARTESIAN_POINT('', (3.0, -3.0, 0.0));
#378 = CARTESIAN_POINT('', (3.0, -3.0, -1.0));
#379 = CARTESIAN_POINT('', (4.0, -4.0, -1.0));
#380 = CARTESIAN_POINT('', (5.0, -5.0, -1.0));
#381 = CARTESIAN_POINT('', (5.0, -5.0, 0.0));
#382 = CARTESIAN_POINT('', (5.0, 0.0, 0.0));
#383 = CARTESIAN_POINT('', (5.0, 0.0, 1.0));
#384 = CARTESIAN_POINT('', (4.0, 0.0, 1.0));
#385 = CARTESIAN_POINT('', (3.0, 0.0, 1.0));
#386 = CARTESIAN_POINT('', (3.0, 0.0, 0.0));
#387 = CARTESIAN_POINT('', (3.0, 0.0, -1.0));
#388 = CARTESIAN_POINT('', (4.0, 0.0, -1.0));
#389 = CARTESIAN_POINT('', (5.0, 0.0, -1.0));
#390 = CARTESIAN_POINT('', (5.0, 0.0, 0.0));
#391 = DEFINITIONAL_REPRESENTATION('', (#393), #392);
#392 = (
    GEOMETRIC_REPRESENTATION_CONTEXT(2)
    PARAMETRIC_REPRESENTATION_CONTEXT()
    REPRESENTATION_CONTEXT('2D SPACE', '')
);
#393 = (
    BOUNDED_CURVE()
    B_SPLINE_CURVE(1, (#394, #395), .UNSPECIFIED., .U., .U.)
    B_SPLINE_CURVE_WITH_KNOTS((2, 2), (0.0, 1.0), .UNSPECIFIED.)
    CURVE()
    GEOMETRIC_REPRESENTATION_ITEM()
    RATIONAL_B_SPLINE_CURVE((1.0, 1.0))
    REPRESENTATION_ITEM('')
);
#394 = CARTESIAN_POINT('', (25.132741228718345, 0.0));
#395 = CARTESIAN_POINT('', (25.132741228718345, 6.283185307179586));
#396 = PCURVE('', #397, #479);
#397 = (
    BOUNDED_SURFACE()
    B_SPLINE_SURFACE(2, 2, ((#398, #399, #400, #401, #402, #403, #404, #405, #406), (#407, #408, #409, #410, #411, #412, #413, #414, #415), (#416, #417, #418, #419, #420, #421, #422, #423, #424), (#425, #426, #427, #428, #429, #430, #431, #432, #433), (#434, #435, #436, #437, #438, #439, #440, #441, #442), (#443, #444, #445, #446, #447, #448, #449, #450, #451), (#452, #453, #454, #455, #456, #457, #458, #459, #460), (#461, #462, #463, #464, #465, #466, #467, #468, #469), (#470, #471, #472, #473, #474, #475, #476, #477, #478)), .UNSPECIFIED., .U., .U., .U.)
    B_SPLINE_SURFACE_WITH_KNOTS((3, 2, 2, 2, 3), (3, 2, 2, 2, 3), (0.0, 6.283185307179586, 12.566370614359172, 18.84955592153876, 25.132741228718345), (0.0, 1.5707963267948966, 3.141592653589793, 4.71238898038469, 6.283185307179586), .UNSPECIFIED.)
    GEOMETRIC_REPRESENTATION_ITEM()
    RATIONAL_B_SPLINE_SURFACE(((1.0, 0.7071067811865476, 1.0, 0.7071067811865476, 1.0, 0.7071067811865476, 1.0, 0.7071067811865476, 1.0), (0.7071067811865476, 0.5000000000000001, 0.7071067811865476, 0.5000000000000001, 0.7071067811865476, 0.5000000000000001, 0.7071067811865476, 0.5000000000000001, 0.7071067811865476), (1.0, 0.7071067811865476, 1.0, 0.7071067811865476, 1.0, 0.7071067811865476, 1.0, 0.7071067811865476, 1.0), (0.7071067811865476, 0.5000000000000001, 0.7071067811865476, 0.5000000000000001, 0.7071067811865476, 0.5000000000000001, 0.7071067811865476, 0.5000000000000001, 0.7071067811865476), (1.0, 0.7071067811865476, 1.0, 0.7071067811865476, 1.0, 0.7071067811865476, 1.0, 0.7071067811865476, 1.0), (0.7071067811865476, 0.5000000000000001, 0.7071067811865476, 0.5000000000000001, 0.7071067811865476, 0.5000000000000001, 0.7071067811865476, 0.5000000000000001, 0.7071067811865476), (1.0, 0.7071067811865476, 1.0, 0.7071067811865476, 1.0, 0.7071067811865476, 1.0, 0.7071067811865476, 1.0), (0.7071067811865476, 0.5000000000000001, 0.7071067811865476, 0.5000000000000001, 0.7071067811865476, 0.5000000000000001, 0.7071067811865476, 0.5000000000000001, 0.7071067811865476), (1.0, 0.7071067811865476, 1.0, 0.7071067811865476, 1.0, 0.7071067811865476, 1.0, 0.7071067811865476, 1.0)))
    REPRESENTATION_ITEM('')
    SURFACE()
);
#398 = CARTESIAN_POINT('', (5.0, 0.0, 0.0));
#399 = CARTESIAN_POINT('', (5.0, 0.0, 1.0));
#400 = CARTESIAN_POINT('', (4.0, 0.0, 1.0));
#401 = CARTESIAN_POINT('', (3.0, 0.0, 1.0));
#402 = CARTESIAN_POINT('', (3.0, 0.0, 0.0));
#403 = CARTESIAN_POINT('', (3.0, 0.0, -1.0));
#404 = CARTESIAN_POINT('', (4.0, 0.0, -1.0));
#405 = CARTESIAN_POINT('', (5.0, 0.0, -1.0));
#406 = CARTESIAN_POINT('', (5.0, 0.0, 0.0));
#407 = CARTESIAN_POINT('', (5.0, 5.0, 0.0));
#408 = CARTESIAN_POINT('', (5.0, 5.0, 1.0));
#409 = CARTESIAN_POINT('', (4.0, 4.0, 1.0));
#410 = CARTESIAN_POINT('', (3.0, 3.0, 1.0));
#411 = CARTESIAN_POINT('', (3.0, 3.0, 0.0));
#412 = CARTESIAN_POINT('', (3.0, 3.0, -1.0));
#413 = CARTESIAN_POINT('', (4.0, 4.0, -1.0));
#414 = CARTESIAN_POINT('', (5.0, 5.0, -1.0));
#415 = CARTESIAN_POINT('', (5.0, 5.0, 0.0));
#416 = CARTESIAN_POINT('', (0.0, 5.0, 0.0));
#417 = CARTESIAN_POINT('', (0.0, 5.0, 1.0));
#418 = CARTESIAN_POINT('', (0.0, 4.0, 1.0));
#419 = CARTESIAN_POINT('', (0.0, 3.0, 1.0));
#420 = CARTESIAN_POINT('', (0.0, 3.0, 0.0));
#421 = CARTESIAN_POINT('', (0.0, 3.0, -1.0));
#422 = CARTESIAN_POINT('', (0.0, 4.0, -1.0));
#423 = CARTESIAN_POINT('', (0.0, 5.0, -1.0));
#424 = CARTESIAN_POINT('', (0.0, 5.0, 0.0));
#425 = CARTESIAN_POINT('', (-5.0, 5.0, 0.0));
#426 = CARTESIAN_POINT('', (-5.0, 5.0, 1.0));
#427 = CARTESIAN_POINT('', (-4.0, 4.0, 1.0));
#428 = CARTESIAN_POINT('', (-3.0, 3.0, 1.0));
#429 = CARTESIAN_POINT('', (-3.0, 3.0, 0.0));
#430 = CARTESIAN_POINT('', (-3.0, 3.0, -1.0));
#431 = CARTESIAN_POINT('', (-4.0, 4.0, -1.0));
#432 = CARTESIAN_POINT('', (-5.0, 5.0, -1.0));
#433 = CARTESIAN_POINT('', (-5.0, 5.0, 0.0));
#434 = CARTESIAN_POINT('', (-5.0, 0.0, 0.0));
#435 = CARTESIAN_POINT('', (-5.0, 0.0, 1.0));
#436 = CARTESIAN_POINT('', (-4.0, 0.0, 1.0));
#437 = CARTESIAN_POINT('', (-3.0, 0.0, 1.0));
#438 = CARTESIAN_POINT('', (-3.0, 0.0, 0.0));
#439 = CARTESIAN_POINT('', (-3.0, 0.0, -1.0));
#440 = CARTESIAN_POINT('', (-4.0, 0.0, -1.0));
#441 = CARTESIAN_POINT('', (-5.0, 0.0, -1.0));
#442 = CARTESIAN_POINT('', (-5.0, 0.0, 0.0));
#443 = CARTESIAN_POINT('', (-5.0, -5.0, 0.0));
#444 = CARTESIAN_POINT('', (-5.0, -5.0, 1.0));
#445 = CARTESIAN_POINT('', (-4.0, -4.0, 1.0));
#446 = CARTESIAN_POINT('', (-3.0, -3.0, 1.0));
#447 = CARTESIAN_POINT('', (-3.0, -3.0, 0.0));
#448 = CARTESIAN_POINT('', (-3.0, -3.0, -1.0));
#449 = CARTESIAN_POINT('', (-4.0, -4.0, -1.0));
#450 = CARTESIAN_POINT('', (-5.0, -5.0, -1.0));
#451 = CARTESIAN_POINT('', (-5.0, -5.0, 0.0));
#452 = CARTESIAN_POINT('', (0.0, -5.0, 0.0));
#453 = CARTESIAN_POINT('', (0.0, -5.0, 1.0));
#454 = CARTESIAN_POINT('', (0.0, -4.0, 1.0));
#455 = CARTESIAN_POINT('', (0.0, -3.0, 1.0));
#456 = CARTESIAN_POINT('', (0.0, -3.0, 0.0));
#457 = CARTESIAN_POINT('', (0.0, -3.0, -1.0));
#458 = CARTESIAN_POINT('', (0.0, -4.0, -1.0));
#459 = CARTESIAN_POINT('', (0.0, -5.0, -1.0));
#460 = CARTESIAN_POINT('', (0.0, -5.0, 0.0));
#461 = CARTESIAN_POINT('', (5.0, -5.0, 0.0));
#462 = CARTESIAN_POINT('', (5.0, -5.0, 1.0));
#463 = CARTESIAN_POINT('', (4.0, -4.0, 1.0));
#464 = CARTESIAN_POINT('', (3.0, -3.0, 1.0));
#465 = CARTESIAN_POINT('', (3.0, -3.0, 0.0));
#466 = CARTESIAN_POINT('', (3.0, -3.0, -1.0));
#467 = CARTESIAN_POINT('', (4.0, -4.0, -1.0));
#468 = CARTESIAN_POINT('', (5.0, -5.0, -1.0));
#469 = CARTESIAN_POINT('', (5.0, -5.0, 0.0));
#470 = CARTESIAN_POINT('', (5.0, 0.0, 0.0));
#471 = CARTESIAN_POINT('', (5.0, 0.0, 1.0));
#472 = CARTESIAN_POINT('', (4.0, 0.0, 1.0));
#473 = CARTESIAN_POINT('', (3.0, 0.0, 1.0));
#474 = CARTESIAN_POINT('', (3.0, 0.0, 0.0));
#475 = CARTESIAN_POINT('', (3.0, 0.0, -1.0));
#476 = CARTESIAN_POINT('', (4.0, 0.0, -1.0));
#477 = CARTESIAN_POINT('', (5.0, 0.0, -1.0));
#478 = CARTESIAN_POINT('', (5.0, 0.0, 0.0));
#479 = DEFINITIONAL_REPRESENTATION('', (#481), #480);
#480 = (
    GEOMETRIC_REPRESENTATION_CONTEXT(2)
    PARAMETRIC_REPRESENTATION_CONTEXT()
    REPRESENTATION_CONTEXT('2D SPACE', '')
);
#481 = (
    BOUNDED_CURVE()
    B_SPLINE_CURVE(1, (#482, #483), .UNSPECIFIED., .U., .U.)
    B_SPLINE_CURVE_WITH_KNOTS((2, 2), (-1.0, -0.0), .UNSPECIFIED.)
    CURVE()
    GEOMETRIC_REPRESENTATION_ITEM()
    RATIONAL_B_SPLINE_CURVE((1.0, 1.0))
    REPRESENTATION_ITEM('')
);
#482 = CARTESIAN_POINT('', (0.0, 0.0));
#483 = CARTESIAN_POINT('', (0.0, 6.283185307179586));
#484 = CARTESIAN_POINT('', (5.0E0, 0.0E0, 0.0E0));
#485 = ORIENTED_CLOSED_SHELL('', *, #486, .F.);
#486 = CLOSED_SHELL('', (#487));
#487 = ADVANCED_FACE('', (#488), #499, .T.);
#488 = FACE_BOUND('', #489, .T.);
#489 = EDGE_LOOP('', (#490, #491, #492, #493));
#490 = ORIENTED_EDGE('', *, *, #494, .T.);
#491 = ORIENTED_EDGE('', *, *, #495, .T.);
#492 = ORIENTED_EDGE('', *, *, #496, .T.);
#493 = ORIENTED_EDGE('', *, *, #495, .F.);
#494 = EDGE_CURVE('', #497, #497, #545, .T.);
#495 = EDGE_CURVE('', #497, #498, #601, .T.);
#496 = EDGE_CURVE('', #498, #498, #712, .T.);
#497 = VERTEX_POINT('', #768);
#498 = VERTEX_POINT('', #769);
#499 = (
    BOUNDED_SURFACE()
    B_SPLINE_SURFACE(2, 2, ((#500, #501, #502, #503, #504), (#505, #506, #507, #508, #509), (#510, #511, #512, #513, #514), (#515, #516, #517, #518, #519), (#520, #521, #522, #523, #524), (#525, #526, #527, #528, #529), (#530, #531, #532, #533, #534), (#535, #536, #537, #538, #539), (#540, #541, #542, #543, #544)), .UNSPECIFIED., .U., .U., .U.)
    B_SPLINE_SURFACE_WITH_KNOTS((3, 2, 2, 2, 3), (3, 2, 3), (0.0, 1.5707963267948966, 3.141592653589793, 4.71238898038469, 6.283185307179586), (-1.5707963267948966, 0.0, 1.5707963267948966), .UNSPECIFIED.)
    GEOMETRIC_REPRESENTATION_ITEM()
    RATIONAL_B_SPLINE_SURFACE(((1.0, 0.7071067811865476, 1.0, 0.7071067811865476, 1.0), (0.7071067811865476, 0.5000000000000001, 0.7071067811865476, 0.5000000000000001, 0.7071067811865476), (1.0, 0.7071067811865476, 1.0, 0.7071067811865476, 1.0), (0.7071067811865476, 0.5000000000000001, 0.7071067811865476, 0.5000000000000001, 0.7071067811865476), (1.0, 0.7071067811865476, 1.0, 0.7071067811865476, 1.0), (0.7071067811865476, 0.5000000000000001, 0.7071067811865476, 0.5000000000000001, 0.7071067811865476), (1.0, 0.7071067811865476, 1.0, 0.7071067811865476, 1.0), (0.7071067811865476, 0.5000000000000001, 0.7071067811865476, 0.5000000000000001, 0.7071067811865476), (1.0, 0.7071067811865476, 1.0, 0.7071067811865476, 1.0)))
    REPRESENTATION_ITEM('')
    SURFACE()
);
#500 = CARTESIAN_POINT('', (4.0, 0.0, -0.25));
#501 = CARTESIAN_POINT('', (4.25, 0.0, -0.25));
#502 = CARTESIAN_POINT('', (4.25, 0.0, 0.0));
#503 = CARTESIAN_POINT('', (4.25, 0.0, 0.25));
#504 = CARTESIAN_POINT('', (4.0, 0.0, 0.25));
#505 = CARTESIAN_POINT('', (4.0, 0.0, -0.25));
#506 = CARTESIAN_POINT('', (4.25, 0.25, -0.25));
#507 = CARTESIAN_POINT('', (4.25, 0.25, 0.0));
#508 = CARTESIAN_POINT('', (4.25, 0.25, 0.25));
#509 = CARTESIAN_POINT('', (4.0, 0.0, 0.25));
#510 = CARTESIAN_POINT('', (4.0, 0.0, -0.25));
#511 = CARTESIAN_POINT('', (4.0, 0.25, -0.25));
#512 = CARTESIAN_POINT('', (4.0, 0.25, 0.0));
#513 = CARTESIAN_POINT('', (4.0, 0.25, 0.25));
#514 = CARTESIAN_POINT('', (4.0, 0.0, 0.25));
#515 = CARTESIAN_POINT('', (4.0, 0.0, -0.25));
#516 = CARTESIAN_POINT('', (3.75, 0.25, -0.25));
#517 = CARTESIAN_POINT('', (3.75, 0.25, 0.0));
#518 = CARTESIAN_POINT('', (3.75, 0.25, 0.25));
#519 = CARTESIAN_POINT('', (4.0, 0.0, 0.25));
#520 = CARTESIAN_POINT('', (4.0, 0.0, -0.25));
#521 = CARTESIAN_POINT('', (3.75, 0.0, -0.25));
#522 = CARTESIAN_POINT('', (3.75, 0.0, 0.0));
#523 = CARTESIAN_POINT('', (3.75, 0.0, 0.25));
#524 = CARTESIAN_POINT('', (4.0, 0.0, 0.25));
#525 = CARTESIAN_POINT('', (4.0, 0.0, -0.25));
#526 = CARTESIAN_POINT('', (3.75, -0.25, -0.25));
#527 = CARTESIAN_POINT('', (3.75, -0.25, 0.0));
#528 = CARTESIAN_POINT('', (3.75, -0.25, 0.25));
#529 = CARTESIAN_POINT('', (4.0, 0.0, 0.25));
#530 = CARTESIAN_POINT('', (4.0, 0.0, -0.25));
#531 = CARTESIAN_POINT('', (4.0, -0.25, -0.25));
#532 = CARTESIAN_POINT('', (4.0, -0.25, 0.0));
#533 = CARTESIAN_POINT('', (4.0, -0.25, 0.25));
#534 = CARTESIAN_POINT('', (4.0, 0.0, 0.25));
#535 = CARTESIAN_POINT('', (4.0, 0.0, -0.25));
#536 = CARTESIAN_POINT('', (4.25, -0.25, -0.25));
#537 = CARTESIAN_POINT('', (4.25, -0.25, 0.0));
#538 = CARTESIAN_POINT('', (4.25, -0.25, 0.25));
#539 = CARTESIAN_POINT('', (4.0, 0.0, 0.25));
#540 = CARTESIAN_POINT('', (4.0, 0.0, -0.25));
#541 = CARTESIAN_POINT('', (4.25, 0.0, -0.25));
#542 = CARTESIAN_POINT('', (4.25, 0.0, 0.0));
#543 = CARTESIAN_POINT('', (4.25, 0.0, 0.25));
#544 = CARTESIAN_POINT('', (4.0, 0.0, 0.25));
#545 = SURFACE_CURVE('', #546, (#549), .CURVE_3D.);
#546 = (
    BOUNDED_CURVE()
    B_SPLINE_CURVE(1, (#547, #548), .UNSPECIFIED., .U., .U.)
    B_SPLINE_CURVE_WITH_KNOTS((2, 2), (0.0, 1.0), .UNSPECIFIED.)
    CURVE()
    GEOMETRIC_REPRESENTATION_ITEM()
    RATIONAL_B_SPLINE_CURVE((1.0, 1.0))
    REPRESENTATION_ITEM('')
);
#547 = CARTESIAN_POINT('', (4.0, 0.0, -0.25));
#548 = CARTESIAN_POINT('', (4.0, 0.0, -0.25));
#549 = PCURVE('', #550, #596);
#550 = (
    BOUNDED_SURFACE()
    B_SPLINE_SURFACE(2, 2, ((#551, #552, #553, #554, #555), (#556, #557, #558, #559, #560), (#561, #562, #563, #564, #565), (#566, #567, #568, #569, #570), (#571, #572, #573, #574, #575), (#576, #577, #578, #579, #580), (#581, #582, #583, #584, #585), (#586, #587, #588, #589, #590), (#591, #592, #593, #594, #595)), .UNSPECIFIED., .U., .U., .U.)
    B_SPLINE_SURFACE_WITH_KNOTS((3, 2, 2, 2, 3), (3, 2, 3), (0.0, 1.5707963267948966, 3.141592653589793, 4.71238898038469, 6.283185307179586), (-1.5707963267948966, 0.0, 1.5707963267948966), .UNSPECIFIED.)
    GEOMETRIC_REPRESENTATION_ITEM()
    RATIONAL_B_SPLINE_SURFACE(((1.0, 0.7071067811865476, 1.0, 0.7071067811865476, 1.0), (0.7071067811865476, 0.5000000000000001, 0.7071067811865476, 0.5000000000000001, 0.7071067811865476), (1.0, 0.7071067811865476, 1.0, 0.7071067811865476, 1.0), (0.7071067811865476, 0.5000000000000001, 0.7071067811865476, 0.5000000000000001, 0.7071067811865476), (1.0, 0.7071067811865476, 1.0, 0.7071067811865476, 1.0), (0.7071067811865476, 0.5000000000000001, 0.7071067811865476, 0.5000000000000001, 0.7071067811865476), (1.0, 0.7071067811865476, 1.0, 0.7071067811865476, 1.0), (0.7071067811865476, 0.5000000000000001, 0.7071067811865476, 0.5000000000000001, 0.7071067811865476), (1.0, 0.7071067811865476, 1.0, 0.7071067811865476, 1.0)))
    REPRESENTATION_ITEM('')
    SURFACE()
);
#551 = CARTESIAN_POINT('', (4.0, 0.0, -0.25));
#552 = CARTESIAN_POINT('', (4.25, 0.0, -0.25));
#553 = CARTESIAN_POINT('', (4.25, 0.0, 0.0));
#554 = CARTESIAN_POINT('', (4.25, 0.0, 0.25));
#555 = CARTESIAN_POINT('', (4.0, 0.0, 0.25));
#556 = CARTESIAN_POINT('', (4.0, 0.0, -0.25));
#557 = CARTESIAN_POINT('', (4.25, 0.25, -0.25));
#558 = CARTESIAN_POINT('', (4.25, 0.25, 0.0));
#559 = CARTESIAN_POINT('', (4.25, 0.25, 0.25));
#560 = CARTESIAN_POINT('', (4.0, 0.0, 0.25));
#561 = CARTESIAN_POINT('', (4.0, 0.0, -0.25));
#562 = CARTESIAN_POINT('', (4.0, 0.25, -0.25));
#563 = CARTESIAN_POINT('', (4.0, 0.25, 0.0));
#564 = CARTESIAN_POINT('', (4.0, 0.25, 0.25));
#565 = CARTESIAN_POINT('', (4.0, 0.0, 0.25));
#566 = CARTESIAN_POINT('', (4.0, 0.0, -0.25));
#567 = CARTESIAN_POINT('', (3.75, 0.25, -0.25));
#568 = CARTESIAN_POINT('', (3.75, 0.25, 0.0));
#569 = CARTESIAN_POINT('', (3.75, 0.25, 0.25));
#570 = CARTESIAN_POINT('', (4.0, 0.0, 0.25));
#571 = CARTESIAN_POINT('', (4.0, 0.0, -0.25));
#572 = CARTESIAN_POINT('', (3.75, 0.0, -0.25));
#573 = CARTESIAN_POINT('', (3.75, 0.0, 0.0));
#574 = CARTESIAN_POINT('', (3.75, 0.0, 0.25));
#575 = CARTESIAN_POINT('', (4.0, 0.0, 0.25));
#576 = CARTESIAN_POINT('', (4.0, 0.0, -0.25));
#577 = CARTESIAN_POINT('', (3.75, -0.25, -0.25));
#578 = CARTESIAN_POINT('', (3.75, -0.25, 0.0));
#579 = CARTESIAN_POINT('', (3.75, -0.25, 0.25));
#580 = CARTESIAN_POINT('', (4.0, 0.0, 0.25));
#581 = CARTESIAN_POINT('', (4.0, 0.0, -0.25));
#582 = CARTESIAN_POINT('', (4.0, -0.25, -0.25));
#583 = CARTESIAN_POINT('', (4.0, -0.25, 0.0));
#584 = CARTESIAN_POINT('', (4.0, -0.25, 0.25));
#585 = CARTESIAN_POINT('', (4.0, 0.0, 0.25));
#586 = CARTESIAN_POINT('', (4.0, 0.0, -0.25));
#587 = CARTESIAN_POINT('', (4.25, -0.25, -0.25));
#588 = CARTESIAN_POINT('', (4.25, -0.25, 0.0));
#589 = CARTESIAN_POINT('', (4.25, -0.25, 0.25));
#590 = CARTESIAN_POINT('', (4.0, 0.0, 0.25));
#591 = CARTESIAN_POINT('', (4.0, 0.0, -0.25));
#592 = CARTESIAN_POINT('', (4.25, 0.0, -0.25));
#593 = CARTESIAN_POINT('', (4.25, 0.0, 0.0));
#594 = CARTESIAN_POINT('', (4.25, 0.0, 0.25));
#595 = CARTESIAN_POINT('', (4.0, 0.0, 0.25));
#596 = DEFINITIONAL_REPRESENTATION('', (#598), #597);
#597 = (
    GEOMETRIC_REPRESENTATION_CONTEXT(2)
    PARAMETRIC_REPRESENTATION_CONTEXT()
    REPRESENTATION_CONTEXT('2D SPACE', '')
);
#598 = (
    BOUNDED_CURVE()
    B_SPLINE_CURVE(1, (#599, #600), .UNSPECIFIED., .U., .U.)
    B_SPLINE_CURVE_WITH_KNOTS((2, 2), (0.0, 1.0), .UNSPECIFIED.)
    CURVE()
    GEOMETRIC_REPRESENTATION_ITEM()
    RATIONAL_B_SPLINE_CURVE((1.0, 1.0))
    REPRESENTATION_ITEM('')
);
#599 = CARTESIAN_POINT('', (0.0, -1.5707963267948966));
#600 = CARTESIAN_POINT('', (6.283185307179586, -1.5707963267948966));
#601 = SEAM_CURVE('', #602, (#608, #660), .CURVE_3D.);
#602 = (
    BOUNDED_CURVE()
    B_SPLINE_CURVE(2, (#603, #604, #605, #606, #607), .UNSPECIFIED., .U., .U.)
    B_SPLINE_CURVE_WITH_KNOTS((3, 2, 3), (-1.5707963267948966, 0.0, 1.5707963267948966), .UNSPECIFIED.)
    CURVE()
    GEOMETRIC_REPRESENTATION_ITEM()
    RATIONAL_B_SPLINE_CURVE((1.0, 0.7071067811865476, 1.0, 0.7071067811865476, 1.0))
    REPRESENTATION_ITEM('')
);
#603 = CARTESIAN_POINT('', (4.0, 0.0, -0.25));
#604 = CARTESIAN_POINT('', (4.25, 0.0, -0.25));
#605 = CARTESIAN_POINT('', (4.25, 0.0, 0.0));
#606 = CARTESIAN_POINT('', (4.25, 0.0, 0.25));
#607 = CARTESIAN_POINT('', (4.0, 0.0, 0.25));
#608 = PCURVE('', #609, #655);
#609 = (
    BOUNDED_SURFACE()
    B_SPLINE_SURFACE(2, 2, ((#610, #611, #612, #613, #614), (#615, #616, #617, #618, #619), (#620, #621, #622, #623, #624), (#625, #626, #627, #628, #629), (#630, #631, #632, #633, #634), (#635, #636, #637, #638, #639), (#640, #641, #642, #643, #644), (#645, #646, #647, #648, #649), (#650, #651, #652, #653, #654)), .UNSPECIFIED., .U., .U., .U.)
    B_SPLINE_SURFACE_WITH_KNOTS((3, 2, 2, 2, 3), (3, 2, 3), (0.0, 1.5707963267948966, 3.141592653589793, 4.71238898038469, 6.283185307179586), (-1.5707963267948966, 0.0, 1.5707963267948966), .UNSPECIFIED.)
    GEOMETRIC_REPRESENTATION_ITEM()
    RATIONAL_B_SPLINE_SURFACE(((1.0, 0.7071067811865476, 1.0, 0.7071067811865476, 1.0), (0.7071067811865476, 0.5000000000000001, 0.7071067811865476, 0.5000000000000001, 0.7071067811865476), (1.0, 0.7071067811865476, 1.0, 0.7071067811865476, 1.0), (0.7071067811865476, 0.5000000000000001, 0.7071067811865476, 0.5000000000000001, 0.7071067811865476), (1.0, 0.7071067811865476, 1.0, 0.7071067811865476, 1.0), (0.7071067811865476, 0.5000000000000001, 0.7071067811865476, 0.5000000000000001, 0.7071067811865476), (1.0, 0.7071067811865476, 1.0, 0.7071067811865476, 1.0), (0.7071067811865476, 0.5000000000000001, 0.7071067811865476, 0.5000000000000001, 0.7071067811865476), (1.0, 0.7071067811865476, 1.0, 0.7071067811865476, 1.0)))
    REPRESENTATION_ITEM('')
    SURFACE()
);
#610 = CARTESIAN_POINT('', (4.0, 0.0, -0.25));
#611 = CARTESIAN_POINT('', (4.25, 0.0, -0.25));
#612 = CARTESIAN_POINT('', (4.25, 0.0, 0.0));
#613 = CARTESIAN_POINT('', (4.25, 0.0, 0.25));
#614 = CARTESIAN_POINT('', (4.0, 0.0, 0.25));
#615 = CARTESIAN_POINT('', (4.0, 0.0, -0.25));
#616 = CARTESIAN_POINT('', (4.25, 0.25, -0.25));
#617 = CARTESIAN_POINT('', (4.25, 0.25, 0.0));
#618 = CARTESIAN_POINT('', (4.25, 0.25, 0.25));
#619 = CARTESIAN_POINT('', (4.0, 0.0, 0.25));
#620 = CARTESIAN_POINT('', (4.0, 0.0, -0.25));
#621 = CARTESIAN_POINT('', (4.0, 0.25, -0.25));
#622 = CARTESIAN_POINT('', (4.0, 0.25, 0.0));
#623 = CARTESIAN_POINT('', (4.0, 0.25, 0.25));
#624 = CARTESIAN_POINT('', (4.0, 0.0, 0.25));
#625 = CARTESIAN_POINT('', (4.0, 0.0, -0.25));
#626 = CARTESIAN_POINT('', (3.75, 0.25, -0.25));
#627 = CARTESIAN_POINT('', (3.75, 0.25, 0.0));
#628 = CARTESIAN_POINT('', (3.75, 0.25, 0.25));
#629 = CARTESIAN_POINT('', (4.0, 0.0, 0.25));
#630 = CARTESIAN_POINT('', (4.0, 0.0, -0.25));
#631 = CARTESIAN_POINT('', (3.75, 0.0, -0.25));
#632 = CARTESIAN_POINT('', (3.75, 0.0, 0.0));
#633 = CARTESIAN_POINT('', (3.75, 0.0, 0.25));
#634 = CARTESIAN_POINT('', (4.0, 0.0, 0.25));
#635 = CARTESIAN_POINT('', (4.0, 0.0, -0.25));
#636 = CARTESIAN_POINT('', (3.75, -0.25, -0.25));
#637 = CARTESIAN_POINT('', (3.75, -0.25, 0.0));
#638 = CARTESIAN_POINT('', (3.75, -0.25, 0.25));
#639 = CARTESIAN_POINT('', (4.0, 0.0, 0.25));
#640 = CARTESIAN_POINT('', (4.0, 0.0, -0.25));
#641 = CARTESIAN_POINT('', (4.0, -0.25, -0.25));
#642 = CARTESIAN_POINT('', (4.0, -0.25, 0.0));
#643 = CARTESIAN_POINT('', (4.0, -0.25, 0.25));
#644 = CARTESIAN_POINT('', (4.0, 0.0, 0.25));
#645 = CARTESIAN_POINT('', (4.0, 0.0, -0.25));
#646 = CARTESIAN_POINT('', (4.25, -0.25, -0.25));
#647 = CARTESIAN_POINT('', (4.25, -0.25, 0.0));
#648 = CARTESIAN_POINT('', (4.25, -0.25, 0.25));
#649 = CARTESIAN_POINT('', (4.0, 0.0, 0.25));
#650 = CARTESIAN_POINT('', (4.0, 0.0, -0.25));
#651 = CARTESIAN_POINT('', (4.25, 0.0, -0.25));
#652 = CARTESIAN_POINT('', (4.25, 0.0, 0.0));
#653 = CARTESIAN_POINT('', (4.25, 0.0, 0.25));
#654 = CARTESIAN_POINT('', (4.0, 0.0, 0.25));
#655 = DEFINITIONAL_REPRESENTATION('', (#657), #656);
#656 = (
    GEOMETRIC_REPRESENTATION_CONTEXT(2)
    PARAMETRIC_REPRESENTATION_CONTEXT()
    REPRESENTATION_CONTEXT('2D SPACE', '')
);
#657 = (
    BOUNDED_CURVE()
    B_SPLINE_CURVE(1, (#658, #659), .UNSPECIFIED., .U., .U.)
    B_SPLINE_CURVE_WITH_KNOTS((2, 2), (0.0, 1.0), .UNSPECIFIED.)
    CURVE()
    GEOMETRIC_REPRESENTATION_ITEM()
    RATIONAL_B_SPLINE_CURVE((1.0, 1.0))
    REPRESENTATION_ITEM('')
);
#658 = CARTESIAN_POINT('', (6.283185307179586, -1.5707963267948966));
#659 = CARTESIAN_POINT('', (6.283185307179586, 1.5707963267948966));
#660 = PCURVE('', #661, #707);
#661 = (
    BOUNDED_SURFACE()
    B_SPLINE_SURFACE(2, 2, ((#662, #663, #664, #665, #666), (#667, #668, #669, #670, #671), (#672, #673, #674, #675, #676), (#677, #678, #679, #680, #681), (#682, #683, #684, #685, #686), (#687, #688, #689, #690, #691), (#692, #693, #694, #695, #696), (#697, #698, #699, #700, #701), (#702, #703, #704, #705, #706)), .UNSPECIFIED., .U., .U., .U.)
    B_SPLINE_SURFACE_WITH_KNOTS((3, 2, 2, 2, 3), (3, 2, 3), (0.0, 1.5707963267948966, 3.141592653589793, 4.71238898038469, 6.283185307179586), (-1.5707963267948966, 0.0, 1.5707963267948966), .UNSPECIFIED.)
    GEOMETRIC_REPRESENTATION_ITEM()
    RATIONAL_B_SPLINE_SURFACE(((1.0, 0.7071067811865476, 1.0, 0.7071067811865476, 1.0), (0.7071067811865476, 0.5000000000000001, 0.7071067811865476, 0.5000000000000001, 0.7071067811865476), (1.0, 0.7071067811865476, 1.0, 0.7071067811865476, 1.0), (0.7071067811865476, 0.5000000000000001, 0.7071067811865476, 0.5000000000000001, 0.7071067811865476), (1.0, 0.7071067811865476, 1.0, 0.7071067811865476, 1.0), (0.7071067811865476, 0.5000000000000001, 0.7071067811865476, 0.5000000000000001, 0.7071067811865476), (1.0, 0.7071067811865476, 1.0, 0.7071067811865476, 1.0), (0.7071067811865476, 0.5000000000000001, 0.7071067811865476, 0.5000000000000001, 0.7071067811865476), (1.0, 0.7071067811865476, 1.0, 0.7071067811865476, 1.0)))
    REPRESENTATION_ITEM('')
    SURFACE()
);
#662 = CARTESIAN_POINT('', (4.0, 0.0, -0.25));
#663 = CARTESIAN_POINT('', (4.25, 0.0, -0.25));
#664 = CARTESIAN_POINT('', (4.25, 0.0, 0.0));
#665 = CARTESIAN_POINT('', (4.25, 0.0, 0.25));
#666 = CARTESIAN_POINT('', (4.0, 0.0, 0.25));
#667 = CARTESIAN_POINT('', (4.0, 0.0, -0.25));
#668 = CARTESIAN_POINT('', (4.25, 0.25, -0.25));
#669 = CARTESIAN_POINT('', (4.25, 0.25, 0.0));
#670 = CARTESIAN_POINT('', (4.25, 0.25, 0.25));
#671 = CARTESIAN_POINT('', (4.0, 0.0, 0.25));
#672 = CARTESIAN_POINT('', (4.0, 0.0, -0.25));
#673 = CARTESIAN_POINT('', (4.0, 0.25, -0.25));
#674 = CARTESIAN_POINT('', (4.0, 0.25, 0.0));
#675 = CARTESIAN_POINT('', (4.0, 0.25, 0.25));
#676 = CARTESIAN_POINT('', (4.0, 0.0, 0.25));
#677 = CARTESIAN_POINT('', (4.0, 0.0, -0.25));
#678 = CARTESIAN_POINT('', (3.75, 0.25, -0.25));
#679 = CARTESIAN_POINT('', (3.75, 0.25, 0.0));
#680 = CARTESIAN_POINT('', (3.75, 0.25, 0.25));
#681 = CARTESIAN_POINT('', (4.0, 0.0, 0.25));
#682 = CARTESIAN_POINT('', (4.0, 0.0, -0.25));
#683 = CARTESIAN_POINT('', (3.75, 0.0, -0.25));
#684 = CARTESIAN_POINT('', (3.75, 0.0, 0.0));
#685 = CARTESIAN_POINT('', (3.75, 0.0, 0.25));
#686 = CARTESIAN_POINT('', (4.0, 0.0, 0.25));
#687 = CARTESIAN_POINT('', (4.0, 0.0, -0.25));
#688 = CARTESIAN_POINT('', (3.75, -0.25, -0.25));
#689 = CARTESIAN_POINT('', (3.75, -0.25, 0.0));
#690 = CARTESIAN_POINT('', (3.75, -0.25, 0.25));
#691 = CARTESIAN_POINT('', (4.0, 0.0, 0.25));
#692 = CARTESIAN_POINT('', (4.0, 0.0, -0.25));
#693 = CARTESIAN_POINT('', (4.0, -0.25, -0.25));
#694 = CARTESIAN_POINT('', (4.0, -0.25, 0.0));
#695 = CARTESIAN_POINT('', (4.0, -0.25, 0.25));
#696 = CARTESIAN_POINT('', (4.0, 0.0, 0.25));
#697 = CARTESIAN_POINT('', (4.0, 0.0, -0.25));
#698 = CARTESIAN_POINT('', (4.25, -0.25, -0.25));
#699 = CARTESIAN_POINT('', (4.25, -0.25, 0.0));
#700 = CARTESIAN_POINT('', (4.25, -0.25, 0.25));
#701 = CARTESIAN_POINT('', (4.0, 0.0, 0.25));
#702 = CARTESIAN_POINT('', (4.0, 0.0, -0.25));
#703 = CARTESIAN_POINT('', (4.25, 0.0, -0.25));
#704 = CARTESIAN_POINT('', (4.25, 0.0, 0.0));
#705 = CARTESIAN_POINT('', (4.25, 0.0, 0.25));
#706 = CARTESIAN_POINT('', (4.0, 0.0, 0.25));
#707 = DEFINITIONAL_REPRESENTATION('', (#709), #708);
#708 = (
    GEOMETRIC_REPRESENTATION_CONTEXT(2)
    PARAMETRIC_REPRESENTATION_CONTEXT()
    REPRESENTATION_CONTEXT('2D SPACE', '')
);
#709 = (
    BOUNDED_CURVE()
    B_SPLINE_CURVE(1, (#710, #711), .UNSPECIFIED., .U., .U.)
    B_SPLINE_CURVE_WITH_KNOTS((2, 2), (-1.0, -0.0), .UNSPECIFIED.)
    CURVE()
    GEOMETRIC_REPRESENTATION_ITEM()
    RATIONAL_B_SPLINE_CURVE((1.0, 1.0))
    REPRESENTATION_ITEM('')
);
#710 = CARTESIAN_POINT('', (0.0, -1.5707963267948966));
#711 = CARTESIAN_POINT('', (0.0, 1.5707963267948966));
#712 = SURFACE_CURVE('', #713, (#716), .CURVE_3D.);
#713 = (
    BOUNDED_CURVE()
    B_SPLINE_CURVE(1, (#714, #715), .UNSPECIFIED., .U., .U.)
    B_SPLINE_CURVE_WITH_KNOTS((2, 2), (0.0, 1.0), .UNSPECIFIED.)
    CURVE()
    GEOMETRIC_REPRESENTATION_ITEM()
    RATIONAL_B_SPLINE_CURVE((1.0, 1.0))
    REPRESENTATION_ITEM('')
);
#714 = CARTESIAN_POINT('', (4.0, 0.0, 0.25));
#715 = CARTESIAN_POINT('', (4.0, 0.0, 0.25));
#716 = PCURVE('', #717, #763);
#717 = (
    BOUNDED_SURFACE()
    B_SPLINE_SURFACE(2, 2, ((#718, #719, #720, #721, #722), (#723, #724, #725, #726, #727), (#728, #729, #730, #731, #732), (#733, #734, #735, #736, #737), (#738, #739, #740, #741, #742), (#743, #744, #745, #746, #747), (#748, #749, #750, #751, #752), (#753, #754, #755, #756, #757), (#758, #759, #760, #761, #762)), .UNSPECIFIED., .U., .U., .U.)
    B_SPLINE_SURFACE_WITH_KNOTS((3, 2, 2, 2, 3), (3, 2, 3), (0.0, 1.5707963267948966, 3.141592653589793, 4.71238898038469, 6.283185307179586), (-1.5707963267948966, 0.0, 1.5707963267948966), .UNSPECIFIED.)
    GEOMETRIC_REPRESENTATION_ITEM()
    RATIONAL_B_SPLINE_SURFACE(((1.0, 0.7071067811865476, 1.0, 0.7071067811865476, 1.0), (0.7071067811865476, 0.5000000000000001, 0.7071067811865476, 0.5000000000000001, 0.7071067811865476), (1.0, 0.7071067811865476, 1.0, 0.7071067811865476, 1.0), (0.7071067811865476, 0.5000000000000001, 0.7071067811865476, 0.5000000000000001, 0.7071067811865476), (1.0, 0.7071067811865476, 1.0, 0.7071067811865476, 1.0), (0.7071067811865476, 0.5000000000000001, 0.7071067811865476, 0.5000000000000001, 0.7071067811865476), (1.0, 0.7071067811865476, 1.0, 0.7071067811865476, 1.0), (0.7071067811865476, 0.5000000000000001, 0.7071067811865476, 0.5000000000000001, 0.7071067811865476), (1.0, 0.7071067811865476, 1.0, 0.7071067811865476, 1.0)))
    REPRESENTATION_ITEM('')
    SURFACE()
);
#718 = CARTESIAN_POINT('', (4.0, 0.0, -0.25));
#719 = CARTESIAN_POINT('', (4.25, 0.0, -0.25));
#720 = CARTESIAN_POINT('', (4.25, 0.0, 0.0));
#721 = CARTESIAN_POINT('', (4.25, 0.0, 0.25));
#722 = CARTESIAN_POINT('', (4.0, 0.0, 0.25));
#723 = CARTESIAN_POINT('', (4.0, 0.0, -0.25));
#724 = CARTESIAN_POINT('', (4.25, 0.25, -0.25));
#725 = CARTESIAN_POINT('', (4.25, 0.25, 0.0));
#726 = CARTESIAN_POINT('', (4.25, 0.25, 0.25));
#727 = CARTESIAN_POINT('', (4.0, 0.0, 0.25));
#728 = CARTESIAN_POINT('', (4.0, 0.0, -0.25));
#729 = CARTESIAN_POINT('', (4.0, 0.25, -0.25));
#730 = CARTESIAN_POINT('', (4.0, 0.25, 0.0));
#731 = CARTESIAN_POINT('', (4.0, 0.25, 0.25));
#732 = CARTESIAN_POINT('', (4.0, 0.0, 0.25));
#733 = CARTESIAN_POINT('', (4.0, 0.0, -0.25));
#734 = CARTESIAN_POINT('', (3.75, 0.25, -0.25));
#735 = CARTESIAN_POINT('', (3.75, 0.25, 0.0));
#736 = CARTESIAN_POINT('', (3.75, 0.25, 0.25));
#737 = CARTESIAN_POINT('', (4.0, 0.0, 0.25));
#738 = CARTESIAN_POINT('', (4.0, 0.0, -0.25));
#739 = CARTESIAN_POINT('', (3.75, 0.0, -0.25));
#740 = CARTESIAN_POINT('', (3.75, 0.0, 0.0));
#741 = CARTESIAN_POINT('', (3.75, 0.0, 0.25));
#742 = CARTESIAN_POINT('', (4.0, 0.0, 0.25));
#743 = CARTESIAN_POINT('', (4.0, 0.0, -0.25));
#744 = CARTESIAN_POINT('', (3.75, -0.25, -0.25));
#745 = CARTESIAN_POINT('', (3.75, -0.25, 0.0));
#746 = CARTESIAN_POINT('', (3.75, -0.25, 0.25));
#747 = CARTESIAN_POINT('', (4.0, 0.0, 0.25));
#748 = CARTESIAN_POINT('', (4.0, 0.0, -0.25));
#749 = CARTESIAN_POINT('', (4.0, -0.25, -0.25));
#750 = CARTESIAN_POINT('', (4.0, -0.25, 0.0));
#751 = CARTESIAN_POINT('', (4.0, -0.25, 0.25));
#752 = CARTESIAN_POINT('', (4.0, 0.0, 0.25));
#753 = CARTESIAN_POINT('', (4.0, 0.0, -0.25));
#754 = CARTESIAN_POINT('', (4.25, -0.25, -0.25));
#755 = CARTESIAN_POINT('', (4.25, -0.25, 0.0));
#756 = CARTESIAN_POINT('', (4.25, -0.25, 0.25));
#757 = CARTESIAN_POINT('', (4.0, 0.0, 0.25));
#758 = CARTESIAN_POINT('', (4.0, 0.0, -0.25));
#759 = CARTESIAN_POINT('', (4.25, 0.0, -0.25));
#760 = CARTESIAN_POINT('', (4.25, 0.0, 0.0));
#761 = CARTESIAN_POINT('', (4.25, 0.0, 0.25));
#762 = CARTESIAN_POINT('', (4.0, 0.0, 0.25));
#763 = DEFINITIONAL_REPRESENTATION('', (#765), #764);
#764 = (
    GEOMETRIC_REPRESENTATION_CONTEXT(2)
    PARAMETRIC_REPRESENTATION_CONTEXT()
    REPRESENTATION_CONTEXT('2D SPACE', '')
);
#765 = (
    BOUNDED_CURVE()
    B_SPLINE_CURVE(1, (#766, #767), .UNSPECIFIED., .U., .U.)
    B_SPLINE_CURVE_WITH_KNOTS((2, 2), (0.0, 1.0), .UNSPECIFIED.)
    CURVE()
    GEOMETRIC_REPRESENTATION_ITEM()
    RATIONAL_B_SPLINE_CURVE((1.0, 1.0))
    REPRESENTATION_ITEM('')
);
#766 = CARTESIAN_POINT('', (6.283185307179586, 1.5707963267948966));
#767 = CARTESIAN_POINT('', (0.0, 1.5707963267948966));
#768 = CARTESIAN_POINT('', (4.0E0, 0.0E0, -2.5E-1));
#769 = CARTESIAN_POINT('', (4.0E0, 0.0E0, 2.5E-1));
ENDSEC;
END-ISO-10303-21;
