ISO-10303-21;
HEADER;
FILE_DESCRIPTION(('Shape Data from monstertruck'), '2;1');
FILE_NAME('', '2026-10-10 07:45:52.424761003', (''), (''), 'monstertruck', 'Viboceros', '');
FILE_SCHEMA(('AUTOMOTIVE_DESIGN'));
ENDSEC;
DATA;
#1 = APPLICATION_PROTOCOL_DEFINITION('international standard', 'automotive_design', 2000, #2);
#2 = APPLICATION_CONTEXT('core data for automotive mechanical design processes');
#3 = SHAPE_DEFINITION_REPRESENTATION(#4, #10);
#4 = PRODUCT_DEFINITION_SHAPE('','', #5);
#5 = PRODUCT_DEFINITION('design','', #6, #9);
#6 = PRODUCT_DEFINITION_FORMATION('','', #7);
#7 = PRODUCT('','','', (#8));
#8 = PRODUCT_CONTEXT('', #2, 'mechanical');
#9 = PRODUCT_DEFINITION_CONTEXT('part definition', #2, 'design');
#10 = ADVANCED_BREP_SHAPE_REPRESENTATION('', (#16), #11);
#11 = (
    GEOMETRIC_REPRESENTATION_CONTEXT(3)
    GLOBAL_UNCERTAINTY_ASSIGNED_CONTEXT((#15))
    GLOBAL_UNIT_ASSIGNED_CONTEXT((#12, #13, #14))
    REPRESENTATION_CONTEXT('Context #1', '3D Context with UNIT and UNCERTAINTY')
);
#12 = ( LENGTH_UNIT() NAMED_UNIT(*) SI_UNIT(.MILLI.,.METRE.) );
#13 = ( NAMED_UNIT(*) PLANE_ANGLE_UNIT() SI_UNIT($,.RADIAN.) );
#14 = ( NAMED_UNIT(*) SI_UNIT($,.STERADIAN.) SOLID_ANGLE_UNIT() );
#15 = UNCERTAINTY_MEASURE_WITH_UNIT(LENGTH_MEASURE(1.0E-6), #12, 'distance_accuracy_value','confusion accuracy');
#16 = SHELL_BASED_SURFACE_MODEL('', (#17));
#17 = OPEN_SHELL('', (#18, #25));
#18 = ADVANCED_FACE('', (#19), #40, .T.);
#19 = FACE_BOUND('', #20, .T.);
#20 = EDGE_LOOP('', (#21, #22, #23, #24));
#21 = ORIENTED_EDGE('', *, *, #32, .T.);
#22 = ORIENTED_EDGE('', *, *, #33, .T.);
#23 = ORIENTED_EDGE('', *, *, #34, .T.);
#24 = ORIENTED_EDGE('', *, *, #33, .F.);
#25 = ADVANCED_FACE('', (#26), #59, .T.);
#26 = FACE_BOUND('', #27, .T.);
#27 = EDGE_LOOP('', (#28, #29, #30, #31));
#28 = ORIENTED_EDGE('', *, *, #35, .T.);
#29 = ORIENTED_EDGE('', *, *, #36, .T.);
#30 = ORIENTED_EDGE('', *, *, #32, .F.);
#31 = ORIENTED_EDGE('', *, *, #36, .F.);
#32 = EDGE_CURVE('', #37, #37, #78, .T.);
#33 = EDGE_CURVE('', #37, #38, #139, .T.);
#34 = EDGE_CURVE('', #38, #38, #193, .T.);
#35 = EDGE_CURVE('', #39, #39, #222, .T.);
#36 = EDGE_CURVE('', #39, #37, #251, .T.);
#37 = VERTEX_POINT('', #305);
#38 = VERTEX_POINT('', #306);
#39 = VERTEX_POINT('', #307);
#40 = (
    BOUNDED_SURFACE()
    B_SPLINE_SURFACE(2, 1, ((#41, #42), (#43, #44), (#45, #46), (#47, #48), (#49, #50), (#51, #52), (#53, #54), (#55, #56), (#57, #58)), .UNSPECIFIED., .U., .U., .U.)
    B_SPLINE_SURFACE_WITH_KNOTS((3, 2, 2, 2, 3), (2, 2), (0.0, 1.5707963267948966, 3.141592653589793, 4.71238898038469, 6.283185307179586), (-5.0, 0.0), .UNSPECIFIED.)
    GEOMETRIC_REPRESENTATION_ITEM()
    RATIONAL_B_SPLINE_SURFACE(((1.0, 1.0), (0.7071067811865476, 0.7071067811865476), (1.0, 1.0), (0.7071067811865476, 0.7071067811865476), (1.0, 1.0), (0.7071067811865476, 0.7071067811865476), (1.0, 1.0), (0.7071067811865476, 0.7071067811865476), (1.0, 1.0)))
    REPRESENTATION_ITEM('')
    SURFACE()
);
#41 = CARTESIAN_POINT('', (2.0, 0.0, 0.0));
#42 = CARTESIAN_POINT('', (0.0, 0.0, 5.0));
#43 = CARTESIAN_POINT('', (2.0, 2.0, 0.0));
#44 = CARTESIAN_POINT('', (0.0, 0.0, 5.0));
#45 = CARTESIAN_POINT('', (0.0, 2.0, 0.0));
#46 = CARTESIAN_POINT('', (0.0, 0.0, 5.0));
#47 = CARTESIAN_POINT('', (-2.0, 2.0, 0.0));
#48 = CARTESIAN_POINT('', (0.0, 0.0, 5.0));
#49 = CARTESIAN_POINT('', (-2.0, 0.0, 0.0));
#50 = CARTESIAN_POINT('', (0.0, 0.0, 5.0));
#51 = CARTESIAN_POINT('', (-2.0, -2.0, 0.0));
#52 = CARTESIAN_POINT('', (0.0, 0.0, 5.0));
#53 = CARTESIAN_POINT('', (0.0, -2.0, 0.0));
#54 = CARTESIAN_POINT('', (0.0, 0.0, 5.0));
#55 = CARTESIAN_POINT('', (2.0, -2.0, 0.0));
#56 = CARTESIAN_POINT('', (0.0, 0.0, 5.0));
#57 = CARTESIAN_POINT('', (2.0, 0.0, 0.0));
#58 = CARTESIAN_POINT('', (0.0, 0.0, 5.0));
#59 = (
    BOUNDED_SURFACE()
    B_SPLINE_SURFACE(2, 1, ((#60, #61), (#62, #63), (#64, #65), (#66, #67), (#68, #69), (#70, #71), (#72, #73), (#74, #75), (#76, #77)), .UNSPECIFIED., .U., .U., .U.)
    B_SPLINE_SURFACE_WITH_KNOTS((3, 2, 2, 2, 3), (2, 2), (0.0, 1.5707963267948966, 3.141592653589793, 4.71238898038469, 6.283185307179586), (0.0, 2.0), .UNSPECIFIED.)
    GEOMETRIC_REPRESENTATION_ITEM()
    RATIONAL_B_SPLINE_SURFACE(((1.0, 1.0), (0.7071067811865476, 0.7071067811865476), (1.0, 1.0), (0.7071067811865476, 0.7071067811865476), (1.0, 1.0), (0.7071067811865476, 0.7071067811865476), (1.0, 1.0), (0.7071067811865476, 0.7071067811865476), (1.0, 1.0)))
    REPRESENTATION_ITEM('')
    SURFACE()
);
#60 = CARTESIAN_POINT('', (0.0, 0.0, 0.0));
#61 = CARTESIAN_POINT('', (2.0, 0.0, 0.0));
#62 = CARTESIAN_POINT('', (0.0, 0.0, 0.0));
#63 = CARTESIAN_POINT('', (2.0, 2.0, 0.0));
#64 = CARTESIAN_POINT('', (0.0, 0.0, 0.0));
#65 = CARTESIAN_POINT('', (0.0, 2.0, 0.0));
#66 = CARTESIAN_POINT('', (0.0, 0.0, 0.0));
#67 = CARTESIAN_POINT('', (-2.0, 2.0, 0.0));
#68 = CARTESIAN_POINT('', (0.0, 0.0, 0.0));
#69 = CARTESIAN_POINT('', (-2.0, 0.0, 0.0));
#70 = CARTESIAN_POINT('', (0.0, 0.0, 0.0));
#71 = CARTESIAN_POINT('', (-2.0, -2.0, 0.0));
#72 = CARTESIAN_POINT('', (0.0, 0.0, 0.0));
#73 = CARTESIAN_POINT('', (0.0, -2.0, 0.0));
#74 = CARTESIAN_POINT('', (0.0, 0.0, 0.0));
#75 = CARTESIAN_POINT('', (2.0, -2.0, 0.0));
#76 = CARTESIAN_POINT('', (0.0, 0.0, 0.0));
#77 = CARTESIAN_POINT('', (2.0, 0.0, 0.0));
#78 = SURFACE_CURVE('', #79, (#89, #114), .CURVE_3D.);
#79 = (
    BOUNDED_CURVE()
    B_SPLINE_CURVE(2, (#80, #81, #82, #83, #84, #85, #86, #87, #88), .UNSPECIFIED., .U., .U.)
    B_SPLINE_CURVE_WITH_KNOTS((3, 2, 2, 2, 3), (0.0, 1.5707963267948966, 3.141592653589793, 4.71238898038469, 6.283185307179586), .UNSPECIFIED.)
    CURVE()
    GEOMETRIC_REPRESENTATION_ITEM()
    RATIONAL_B_SPLINE_CURVE((1.0, 0.7071067811865476, 1.0, 0.7071067811865476, 1.0, 0.7071067811865476, 1.0, 0.7071067811865476, 1.0))
    REPRESENTATION_ITEM('')
);
#80 = CARTESIAN_POINT('', (2.0, 0.0, 0.0));
#81 = CARTESIAN_POINT('', (2.0, 2.0, 0.0));
#82 = CARTESIAN_POINT('', (0.0, 2.0, 0.0));
#83 = CARTESIAN_POINT('', (-2.0, 2.0, 0.0));
#84 = CARTESIAN_POINT('', (-2.0, 0.0, 0.0));
#85 = CARTESIAN_POINT('', (-2.0, -2.0, 0.0));
#86 = CARTESIAN_POINT('', (0.0, -2.0, 0.0));
#87 = CARTESIAN_POINT('', (2.0, -2.0, 0.0));
#88 = CARTESIAN_POINT('', (2.0, 0.0, 0.0));
#89 = PCURVE('', #90, #109);
#90 = (
    BOUNDED_SURFACE()
    B_SPLINE_SURFACE(2, 1, ((#91, #92), (#93, #94), (#95, #96), (#97, #98), (#99, #100), (#101, #102), (#103, #104), (#105, #106), (#107, #108)), .UNSPECIFIED., .U., .U., .U.)
    B_SPLINE_SURFACE_WITH_KNOTS((3, 2, 2, 2, 3), (2, 2), (0.0, 1.5707963267948966, 3.141592653589793, 4.71238898038469, 6.283185307179586), (-5.0, 0.0), .UNSPECIFIED.)
    GEOMETRIC_REPRESENTATION_ITEM()
    RATIONAL_B_SPLINE_SURFACE(((1.0, 1.0), (0.7071067811865476, 0.7071067811865476), (1.0, 1.0), (0.7071067811865476, 0.7071067811865476), (1.0, 1.0), (0.7071067811865476, 0.7071067811865476), (1.0, 1.0), (0.7071067811865476, 0.7071067811865476), (1.0, 1.0)))
    REPRESENTATION_ITEM('')
    SURFACE()
);
#91 = CARTESIAN_POINT('', (2.0, 0.0, 0.0));
#92 = CARTESIAN_POINT('', (0.0, 0.0, 5.0));
#93 = CARTESIAN_POINT('', (2.0, 2.0, 0.0));
#94 = CARTESIAN_POINT('', (0.0, 0.0, 5.0));
#95 = CARTESIAN_POINT('', (0.0, 2.0, 0.0));
#96 = CARTESIAN_POINT('', (0.0, 0.0, 5.0));
#97 = CARTESIAN_POINT('', (-2.0, 2.0, 0.0));
#98 = CARTESIAN_POINT('', (0.0, 0.0, 5.0));
#99 = CARTESIAN_POINT('', (-2.0, 0.0, 0.0));
#100 = CARTESIAN_POINT('', (0.0, 0.0, 5.0));
#101 = CARTESIAN_POINT('', (-2.0, -2.0, 0.0));
#102 = CARTESIAN_POINT('', (0.0, 0.0, 5.0));
#103 = CARTESIAN_POINT('', (0.0, -2.0, 0.0));
#104 = CARTESIAN_POINT('', (0.0, 0.0, 5.0));
#105 = CARTESIAN_POINT('', (2.0, -2.0, 0.0));
#106 = CARTESIAN_POINT('', (0.0, 0.0, 5.0));
#107 = CARTESIAN_POINT('', (2.0, 0.0, 0.0));
#108 = CARTESIAN_POINT('', (0.0, 0.0, 5.0));
#109 = DEFINITIONAL_REPRESENTATION('', (#111), #110);
#110 = (
    GEOMETRIC_REPRESENTATION_CONTEXT(2)
    PARAMETRIC_REPRESENTATION_CONTEXT()
    REPRESENTATION_CONTEXT('2D SPACE', '')
);
#111 = (
    BOUNDED_CURVE()
    B_SPLINE_CURVE(1, (#112, #113), .UNSPECIFIED., .U., .U.)
    B_SPLINE_CURVE_WITH_KNOTS((2, 2), (0.0, 1.0), .UNSPECIFIED.)
    CURVE()
    GEOMETRIC_REPRESENTATION_ITEM()
    RATIONAL_B_SPLINE_CURVE((1.0, 1.0))
    REPRESENTATION_ITEM('')
);
#112 = CARTESIAN_POINT('', (0.0, -5.0));
#113 = CARTESIAN_POINT('', (6.283185307179586, -5.0));
#114 = PCURVE('', #115, #134);
#115 = (
    BOUNDED_SURFACE()
    B_SPLINE_SURFACE(2, 1, ((#116, #117), (#118, #119), (#120, #121), (#122, #123), (#124, #125), (#126, #127), (#128, #129), (#130, #131), (#132, #133)), .UNSPECIFIED., .U., .U., .U.)
    B_SPLINE_SURFACE_WITH_KNOTS((3, 2, 2, 2, 3), (2, 2), (0.0, 1.5707963267948966, 3.141592653589793, 4.71238898038469, 6.283185307179586), (0.0, 2.0), .UNSPECIFIED.)
    GEOMETRIC_REPRESENTATION_ITEM()
    RATIONAL_B_SPLINE_SURFACE(((1.0, 1.0), (0.7071067811865476, 0.7071067811865476), (1.0, 1.0), (0.7071067811865476, 0.7071067811865476), (1.0, 1.0), (0.7071067811865476, 0.7071067811865476), (1.0, 1.0), (0.7071067811865476, 0.7071067811865476), (1.0, 1.0)))
    REPRESENTATION_ITEM('')
    SURFACE()
);
#116 = CARTESIAN_POINT('', (0.0, 0.0, 0.0));
#117 = CARTESIAN_POINT('', (2.0, 0.0, 0.0));
#118 = CARTESIAN_POINT('', (0.0, 0.0, 0.0));
#119 = CARTESIAN_POINT('', (2.0, 2.0, 0.0));
#120 = CARTESIAN_POINT('', (0.0, 0.0, 0.0));
#121 = CARTESIAN_POINT('', (0.0, 2.0, 0.0));
#122 = CARTESIAN_POINT('', (0.0, 0.0, 0.0));
#123 = CARTESIAN_POINT('', (-2.0, 2.0, 0.0));
#124 = CARTESIAN_POINT('', (0.0, 0.0, 0.0));
#125 = CARTESIAN_POINT('', (-2.0, 0.0, 0.0));
#126 = CARTESIAN_POINT('', (0.0, 0.0, 0.0));
#127 = CARTESIAN_POINT('', (-2.0, -2.0, 0.0));
#128 = CARTESIAN_POINT('', (0.0, 0.0, 0.0));
#129 = CARTESIAN_POINT('', (0.0, -2.0, 0.0));
#130 = CARTESIAN_POINT('', (0.0, 0.0, 0.0));
#131 = CARTESIAN_POINT('', (2.0, -2.0, 0.0));
#132 = CARTESIAN_POINT('', (0.0, 0.0, 0.0));
#133 = CARTESIAN_POINT('', (2.0, 0.0, 0.0));
#134 = DEFINITIONAL_REPRESENTATION('', (#136), #135);
#135 = (
    GEOMETRIC_REPRESENTATION_CONTEXT(2)
    PARAMETRIC_REPRESENTATION_CONTEXT()
    REPRESENTATION_CONTEXT('2D SPACE', '')
);
#136 = (
    BOUNDED_CURVE()
    B_SPLINE_CURVE(1, (#137, #138), .UNSPECIFIED., .U., .U.)
    B_SPLINE_CURVE_WITH_KNOTS((2, 2), (-1.0, -0.0), .UNSPECIFIED.)
    CURVE()
    GEOMETRIC_REPRESENTATION_ITEM()
    RATIONAL_B_SPLINE_CURVE((1.0, 1.0))
    REPRESENTATION_ITEM('')
);
#137 = CARTESIAN_POINT('', (0.0, 2.0));
#138 = CARTESIAN_POINT('', (6.283185307179586, 2.0));
#139 = SEAM_CURVE('', #140, (#143, #168), .CURVE_3D.);
#140 = (
    BOUNDED_CURVE()
    B_SPLINE_CURVE(1, (#141, #142), .UNSPECIFIED., .U., .U.)
    B_SPLINE_CURVE_WITH_KNOTS((2, 2), (0.0, 5.385164807134504), .UNSPECIFIED.)
    CURVE()
    GEOMETRIC_REPRESENTATION_ITEM()
    RATIONAL_B_SPLINE_CURVE((1.0, 1.0))
    REPRESENTATION_ITEM('')
);
#141 = CARTESIAN_POINT('', (2.0, 0.0, 0.0));
#142 = CARTESIAN_POINT('', (0.0, 0.0, 5.0));
#143 = PCURVE('', #144, #163);
#144 = (
    BOUNDED_SURFACE()
    B_SPLINE_SURFACE(2, 1, ((#145, #146), (#147, #148), (#149, #150), (#151, #152), (#153, #154), (#155, #156), (#157, #158), (#159, #160), (#161, #162)), .UNSPECIFIED., .U., .U., .U.)
    B_SPLINE_SURFACE_WITH_KNOTS((3, 2, 2, 2, 3), (2, 2), (0.0, 1.5707963267948966, 3.141592653589793, 4.71238898038469, 6.283185307179586), (-5.0, 0.0), .UNSPECIFIED.)
    GEOMETRIC_REPRESENTATION_ITEM()
    RATIONAL_B_SPLINE_SURFACE(((1.0, 1.0), (0.7071067811865476, 0.7071067811865476), (1.0, 1.0), (0.7071067811865476, 0.7071067811865476), (1.0, 1.0), (0.7071067811865476, 0.7071067811865476), (1.0, 1.0), (0.7071067811865476, 0.7071067811865476), (1.0, 1.0)))
    REPRESENTATION_ITEM('')
    SURFACE()
);
#145 = CARTESIAN_POINT('', (2.0, 0.0, 0.0));
#146 = CARTESIAN_POINT('', (0.0, 0.0, 5.0));
#147 = CARTESIAN_POINT('', (2.0, 2.0, 0.0));
#148 = CARTESIAN_POINT('', (0.0, 0.0, 5.0));
#149 = CARTESIAN_POINT('', (0.0, 2.0, 0.0));
#150 = CARTESIAN_POINT('', (0.0, 0.0, 5.0));
#151 = CARTESIAN_POINT('', (-2.0, 2.0, 0.0));
#152 = CARTESIAN_POINT('', (0.0, 0.0, 5.0));
#153 = CARTESIAN_POINT('', (-2.0, 0.0, 0.0));
#154 = CARTESIAN_POINT('', (0.0, 0.0, 5.0));
#155 = CARTESIAN_POINT('', (-2.0, -2.0, 0.0));
#156 = CARTESIAN_POINT('', (0.0, 0.0, 5.0));
#157 = CARTESIAN_POINT('', (0.0, -2.0, 0.0));
#158 = CARTESIAN_POINT('', (0.0, 0.0, 5.0));
#159 = CARTESIAN_POINT('', (2.0, -2.0, 0.0));
#160 = CARTESIAN_POINT('', (0.0, 0.0, 5.0));
#161 = CARTESIAN_POINT('', (2.0, 0.0, 0.0));
#162 = CARTESIAN_POINT('', (0.0, 0.0, 5.0));
#163 = DEFINITIONAL_REPRESENTATION('', (#165), #164);
#164 = (
    GEOMETRIC_REPRESENTATION_CONTEXT(2)
    PARAMETRIC_REPRESENTATION_CONTEXT()
    REPRESENTATION_CONTEXT('2D SPACE', '')
);
#165 = (
    BOUNDED_CURVE()
    B_SPLINE_CURVE(1, (#166, #167), .UNSPECIFIED., .U., .U.)
    B_SPLINE_CURVE_WITH_KNOTS((2, 2), (0.0, 1.0), .UNSPECIFIED.)
    CURVE()
    GEOMETRIC_REPRESENTATION_ITEM()
    RATIONAL_B_SPLINE_CURVE((1.0, 1.0))
    REPRESENTATION_ITEM('')
);
#166 = CARTESIAN_POINT('', (6.283185307179586, -5.0));
#167 = CARTESIAN_POINT('', (6.283185307179586, 0.0));
#168 = PCURVE('', #169, #188);
#169 = (
    BOUNDED_SURFACE()
    B_SPLINE_SURFACE(2, 1, ((#170, #171), (#172, #173), (#174, #175), (#176, #177), (#178, #179), (#180, #181), (#182, #183), (#184, #185), (#186, #187)), .UNSPECIFIED., .U., .U., .U.)
    B_SPLINE_SURFACE_WITH_KNOTS((3, 2, 2, 2, 3), (2, 2), (0.0, 1.5707963267948966, 3.141592653589793, 4.71238898038469, 6.283185307179586), (-5.0, 0.0), .UNSPECIFIED.)
    GEOMETRIC_REPRESENTATION_ITEM()
    RATIONAL_B_SPLINE_SURFACE(((1.0, 1.0), (0.7071067811865476, 0.7071067811865476), (1.0, 1.0), (0.7071067811865476, 0.7071067811865476), (1.0, 1.0), (0.7071067811865476, 0.7071067811865476), (1.0, 1.0), (0.7071067811865476, 0.7071067811865476), (1.0, 1.0)))
    REPRESENTATION_ITEM('')
    SURFACE()
);
#170 = CARTESIAN_POINT('', (2.0, 0.0, 0.0));
#171 = CARTESIAN_POINT('', (0.0, 0.0, 5.0));
#172 = CARTESIAN_POINT('', (2.0, 2.0, 0.0));
#173 = CARTESIAN_POINT('', (0.0, 0.0, 5.0));
#174 = CARTESIAN_POINT('', (0.0, 2.0, 0.0));
#175 = CARTESIAN_POINT('', (0.0, 0.0, 5.0));
#176 = CARTESIAN_POINT('', (-2.0, 2.0, 0.0));
#177 = CARTESIAN_POINT('', (0.0, 0.0, 5.0));
#178 = CARTESIAN_POINT('', (-2.0, 0.0, 0.0));
#179 = CARTESIAN_POINT('', (0.0, 0.0, 5.0));
#180 = CARTESIAN_POINT('', (-2.0, -2.0, 0.0));
#181 = CARTESIAN_POINT('', (0.0, 0.0, 5.0));
#182 = CARTESIAN_POINT('', (0.0, -2.0, 0.0));
#183 = CARTESIAN_POINT('', (0.0, 0.0, 5.0));
#184 = CARTESIAN_POINT('', (2.0, -2.0, 0.0));
#185 = CARTESIAN_POINT('', (0.0, 0.0, 5.0));
#186 = CARTESIAN_POINT('', (2.0, 0.0, 0.0));
#187 = CARTESIAN_POINT('', (0.0, 0.0, 5.0));
#188 = DEFINITIONAL_REPRESENTATION('', (#190), #189);
#189 = (
    GEOMETRIC_REPRESENTATION_CONTEXT(2)
    PARAMETRIC_REPRESENTATION_CONTEXT()
    REPRESENTATION_CONTEXT('2D SPACE', '')
);
#190 = (
    BOUNDED_CURVE()
    B_SPLINE_CURVE(1, (#191, #192), .UNSPECIFIED., .U., .U.)
    B_SPLINE_CURVE_WITH_KNOTS((2, 2), (-1.0, -0.0), .UNSPECIFIED.)
    CURVE()
    GEOMETRIC_REPRESENTATION_ITEM()
    RATIONAL_B_SPLINE_CURVE((1.0, 1.0))
    REPRESENTATION_ITEM('')
);
#191 = CARTESIAN_POINT('', (0.0, -5.0));
#192 = CARTESIAN_POINT('', (0.0, 0.0));
#193 = SURFACE_CURVE('', #194, (#197), .CURVE_3D.);
#194 = (
    BOUNDED_CURVE()
    B_SPLINE_CURVE(1, (#195, #196), .UNSPECIFIED., .U., .U.)
    B_SPLINE_CURVE_WITH_KNOTS((2, 2), (0.0, 1.0), .UNSPECIFIED.)
    CURVE()
    GEOMETRIC_REPRESENTATION_ITEM()
    RATIONAL_B_SPLINE_CURVE((1.0, 1.0))
    REPRESENTATION_ITEM('')
);
#195 = CARTESIAN_POINT('', (0.0, 0.0, 5.0));
#196 = CARTESIAN_POINT('', (0.0, 0.0, 5.0));
#197 = PCURVE('', #198, #217);
#198 = (
    BOUNDED_SURFACE()
    B_SPLINE_SURFACE(2, 1, ((#199, #200), (#201, #202), (#203, #204), (#205, #206), (#207, #208), (#209, #210), (#211, #212), (#213, #214), (#215, #216)), .UNSPECIFIED., .U., .U., .U.)
    B_SPLINE_SURFACE_WITH_KNOTS((3, 2, 2, 2, 3), (2, 2), (0.0, 1.5707963267948966, 3.141592653589793, 4.71238898038469, 6.283185307179586), (-5.0, 0.0), .UNSPECIFIED.)
    GEOMETRIC_REPRESENTATION_ITEM()
    RATIONAL_B_SPLINE_SURFACE(((1.0, 1.0), (0.7071067811865476, 0.7071067811865476), (1.0, 1.0), (0.7071067811865476, 0.7071067811865476), (1.0, 1.0), (0.7071067811865476, 0.7071067811865476), (1.0, 1.0), (0.7071067811865476, 0.7071067811865476), (1.0, 1.0)))
    REPRESENTATION_ITEM('')
    SURFACE()
);
#199 = CARTESIAN_POINT('', (2.0, 0.0, 0.0));
#200 = CARTESIAN_POINT('', (0.0, 0.0, 5.0));
#201 = CARTESIAN_POINT('', (2.0, 2.0, 0.0));
#202 = CARTESIAN_POINT('', (0.0, 0.0, 5.0));
#203 = CARTESIAN_POINT('', (0.0, 2.0, 0.0));
#204 = CARTESIAN_POINT('', (0.0, 0.0, 5.0));
#205 = CARTESIAN_POINT('', (-2.0, 2.0, 0.0));
#206 = CARTESIAN_POINT('', (0.0, 0.0, 5.0));
#207 = CARTESIAN_POINT('', (-2.0, 0.0, 0.0));
#208 = CARTESIAN_POINT('', (0.0, 0.0, 5.0));
#209 = CARTESIAN_POINT('', (-2.0, -2.0, 0.0));
#210 = CARTESIAN_POINT('', (0.0, 0.0, 5.0));
#211 = CARTESIAN_POINT('', (0.0, -2.0, 0.0));
#212 = CARTESIAN_POINT('', (0.0, 0.0, 5.0));
#213 = CARTESIAN_POINT('', (2.0, -2.0, 0.0));
#214 = CARTESIAN_POINT('', (0.0, 0.0, 5.0));
#215 = CARTESIAN_POINT('', (2.0, 0.0, 0.0));
#216 = CARTESIAN_POINT('', (0.0, 0.0, 5.0));
#217 = DEFINITIONAL_REPRESENTATION('', (#219), #218);
#218 = (
    GEOMETRIC_REPRESENTATION_CONTEXT(2)
    PARAMETRIC_REPRESENTATION_CONTEXT()
    REPRESENTATION_CONTEXT('2D SPACE', '')
);
#219 = (
    BOUNDED_CURVE()
    B_SPLINE_CURVE(1, (#220, #221), .UNSPECIFIED., .U., .U.)
    B_SPLINE_CURVE_WITH_KNOTS((2, 2), (0.0, 1.0), .UNSPECIFIED.)
    CURVE()
    GEOMETRIC_REPRESENTATION_ITEM()
    RATIONAL_B_SPLINE_CURVE((1.0, 1.0))
    REPRESENTATION_ITEM('')
);
#220 = CARTESIAN_POINT('', (6.283185307179586, 0.0));
#221 = CARTESIAN_POINT('', (0.0, 0.0));
#222 = SURFACE_CURVE('', #223, (#226), .CURVE_3D.);
#223 = (
    BOUNDED_CURVE()
    B_SPLINE_CURVE(1, (#224, #225), .UNSPECIFIED., .U., .U.)
    B_SPLINE_CURVE_WITH_KNOTS((2, 2), (0.0, 1.0), .UNSPECIFIED.)
    CURVE()
    GEOMETRIC_REPRESENTATION_ITEM()
    RATIONAL_B_SPLINE_CURVE((1.0, 1.0))
    REPRESENTATION_ITEM('')
);
#224 = CARTESIAN_POINT('', (0.0, 0.0, 0.0));
#225 = CARTESIAN_POINT('', (0.0, 0.0, 0.0));
#226 = PCURVE('', #227, #246);
#227 = (
    BOUNDED_SURFACE()
    B_SPLINE_SURFACE(2, 1, ((#228, #229), (#230, #231), (#232, #233), (#234, #235), (#236, #237), (#238, #239), (#240, #241), (#242, #243), (#244, #245)), .UNSPECIFIED., .U., .U., .U.)
    B_SPLINE_SURFACE_WITH_KNOTS((3, 2, 2, 2, 3), (2, 2), (0.0, 1.5707963267948966, 3.141592653589793, 4.71238898038469, 6.283185307179586), (0.0, 2.0), .UNSPECIFIED.)
    GEOMETRIC_REPRESENTATION_ITEM()
    RATIONAL_B_SPLINE_SURFACE(((1.0, 1.0), (0.7071067811865476, 0.7071067811865476), (1.0, 1.0), (0.7071067811865476, 0.7071067811865476), (1.0, 1.0), (0.7071067811865476, 0.7071067811865476), (1.0, 1.0), (0.7071067811865476, 0.7071067811865476), (1.0, 1.0)))
    REPRESENTATION_ITEM('')
    SURFACE()
);
#228 = CARTESIAN_POINT('', (0.0, 0.0, 0.0));
#229 = CARTESIAN_POINT('', (2.0, 0.0, 0.0));
#230 = CARTESIAN_POINT('', (0.0, 0.0, 0.0));
#231 = CARTESIAN_POINT('', (2.0, 2.0, 0.0));
#232 = CARTESIAN_POINT('', (0.0, 0.0, 0.0));
#233 = CARTESIAN_POINT('', (0.0, 2.0, 0.0));
#234 = CARTESIAN_POINT('', (0.0, 0.0, 0.0));
#235 = CARTESIAN_POINT('', (-2.0, 2.0, 0.0));
#236 = CARTESIAN_POINT('', (0.0, 0.0, 0.0));
#237 = CARTESIAN_POINT('', (-2.0, 0.0, 0.0));
#238 = CARTESIAN_POINT('', (0.0, 0.0, 0.0));
#239 = CARTESIAN_POINT('', (-2.0, -2.0, 0.0));
#240 = CARTESIAN_POINT('', (0.0, 0.0, 0.0));
#241 = CARTESIAN_POINT('', (0.0, -2.0, 0.0));
#242 = CARTESIAN_POINT('', (0.0, 0.0, 0.0));
#243 = CARTESIAN_POINT('', (2.0, -2.0, 0.0));
#244 = CARTESIAN_POINT('', (0.0, 0.0, 0.0));
#245 = CARTESIAN_POINT('', (2.0, 0.0, 0.0));
#246 = DEFINITIONAL_REPRESENTATION('', (#248), #247);
#247 = (
    GEOMETRIC_REPRESENTATION_CONTEXT(2)
    PARAMETRIC_REPRESENTATION_CONTEXT()
    REPRESENTATION_CONTEXT('2D SPACE', '')
);
#248 = (
    BOUNDED_CURVE()
    B_SPLINE_CURVE(1, (#249, #250), .UNSPECIFIED., .U., .U.)
    B_SPLINE_CURVE_WITH_KNOTS((2, 2), (0.0, 1.0), .UNSPECIFIED.)
    CURVE()
    GEOMETRIC_REPRESENTATION_ITEM()
    RATIONAL_B_SPLINE_CURVE((1.0, 1.0))
    REPRESENTATION_ITEM('')
);
#249 = CARTESIAN_POINT('', (0.0, 0.0));
#250 = CARTESIAN_POINT('', (6.283185307179586, 0.0));
#251 = SEAM_CURVE('', #252, (#255, #280), .CURVE_3D.);
#252 = (
    BOUNDED_CURVE()
    B_SPLINE_CURVE(1, (#253, #254), .UNSPECIFIED., .U., .U.)
    B_SPLINE_CURVE_WITH_KNOTS((2, 2), (0.0, 2.0), .UNSPECIFIED.)
    CURVE()
    GEOMETRIC_REPRESENTATION_ITEM()
    RATIONAL_B_SPLINE_CURVE((1.0, 1.0))
    REPRESENTATION_ITEM('')
);
#253 = CARTESIAN_POINT('', (0.0, 0.0, 0.0));
#254 = CARTESIAN_POINT('', (2.0, 0.0, 0.0));
#255 = PCURVE('', #256, #275);
#256 = (
    BOUNDED_SURFACE()
    B_SPLINE_SURFACE(2, 1, ((#257, #258), (#259, #260), (#261, #262), (#263, #264), (#265, #266), (#267, #268), (#269, #270), (#271, #272), (#273, #274)), .UNSPECIFIED., .U., .U., .U.)
    B_SPLINE_SURFACE_WITH_KNOTS((3, 2, 2, 2, 3), (2, 2), (0.0, 1.5707963267948966, 3.141592653589793, 4.71238898038469, 6.283185307179586), (0.0, 2.0), .UNSPECIFIED.)
    GEOMETRIC_REPRESENTATION_ITEM()
    RATIONAL_B_SPLINE_SURFACE(((1.0, 1.0), (0.7071067811865476, 0.7071067811865476), (1.0, 1.0), (0.7071067811865476, 0.7071067811865476), (1.0, 1.0), (0.7071067811865476, 0.7071067811865476), (1.0, 1.0), (0.7071067811865476, 0.7071067811865476), (1.0, 1.0)))
    REPRESENTATION_ITEM('')
    SURFACE()
);
#257 = CARTESIAN_POINT('', (0.0, 0.0, 0.0));
#258 = CARTESIAN_POINT('', (2.0, 0.0, 0.0));
#259 = CARTESIAN_POINT('', (0.0, 0.0, 0.0));
#260 = CARTESIAN_POINT('', (2.0, 2.0, 0.0));
#261 = CARTESIAN_POINT('', (0.0, 0.0, 0.0));
#262 = CARTESIAN_POINT('', (0.0, 2.0, 0.0));
#263 = CARTESIAN_POINT('', (0.0, 0.0, 0.0));
#264 = CARTESIAN_POINT('', (-2.0, 2.0, 0.0));
#265 = CARTESIAN_POINT('', (0.0, 0.0, 0.0));
#266 = CARTESIAN_POINT('', (-2.0, 0.0, 0.0));
#267 = CARTESIAN_POINT('', (0.0, 0.0, 0.0));
#268 = CARTESIAN_POINT('', (-2.0, -2.0, 0.0));
#269 = CARTESIAN_POINT('', (0.0, 0.0, 0.0));
#270 = CARTESIAN_POINT('', (0.0, -2.0, 0.0));
#271 = CARTESIAN_POINT('', (0.0, 0.0, 0.0));
#272 = CARTESIAN_POINT('', (2.0, -2.0, 0.0));
#273 = CARTESIAN_POINT('', (0.0, 0.0, 0.0));
#274 = CARTESIAN_POINT('', (2.0, 0.0, 0.0));
#275 = DEFINITIONAL_REPRESENTATION('', (#277), #276);
#276 = (
    GEOMETRIC_REPRESENTATION_CONTEXT(2)
    PARAMETRIC_REPRESENTATION_CONTEXT()
    REPRESENTATION_CONTEXT('2D SPACE', '')
);
#277 = (
    BOUNDED_CURVE()
    B_SPLINE_CURVE(1, (#278, #279), .UNSPECIFIED., .U., .U.)
    B_SPLINE_CURVE_WITH_KNOTS((2, 2), (0.0, 1.0), .UNSPECIFIED.)
    CURVE()
    GEOMETRIC_REPRESENTATION_ITEM()
    RATIONAL_B_SPLINE_CURVE((1.0, 1.0))
    REPRESENTATION_ITEM('')
);
#278 = CARTESIAN_POINT('', (6.283185307179586, 0.0));
#279 = CARTESIAN_POINT('', (6.283185307179586, 2.0));
#280 = PCURVE('', #281, #300);
#281 = (
    BOUNDED_SURFACE()
    B_SPLINE_SURFACE(2, 1, ((#282, #283), (#284, #285), (#286, #287), (#288, #289), (#290, #291), (#292, #293), (#294, #295), (#296, #297), (#298, #299)), .UNSPECIFIED., .U., .U., .U.)
    B_SPLINE_SURFACE_WITH_KNOTS((3, 2, 2, 2, 3), (2, 2), (0.0, 1.5707963267948966, 3.141592653589793, 4.71238898038469, 6.283185307179586), (0.0, 2.0), .UNSPECIFIED.)
    GEOMETRIC_REPRESENTATION_ITEM()
    RATIONAL_B_SPLINE_SURFACE(((1.0, 1.0), (0.7071067811865476, 0.7071067811865476), (1.0, 1.0), (0.7071067811865476, 0.7071067811865476), (1.0, 1.0), (0.7071067811865476, 0.7071067811865476), (1.0, 1.0), (0.7071067811865476, 0.7071067811865476), (1.0, 1.0)))
    REPRESENTATION_ITEM('')
    SURFACE()
);
#282 = CARTESIAN_POINT('', (0.0, 0.0, 0.0));
#283 = CARTESIAN_POINT('', (2.0, 0.0, 0.0));
#284 = CARTESIAN_POINT('', (0.0, 0.0, 0.0));
#285 = CARTESIAN_POINT('', (2.0, 2.0, 0.0));
#286 = CARTESIAN_POINT('', (0.0, 0.0, 0.0));
#287 = CARTESIAN_POINT('', (0.0, 2.0, 0.0));
#288 = CARTESIAN_POINT('', (0.0, 0.0, 0.0));
#289 = CARTESIAN_POINT('', (-2.0, 2.0, 0.0));
#290 = CARTESIAN_POINT('', (0.0, 0.0, 0.0));
#291 = CARTESIAN_POINT('', (-2.0, 0.0, 0.0));
#292 = CARTESIAN_POINT('', (0.0, 0.0, 0.0));
#293 = CARTESIAN_POINT('', (-2.0, -2.0, 0.0));
#294 = CARTESIAN_POINT('', (0.0, 0.0, 0.0));
#295 = CARTESIAN_POINT('', (0.0, -2.0, 0.0));
#296 = CARTESIAN_POINT('', (0.0, 0.0, 0.0));
#297 = CARTESIAN_POINT('', (2.0, -2.0, 0.0));
#298 = CARTESIAN_POINT('', (0.0, 0.0, 0.0));
#299 = CARTESIAN_POINT('', (2.0, 0.0, 0.0));
#300 = DEFINITIONAL_REPRESENTATION('', (#302), #301);
#301 = (
    GEOMETRIC_REPRESENTATION_CONTEXT(2)
    PARAMETRIC_REPRESENTATION_CONTEXT()
    REPRESENTATION_CONTEXT('2D SPACE', '')
);
#302 = (
    BOUNDED_CURVE()
    B_SPLINE_CURVE(1, (#303, #304), .UNSPECIFIED., .U., .U.)
    B_SPLINE_CURVE_WITH_KNOTS((2, 2), (-1.0, -0.0), .UNSPECIFIED.)
    CURVE()
    GEOMETRIC_REPRESENTATION_ITEM()
    RATIONAL_B_SPLINE_CURVE((1.0, 1.0))
    REPRESENTATION_ITEM('')
);
#303 = CARTESIAN_POINT('', (0.0, 0.0));
#304 = CARTESIAN_POINT('', (0.0, 2.0));
#305 = CARTESIAN_POINT('', (2.0E0, 0.0E0, 0.0E0));
#306 = CARTESIAN_POINT('', (0.0E0, 0.0E0, 5.0E0));
#307 = CARTESIAN_POINT('', (0.0E0, 0.0E0, 0.0E0));
ENDSEC;
END-ISO-10303-21;
