ISO-10303-21;
HEADER;
FILE_DESCRIPTION(('Shape Data from monstertruck'), '2;1');
FILE_NAME('', '2026-10-10 07:45:52.427153294', (''), (''), 'monstertruck', 'Viboceros', '');
FILE_SCHEMA(('AUTOMOTIVE_DESIGN'));
ENDSEC;
DATA;
#1 = APPLICATION_PROTOCOL_DEFINITION('international standard', 'automotive_design', 2000, #2);
#2 = APPLICATION_CONTEXT('core data for automotive mechanical design processes');
#3 = SHAPE_DEFINITION_REPRESENTATION(#4, #10);
#4 = PRODUCT_DEFINITION_SHAPE('','', #5);
#5 = PRODUCT_DEFINITION('design','', #6, #9);
#6 = PRODUCT_DEFINITION_FORMATION('','', #7);
#7 = PRODUCT('','','', (#8));
#8 = PRODUCT_CONTEXT('', #2, 'mechanical');
#9 = PRODUCT_DEFINITION_CONTEXT('part definition', #2, 'design');
#10 = ADVANCED_BREP_SHAPE_REPRESENTATION('', (#16), #11);
#11 = (
    GEOMETRIC_REPRESENTATION_CONTEXT(3)
    GLOBAL_UNCERTAINTY_ASSIGNED_CONTEXT((#15))
    GLOBAL_UNIT_ASSIGNED_CONTEXT((#12, #13, #14))
    REPRESENTATION_CONTEXT('Context #1', '3D Context with UNIT and UNCERTAINTY')
);
#12 = ( LENGTH_UNIT() NAMED_UNIT(*) SI_UNIT(.MILLI.,.METRE.) );
#13 = ( NAMED_UNIT(*) PLANE_ANGLE_UNIT() SI_UNIT($,.RADIAN.) );
#14 = ( NAMED_UNIT(*) SI_UNIT($,.STERADIAN.) SOLID_ANGLE_UNIT() );
#15 = UNCERTAINTY_MEASURE_WITH_UNIT(LENGTH_MEASURE(1.0E-6), #12, 'distance_accuracy_value','confusion accuracy');
#16 = SHELL_BASED_SURFACE_MODEL('', (#17));
#17 = OPEN_SHELL('', (#18, #25, #35, #42, #49, #56, #63));
#18 = ADVANCED_FACE('', (#19), #95, .T.);
#19 = FACE_BOUND('', #20, .T.);
#20 = EDGE_LOOP('', (#21, #22, #23, #24));
#21 = ORIENTED_EDGE('', *, *, #70, .T.);
#22 = ORIENTED_EDGE('', *, *, #71, .T.);
#23 = ORIENTED_EDGE('', *, *, #72, .F.);
#24 = ORIENTED_EDGE('', *, *, #73, .F.);
#25 = ADVANCED_FACE('', (#26, #32), #100, .T.);
#26 = FACE_BOUND('', #27, .T.);
#27 = EDGE_LOOP('', (#28, #29, #30, #31));
#28 = ORIENTED_EDGE('', *, *, #74, .F.);
#29 = ORIENTED_EDGE('', *, *, #75, .T.);
#30 = ORIENTED_EDGE('', *, *, #76, .T.);
#31 = ORIENTED_EDGE('', *, *, #77, .F.);
#32 = FACE_BOUND('', #33, .T.);
#33 = EDGE_LOOP('', (#34));
#34 = ORIENTED_EDGE('', *, *, #78, .F.);
#35 = ADVANCED_FACE('', (#36), #105, .T.);
#36 = FACE_BOUND('', #37, .T.);
#37 = EDGE_LOOP('', (#38, #39, #40, #41));
#38 = ORIENTED_EDGE('', *, *, #79, .T.);
#39 = ORIENTED_EDGE('', *, *, #74, .T.);
#40 = ORIENTED_EDGE('', *, *, #80, .F.);
#41 = ORIENTED_EDGE('', *, *, #70, .F.);
#42 = ADVANCED_FACE('', (#43), #110, .T.);
#43 = FACE_BOUND('', #44, .T.);
#44 = EDGE_LOOP('', (#45, #46, #47, #48));
#45 = ORIENTED_EDGE('', *, *, #81, .F.);
#46 = ORIENTED_EDGE('', *, *, #72, .T.);
#47 = ORIENTED_EDGE('', *, *, #82, .T.);
#48 = ORIENTED_EDGE('', *, *, #76, .F.);
#49 = ADVANCED_FACE('', (#50), #115, .T.);
#50 = FACE_BOUND('', #51, .T.);
#51 = EDGE_LOOP('', (#52, #53, #54, #55));
#52 = ORIENTED_EDGE('', *, *, #79, .F.);
#53 = ORIENTED_EDGE('', *, *, #73, .T.);
#54 = ORIENTED_EDGE('', *, *, #81, .T.);
#55 = ORIENTED_EDGE('', *, *, #75, .F.);
#56 = ADVANCED_FACE('', (#57), #120, .T.);
#57 = FACE_BOUND('', #58, .T.);
#58 = EDGE_LOOP('', (#59, #60, #61, #62));
#59 = ORIENTED_EDGE('', *, *, #80, .T.);
#60 = ORIENTED_EDGE('', *, *, #77, .T.);
#61 = ORIENTED_EDGE('', *, *, #82, .F.);
#62 = ORIENTED_EDGE('', *, *, #71, .F.);
#63 = ADVANCED_FACE('', (#64), #125, .F.);
#64 = FACE_BOUND('', #65, .F.);
#65 = EDGE_LOOP('', (#66, #67, #68, #69));
#66 = ORIENTED_EDGE('', *, *, #78, .F.);
#67 = ORIENTED_EDGE('', *, *, #83, .F.);
#68 = ORIENTED_EDGE('', *, *, #84, .T.);
#69 = ORIENTED_EDGE('', *, *, #83, .T.);
#70 = EDGE_CURVE('', #85, #86, #171, .T.);
#71 = EDGE_CURVE('', #86, #87, #197, .T.);
#72 = EDGE_CURVE('', #88, #87, #223, .T.);
#73 = EDGE_CURVE('', #85, #88, #249, .T.);
#74 = EDGE_CURVE('', #89, #90, #275, .T.);
#75 = EDGE_CURVE('', #89, #91, #301, .T.);
#76 = EDGE_CURVE('', #91, #92, #327, .T.);
#77 = EDGE_CURVE('', #90, #92, #353, .T.);
#78 = EDGE_CURVE('', #93, #93, #379, .T.);
#79 = EDGE_CURVE('', #85, #89, #460, .T.);
#80 = EDGE_CURVE('', #86, #90, #486, .T.);
#81 = EDGE_CURVE('', #88, #91, #512, .T.);
#82 = EDGE_CURVE('', #87, #92, #538, .T.);
#83 = EDGE_CURVE('', #94, #93, #564, .T.);
#84 = EDGE_CURVE('', #94, #94, #673, .T.);
#85 = VERTEX_POINT('', #729);
#86 = VERTEX_POINT('', #730);
#87 = VERTEX_POINT('', #731);
#88 = VERTEX_POINT('', #732);
#89 = VERTEX_POINT('', #733);
#90 = VERTEX_POINT('', #734);
#91 = VERTEX_POINT('', #735);
#92 = VERTEX_POINT('', #736);
#93 = VERTEX_POINT('', #737);
#94 = VERTEX_POINT('', #738);
#95 = (
    BOUNDED_SURFACE()
    B_SPLINE_SURFACE(1, 1, ((#96, #97), (#98, #99)), .UNSPECIFIED., .U., .U., .U.)
    B_SPLINE_SURFACE_WITH_KNOTS((2, 2), (2, 2), (0.0, 10.0), (0.0, 10.0), .UNSPECIFIED.)
    GEOMETRIC_REPRESENTATION_ITEM()
    RATIONAL_B_SPLINE_SURFACE(((1.0, 1.0), (1.0, 1.0)))
    REPRESENTATION_ITEM('')
    SURFACE()
);
#96 = CARTESIAN_POINT('', (0.0, 0.0, 0.0));
#97 = CARTESIAN_POINT('', (10.0, 0.0, 0.0));
#98 = CARTESIAN_POINT('', (0.0, 10.0, 0.0));
#99 = CARTESIAN_POINT('', (10.0, 10.0, 0.0));
#100 = (
    BOUNDED_SURFACE()
    B_SPLINE_SURFACE(1, 1, ((#101, #102), (#103, #104)), .UNSPECIFIED., .U., .U., .U.)
    B_SPLINE_SURFACE_WITH_KNOTS((2, 2), (2, 2), (0.0, 10.0), (0.0, 10.0), .UNSPECIFIED.)
    GEOMETRIC_REPRESENTATION_ITEM()
    RATIONAL_B_SPLINE_SURFACE(((1.0, 1.0), (1.0, 1.0)))
    REPRESENTATION_ITEM('')
    SURFACE()
);
#101 = CARTESIAN_POINT('', (0.0, 0.0, 10.0));
#102 = CARTESIAN_POINT('', (0.0, 10.0, 10.0));
#103 = CARTESIAN_POINT('', (10.0, 0.0, 10.0));
#104 = CARTESIAN_POINT('', (10.0, 10.0, 10.0));
#105 = (
    BOUNDED_SURFACE()
    B_SPLINE_SURFACE(1, 1, ((#106, #107), (#108, #109)), .UNSPECIFIED., .U., .U., .U.)
    B_SPLINE_SURFACE_WITH_KNOTS((2, 2), (2, 2), (0.0, 10.0), (0.0, 10.0), .UNSPECIFIED.)
    GEOMETRIC_REPRESENTATION_ITEM()
    RATIONAL_B_SPLINE_SURFACE(((1.0, 1.0), (1.0, 1.0)))
    REPRESENTATION_ITEM('')
    SURFACE()
);
#106 = CARTESIAN_POINT('', (0.0, 0.0, 0.0));
#107 = CARTESIAN_POINT('', (0.0, 10.0, 0.0));
#108 = CARTESIAN_POINT('', (0.0, 0.0, 10.0));
#109 = CARTESIAN_POINT('', (0.0, 10.0, 10.0));
#110 = (
    BOUNDED_SURFACE()
    B_SPLINE_SURFACE(1, 1, ((#111, #112), (#113, #114)), .UNSPECIFIED., .U., .U., .U.)
    B_SPLINE_SURFACE_WITH_KNOTS((2, 2), (2, 2), (0.0, 10.0), (0.0, 10.0), .UNSPECIFIED.)
    GEOMETRIC_REPRESENTATION_ITEM()
    RATIONAL_B_SPLINE_SURFACE(((1.0, 1.0), (1.0, 1.0)))
    REPRESENTATION_ITEM('')
    SURFACE()
);
#111 = CARTESIAN_POINT('', (10.0, 0.0, 0.0));
#112 = CARTESIAN_POINT('', (10.0, 0.0, 10.0));
#113 = CARTESIAN_POINT('', (10.0, 10.0, 0.0));
#114 = CARTESIAN_POINT('', (10.0, 10.0, 10.0));
#115 = (
    BOUNDED_SURFACE()
    B_SPLINE_SURFACE(1, 1, ((#116, #117), (#118, #119)), .UNSPECIFIED., .U., .U., .U.)
    B_SPLINE_SURFACE_WITH_KNOTS((2, 2), (2, 2), (0.0, 10.0), (0.0, 10.0), .UNSPECIFIED.)
    GEOMETRIC_REPRESENTATION_ITEM()
    RATIONAL_B_SPLINE_SURFACE(((1.0, 1.0), (1.0, 1.0)))
    REPRESENTATION_ITEM('')
    SURFACE()
);
#116 = CARTESIAN_POINT('', (0.0, 0.0, 0.0));
#117 = CARTESIAN_POINT('', (0.0, 0.0, 10.0));
#118 = CARTESIAN_POINT('', (10.0, 0.0, 0.0));
#119 = CARTESIAN_POINT('', (10.0, 0.0, 10.0));
#120 = (
    BOUNDED_SURFACE()
    B_SPLINE_SURFACE(1, 1, ((#121, #122), (#123, #124)), .UNSPECIFIED., .U., .U., .U.)
    B_SPLINE_SURFACE_WITH_KNOTS((2, 2), (2, 2), (0.0, 10.0), (0.0, 10.0), .UNSPECIFIED.)
    GEOMETRIC_REPRESENTATION_ITEM()
    RATIONAL_B_SPLINE_SURFACE(((1.0, 1.0), (1.0, 1.0)))
    REPRESENTATION_ITEM('')
    SURFACE()
);
#121 = CARTESIAN_POINT('', (0.0, 10.0, 0.0));
#122 = CARTESIAN_POINT('', (10.0, 10.0, 0.0));
#123 = CARTESIAN_POINT('', (0.0, 10.0, 10.0));
#124 = CARTESIAN_POINT('', (10.0, 10.0, 10.0));
#125 = (
    BOUNDED_SURFACE()
    B_SPLINE_SURFACE(2, 2, ((#126, #127, #128, #129, #130), (#131, #132, #133, #134, #135), (#136, #137, #138, #139, #140), (#141, #142, #143, #144, #145), (#146, #147, #148, #149, #150), (#151, #152, #153, #154, #155), (#156, #157, #158, #159, #160), (#161, #162, #163, #164, #165), (#166, #167, #168, #169, #170)), .UNSPECIFIED., .U., .U., .U.)
    B_SPLINE_SURFACE_WITH_KNOTS((3, 2, 2, 2, 3), (3, 2, 3), (0.0, 0.25, 0.5, 0.75, 1.0), (0.0, 0.5, 1.0), .UNSPECIFIED.)
    GEOMETRIC_REPRESENTATION_ITEM()
    RATIONAL_B_SPLINE_SURFACE(((1.0, 0.7071067811865476, 1.0, 0.7071067811865476, 1.0), (0.7071067811865476, 0.5000000000000001, 0.7071067811865476, 0.5000000000000001, 0.7071067811865476), (1.0, 0.7071067811865476, 1.0, 0.7071067811865476, 1.0), (0.7071067811865476, 0.5000000000000001, 0.7071067811865476, 0.5000000000000001, 0.7071067811865476), (1.0, 0.7071067811865476, 1.0, 0.7071067811865476, 1.0), (0.7071067811865476, 0.5000000000000001, 0.7071067811865476, 0.5000000000000001, 0.7071067811865476), (1.0, 0.7071067811865476, 1.0, 0.7071067811865476, 1.0), (0.7071067811865476, 0.5000000000000001, 0.7071067811865476, 0.5000000000000001, 0.7071067811865476), (1.0, 0.7071067811865476, 1.0, 0.7071067811865476, 1.0)))
    REPRESENTATION_ITEM('')
    SURFACE()
);
#126 = CARTESIAN_POINT('', (5.0, 5.0, 8.0));
#127 = CARTESIAN_POINT('', (6.999999999999999, 5.0, 8.0));
#128 = CARTESIAN_POINT('', (7.0, 5.0, 10.0));
#129 = CARTESIAN_POINT('', (6.999999999999999, 5.0, 12.0));
#130 = CARTESIAN_POINT('', (5.000000000000001, 5.0, 12.0));
#131 = CARTESIAN_POINT('', (5.0, 5.0, 8.0));
#132 = CARTESIAN_POINT('', (6.999999999999999, 6.999999999999999, 8.0));
#133 = CARTESIAN_POINT('', (6.999999999999999, 6.999999999999999, 10.0));
#134 = CARTESIAN_POINT('', (6.999999999999999, 6.999999999999999, 12.0));
#135 = CARTESIAN_POINT('', (5.000000000000001, 5.0, 12.0));
#136 = CARTESIAN_POINT('', (5.0, 5.0, 8.0));
#137 = CARTESIAN_POINT('', (5.0, 6.999999999999999, 8.0));
#138 = CARTESIAN_POINT('', (5.0, 7.0, 10.0));
#139 = CARTESIAN_POINT('', (5.0, 6.999999999999999, 12.0));
#140 = CARTESIAN_POINT('', (5.000000000000001, 5.0, 12.0));
#141 = CARTESIAN_POINT('', (5.0, 5.0, 8.0));
#142 = CARTESIAN_POINT('', (3.0000000000000013, 6.999999999999999, 8.0));
#143 = CARTESIAN_POINT('', (3.0, 6.999999999999999, 10.0));
#144 = CARTESIAN_POINT('', (3.0000000000000013, 6.999999999999999, 12.0));
#145 = CARTESIAN_POINT('', (5.000000000000001, 5.0, 12.0));
#146 = CARTESIAN_POINT('', (5.0, 5.0, 8.0));
#147 = CARTESIAN_POINT('', (3.000000000000001, 5.0, 8.0));
#148 = CARTESIAN_POINT('', (3.0, 5.0, 10.0));
#149 = CARTESIAN_POINT('', (3.000000000000001, 5.0, 12.0));
#150 = CARTESIAN_POINT('', (5.000000000000001, 5.0, 12.0));
#151 = CARTESIAN_POINT('', (5.0, 5.0, 8.0));
#152 = CARTESIAN_POINT('', (3.000000000000001, 3.0000000000000013, 8.0));
#153 = CARTESIAN_POINT('', (2.9999999999999996, 3.0, 10.0));
#154 = CARTESIAN_POINT('', (3.000000000000001, 3.0000000000000013, 12.0));
#155 = CARTESIAN_POINT('', (5.000000000000001, 5.0, 12.0));
#156 = CARTESIAN_POINT('', (5.0, 5.0, 8.0));
#157 = CARTESIAN_POINT('', (5.0, 3.000000000000001, 8.0));
#158 = CARTESIAN_POINT('', (5.0, 3.0, 10.0));
#159 = CARTESIAN_POINT('', (5.0, 3.000000000000001, 12.0));
#160 = CARTESIAN_POINT('', (5.000000000000001, 5.0, 12.0));
#161 = CARTESIAN_POINT('', (5.0, 5.0, 8.0));
#162 = CARTESIAN_POINT('', (6.999999999999998, 3.000000000000001, 8.0));
#163 = CARTESIAN_POINT('', (6.999999999999999, 3.0, 10.0));
#164 = CARTESIAN_POINT('', (6.999999999999998, 3.000000000000001, 12.0));
#165 = CARTESIAN_POINT('', (5.000000000000001, 5.0, 12.0));
#166 = CARTESIAN_POINT('', (5.0, 5.0, 8.0));
#167 = CARTESIAN_POINT('', (6.999999999999999, 5.0, 8.0));
#168 = CARTESIAN_POINT('', (7.0, 5.0, 10.0));
#169 = CARTESIAN_POINT('', (6.999999999999999, 5.0, 12.0));
#170 = CARTESIAN_POINT('', (5.000000000000001, 5.0, 12.0));
#171 = SURFACE_CURVE('', #172, (#175, #186), .CURVE_3D.);
#172 = (
    BOUNDED_CURVE()
    B_SPLINE_CURVE(1, (#173, #174), .UNSPECIFIED., .U., .U.)
    B_SPLINE_CURVE_WITH_KNOTS((2, 2), (0.0, 10.0), .UNSPECIFIED.)
    CURVE()
    GEOMETRIC_REPRESENTATION_ITEM()
    RATIONAL_B_SPLINE_CURVE((1.0, 1.0))
    REPRESENTATION_ITEM('')
);
#173 = CARTESIAN_POINT('', (0.0, 0.0, 0.0));
#174 = CARTESIAN_POINT('', (0.0, 10.0, 0.0));
#175 = PCURVE('', #176, #181);
#176 = (
    BOUNDED_SURFACE()
    B_SPLINE_SURFACE(1, 1, ((#177, #178), (#179, #180)), .UNSPECIFIED., .U., .U., .U.)
    B_SPLINE_SURFACE_WITH_KNOTS((2, 2), (2, 2), (0.0, 10.0), (0.0, 10.0), .UNSPECIFIED.)
    GEOMETRIC_REPRESENTATION_ITEM()
    RATIONAL_B_SPLINE_SURFACE(((1.0, 1.0), (1.0, 1.0)))
    REPRESENTATION_ITEM('')
    SURFACE()
);
#177 = CARTESIAN_POINT('', (0.0, 0.0, 0.0));
#178 = CARTESIAN_POINT('', (10.0, 0.0, 0.0));
#179 = CARTESIAN_POINT('', (0.0, 10.0, 0.0));
#180 = CARTESIAN_POINT('', (10.0, 10.0, 0.0));
#181 = DEFINITIONAL_REPRESENTATION('', (#183), #182);
#182 = (
    GEOMETRIC_REPRESENTATION_CONTEXT(2)
    PARAMETRIC_REPRESENTATION_CONTEXT()
    REPRESENTATION_CONTEXT('2D SPACE', '')
);
#183 = (
    BOUNDED_CURVE()
    B_SPLINE_CURVE(1, (#184, #185), .UNSPECIFIED., .U., .U.)
    B_SPLINE_CURVE_WITH_KNOTS((2, 2), (0.0, 10.0), .UNSPECIFIED.)
    CURVE()
    GEOMETRIC_REPRESENTATION_ITEM()
    RATIONAL_B_SPLINE_CURVE((1.0, 1.0))
    REPRESENTATION_ITEM('')
);
#184 = CARTESIAN_POINT('', (0.0, 0.0));
#185 = CARTESIAN_POINT('', (10.0, 0.0));
#186 = PCURVE('', #187, #192);
#187 = (
    BOUNDED_SURFACE()
    B_SPLINE_SURFACE(1, 1, ((#188, #189), (#190, #191)), .UNSPECIFIED., .U., .U., .U.)
    B_SPLINE_SURFACE_WITH_KNOTS((2, 2), (2, 2), (0.0, 10.0), (0.0, 10.0), .UNSPECIFIED.)
    GEOMETRIC_REPRESENTATION_ITEM()
    RATIONAL_B_SPLINE_SURFACE(((1.0, 1.0), (1.0, 1.0)))
    REPRESENTATION_ITEM('')
    SURFACE()
);
#188 = CARTESIAN_POINT('', (0.0, 0.0, 0.0));
#189 = CARTESIAN_POINT('', (0.0, 10.0, 0.0));
#190 = CARTESIAN_POINT('', (0.0, 0.0, 10.0));
#191 = CARTESIAN_POINT('', (0.0, 10.0, 10.0));
#192 = DEFINITIONAL_REPRESENTATION('', (#194), #193);
#193 = (
    GEOMETRIC_REPRESENTATION_CONTEXT(2)
    PARAMETRIC_REPRESENTATION_CONTEXT()
    REPRESENTATION_CONTEXT('2D SPACE', '')
);
#194 = (
    BOUNDED_CURVE()
    B_SPLINE_CURVE(1, (#195, #196), .UNSPECIFIED., .U., .U.)
    B_SPLINE_CURVE_WITH_KNOTS((2, 2), (0.0, 10.0), .UNSPECIFIED.)
    CURVE()
    GEOMETRIC_REPRESENTATION_ITEM()
    RATIONAL_B_SPLINE_CURVE((1.0, 1.0))
    REPRESENTATION_ITEM('')
);
#195 = CARTESIAN_POINT('', (0.0, 0.0));
#196 = CARTESIAN_POINT('', (0.0, 10.0));
#197 = SURFACE_CURVE('', #198, (#201, #212), .CURVE_3D.);
#198 = (
    BOUNDED_CURVE()
    B_SPLINE_CURVE(1, (#199, #200), .UNSPECIFIED., .U., .U.)
    B_SPLINE_CURVE_WITH_KNOTS((2, 2), (0.0, 10.0), .UNSPECIFIED.)
    CURVE()
    GEOMETRIC_REPRESENTATION_ITEM()
    RATIONAL_B_SPLINE_CURVE((1.0, 1.0))
    REPRESENTATION_ITEM('')
);
#199 = CARTESIAN_POINT('', (0.0, 10.0, 0.0));
#200 = CARTESIAN_POINT('', (10.0, 10.0, 0.0));
#201 = PCURVE('', #202, #207);
#202 = (
    BOUNDED_SURFACE()
    B_SPLINE_SURFACE(1, 1, ((#203, #204), (#205, #206)), .UNSPECIFIED., .U., .U., .U.)
    B_SPLINE_SURFACE_WITH_KNOTS((2, 2), (2, 2), (0.0, 10.0), (0.0, 10.0), .UNSPECIFIED.)
    GEOMETRIC_REPRESENTATION_ITEM()
    RATIONAL_B_SPLINE_SURFACE(((1.0, 1.0), (1.0, 1.0)))
    REPRESENTATION_ITEM('')
    SURFACE()
);
#203 = CARTESIAN_POINT('', (0.0, 0.0, 0.0));
#204 = CARTESIAN_POINT('', (10.0, 0.0, 0.0));
#205 = CARTESIAN_POINT('', (0.0, 10.0, 0.0));
#206 = CARTESIAN_POINT('', (10.0, 10.0, 0.0));
#207 = DEFINITIONAL_REPRESENTATION('', (#209), #208);
#208 = (
    GEOMETRIC_REPRESENTATION_CONTEXT(2)
    PARAMETRIC_REPRESENTATION_CONTEXT()
    REPRESENTATION_CONTEXT('2D SPACE', '')
);
#209 = (
    BOUNDED_CURVE()
    B_SPLINE_CURVE(1, (#210, #211), .UNSPECIFIED., .U., .U.)
    B_SPLINE_CURVE_WITH_KNOTS((2, 2), (0.0, 10.0), .UNSPECIFIED.)
    CURVE()
    GEOMETRIC_REPRESENTATION_ITEM()
    RATIONAL_B_SPLINE_CURVE((1.0, 1.0))
    REPRESENTATION_ITEM('')
);
#210 = CARTESIAN_POINT('', (10.0, 0.0));
#211 = CARTESIAN_POINT('', (10.0, 10.0));
#212 = PCURVE('', #213, #218);
#213 = (
    BOUNDED_SURFACE()
    B_SPLINE_SURFACE(1, 1, ((#214, #215), (#216, #217)), .UNSPECIFIED., .U., .U., .U.)
    B_SPLINE_SURFACE_WITH_KNOTS((2, 2), (2, 2), (0.0, 10.0), (0.0, 10.0), .UNSPECIFIED.)
    GEOMETRIC_REPRESENTATION_ITEM()
    RATIONAL_B_SPLINE_SURFACE(((1.0, 1.0), (1.0, 1.0)))
    REPRESENTATION_ITEM('')
    SURFACE()
);
#214 = CARTESIAN_POINT('', (0.0, 10.0, 0.0));
#215 = CARTESIAN_POINT('', (10.0, 10.0, 0.0));
#216 = CARTESIAN_POINT('', (0.0, 10.0, 10.0));
#217 = CARTESIAN_POINT('', (10.0, 10.0, 10.0));
#218 = DEFINITIONAL_REPRESENTATION('', (#220), #219);
#219 = (
    GEOMETRIC_REPRESENTATION_CONTEXT(2)
    PARAMETRIC_REPRESENTATION_CONTEXT()
    REPRESENTATION_CONTEXT('2D SPACE', '')
);
#220 = (
    BOUNDED_CURVE()
    B_SPLINE_CURVE(1, (#221, #222), .UNSPECIFIED., .U., .U.)
    B_SPLINE_CURVE_WITH_KNOTS((2, 2), (0.0, 10.0), .UNSPECIFIED.)
    CURVE()
    GEOMETRIC_REPRESENTATION_ITEM()
    RATIONAL_B_SPLINE_CURVE((1.0, 1.0))
    REPRESENTATION_ITEM('')
);
#221 = CARTESIAN_POINT('', (0.0, 0.0));
#222 = CARTESIAN_POINT('', (0.0, 10.0));
#223 = SURFACE_CURVE('', #224, (#227, #238), .CURVE_3D.);
#224 = (
    BOUNDED_CURVE()
    B_SPLINE_CURVE(1, (#225, #226), .UNSPECIFIED., .U., .U.)
    B_SPLINE_CURVE_WITH_KNOTS((2, 2), (0.0, 10.0), .UNSPECIFIED.)
    CURVE()
    GEOMETRIC_REPRESENTATION_ITEM()
    RATIONAL_B_SPLINE_CURVE((1.0, 1.0))
    REPRESENTATION_ITEM('')
);
#225 = CARTESIAN_POINT('', (10.0, 0.0, 0.0));
#226 = CARTESIAN_POINT('', (10.0, 10.0, 0.0));
#227 = PCURVE('', #228, #233);
#228 = (
    BOUNDED_SURFACE()
    B_SPLINE_SURFACE(1, 1, ((#229, #230), (#231, #232)), .UNSPECIFIED., .U., .U., .U.)
    B_SPLINE_SURFACE_WITH_KNOTS((2, 2), (2, 2), (0.0, 10.0), (0.0, 10.0), .UNSPECIFIED.)
    GEOMETRIC_REPRESENTATION_ITEM()
    RATIONAL_B_SPLINE_SURFACE(((1.0, 1.0), (1.0, 1.0)))
    REPRESENTATION_ITEM('')
    SURFACE()
);
#229 = CARTESIAN_POINT('', (0.0, 0.0, 0.0));
#230 = CARTESIAN_POINT('', (10.0, 0.0, 0.0));
#231 = CARTESIAN_POINT('', (0.0, 10.0, 0.0));
#232 = CARTESIAN_POINT('', (10.0, 10.0, 0.0));
#233 = DEFINITIONAL_REPRESENTATION('', (#235), #234);
#234 = (
    GEOMETRIC_REPRESENTATION_CONTEXT(2)
    PARAMETRIC_REPRESENTATION_CONTEXT()
    REPRESENTATION_CONTEXT('2D SPACE', '')
);
#235 = (
    BOUNDED_CURVE()
    B_SPLINE_CURVE(1, (#236, #237), .UNSPECIFIED., .U., .U.)
    B_SPLINE_CURVE_WITH_KNOTS((2, 2), (0.0, 10.0), .UNSPECIFIED.)
    CURVE()
    GEOMETRIC_REPRESENTATION_ITEM()
    RATIONAL_B_SPLINE_CURVE((1.0, 1.0))
    REPRESENTATION_ITEM('')
);
#236 = CARTESIAN_POINT('', (0.0, 10.0));
#237 = CARTESIAN_POINT('', (10.0, 10.0));
#238 = PCURVE('', #239, #244);
#239 = (
    BOUNDED_SURFACE()
    B_SPLINE_SURFACE(1, 1, ((#240, #241), (#242, #243)), .UNSPECIFIED., .U., .U., .U.)
    B_SPLINE_SURFACE_WITH_KNOTS((2, 2), (2, 2), (0.0, 10.0), (0.0, 10.0), .UNSPECIFIED.)
    GEOMETRIC_REPRESENTATION_ITEM()
    RATIONAL_B_SPLINE_SURFACE(((1.0, 1.0), (1.0, 1.0)))
    REPRESENTATION_ITEM('')
    SURFACE()
);
#240 = CARTESIAN_POINT('', (10.0, 0.0, 0.0));
#241 = CARTESIAN_POINT('', (10.0, 0.0, 10.0));
#242 = CARTESIAN_POINT('', (10.0, 10.0, 0.0));
#243 = CARTESIAN_POINT('', (10.0, 10.0, 10.0));
#244 = DEFINITIONAL_REPRESENTATION('', (#246), #245);
#245 = (
    GEOMETRIC_REPRESENTATION_CONTEXT(2)
    PARAMETRIC_REPRESENTATION_CONTEXT()
    REPRESENTATION_CONTEXT('2D SPACE', '')
);
#246 = (
    BOUNDED_CURVE()
    B_SPLINE_CURVE(1, (#247, #248), .UNSPECIFIED., .U., .U.)
    B_SPLINE_CURVE_WITH_KNOTS((2, 2), (0.0, 10.0), .UNSPECIFIED.)
    CURVE()
    GEOMETRIC_REPRESENTATION_ITEM()
    RATIONAL_B_SPLINE_CURVE((1.0, 1.0))
    REPRESENTATION_ITEM('')
);
#247 = CARTESIAN_POINT('', (0.0, 0.0));
#248 = CARTESIAN_POINT('', (10.0, 0.0));
#249 = SURFACE_CURVE('', #250, (#253, #264), .CURVE_3D.);
#250 = (
    BOUNDED_CURVE()
    B_SPLINE_CURVE(1, (#251, #252), .UNSPECIFIED., .U., .U.)
    B_SPLINE_CURVE_WITH_KNOTS((2, 2), (0.0, 10.0), .UNSPECIFIED.)
    CURVE()
    GEOMETRIC_REPRESENTATION_ITEM()
    RATIONAL_B_SPLINE_CURVE((1.0, 1.0))
    REPRESENTATION_ITEM('')
);
#251 = CARTESIAN_POINT('', (0.0, 0.0, 0.0));
#252 = CARTESIAN_POINT('', (10.0, 0.0, 0.0));
#253 = PCURVE('', #254, #259);
#254 = (
    BOUNDED_SURFACE()
    B_SPLINE_SURFACE(1, 1, ((#255, #256), (#257, #258)), .UNSPECIFIED., .U., .U., .U.)
    B_SPLINE_SURFACE_WITH_KNOTS((2, 2), (2, 2), (0.0, 10.0), (0.0, 10.0), .UNSPECIFIED.)
    GEOMETRIC_REPRESENTATION_ITEM()
    RATIONAL_B_SPLINE_SURFACE(((1.0, 1.0), (1.0, 1.0)))
    REPRESENTATION_ITEM('')
    SURFACE()
);
#255 = CARTESIAN_POINT('', (0.0, 0.0, 0.0));
#256 = CARTESIAN_POINT('', (10.0, 0.0, 0.0));
#257 = CARTESIAN_POINT('', (0.0, 10.0, 0.0));
#258 = CARTESIAN_POINT('', (10.0, 10.0, 0.0));
#259 = DEFINITIONAL_REPRESENTATION('', (#261), #260);
#260 = (
    GEOMETRIC_REPRESENTATION_CONTEXT(2)
    PARAMETRIC_REPRESENTATION_CONTEXT()
    REPRESENTATION_CONTEXT('2D SPACE', '')
);
#261 = (
    BOUNDED_CURVE()
    B_SPLINE_CURVE(1, (#262, #263), .UNSPECIFIED., .U., .U.)
    B_SPLINE_CURVE_WITH_KNOTS((2, 2), (0.0, 10.0), .UNSPECIFIED.)
    CURVE()
    GEOMETRIC_REPRESENTATION_ITEM()
    RATIONAL_B_SPLINE_CURVE((1.0, 1.0))
    REPRESENTATION_ITEM('')
);
#262 = CARTESIAN_POINT('', (0.0, 0.0));
#263 = CARTESIAN_POINT('', (0.0, 10.0));
#264 = PCURVE('', #265, #270);
#265 = (
    BOUNDED_SURFACE()
    B_SPLINE_SURFACE(1, 1, ((#266, #267), (#268, #269)), .UNSPECIFIED., .U., .U., .U.)
    B_SPLINE_SURFACE_WITH_KNOTS((2, 2), (2, 2), (0.0, 10.0), (0.0, 10.0), .UNSPECIFIED.)
    GEOMETRIC_REPRESENTATION_ITEM()
    RATIONAL_B_SPLINE_SURFACE(((1.0, 1.0), (1.0, 1.0)))
    REPRESENTATION_ITEM('')
    SURFACE()
);
#266 = CARTESIAN_POINT('', (0.0, 0.0, 0.0));
#267 = CARTESIAN_POINT('', (0.0, 0.0, 10.0));
#268 = CARTESIAN_POINT('', (10.0, 0.0, 0.0));
#269 = CARTESIAN_POINT('', (10.0, 0.0, 10.0));
#270 = DEFINITIONAL_REPRESENTATION('', (#272), #271);
#271 = (
    GEOMETRIC_REPRESENTATION_CONTEXT(2)
    PARAMETRIC_REPRESENTATION_CONTEXT()
    REPRESENTATION_CONTEXT('2D SPACE', '')
);
#272 = (
    BOUNDED_CURVE()
    B_SPLINE_CURVE(1, (#273, #274), .UNSPECIFIED., .U., .U.)
    B_SPLINE_CURVE_WITH_KNOTS((2, 2), (0.0, 10.0), .UNSPECIFIED.)
    CURVE()
    GEOMETRIC_REPRESENTATION_ITEM()
    RATIONAL_B_SPLINE_CURVE((1.0, 1.0))
    REPRESENTATION_ITEM('')
);
#273 = CARTESIAN_POINT('', (0.0, 0.0));
#274 = CARTESIAN_POINT('', (10.0, 0.0));
#275 = SURFACE_CURVE('', #276, (#279, #290), .CURVE_3D.);
#276 = (
    BOUNDED_CURVE()
    B_SPLINE_CURVE(1, (#277, #278), .UNSPECIFIED., .U., .U.)
    B_SPLINE_CURVE_WITH_KNOTS((2, 2), (0.0, 10.0), .UNSPECIFIED.)
    CURVE()
    GEOMETRIC_REPRESENTATION_ITEM()
    RATIONAL_B_SPLINE_CURVE((1.0, 1.0))
    REPRESENTATION_ITEM('')
);
#277 = CARTESIAN_POINT('', (0.0, 0.0, 10.0));
#278 = CARTESIAN_POINT('', (0.0, 10.0, 10.0));
#279 = PCURVE('', #280, #285);
#280 = (
    BOUNDED_SURFACE()
    B_SPLINE_SURFACE(1, 1, ((#281, #282), (#283, #284)), .UNSPECIFIED., .U., .U., .U.)
    B_SPLINE_SURFACE_WITH_KNOTS((2, 2), (2, 2), (0.0, 10.0), (0.0, 10.0), .UNSPECIFIED.)
    GEOMETRIC_REPRESENTATION_ITEM()
    RATIONAL_B_SPLINE_SURFACE(((1.0, 1.0), (1.0, 1.0)))
    REPRESENTATION_ITEM('')
    SURFACE()
);
#281 = CARTESIAN_POINT('', (0.0, 0.0, 10.0));
#282 = CARTESIAN_POINT('', (0.0, 10.0, 10.0));
#283 = CARTESIAN_POINT('', (10.0, 0.0, 10.0));
#284 = CARTESIAN_POINT('', (10.0, 10.0, 10.0));
#285 = DEFINITIONAL_REPRESENTATION('', (#287), #286);
#286 = (
    GEOMETRIC_REPRESENTATION_CONTEXT(2)
    PARAMETRIC_REPRESENTATION_CONTEXT()
    REPRESENTATION_CONTEXT('2D SPACE', '')
);
#287 = (
    BOUNDED_CURVE()
    B_SPLINE_CURVE(1, (#288, #289), .UNSPECIFIED., .U., .U.)
    B_SPLINE_CURVE_WITH_KNOTS((2, 2), (0.0, 10.0), .UNSPECIFIED.)
    CURVE()
    GEOMETRIC_REPRESENTATION_ITEM()
    RATIONAL_B_SPLINE_CURVE((1.0, 1.0))
    REPRESENTATION_ITEM('')
);
#288 = CARTESIAN_POINT('', (0.0, 0.0));
#289 = CARTESIAN_POINT('', (0.0, 10.0));
#290 = PCURVE('', #291, #296);
#291 = (
    BOUNDED_SURFACE()
    B_SPLINE_SURFACE(1, 1, ((#292, #293), (#294, #295)), .UNSPECIFIED., .U., .U., .U.)
    B_SPLINE_SURFACE_WITH_KNOTS((2, 2), (2, 2), (0.0, 10.0), (0.0, 10.0), .UNSPECIFIED.)
    GEOMETRIC_REPRESENTATION_ITEM()
    RATIONAL_B_SPLINE_SURFACE(((1.0, 1.0), (1.0, 1.0)))
    REPRESENTATION_ITEM('')
    SURFACE()
);
#292 = CARTESIAN_POINT('', (0.0, 0.0, 0.0));
#293 = CARTESIAN_POINT('', (0.0, 10.0, 0.0));
#294 = CARTESIAN_POINT('', (0.0, 0.0, 10.0));
#295 = CARTESIAN_POINT('', (0.0, 10.0, 10.0));
#296 = DEFINITIONAL_REPRESENTATION('', (#298), #297);
#297 = (
    GEOMETRIC_REPRESENTATION_CONTEXT(2)
    PARAMETRIC_REPRESENTATION_CONTEXT()
    REPRESENTATION_CONTEXT('2D SPACE', '')
);
#298 = (
    BOUNDED_CURVE()
    B_SPLINE_CURVE(1, (#299, #300), .UNSPECIFIED., .U., .U.)
    B_SPLINE_CURVE_WITH_KNOTS((2, 2), (0.0, 10.0), .UNSPECIFIED.)
    CURVE()
    GEOMETRIC_REPRESENTATION_ITEM()
    RATIONAL_B_SPLINE_CURVE((1.0, 1.0))
    REPRESENTATION_ITEM('')
);
#299 = CARTESIAN_POINT('', (10.0, 0.0));
#300 = CARTESIAN_POINT('', (10.0, 10.0));
#301 = SURFACE_CURVE('', #302, (#305, #316), .CURVE_3D.);
#302 = (
    BOUNDED_CURVE()
    B_SPLINE_CURVE(1, (#303, #304), .UNSPECIFIED., .U., .U.)
    B_SPLINE_CURVE_WITH_KNOTS((2, 2), (0.0, 10.0), .UNSPECIFIED.)
    CURVE()
    GEOMETRIC_REPRESENTATION_ITEM()
    RATIONAL_B_SPLINE_CURVE((1.0, 1.0))
    REPRESENTATION_ITEM('')
);
#303 = CARTESIAN_POINT('', (0.0, 0.0, 10.0));
#304 = CARTESIAN_POINT('', (10.0, 0.0, 10.0));
#305 = PCURVE('', #306, #311);
#306 = (
    BOUNDED_SURFACE()
    B_SPLINE_SURFACE(1, 1, ((#307, #308), (#309, #310)), .UNSPECIFIED., .U., .U., .U.)
    B_SPLINE_SURFACE_WITH_KNOTS((2, 2), (2, 2), (0.0, 10.0), (0.0, 10.0), .UNSPECIFIED.)
    GEOMETRIC_REPRESENTATION_ITEM()
    RATIONAL_B_SPLINE_SURFACE(((1.0, 1.0), (1.0, 1.0)))
    REPRESENTATION_ITEM('')
    SURFACE()
);
#307 = CARTESIAN_POINT('', (0.0, 0.0, 10.0));
#308 = CARTESIAN_POINT('', (0.0, 10.0, 10.0));
#309 = CARTESIAN_POINT('', (10.0, 0.0, 10.0));
#310 = CARTESIAN_POINT('', (10.0, 10.0, 10.0));
#311 = DEFINITIONAL_REPRESENTATION('', (#313), #312);
#312 = (
    GEOMETRIC_REPRESENTATION_CONTEXT(2)
    PARAMETRIC_REPRESENTATION_CONTEXT()
    REPRESENTATION_CONTEXT('2D SPACE', '')
);
#313 = (
    BOUNDED_CURVE()
    B_SPLINE_CURVE(1, (#314, #315), .UNSPECIFIED., .U., .U.)
    B_SPLINE_CURVE_WITH_KNOTS((2, 2), (0.0, 10.0), .UNSPECIFIED.)
    CURVE()
    GEOMETRIC_REPRESENTATION_ITEM()
    RATIONAL_B_SPLINE_CURVE((1.0, 1.0))
    REPRESENTATION_ITEM('')
);
#314 = CARTESIAN_POINT('', (0.0, 0.0));
#315 = CARTESIAN_POINT('', (10.0, 0.0));
#316 = PCURVE('', #317, #322);
#317 = (
    BOUNDED_SURFACE()
    B_SPLINE_SURFACE(1, 1, ((#318, #319), (#320, #321)), .UNSPECIFIED., .U., .U., .U.)
    B_SPLINE_SURFACE_WITH_KNOTS((2, 2), (2, 2), (0.0, 10.0), (0.0, 10.0), .UNSPECIFIED.)
    GEOMETRIC_REPRESENTATION_ITEM()
    RATIONAL_B_SPLINE_SURFACE(((1.0, 1.0), (1.0, 1.0)))
    REPRESENTATION_ITEM('')
    SURFACE()
);
#318 = CARTESIAN_POINT('', (0.0, 0.0, 0.0));
#319 = CARTESIAN_POINT('', (0.0, 0.0, 10.0));
#320 = CARTESIAN_POINT('', (10.0, 0.0, 0.0));
#321 = CARTESIAN_POINT('', (10.0, 0.0, 10.0));
#322 = DEFINITIONAL_REPRESENTATION('', (#324), #323);
#323 = (
    GEOMETRIC_REPRESENTATION_CONTEXT(2)
    PARAMETRIC_REPRESENTATION_CONTEXT()
    REPRESENTATION_CONTEXT('2D SPACE', '')
);
#324 = (
    BOUNDED_CURVE()
    B_SPLINE_CURVE(1, (#325, #326), .UNSPECIFIED., .U., .U.)
    B_SPLINE_CURVE_WITH_KNOTS((2, 2), (0.0, 10.0), .UNSPECIFIED.)
    CURVE()
    GEOMETRIC_REPRESENTATION_ITEM()
    RATIONAL_B_SPLINE_CURVE((1.0, 1.0))
    REPRESENTATION_ITEM('')
);
#325 = CARTESIAN_POINT('', (0.0, 10.0));
#326 = CARTESIAN_POINT('', (10.0, 10.0));
#327 = SURFACE_CURVE('', #328, (#331, #342), .CURVE_3D.);
#328 = (
    BOUNDED_CURVE()
    B_SPLINE_CURVE(1, (#329, #330), .UNSPECIFIED., .U., .U.)
    B_SPLINE_CURVE_WITH_KNOTS((2, 2), (0.0, 10.0), .UNSPECIFIED.)
    CURVE()
    GEOMETRIC_REPRESENTATION_ITEM()
    RATIONAL_B_SPLINE_CURVE((1.0, 1.0))
    REPRESENTATION_ITEM('')
);
#329 = CARTESIAN_POINT('', (10.0, 0.0, 10.0));
#330 = CARTESIAN_POINT('', (10.0, 10.0, 10.0));
#331 = PCURVE('', #332, #337);
#332 = (
    BOUNDED_SURFACE()
    B_SPLINE_SURFACE(1, 1, ((#333, #334), (#335, #336)), .UNSPECIFIED., .U., .U., .U.)
    B_SPLINE_SURFACE_WITH_KNOTS((2, 2), (2, 2), (0.0, 10.0), (0.0, 10.0), .UNSPECIFIED.)
    GEOMETRIC_REPRESENTATION_ITEM()
    RATIONAL_B_SPLINE_SURFACE(((1.0, 1.0), (1.0, 1.0)))
    REPRESENTATION_ITEM('')
    SURFACE()
);
#333 = CARTESIAN_POINT('', (0.0, 0.0, 10.0));
#334 = CARTESIAN_POINT('', (0.0, 10.0, 10.0));
#335 = CARTESIAN_POINT('', (10.0, 0.0, 10.0));
#336 = CARTESIAN_POINT('', (10.0, 10.0, 10.0));
#337 = DEFINITIONAL_REPRESENTATION('', (#339), #338);
#338 = (
    GEOMETRIC_REPRESENTATION_CONTEXT(2)
    PARAMETRIC_REPRESENTATION_CONTEXT()
    REPRESENTATION_CONTEXT('2D SPACE', '')
);
#339 = (
    BOUNDED_CURVE()
    B_SPLINE_CURVE(1, (#340, #341), .UNSPECIFIED., .U., .U.)
    B_SPLINE_CURVE_WITH_KNOTS((2, 2), (0.0, 10.0), .UNSPECIFIED.)
    CURVE()
    GEOMETRIC_REPRESENTATION_ITEM()
    RATIONAL_B_SPLINE_CURVE((1.0, 1.0))
    REPRESENTATION_ITEM('')
);
#340 = CARTESIAN_POINT('', (10.0, 0.0));
#341 = CARTESIAN_POINT('', (10.0, 10.0));
#342 = PCURVE('', #343, #348);
#343 = (
    BOUNDED_SURFACE()
    B_SPLINE_SURFACE(1, 1, ((#344, #345), (#346, #347)), .UNSPECIFIED., .U., .U., .U.)
    B_SPLINE_SURFACE_WITH_KNOTS((2, 2), (2, 2), (0.0, 10.0), (0.0, 10.0), .UNSPECIFIED.)
    GEOMETRIC_REPRESENTATION_ITEM()
    RATIONAL_B_SPLINE_SURFACE(((1.0, 1.0), (1.0, 1.0)))
    REPRESENTATION_ITEM('')
    SURFACE()
);
#344 = CARTESIAN_POINT('', (10.0, 0.0, 0.0));
#345 = CARTESIAN_POINT('', (10.0, 0.0, 10.0));
#346 = CARTESIAN_POINT('', (10.0, 10.0, 0.0));
#347 = CARTESIAN_POINT('', (10.0, 10.0, 10.0));
#348 = DEFINITIONAL_REPRESENTATION('', (#350), #349);
#349 = (
    GEOMETRIC_REPRESENTATION_CONTEXT(2)
    PARAMETRIC_REPRESENTATION_CONTEXT()
    REPRESENTATION_CONTEXT('2D SPACE', '')
);
#350 = (
    BOUNDED_CURVE()
    B_SPLINE_CURVE(1, (#351, #352), .UNSPECIFIED., .U., .U.)
    B_SPLINE_CURVE_WITH_KNOTS((2, 2), (0.0, 10.0), .UNSPECIFIED.)
    CURVE()
    GEOMETRIC_REPRESENTATION_ITEM()
    RATIONAL_B_SPLINE_CURVE((1.0, 1.0))
    REPRESENTATION_ITEM('')
);
#351 = CARTESIAN_POINT('', (0.0, 10.0));
#352 = CARTESIAN_POINT('', (10.0, 10.0));
#353 = SURFACE_CURVE('', #354, (#357, #368), .CURVE_3D.);
#354 = (
    BOUNDED_CURVE()
    B_SPLINE_CURVE(1, (#355, #356), .UNSPECIFIED., .U., .U.)
    B_SPLINE_CURVE_WITH_KNOTS((2, 2), (0.0, 10.0), .UNSPECIFIED.)
    CURVE()
    GEOMETRIC_REPRESENTATION_ITEM()
    RATIONAL_B_SPLINE_CURVE((1.0, 1.0))
    REPRESENTATION_ITEM('')
);
#355 = CARTESIAN_POINT('', (0.0, 10.0, 10.0));
#356 = CARTESIAN_POINT('', (10.0, 10.0, 10.0));
#357 = PCURVE('', #358, #363);
#358 = (
    BOUNDED_SURFACE()
    B_SPLINE_SURFACE(1, 1, ((#359, #360), (#361, #362)), .UNSPECIFIED., .U., .U., .U.)
    B_SPLINE_SURFACE_WITH_KNOTS((2, 2), (2, 2), (0.0, 10.0), (0.0, 10.0), .UNSPECIFIED.)
    GEOMETRIC_REPRESENTATION_ITEM()
    RATIONAL_B_SPLINE_SURFACE(((1.0, 1.0), (1.0, 1.0)))
    REPRESENTATION_ITEM('')
    SURFACE()
);
#359 = CARTESIAN_POINT('', (0.0, 0.0, 10.0));
#360 = CARTESIAN_POINT('', (0.0, 10.0, 10.0));
#361 = CARTESIAN_POINT('', (10.0, 0.0, 10.0));
#362 = CARTESIAN_POINT('', (10.0, 10.0, 10.0));
#363 = DEFINITIONAL_REPRESENTATION('', (#365), #364);
#364 = (
    GEOMETRIC_REPRESENTATION_CONTEXT(2)
    PARAMETRIC_REPRESENTATION_CONTEXT()
    REPRESENTATION_CONTEXT('2D SPACE', '')
);
#365 = (
    BOUNDED_CURVE()
    B_SPLINE_CURVE(1, (#366, #367), .UNSPECIFIED., .U., .U.)
    B_SPLINE_CURVE_WITH_KNOTS((2, 2), (0.0, 10.0), .UNSPECIFIED.)
    CURVE()
    GEOMETRIC_REPRESENTATION_ITEM()
    RATIONAL_B_SPLINE_CURVE((1.0, 1.0))
    REPRESENTATION_ITEM('')
);
#366 = CARTESIAN_POINT('', (0.0, 10.0));
#367 = CARTESIAN_POINT('', (10.0, 10.0));
#368 = PCURVE('', #369, #374);
#369 = (
    BOUNDED_SURFACE()
    B_SPLINE_SURFACE(1, 1, ((#370, #371), (#372, #373)), .UNSPECIFIED., .U., .U., .U.)
    B_SPLINE_SURFACE_WITH_KNOTS((2, 2), (2, 2), (0.0, 10.0), (0.0, 10.0), .UNSPECIFIED.)
    GEOMETRIC_REPRESENTATION_ITEM()
    RATIONAL_B_SPLINE_SURFACE(((1.0, 1.0), (1.0, 1.0)))
    REPRESENTATION_ITEM('')
    SURFACE()
);
#370 = CARTESIAN_POINT('', (0.0, 10.0, 0.0));
#371 = CARTESIAN_POINT('', (10.0, 10.0, 0.0));
#372 = CARTESIAN_POINT('', (0.0, 10.0, 10.0));
#373 = CARTESIAN_POINT('', (10.0, 10.0, 10.0));
#374 = DEFINITIONAL_REPRESENTATION('', (#376), #375);
#375 = (
    GEOMETRIC_REPRESENTATION_CONTEXT(2)
    PARAMETRIC_REPRESENTATION_CONTEXT()
    REPRESENTATION_CONTEXT('2D SPACE', '')
);
#376 = (
    BOUNDED_CURVE()
    B_SPLINE_CURVE(1, (#377, #378), .UNSPECIFIED., .U., .U.)
    B_SPLINE_CURVE_WITH_KNOTS((2, 2), (0.0, 10.0), .UNSPECIFIED.)
    CURVE()
    GEOMETRIC_REPRESENTATION_ITEM()
    RATIONAL_B_SPLINE_CURVE((1.0, 1.0))
    REPRESENTATION_ITEM('')
);
#377 = CARTESIAN_POINT('', (10.0, 0.0));
#378 = CARTESIAN_POINT('', (10.0, 10.0));
#379 = SURFACE_CURVE('', #380, (#390, #408), .CURVE_3D.);
#380 = (
    BOUNDED_CURVE()
    B_SPLINE_CURVE(2, (#381, #382, #383, #384, #385, #386, #387, #388, #389), .UNSPECIFIED., .U., .U.)
    B_SPLINE_CURVE_WITH_KNOTS((3, 2, 2, 2, 3), (0.0, 0.25, 0.5, 0.75, 1.0), .UNSPECIFIED.)
    CURVE()
    GEOMETRIC_REPRESENTATION_ITEM()
    RATIONAL_B_SPLINE_CURVE((1.0, 0.7071067811865476, 1.0, 0.7071067811865476, 1.0, 0.7071067811865476, 1.0, 0.7071067811865476, 1.0))
    REPRESENTATION_ITEM('')
);
#381 = CARTESIAN_POINT('', (7.0, 5.0, 10.0));
#382 = CARTESIAN_POINT('', (6.999999999999999, 6.999999999999999, 10.0));
#383 = CARTESIAN_POINT('', (5.0, 7.0, 10.0));
#384 = CARTESIAN_POINT('', (3.0, 6.999999999999999, 10.0));
#385 = CARTESIAN_POINT('', (3.0, 5.0, 10.0));
#386 = CARTESIAN_POINT('', (2.9999999999999996, 3.0, 10.0));
#387 = CARTESIAN_POINT('', (5.0, 3.0, 10.0));
#388 = CARTESIAN_POINT('', (6.999999999999999, 3.0, 10.0));
#389 = CARTESIAN_POINT('', (7.0, 5.0, 10.0));
#390 = PCURVE('', #391, #396);
#391 = (
    BOUNDED_SURFACE()
    B_SPLINE_SURFACE(1, 1, ((#392, #393), (#394, #395)), .UNSPECIFIED., .U., .U., .U.)
    B_SPLINE_SURFACE_WITH_KNOTS((2, 2), (2, 2), (0.0, 10.0), (0.0, 10.0), .UNSPECIFIED.)
    GEOMETRIC_REPRESENTATION_ITEM()
    RATIONAL_B_SPLINE_SURFACE(((1.0, 1.0), (1.0, 1.0)))
    REPRESENTATION_ITEM('')
    SURFACE()
);
#392 = CARTESIAN_POINT('', (0.0, 0.0, 10.0));
#393 = CARTESIAN_POINT('', (0.0, 10.0, 10.0));
#394 = CARTESIAN_POINT('', (10.0, 0.0, 10.0));
#395 = CARTESIAN_POINT('', (10.0, 10.0, 10.0));
#396 = DEFINITIONAL_REPRESENTATION('', (#398), #397);
#397 = (
    GEOMETRIC_REPRESENTATION_CONTEXT(2)
    PARAMETRIC_REPRESENTATION_CONTEXT()
    REPRESENTATION_CONTEXT('2D SPACE', '')
);
#398 = (
    BOUNDED_CURVE()
    B_SPLINE_CURVE(2, (#399, #400, #401, #402, #403, #404, #405, #406, #407), .UNSPECIFIED., .U., .U.)
    B_SPLINE_CURVE_WITH_KNOTS((3, 2, 2, 2, 3), (0.0, 0.25, 0.5, 0.75, 1.0), .UNSPECIFIED.)
    CURVE()
    GEOMETRIC_REPRESENTATION_ITEM()
    RATIONAL_B_SPLINE_CURVE((1.0, 0.7071067811865476, 1.0, 0.7071067811865476, 1.0, 0.7071067811865476, 1.0, 0.7071067811865476, 1.0))
    REPRESENTATION_ITEM('')
);
#399 = CARTESIAN_POINT('', (7.0, 5.0));
#400 = CARTESIAN_POINT('', (6.999999999999999, 6.999999999999999));
#401 = CARTESIAN_POINT('', (5.0, 7.0));
#402 = CARTESIAN_POINT('', (3.0, 6.999999999999999));
#403 = CARTESIAN_POINT('', (3.0, 5.0));
#404 = CARTESIAN_POINT('', (2.999999999999999, 3.0));
#405 = CARTESIAN_POINT('', (5.0, 3.0));
#406 = CARTESIAN_POINT('', (6.999999999999999, 3.0));
#407 = CARTESIAN_POINT('', (7.0, 5.0));
#408 = PCURVE('', #409, #455);
#409 = (
    BOUNDED_SURFACE()
    B_SPLINE_SURFACE(2, 2, ((#410, #411, #412, #413, #414), (#415, #416, #417, #418, #419), (#420, #421, #422, #423, #424), (#425, #426, #427, #428, #429), (#430, #431, #432, #433, #434), (#435, #436, #437, #438, #439), (#440, #441, #442, #443, #444), (#445, #446, #447, #448, #449), (#450, #451, #452, #453, #454)), .UNSPECIFIED., .U., .U., .U.)
    B_SPLINE_SURFACE_WITH_KNOTS((3, 2, 2, 2, 3), (3, 2, 3), (0.0, 0.25, 0.5, 0.75, 1.0), (0.0, 0.5, 1.0), .UNSPECIFIED.)
    GEOMETRIC_REPRESENTATION_ITEM()
    RATIONAL_B_SPLINE_SURFACE(((1.0, 0.7071067811865476, 1.0, 0.7071067811865476, 1.0), (0.7071067811865476, 0.5000000000000001, 0.7071067811865476, 0.5000000000000001, 0.7071067811865476), (1.0, 0.7071067811865476, 1.0, 0.7071067811865476, 1.0), (0.7071067811865476, 0.5000000000000001, 0.7071067811865476, 0.5000000000000001, 0.7071067811865476), (1.0, 0.7071067811865476, 1.0, 0.7071067811865476, 1.0), (0.7071067811865476, 0.5000000000000001, 0.7071067811865476, 0.5000000000000001, 0.7071067811865476), (1.0, 0.7071067811865476, 1.0, 0.7071067811865476, 1.0), (0.7071067811865476, 0.5000000000000001, 0.7071067811865476, 0.5000000000000001, 0.7071067811865476), (1.0, 0.7071067811865476, 1.0, 0.7071067811865476, 1.0)))
    REPRESENTATION_ITEM('')
    SURFACE()
);
#410 = CARTESIAN_POINT('', (5.0, 5.0, 8.0));
#411 = CARTESIAN_POINT('', (6.999999999999999, 5.0, 8.0));
#412 = CARTESIAN_POINT('', (7.0, 5.0, 10.0));
#413 = CARTESIAN_POINT('', (6.999999999999999, 5.0, 12.0));
#414 = CARTESIAN_POINT('', (5.000000000000001, 5.0, 12.0));
#415 = CARTESIAN_POINT('', (5.0, 5.0, 8.0));
#416 = CARTESIAN_POINT('', (6.999999999999999, 6.999999999999999, 8.0));
#417 = CARTESIAN_POINT('', (6.999999999999999, 6.999999999999999, 10.0));
#418 = CARTESIAN_POINT('', (6.999999999999999, 6.999999999999999, 12.0));
#419 = CARTESIAN_POINT('', (5.000000000000001, 5.0, 12.0));
#420 = CARTESIAN_POINT('', (5.0, 5.0, 8.0));
#421 = CARTESIAN_POINT('', (5.0, 6.999999999999999, 8.0));
#422 = CARTESIAN_POINT('', (5.0, 7.0, 10.0));
#423 = CARTESIAN_POINT('', (5.0, 6.999999999999999, 12.0));
#424 = CARTESIAN_POINT('', (5.000000000000001, 5.0, 12.0));
#425 = CARTESIAN_POINT('', (5.0, 5.0, 8.0));
#426 = CARTESIAN_POINT('', (3.0000000000000013, 6.999999999999999, 8.0));
#427 = CARTESIAN_POINT('', (3.0, 6.999999999999999, 10.0));
#428 = CARTESIAN_POINT('', (3.0000000000000013, 6.999999999999999, 12.0));
#429 = CARTESIAN_POINT('', (5.000000000000001, 5.0, 12.0));
#430 = CARTESIAN_POINT('', (5.0, 5.0, 8.0));
#431 = CARTESIAN_POINT('', (3.000000000000001, 5.0, 8.0));
#432 = CARTESIAN_POINT('', (3.0, 5.0, 10.0));
#433 = CARTESIAN_POINT('', (3.000000000000001, 5.0, 12.0));
#434 = CARTESIAN_POINT('', (5.000000000000001, 5.0, 12.0));
#435 = CARTESIAN_POINT('', (5.0, 5.0, 8.0));
#436 = CARTESIAN_POINT('', (3.000000000000001, 3.0000000000000013, 8.0));
#437 = CARTESIAN_POINT('', (2.9999999999999996, 3.0, 10.0));
#438 = CARTESIAN_POINT('', (3.000000000000001, 3.0000000000000013, 12.0));
#439 = CARTESIAN_POINT('', (5.000000000000001, 5.0, 12.0));
#440 = CARTESIAN_POINT('', (5.0, 5.0, 8.0));
#441 = CARTESIAN_POINT('', (5.0, 3.000000000000001, 8.0));
#442 = CARTESIAN_POINT('', (5.0, 3.0, 10.0));
#443 = CARTESIAN_POINT('', (5.0, 3.000000000000001, 12.0));
#444 = CARTESIAN_POINT('', (5.000000000000001, 5.0, 12.0));
#445 = CARTESIAN_POINT('', (5.0, 5.0, 8.0));
#446 = CARTESIAN_POINT('', (6.999999999999998, 3.000000000000001, 8.0));
#447 = CARTESIAN_POINT('', (6.999999999999999, 3.0, 10.0));
#448 = CARTESIAN_POINT('', (6.999999999999998, 3.000000000000001, 12.0));
#449 = CARTESIAN_POINT('', (5.000000000000001, 5.0, 12.0));
#450 = CARTESIAN_POINT('', (5.0, 5.0, 8.0));
#451 = CARTESIAN_POINT('', (6.999999999999999, 5.0, 8.0));
#452 = CARTESIAN_POINT('', (7.0, 5.0, 10.0));
#453 = CARTESIAN_POINT('', (6.999999999999999, 5.0, 12.0));
#454 = CARTESIAN_POINT('', (5.000000000000001, 5.0, 12.0));
#455 = DEFINITIONAL_REPRESENTATION('', (#457), #456);
#456 = (
    GEOMETRIC_REPRESENTATION_CONTEXT(2)
    PARAMETRIC_REPRESENTATION_CONTEXT()
    REPRESENTATION_CONTEXT('2D SPACE', '')
);
#457 = (
    BOUNDED_CURVE()
    B_SPLINE_CURVE(1, (#458, #459), .UNSPECIFIED., .U., .U.)
    B_SPLINE_CURVE_WITH_KNOTS((2, 2), (0.0, 1.0), .UNSPECIFIED.)
    CURVE()
    GEOMETRIC_REPRESENTATION_ITEM()
    RATIONAL_B_SPLINE_CURVE((1.0, 1.0))
    REPRESENTATION_ITEM('')
);
#458 = CARTESIAN_POINT('', (0.0, 0.5));
#459 = CARTESIAN_POINT('', (1.0, 0.5));
#460 = SURFACE_CURVE('', #461, (#464, #475), .CURVE_3D.);
#461 = (
    BOUNDED_CURVE()
    B_SPLINE_CURVE(1, (#462, #463), .UNSPECIFIED., .U., .U.)
    B_SPLINE_CURVE_WITH_KNOTS((2, 2), (0.0, 10.0), .UNSPECIFIED.)
    CURVE()
    GEOMETRIC_REPRESENTATION_ITEM()
    RATIONAL_B_SPLINE_CURVE((1.0, 1.0))
    REPRESENTATION_ITEM('')
);
#462 = CARTESIAN_POINT('', (0.0, 0.0, 0.0));
#463 = CARTESIAN_POINT('', (0.0, 0.0, 10.0));
#464 = PCURVE('', #465, #470);
#465 = (
    BOUNDED_SURFACE()
    B_SPLINE_SURFACE(1, 1, ((#466, #467), (#468, #469)), .UNSPECIFIED., .U., .U., .U.)
    B_SPLINE_SURFACE_WITH_KNOTS((2, 2), (2, 2), (0.0, 10.0), (0.0, 10.0), .UNSPECIFIED.)
    GEOMETRIC_REPRESENTATION_ITEM()
    RATIONAL_B_SPLINE_SURFACE(((1.0, 1.0), (1.0, 1.0)))
    REPRESENTATION_ITEM('')
    SURFACE()
);
#466 = CARTESIAN_POINT('', (0.0, 0.0, 0.0));
#467 = CARTESIAN_POINT('', (0.0, 10.0, 0.0));
#468 = CARTESIAN_POINT('', (0.0, 0.0, 10.0));
#469 = CARTESIAN_POINT('', (0.0, 10.0, 10.0));
#470 = DEFINITIONAL_REPRESENTATION('', (#472), #471);
#471 = (
    GEOMETRIC_REPRESENTATION_CONTEXT(2)
    PARAMETRIC_REPRESENTATION_CONTEXT()
    REPRESENTATION_CONTEXT('2D SPACE', '')
);
#472 = (
    BOUNDED_CURVE()
    B_SPLINE_CURVE(1, (#473, #474), .UNSPECIFIED., .U., .U.)
    B_SPLINE_CURVE_WITH_KNOTS((2, 2), (0.0, 10.0), .UNSPECIFIED.)
    CURVE()
    GEOMETRIC_REPRESENTATION_ITEM()
    RATIONAL_B_SPLINE_CURVE((1.0, 1.0))
    REPRESENTATION_ITEM('')
);
#473 = CARTESIAN_POINT('', (0.0, 0.0));
#474 = CARTESIAN_POINT('', (10.0, 0.0));
#475 = PCURVE('', #476, #481);
#476 = (
    BOUNDED_SURFACE()
    B_SPLINE_SURFACE(1, 1, ((#477, #478), (#479, #480)), .UNSPECIFIED., .U., .U., .U.)
    B_SPLINE_SURFACE_WITH_KNOTS((2, 2), (2, 2), (0.0, 10.0), (0.0, 10.0), .UNSPECIFIED.)
    GEOMETRIC_REPRESENTATION_ITEM()
    RATIONAL_B_SPLINE_SURFACE(((1.0, 1.0), (1.0, 1.0)))
    REPRESENTATION_ITEM('')
    SURFACE()
);
#477 = CARTESIAN_POINT('', (0.0, 0.0, 0.0));
#478 = CARTESIAN_POINT('', (0.0, 0.0, 10.0));
#479 = CARTESIAN_POINT('', (10.0, 0.0, 0.0));
#480 = CARTESIAN_POINT('', (10.0, 0.0, 10.0));
#481 = DEFINITIONAL_REPRESENTATION('', (#483), #482);
#482 = (
    GEOMETRIC_REPRESENTATION_CONTEXT(2)
    PARAMETRIC_REPRESENTATION_CONTEXT()
    REPRESENTATION_CONTEXT('2D SPACE', '')
);
#483 = (
    BOUNDED_CURVE()
    B_SPLINE_CURVE(1, (#484, #485), .UNSPECIFIED., .U., .U.)
    B_SPLINE_CURVE_WITH_KNOTS((2, 2), (0.0, 10.0), .UNSPECIFIED.)
    CURVE()
    GEOMETRIC_REPRESENTATION_ITEM()
    RATIONAL_B_SPLINE_CURVE((1.0, 1.0))
    REPRESENTATION_ITEM('')
);
#484 = CARTESIAN_POINT('', (0.0, 0.0));
#485 = CARTESIAN_POINT('', (0.0, 10.0));
#486 = SURFACE_CURVE('', #487, (#490, #501), .CURVE_3D.);
#487 = (
    BOUNDED_CURVE()
    B_SPLINE_CURVE(1, (#488, #489), .UNSPECIFIED., .U., .U.)
    B_SPLINE_CURVE_WITH_KNOTS((2, 2), (0.0, 10.0), .UNSPECIFIED.)
    CURVE()
    GEOMETRIC_REPRESENTATION_ITEM()
    RATIONAL_B_SPLINE_CURVE((1.0, 1.0))
    REPRESENTATION_ITEM('')
);
#488 = CARTESIAN_POINT('', (0.0, 10.0, 0.0));
#489 = CARTESIAN_POINT('', (0.0, 10.0, 10.0));
#490 = PCURVE('', #491, #496);
#491 = (
    BOUNDED_SURFACE()
    B_SPLINE_SURFACE(1, 1, ((#492, #493), (#494, #495)), .UNSPECIFIED., .U., .U., .U.)
    B_SPLINE_SURFACE_WITH_KNOTS((2, 2), (2, 2), (0.0, 10.0), (0.0, 10.0), .UNSPECIFIED.)
    GEOMETRIC_REPRESENTATION_ITEM()
    RATIONAL_B_SPLINE_SURFACE(((1.0, 1.0), (1.0, 1.0)))
    REPRESENTATION_ITEM('')
    SURFACE()
);
#492 = CARTESIAN_POINT('', (0.0, 0.0, 0.0));
#493 = CARTESIAN_POINT('', (0.0, 10.0, 0.0));
#494 = CARTESIAN_POINT('', (0.0, 0.0, 10.0));
#495 = CARTESIAN_POINT('', (0.0, 10.0, 10.0));
#496 = DEFINITIONAL_REPRESENTATION('', (#498), #497);
#497 = (
    GEOMETRIC_REPRESENTATION_CONTEXT(2)
    PARAMETRIC_REPRESENTATION_CONTEXT()
    REPRESENTATION_CONTEXT('2D SPACE', '')
);
#498 = (
    BOUNDED_CURVE()
    B_SPLINE_CURVE(1, (#499, #500), .UNSPECIFIED., .U., .U.)
    B_SPLINE_CURVE_WITH_KNOTS((2, 2), (0.0, 10.0), .UNSPECIFIED.)
    CURVE()
    GEOMETRIC_REPRESENTATION_ITEM()
    RATIONAL_B_SPLINE_CURVE((1.0, 1.0))
    REPRESENTATION_ITEM('')
);
#499 = CARTESIAN_POINT('', (0.0, 10.0));
#500 = CARTESIAN_POINT('', (10.0, 10.0));
#501 = PCURVE('', #502, #507);
#502 = (
    BOUNDED_SURFACE()
    B_SPLINE_SURFACE(1, 1, ((#503, #504), (#505, #506)), .UNSPECIFIED., .U., .U., .U.)
    B_SPLINE_SURFACE_WITH_KNOTS((2, 2), (2, 2), (0.0, 10.0), (0.0, 10.0), .UNSPECIFIED.)
    GEOMETRIC_REPRESENTATION_ITEM()
    RATIONAL_B_SPLINE_SURFACE(((1.0, 1.0), (1.0, 1.0)))
    REPRESENTATION_ITEM('')
    SURFACE()
);
#503 = CARTESIAN_POINT('', (0.0, 10.0, 0.0));
#504 = CARTESIAN_POINT('', (10.0, 10.0, 0.0));
#505 = CARTESIAN_POINT('', (0.0, 10.0, 10.0));
#506 = CARTESIAN_POINT('', (10.0, 10.0, 10.0));
#507 = DEFINITIONAL_REPRESENTATION('', (#509), #508);
#508 = (
    GEOMETRIC_REPRESENTATION_CONTEXT(2)
    PARAMETRIC_REPRESENTATION_CONTEXT()
    REPRESENTATION_CONTEXT('2D SPACE', '')
);
#509 = (
    BOUNDED_CURVE()
    B_SPLINE_CURVE(1, (#510, #511), .UNSPECIFIED., .U., .U.)
    B_SPLINE_CURVE_WITH_KNOTS((2, 2), (0.0, 10.0), .UNSPECIFIED.)
    CURVE()
    GEOMETRIC_REPRESENTATION_ITEM()
    RATIONAL_B_SPLINE_CURVE((1.0, 1.0))
    REPRESENTATION_ITEM('')
);
#510 = CARTESIAN_POINT('', (0.0, 0.0));
#511 = CARTESIAN_POINT('', (10.0, 0.0));
#512 = SURFACE_CURVE('', #513, (#516, #527), .CURVE_3D.);
#513 = (
    BOUNDED_CURVE()
    B_SPLINE_CURVE(1, (#514, #515), .UNSPECIFIED., .U., .U.)
    B_SPLINE_CURVE_WITH_KNOTS((2, 2), (0.0, 10.0), .UNSPECIFIED.)
    CURVE()
    GEOMETRIC_REPRESENTATION_ITEM()
    RATIONAL_B_SPLINE_CURVE((1.0, 1.0))
    REPRESENTATION_ITEM('')
);
#514 = CARTESIAN_POINT('', (10.0, 0.0, 0.0));
#515 = CARTESIAN_POINT('', (10.0, 0.0, 10.0));
#516 = PCURVE('', #517, #522);
#517 = (
    BOUNDED_SURFACE()
    B_SPLINE_SURFACE(1, 1, ((#518, #519), (#520, #521)), .UNSPECIFIED., .U., .U., .U.)
    B_SPLINE_SURFACE_WITH_KNOTS((2, 2), (2, 2), (0.0, 10.0), (0.0, 10.0), .UNSPECIFIED.)
    GEOMETRIC_REPRESENTATION_ITEM()
    RATIONAL_B_SPLINE_SURFACE(((1.0, 1.0), (1.0, 1.0)))
    REPRESENTATION_ITEM('')
    SURFACE()
);
#518 = CARTESIAN_POINT('', (10.0, 0.0, 0.0));
#519 = CARTESIAN_POINT('', (10.0, 0.0, 10.0));
#520 = CARTESIAN_POINT('', (10.0, 10.0, 0.0));
#521 = CARTESIAN_POINT('', (10.0, 10.0, 10.0));
#522 = DEFINITIONAL_REPRESENTATION('', (#524), #523);
#523 = (
    GEOMETRIC_REPRESENTATION_CONTEXT(2)
    PARAMETRIC_REPRESENTATION_CONTEXT()
    REPRESENTATION_CONTEXT('2D SPACE', '')
);
#524 = (
    BOUNDED_CURVE()
    B_SPLINE_CURVE(1, (#525, #526), .UNSPECIFIED., .U., .U.)
    B_SPLINE_CURVE_WITH_KNOTS((2, 2), (0.0, 10.0), .UNSPECIFIED.)
    CURVE()
    GEOMETRIC_REPRESENTATION_ITEM()
    RATIONAL_B_SPLINE_CURVE((1.0, 1.0))
    REPRESENTATION_ITEM('')
);
#525 = CARTESIAN_POINT('', (0.0, 0.0));
#526 = CARTESIAN_POINT('', (0.0, 10.0));
#527 = PCURVE('', #528, #533);
#528 = (
    BOUNDED_SURFACE()
    B_SPLINE_SURFACE(1, 1, ((#529, #530), (#531, #532)), .UNSPECIFIED., .U., .U., .U.)
    B_SPLINE_SURFACE_WITH_KNOTS((2, 2), (2, 2), (0.0, 10.0), (0.0, 10.0), .UNSPECIFIED.)
    GEOMETRIC_REPRESENTATION_ITEM()
    RATIONAL_B_SPLINE_SURFACE(((1.0, 1.0), (1.0, 1.0)))
    REPRESENTATION_ITEM('')
    SURFACE()
);
#529 = CARTESIAN_POINT('', (0.0, 0.0, 0.0));
#530 = CARTESIAN_POINT('', (0.0, 0.0, 10.0));
#531 = CARTESIAN_POINT('', (10.0, 0.0, 0.0));
#532 = CARTESIAN_POINT('', (10.0, 0.0, 10.0));
#533 = DEFINITIONAL_REPRESENTATION('', (#535), #534);
#534 = (
    GEOMETRIC_REPRESENTATION_CONTEXT(2)
    PARAMETRIC_REPRESENTATION_CONTEXT()
    REPRESENTATION_CONTEXT('2D SPACE', '')
);
#535 = (
    BOUNDED_CURVE()
    B_SPLINE_CURVE(1, (#536, #537), .UNSPECIFIED., .U., .U.)
    B_SPLINE_CURVE_WITH_KNOTS((2, 2), (0.0, 10.0), .UNSPECIFIED.)
    CURVE()
    GEOMETRIC_REPRESENTATION_ITEM()
    RATIONAL_B_SPLINE_CURVE((1.0, 1.0))
    REPRESENTATION_ITEM('')
);
#536 = CARTESIAN_POINT('', (10.0, 0.0));
#537 = CARTESIAN_POINT('', (10.0, 10.0));
#538 = SURFACE_CURVE('', #539, (#542, #553), .CURVE_3D.);
#539 = (
    BOUNDED_CURVE()
    B_SPLINE_CURVE(1, (#540, #541), .UNSPECIFIED., .U., .U.)
    B_SPLINE_CURVE_WITH_KNOTS((2, 2), (0.0, 10.0), .UNSPECIFIED.)
    CURVE()
    GEOMETRIC_REPRESENTATION_ITEM()
    RATIONAL_B_SPLINE_CURVE((1.0, 1.0))
    REPRESENTATION_ITEM('')
);
#540 = CARTESIAN_POINT('', (10.0, 10.0, 0.0));
#541 = CARTESIAN_POINT('', (10.0, 10.0, 10.0));
#542 = PCURVE('', #543, #548);
#543 = (
    BOUNDED_SURFACE()
    B_SPLINE_SURFACE(1, 1, ((#544, #545), (#546, #547)), .UNSPECIFIED., .U., .U., .U.)
    B_SPLINE_SURFACE_WITH_KNOTS((2, 2), (2, 2), (0.0, 10.0), (0.0, 10.0), .UNSPECIFIED.)
    GEOMETRIC_REPRESENTATION_ITEM()
    RATIONAL_B_SPLINE_SURFACE(((1.0, 1.0), (1.0, 1.0)))
    REPRESENTATION_ITEM('')
    SURFACE()
);
#544 = CARTESIAN_POINT('', (10.0, 0.0, 0.0));
#545 = CARTESIAN_POINT('', (10.0, 0.0, 10.0));
#546 = CARTESIAN_POINT('', (10.0, 10.0, 0.0));
#547 = CARTESIAN_POINT('', (10.0, 10.0, 10.0));
#548 = DEFINITIONAL_REPRESENTATION('', (#550), #549);
#549 = (
    GEOMETRIC_REPRESENTATION_CONTEXT(2)
    PARAMETRIC_REPRESENTATION_CONTEXT()
    REPRESENTATION_CONTEXT('2D SPACE', '')
);
#550 = (
    BOUNDED_CURVE()
    B_SPLINE_CURVE(1, (#551, #552), .UNSPECIFIED., .U., .U.)
    B_SPLINE_CURVE_WITH_KNOTS((2, 2), (0.0, 10.0), .UNSPECIFIED.)
    CURVE()
    GEOMETRIC_REPRESENTATION_ITEM()
    RATIONAL_B_SPLINE_CURVE((1.0, 1.0))
    REPRESENTATION_ITEM('')
);
#551 = CARTESIAN_POINT('', (10.0, 0.0));
#552 = CARTESIAN_POINT('', (10.0, 10.0));
#553 = PCURVE('', #554, #559);
#554 = (
    BOUNDED_SURFACE()
    B_SPLINE_SURFACE(1, 1, ((#555, #556), (#557, #558)), .UNSPECIFIED., .U., .U., .U.)
    B_SPLINE_SURFACE_WITH_KNOTS((2, 2), (2, 2), (0.0, 10.0), (0.0, 10.0), .UNSPECIFIED.)
    GEOMETRIC_REPRESENTATION_ITEM()
    RATIONAL_B_SPLINE_SURFACE(((1.0, 1.0), (1.0, 1.0)))
    REPRESENTATION_ITEM('')
    SURFACE()
);
#555 = CARTESIAN_POINT('', (0.0, 10.0, 0.0));
#556 = CARTESIAN_POINT('', (10.0, 10.0, 0.0));
#557 = CARTESIAN_POINT('', (0.0, 10.0, 10.0));
#558 = CARTESIAN_POINT('', (10.0, 10.0, 10.0));
#559 = DEFINITIONAL_REPRESENTATION('', (#561), #560);
#560 = (
    GEOMETRIC_REPRESENTATION_CONTEXT(2)
    PARAMETRIC_REPRESENTATION_CONTEXT()
    REPRESENTATION_CONTEXT('2D SPACE', '')
);
#561 = (
    BOUNDED_CURVE()
    B_SPLINE_CURVE(1, (#562, #563), .UNSPECIFIED., .U., .U.)
    B_SPLINE_CURVE_WITH_KNOTS((2, 2), (0.0, 10.0), .UNSPECIFIED.)
    CURVE()
    GEOMETRIC_REPRESENTATION_ITEM()
    RATIONAL_B_SPLINE_CURVE((1.0, 1.0))
    REPRESENTATION_ITEM('')
);
#562 = CARTESIAN_POINT('', (0.0, 10.0));
#563 = CARTESIAN_POINT('', (10.0, 10.0));
#564 = SEAM_CURVE('', #565, (#569, #621), .CURVE_3D.);
#565 = (
    BOUNDED_CURVE()
    B_SPLINE_CURVE(2, (#566, #567, #568), .UNSPECIFIED., .U., .U.)
    B_SPLINE_CURVE_WITH_KNOTS((3, 3), (0.0, 0.5), .UNSPECIFIED.)
    CURVE()
    GEOMETRIC_REPRESENTATION_ITEM()
    RATIONAL_B_SPLINE_CURVE((1.0, 0.7071067811865476, 1.0))
    REPRESENTATION_ITEM('')
);
#566 = CARTESIAN_POINT('', (5.0, 5.0, 8.0));
#567 = CARTESIAN_POINT('', (6.999999999999999, 5.0, 8.0));
#568 = CARTESIAN_POINT('', (7.0, 5.0, 10.0));
#569 = PCURVE('', #570, #616);
#570 = (
    BOUNDED_SURFACE()
    B_SPLINE_SURFACE(2, 2, ((#571, #572, #573, #574, #575), (#576, #577, #578, #579, #580), (#581, #582, #583, #584, #585), (#586, #587, #588, #589, #590), (#591, #592, #593, #594, #595), (#596, #597, #598, #599, #600), (#601, #602, #603, #604, #605), (#606, #607, #608, #609, #610), (#611, #612, #613, #614, #615)), .UNSPECIFIED., .U., .U., .U.)
    B_SPLINE_SURFACE_WITH_KNOTS((3, 2, 2, 2, 3), (3, 2, 3), (0.0, 0.25, 0.5, 0.75, 1.0), (0.0, 0.5, 1.0), .UNSPECIFIED.)
    GEOMETRIC_REPRESENTATION_ITEM()
    RATIONAL_B_SPLINE_SURFACE(((1.0, 0.7071067811865476, 1.0, 0.7071067811865476, 1.0), (0.7071067811865476, 0.5000000000000001, 0.7071067811865476, 0.5000000000000001, 0.7071067811865476), (1.0, 0.7071067811865476, 1.0, 0.7071067811865476, 1.0), (0.7071067811865476, 0.5000000000000001, 0.7071067811865476, 0.5000000000000001, 0.7071067811865476), (1.0, 0.7071067811865476, 1.0, 0.7071067811865476, 1.0), (0.7071067811865476, 0.5000000000000001, 0.7071067811865476, 0.5000000000000001, 0.7071067811865476), (1.0, 0.7071067811865476, 1.0, 0.7071067811865476, 1.0), (0.7071067811865476, 0.5000000000000001, 0.7071067811865476, 0.5000000000000001, 0.7071067811865476), (1.0, 0.7071067811865476, 1.0, 0.7071067811865476, 1.0)))
    REPRESENTATION_ITEM('')
    SURFACE()
);
#571 = CARTESIAN_POINT('', (5.0, 5.0, 8.0));
#572 = CARTESIAN_POINT('', (6.999999999999999, 5.0, 8.0));
#573 = CARTESIAN_POINT('', (7.0, 5.0, 10.0));
#574 = CARTESIAN_POINT('', (6.999999999999999, 5.0, 12.0));
#575 = CARTESIAN_POINT('', (5.000000000000001, 5.0, 12.0));
#576 = CARTESIAN_POINT('', (5.0, 5.0, 8.0));
#577 = CARTESIAN_POINT('', (6.999999999999999, 6.999999999999999, 8.0));
#578 = CARTESIAN_POINT('', (6.999999999999999, 6.999999999999999, 10.0));
#579 = CARTESIAN_POINT('', (6.999999999999999, 6.999999999999999, 12.0));
#580 = CARTESIAN_POINT('', (5.000000000000001, 5.0, 12.0));
#581 = CARTESIAN_POINT('', (5.0, 5.0, 8.0));
#582 = CARTESIAN_POINT('', (5.0, 6.999999999999999, 8.0));
#583 = CARTESIAN_POINT('', (5.0, 7.0, 10.0));
#584 = CARTESIAN_POINT('', (5.0, 6.999999999999999, 12.0));
#585 = CARTESIAN_POINT('', (5.000000000000001, 5.0, 12.0));
#586 = CARTESIAN_POINT('', (5.0, 5.0, 8.0));
#587 = CARTESIAN_POINT('', (3.0000000000000013, 6.999999999999999, 8.0));
#588 = CARTESIAN_POINT('', (3.0, 6.999999999999999, 10.0));
#589 = CARTESIAN_POINT('', (3.0000000000000013, 6.999999999999999, 12.0));
#590 = CARTESIAN_POINT('', (5.000000000000001, 5.0, 12.0));
#591 = CARTESIAN_POINT('', (5.0, 5.0, 8.0));
#592 = CARTESIAN_POINT('', (3.000000000000001, 5.0, 8.0));
#593 = CARTESIAN_POINT('', (3.0, 5.0, 10.0));
#594 = CARTESIAN_POINT('', (3.000000000000001, 5.0, 12.0));
#595 = CARTESIAN_POINT('', (5.000000000000001, 5.0, 12.0));
#596 = CARTESIAN_POINT('', (5.0, 5.0, 8.0));
#597 = CARTESIAN_POINT('', (3.000000000000001, 3.0000000000000013, 8.0));
#598 = CARTESIAN_POINT('', (2.9999999999999996, 3.0, 10.0));
#599 = CARTESIAN_POINT('', (3.000000000000001, 3.0000000000000013, 12.0));
#600 = CARTESIAN_POINT('', (5.000000000000001, 5.0, 12.0));
#601 = CARTESIAN_POINT('', (5.0, 5.0, 8.0));
#602 = CARTESIAN_POINT('', (5.0, 3.000000000000001, 8.0));
#603 = CARTESIAN_POINT('', (5.0, 3.0, 10.0));
#604 = CARTESIAN_POINT('', (5.0, 3.000000000000001, 12.0));
#605 = CARTESIAN_POINT('', (5.000000000000001, 5.0, 12.0));
#606 = CARTESIAN_POINT('', (5.0, 5.0, 8.0));
#607 = CARTESIAN_POINT('', (6.999999999999998, 3.000000000000001, 8.0));
#608 = CARTESIAN_POINT('', (6.999999999999999, 3.0, 10.0));
#609 = CARTESIAN_POINT('', (6.999999999999998, 3.000000000000001, 12.0));
#610 = CARTESIAN_POINT('', (5.000000000000001, 5.0, 12.0));
#611 = CARTESIAN_POINT('', (5.0, 5.0, 8.0));
#612 = CARTESIAN_POINT('', (6.999999999999999, 5.0, 8.0));
#613 = CARTESIAN_POINT('', (7.0, 5.0, 10.0));
#614 = CARTESIAN_POINT('', (6.999999999999999, 5.0, 12.0));
#615 = CARTESIAN_POINT('', (5.000000000000001, 5.0, 12.0));
#616 = DEFINITIONAL_REPRESENTATION('', (#618), #617);
#617 = (
    GEOMETRIC_REPRESENTATION_CONTEXT(2)
    PARAMETRIC_REPRESENTATION_CONTEXT()
    REPRESENTATION_CONTEXT('2D SPACE', '')
);
#618 = (
    BOUNDED_CURVE()
    B_SPLINE_CURVE(1, (#619, #620), .UNSPECIFIED., .U., .U.)
    B_SPLINE_CURVE_WITH_KNOTS((2, 2), (0.0, 0.5), .UNSPECIFIED.)
    CURVE()
    GEOMETRIC_REPRESENTATION_ITEM()
    RATIONAL_B_SPLINE_CURVE((1.0, 1.0))
    REPRESENTATION_ITEM('')
);
#619 = CARTESIAN_POINT('', (0.0, 0.0));
#620 = CARTESIAN_POINT('', (0.0, 0.5));
#621 = PCURVE('', #622, #668);
#622 = (
    BOUNDED_SURFACE()
    B_SPLINE_SURFACE(2, 2, ((#623, #624, #625, #626, #627), (#628, #629, #630, #631, #632), (#633, #634, #635, #636, #637), (#638, #639, #640, #641, #642), (#643, #644, #645, #646, #647), (#648, #649, #650, #651, #652), (#653, #654, #655, #656, #657), (#658, #659, #660, #661, #662), (#663, #664, #665, #666, #667)), .UNSPECIFIED., .U., .U., .U.)
    B_SPLINE_SURFACE_WITH_KNOTS((3, 2, 2, 2, 3), (3, 2, 3), (0.0, 0.25, 0.5, 0.75, 1.0), (0.0, 0.5, 1.0), .UNSPECIFIED.)
    GEOMETRIC_REPRESENTATION_ITEM()
    RATIONAL_B_SPLINE_SURFACE(((1.0, 0.7071067811865476, 1.0, 0.7071067811865476, 1.0), (0.7071067811865476, 0.5000000000000001, 0.7071067811865476, 0.5000000000000001, 0.7071067811865476), (1.0, 0.7071067811865476, 1.0, 0.7071067811865476, 1.0), (0.7071067811865476, 0.5000000000000001, 0.7071067811865476, 0.5000000000000001, 0.7071067811865476), (1.0, 0.7071067811865476, 1.0, 0.7071067811865476, 1.0), (0.7071067811865476, 0.5000000000000001, 0.7071067811865476, 0.5000000000000001, 0.7071067811865476), (1.0, 0.7071067811865476, 1.0, 0.7071067811865476, 1.0), (0.7071067811865476, 0.5000000000000001, 0.7071067811865476, 0.5000000000000001, 0.7071067811865476), (1.0, 0.7071067811865476, 1.0, 0.7071067811865476, 1.0)))
    REPRESENTATION_ITEM('')
    SURFACE()
);
#623 = CARTESIAN_POINT('', (5.0, 5.0, 8.0));
#624 = CARTESIAN_POINT('', (6.999999999999999, 5.0, 8.0));
#625 = CARTESIAN_POINT('', (7.0, 5.0, 10.0));
#626 = CARTESIAN_POINT('', (6.999999999999999, 5.0, 12.0));
#627 = CARTESIAN_POINT('', (5.000000000000001, 5.0, 12.0));
#628 = CARTESIAN_POINT('', (5.0, 5.0, 8.0));
#629 = CARTESIAN_POINT('', (6.999999999999999, 6.999999999999999, 8.0));
#630 = CARTESIAN_POINT('', (6.999999999999999, 6.999999999999999, 10.0));
#631 = CARTESIAN_POINT('', (6.999999999999999, 6.999999999999999, 12.0));
#632 = CARTESIAN_POINT('', (5.000000000000001, 5.0, 12.0));
#633 = CARTESIAN_POINT('', (5.0, 5.0, 8.0));
#634 = CARTESIAN_POINT('', (5.0, 6.999999999999999, 8.0));
#635 = CARTESIAN_POINT('', (5.0, 7.0, 10.0));
#636 = CARTESIAN_POINT('', (5.0, 6.999999999999999, 12.0));
#637 = CARTESIAN_POINT('', (5.000000000000001, 5.0, 12.0));
#638 = CARTESIAN_POINT('', (5.0, 5.0, 8.0));
#639 = CARTESIAN_POINT('', (3.0000000000000013, 6.999999999999999, 8.0));
#640 = CARTESIAN_POINT('', (3.0, 6.999999999999999, 10.0));
#641 = CARTESIAN_POINT('', (3.0000000000000013, 6.999999999999999, 12.0));
#642 = CARTESIAN_POINT('', (5.000000000000001, 5.0, 12.0));
#643 = CARTESIAN_POINT('', (5.0, 5.0, 8.0));
#644 = CARTESIAN_POINT('', (3.000000000000001, 5.0, 8.0));
#645 = CARTESIAN_POINT('', (3.0, 5.0, 10.0));
#646 = CARTESIAN_POINT('', (3.000000000000001, 5.0, 12.0));
#647 = CARTESIAN_POINT('', (5.000000000000001, 5.0, 12.0));
#648 = CARTESIAN_POINT('', (5.0, 5.0, 8.0));
#649 = CARTESIAN_POINT('', (3.000000000000001, 3.0000000000000013, 8.0));
#650 = CARTESIAN_POINT('', (2.9999999999999996, 3.0, 10.0));
#651 = CARTESIAN_POINT('', (3.000000000000001, 3.0000000000000013, 12.0));
#652 = CARTESIAN_POINT('', (5.000000000000001, 5.0, 12.0));
#653 = CARTESIAN_POINT('', (5.0, 5.0, 8.0));
#654 = CARTESIAN_POINT('', (5.0, 3.000000000000001, 8.0));
#655 = CARTESIAN_POINT('', (5.0, 3.0, 10.0));
#656 = CARTESIAN_POINT('', (5.0, 3.000000000000001, 12.0));
#657 = CARTESIAN_POINT('', (5.000000000000001, 5.0, 12.0));
#658 = CARTESIAN_POINT('', (5.0, 5.0, 8.0));
#659 = CARTESIAN_POINT('', (6.999999999999998, 3.000000000000001, 8.0));
#660 = CARTESIAN_POINT('', (6.999999999999999, 3.0, 10.0));
#661 = CARTESIAN_POINT('', (6.999999999999998, 3.000000000000001, 12.0));
#662 = CARTESIAN_POINT('', (5.000000000000001, 5.0, 12.0));
#663 = CARTESIAN_POINT('', (5.0, 5.0, 8.0));
#664 = CARTESIAN_POINT('', (6.999999999999999, 5.0, 8.0));
#665 = CARTESIAN_POINT('', (7.0, 5.0, 10.0));
#666 = CARTESIAN_POINT('', (6.999999999999999, 5.0, 12.0));
#667 = CARTESIAN_POINT('', (5.000000000000001, 5.0, 12.0));
#668 = DEFINITIONAL_REPRESENTATION('', (#670), #669);
#669 = (
    GEOMETRIC_REPRESENTATION_CONTEXT(2)
    PARAMETRIC_REPRESENTATION_CONTEXT()
    REPRESENTATION_CONTEXT('2D SPACE', '')
);
#670 = (
    BOUNDED_CURVE()
    B_SPLINE_CURVE(1, (#671, #672), .UNSPECIFIED., .U., .U.)
    B_SPLINE_CURVE_WITH_KNOTS((2, 2), (0.0, 0.5), .UNSPECIFIED.)
    CURVE()
    GEOMETRIC_REPRESENTATION_ITEM()
    RATIONAL_B_SPLINE_CURVE((1.0, 1.0))
    REPRESENTATION_ITEM('')
);
#671 = CARTESIAN_POINT('', (1.0, 0.0));
#672 = CARTESIAN_POINT('', (1.0, 0.5));
#673 = SURFACE_CURVE('', #674, (#677), .CURVE_3D.);
#674 = (
    BOUNDED_CURVE()
    B_SPLINE_CURVE(1, (#675, #676), .UNSPECIFIED., .U., .U.)
    B_SPLINE_CURVE_WITH_KNOTS((2, 2), (0.0, 1.0), .UNSPECIFIED.)
    CURVE()
    GEOMETRIC_REPRESENTATION_ITEM()
    RATIONAL_B_SPLINE_CURVE((1.0, 1.0))
    REPRESENTATION_ITEM('')
);
#675 = CARTESIAN_POINT('', (5.0, 5.0, 8.0));
#676 = CARTESIAN_POINT('', (5.0, 5.0, 8.0));
#677 = PCURVE('', #678, #724);
#678 = (
    BOUNDED_SURFACE()
    B_SPLINE_SURFACE(2, 2, ((#679, #680, #681, #682, #683), (#684, #685, #686, #687, #688), (#689, #690, #691, #692, #693), (#694, #695, #696, #697, #698), (#699, #700, #701, #702, #703), (#704, #705, #706, #707, #708), (#709, #710, #711, #712, #713), (#714, #715, #716, #717, #718), (#719, #720, #721, #722, #723)), .UNSPECIFIED., .U., .U., .U.)
    B_SPLINE_SURFACE_WITH_KNOTS((3, 2, 2, 2, 3), (3, 2, 3), (0.0, 0.25, 0.5, 0.75, 1.0), (0.0, 0.5, 1.0), .UNSPECIFIED.)
    GEOMETRIC_REPRESENTATION_ITEM()
    RATIONAL_B_SPLINE_SURFACE(((1.0, 0.7071067811865476, 1.0, 0.7071067811865476, 1.0), (0.7071067811865476, 0.5000000000000001, 0.7071067811865476, 0.5000000000000001, 0.7071067811865476), (1.0, 0.7071067811865476, 1.0, 0.7071067811865476, 1.0), (0.7071067811865476, 0.5000000000000001, 0.7071067811865476, 0.5000000000000001, 0.7071067811865476), (1.0, 0.7071067811865476, 1.0, 0.7071067811865476, 1.0), (0.7071067811865476, 0.5000000000000001, 0.7071067811865476, 0.5000000000000001, 0.7071067811865476), (1.0, 0.7071067811865476, 1.0, 0.7071067811865476, 1.0), (0.7071067811865476, 0.5000000000000001, 0.7071067811865476, 0.5000000000000001, 0.7071067811865476), (1.0, 0.7071067811865476, 1.0, 0.7071067811865476, 1.0)))
    REPRESENTATION_ITEM('')
    SURFACE()
);
#679 = CARTESIAN_POINT('', (5.0, 5.0, 8.0));
#680 = CARTESIAN_POINT('', (6.999999999999999, 5.0, 8.0));
#681 = CARTESIAN_POINT('', (7.0, 5.0, 10.0));
#682 = CARTESIAN_POINT('', (6.999999999999999, 5.0, 12.0));
#683 = CARTESIAN_POINT('', (5.000000000000001, 5.0, 12.0));
#684 = CARTESIAN_POINT('', (5.0, 5.0, 8.0));
#685 = CARTESIAN_POINT('', (6.999999999999999, 6.999999999999999, 8.0));
#686 = CARTESIAN_POINT('', (6.999999999999999, 6.999999999999999, 10.0));
#687 = CARTESIAN_POINT('', (6.999999999999999, 6.999999999999999, 12.0));
#688 = CARTESIAN_POINT('', (5.000000000000001, 5.0, 12.0));
#689 = CARTESIAN_POINT('', (5.0, 5.0, 8.0));
#690 = CARTESIAN_POINT('', (5.0, 6.999999999999999, 8.0));
#691 = CARTESIAN_POINT('', (5.0, 7.0, 10.0));
#692 = CARTESIAN_POINT('', (5.0, 6.999999999999999, 12.0));
#693 = CARTESIAN_POINT('', (5.000000000000001, 5.0, 12.0));
#694 = CARTESIAN_POINT('', (5.0, 5.0, 8.0));
#695 = CARTESIAN_POINT('', (3.0000000000000013, 6.999999999999999, 8.0));
#696 = CARTESIAN_POINT('', (3.0, 6.999999999999999, 10.0));
#697 = CARTESIAN_POINT('', (3.0000000000000013, 6.999999999999999, 12.0));
#698 = CARTESIAN_POINT('', (5.000000000000001, 5.0, 12.0));
#699 = CARTESIAN_POINT('', (5.0, 5.0, 8.0));
#700 = CARTESIAN_POINT('', (3.000000000000001, 5.0, 8.0));
#701 = CARTESIAN_POINT('', (3.0, 5.0, 10.0));
#702 = CARTESIAN_POINT('', (3.000000000000001, 5.0, 12.0));
#703 = CARTESIAN_POINT('', (5.000000000000001, 5.0, 12.0));
#704 = CARTESIAN_POINT('', (5.0, 5.0, 8.0));
#705 = CARTESIAN_POINT('', (3.000000000000001, 3.0000000000000013, 8.0));
#706 = CARTESIAN_POINT('', (2.9999999999999996, 3.0, 10.0));
#707 = CARTESIAN_POINT('', (3.000000000000001, 3.0000000000000013, 12.0));
#708 = CARTESIAN_POINT('', (5.000000000000001, 5.0, 12.0));
#709 = CARTESIAN_POINT('', (5.0, 5.0, 8.0));
#710 = CARTESIAN_POINT('', (5.0, 3.000000000000001, 8.0));
#711 = CARTESIAN_POINT('', (5.0, 3.0, 10.0));
#712 = CARTESIAN_POINT('', (5.0, 3.000000000000001, 12.0));
#713 = CARTESIAN_POINT('', (5.000000000000001, 5.0, 12.0));
#714 = CARTESIAN_POINT('', (5.0, 5.0, 8.0));
#715 = CARTESIAN_POINT('', (6.999999999999998, 3.000000000000001, 8.0));
#716 = CARTESIAN_POINT('', (6.999999999999999, 3.0, 10.0));
#717 = CARTESIAN_POINT('', (6.999999999999998, 3.000000000000001, 12.0));
#718 = CARTESIAN_POINT('', (5.000000000000001, 5.0, 12.0));
#719 = CARTESIAN_POINT('', (5.0, 5.0, 8.0));
#720 = CARTESIAN_POINT('', (6.999999999999999, 5.0, 8.0));
#721 = CARTESIAN_POINT('', (7.0, 5.0, 10.0));
#722 = CARTESIAN_POINT('', (6.999999999999999, 5.0, 12.0));
#723 = CARTESIAN_POINT('', (5.000000000000001, 5.0, 12.0));
#724 = DEFINITIONAL_REPRESENTATION('', (#726), #725);
#725 = (
    GEOMETRIC_REPRESENTATION_CONTEXT(2)
    PARAMETRIC_REPRESENTATION_CONTEXT()
    REPRESENTATION_CONTEXT('2D SPACE', '')
);
#726 = (
    BOUNDED_CURVE()
    B_SPLINE_CURVE(1, (#727, #728), .UNSPECIFIED., .U., .U.)
    B_SPLINE_CURVE_WITH_KNOTS((2, 2), (0.0, 1.0), .UNSPECIFIED.)
    CURVE()
    GEOMETRIC_REPRESENTATION_ITEM()
    RATIONAL_B_SPLINE_CURVE((1.0, 1.0))
    REPRESENTATION_ITEM('')
);
#727 = CARTESIAN_POINT('', (0.0, 0.0));
#728 = CARTESIAN_POINT('', (1.0, 0.0));
#729 = CARTESIAN_POINT('', (0.0E0, 0.0E0, 0.0E0));
#730 = CARTESIAN_POINT('', (0.0E0, 1.0E1, 0.0E0));
#731 = CARTESIAN_POINT('', (1.0E1, 1.0E1, 0.0E0));
#732 = CARTESIAN_POINT('', (1.0E1, 0.0E0, 0.0E0));
#733 = CARTESIAN_POINT('', (0.0E0, 0.0E0, 1.0E1));
#734 = CARTESIAN_POINT('', (0.0E0, 1.0E1, 1.0E1));
#735 = CARTESIAN_POINT('', (1.0E1, 0.0E0, 1.0E1));
#736 = CARTESIAN_POINT('', (1.0E1, 1.0E1, 1.0E1));
#737 = CARTESIAN_POINT('', (7.0E0, 5.0E0, 1.0E1));
#738 = CARTESIAN_POINT('', (5.0E0, 5.0E0, 8.0E0));
ENDSEC;
END-ISO-10303-21;
