ISO-10303-21;
HEADER;
FILE_DESCRIPTION(('Shape Data from monstertruck'), '2;1');
FILE_NAME('', '2026-10-10 07:45:52.433223815', (''), (''), 'monstertruck', 'Viboceros', '');
FILE_SCHEMA(('AUTOMOTIVE_DESIGN'));
ENDSEC;
DATA;
#1 = APPLICATION_PROTOCOL_DEFINITION('international standard', 'automotive_design', 2000, #2);
#2 = APPLICATION_CONTEXT('core data for automotive mechanical design processes');
#3 = SHAPE_DEFINITION_REPRESENTATION(#4, #10);
#4 = PRODUCT_DEFINITION_SHAPE('','', #5);
#5 = PRODUCT_DEFINITION('design','', #6, #9);
#6 = PRODUCT_DEFINITION_FORMATION('','', #7);
#7 = PRODUCT('','','', (#8));
#8 = PRODUCT_CONTEXT('', #2, 'mechanical');
#9 = PRODUCT_DEFINITION_CONTEXT('part definition', #2, 'design');
#10 = ADVANCED_BREP_SHAPE_REPRESENTATION('', (#16, #178), #11);
#11 = (
    GEOMETRIC_REPRESENTATION_CONTEXT(3)
    GLOBAL_UNCERTAINTY_ASSIGNED_CONTEXT((#15))
    GLOBAL_UNIT_ASSIGNED_CONTEXT((#12, #13, #14))
    REPRESENTATION_CONTEXT('Context #1', '3D Context with UNIT and UNCERTAINTY')
);
#12 = ( LENGTH_UNIT() NAMED_UNIT(*) SI_UNIT(.MILLI.,.METRE.) );
#13 = ( NAMED_UNIT(*) PLANE_ANGLE_UNIT() SI_UNIT($,.RADIAN.) );
#14 = ( NAMED_UNIT(*) SI_UNIT($,.STERADIAN.) SOLID_ANGLE_UNIT() );
#15 = UNCERTAINTY_MEASURE_WITH_UNIT(LENGTH_MEASURE(1.0E-6), #12, 'distance_accuracy_value','confusion accuracy');
#16 = SHELL_BASED_SURFACE_MODEL('', (#17));
#17 = OPEN_SHELL('', (#18, #25, #32, #39, #46, #53));
#18 = ADVANCED_FACE('', (#19), #80, .T.);
#19 = FACE_BOUND('', #20, .T.);
#20 = EDGE_LOOP('', (#21, #22, #23, #24));
#21 = ORIENTED_EDGE('', *, *, #60, .T.);
#22 = ORIENTED_EDGE('', *, *, #61, .T.);
#23 = ORIENTED_EDGE('', *, *, #62, .F.);
#24 = ORIENTED_EDGE('', *, *, #63, .F.);
#25 = ADVANCED_FACE('', (#26), #85, .T.);
#26 = FACE_BOUND('', #27, .T.);
#27 = EDGE_LOOP('', (#28, #29, #30, #31));
#28 = ORIENTED_EDGE('', *, *, #64, .F.);
#29 = ORIENTED_EDGE('', *, *, #65, .T.);
#30 = ORIENTED_EDGE('', *, *, #66, .T.);
#31 = ORIENTED_EDGE('', *, *, #67, .F.);
#32 = ADVANCED_FACE('', (#33), #90, .T.);
#33 = FACE_BOUND('', #34, .T.);
#34 = EDGE_LOOP('', (#35, #36, #37, #38));
#35 = ORIENTED_EDGE('', *, *, #68, .T.);
#36 = ORIENTED_EDGE('', *, *, #64, .T.);
#37 = ORIENTED_EDGE('', *, *, #69, .F.);
#38 = ORIENTED_EDGE('', *, *, #60, .F.);
#39 = ADVANCED_FACE('', (#40), #95, .T.);
#40 = FACE_BOUND('', #41, .T.);
#41 = EDGE_LOOP('', (#42, #43, #44, #45));
#42 = ORIENTED_EDGE('', *, *, #70, .F.);
#43 = ORIENTED_EDGE('', *, *, #62, .T.);
#44 = ORIENTED_EDGE('', *, *, #71, .T.);
#45 = ORIENTED_EDGE('', *, *, #66, .F.);
#46 = ADVANCED_FACE('', (#47), #100, .T.);
#47 = FACE_BOUND('', #48, .T.);
#48 = EDGE_LOOP('', (#49, #50, #51, #52));
#49 = ORIENTED_EDGE('', *, *, #68, .F.);
#50 = ORIENTED_EDGE('', *, *, #63, .T.);
#51 = ORIENTED_EDGE('', *, *, #70, .T.);
#52 = ORIENTED_EDGE('', *, *, #65, .F.);
#53 = ADVANCED_FACE('', (#54), #105, .T.);
#54 = FACE_BOUND('', #55, .T.);
#55 = EDGE_LOOP('', (#56, #57, #58, #59));
#56 = ORIENTED_EDGE('', *, *, #69, .T.);
#57 = ORIENTED_EDGE('', *, *, #67, .T.);
#58 = ORIENTED_EDGE('', *, *, #71, .F.);
#59 = ORIENTED_EDGE('', *, *, #61, .F.);
#60 = EDGE_CURVE('', #72, #73, #110, .T.);
#61 = EDGE_CURVE('', #73, #74, #115, .T.);
#62 = EDGE_CURVE('', #75, #74, #120, .T.);
#63 = EDGE_CURVE('', #72, #75, #125, .T.);
#64 = EDGE_CURVE('', #76, #77, #130, .T.);
#65 = EDGE_CURVE('', #76, #78, #135, .T.);
#66 = EDGE_CURVE('', #78, #79, #140, .T.);
#67 = EDGE_CURVE('', #77, #79, #145, .T.);
#68 = EDGE_CURVE('', #72, #76, #150, .T.);
#69 = EDGE_CURVE('', #73, #77, #155, .T.);
#70 = EDGE_CURVE('', #75, #78, #160, .T.);
#71 = EDGE_CURVE('', #74, #79, #165, .T.);
#72 = VERTEX_POINT('', #170);
#73 = VERTEX_POINT('', #171);
#74 = VERTEX_POINT('', #172);
#75 = VERTEX_POINT('', #173);
#76 = VERTEX_POINT('', #174);
#77 = VERTEX_POINT('', #175);
#78 = VERTEX_POINT('', #176);
#79 = VERTEX_POINT('', #177);
#80 = PLANE('', #81);
#81 = AXIS2_PLACEMENT_3D('', #82, #83, #84);
#82 = CARTESIAN_POINT('', (5.0E0, 5.0E0, 0.0E0));
#83 = DIRECTION('', (0.0E0, 0.0E0, -1.0E0));
#84 = DIRECTION('', (0.0E0, 1.0E0, 0.0E0));
#85 = PLANE('', #86);
#86 = AXIS2_PLACEMENT_3D('', #87, #88, #89);
#87 = CARTESIAN_POINT('', (5.0E0, 5.0E0, 1.0E1));
#88 = DIRECTION('', (0.0E0, 0.0E0, 1.0E0));
#89 = DIRECTION('', (1.0E0, 0.0E0, 0.0E0));
#90 = PLANE('', #91);
#91 = AXIS2_PLACEMENT_3D('', #92, #93, #94);
#92 = CARTESIAN_POINT('', (0.0E0, 5.0E0, 5.0E0));
#93 = DIRECTION('', (-1.0E0, 0.0E0, 0.0E0));
#94 = DIRECTION('', (0.0E0, 0.0E0, 1.0E0));
#95 = PLANE('', #96);
#96 = AXIS2_PLACEMENT_3D('', #97, #98, #99);
#97 = CARTESIAN_POINT('', (1.0E1, 5.0E0, 5.0E0));
#98 = DIRECTION('', (1.0E0, 0.0E0, 0.0E0));
#99 = DIRECTION('', (0.0E0, 1.0E0, 0.0E0));
#100 = PLANE('', #101);
#101 = AXIS2_PLACEMENT_3D('', #102, #103, #104);
#102 = CARTESIAN_POINT('', (5.0E0, 0.0E0, 5.0E0));
#103 = DIRECTION('', (0.0E0, -1.0E0, 0.0E0));
#104 = DIRECTION('', (1.0E0, 0.0E0, 0.0E0));
#105 = PLANE('', #106);
#106 = AXIS2_PLACEMENT_3D('', #107, #108, #109);
#107 = CARTESIAN_POINT('', (5.0E0, 1.0E1, 5.0E0));
#108 = DIRECTION('', (0.0E0, 1.0E0, 0.0E0));
#109 = DIRECTION('', (0.0E0, 0.0E0, 1.0E0));
#110 = SURFACE_CURVE('', #111, (#80, #90), .CURVE_3D.);
#111 = LINE('', #112, #113);
#112 = CARTESIAN_POINT('', (0.0E0, 0.0E0, 0.0E0));
#113 = VECTOR('', #114, 1.0E1);
#114 = DIRECTION('', (0.0E0, 1.0E0, 0.0E0));
#115 = SURFACE_CURVE('', #116, (#80, #105), .CURVE_3D.);
#116 = LINE('', #117, #118);
#117 = CARTESIAN_POINT('', (0.0E0, 1.0E1, 0.0E0));
#118 = VECTOR('', #119, 1.0E1);
#119 = DIRECTION('', (1.0E0, 0.0E0, 0.0E0));
#120 = SURFACE_CURVE('', #121, (#80, #95), .CURVE_3D.);
#121 = LINE('', #122, #123);
#122 = CARTESIAN_POINT('', (1.0E1, 0.0E0, 0.0E0));
#123 = VECTOR('', #124, 1.0E1);
#124 = DIRECTION('', (0.0E0, 1.0E0, 0.0E0));
#125 = SURFACE_CURVE('', #126, (#80, #100), .CURVE_3D.);
#126 = LINE('', #127, #128);
#127 = CARTESIAN_POINT('', (0.0E0, 0.0E0, 0.0E0));
#128 = VECTOR('', #129, 1.0E1);
#129 = DIRECTION('', (1.0E0, 0.0E0, 0.0E0));
#130 = SURFACE_CURVE('', #131, (#85, #90), .CURVE_3D.);
#131 = LINE('', #132, #133);
#132 = CARTESIAN_POINT('', (0.0E0, 0.0E0, 1.0E1));
#133 = VECTOR('', #134, 1.0E1);
#134 = DIRECTION('', (0.0E0, 1.0E0, 0.0E0));
#135 = SURFACE_CURVE('', #136, (#85, #100), .CURVE_3D.);
#136 = LINE('', #137, #138);
#137 = CARTESIAN_POINT('', (0.0E0, 0.0E0, 1.0E1));
#138 = VECTOR('', #139, 1.0E1);
#139 = DIRECTION('', (1.0E0, 0.0E0, 0.0E0));
#140 = SURFACE_CURVE('', #141, (#85, #95), .CURVE_3D.);
#141 = LINE('', #142, #143);
#142 = CARTESIAN_POINT('', (1.0E1, 0.0E0, 1.0E1));
#143 = VECTOR('', #144, 1.0E1);
#144 = DIRECTION('', (0.0E0, 1.0E0, 0.0E0));
#145 = SURFACE_CURVE('', #146, (#85, #105), .CURVE_3D.);
#146 = LINE('', #147, #148);
#147 = CARTESIAN_POINT('', (0.0E0, 1.0E1, 1.0E1));
#148 = VECTOR('', #149, 1.0E1);
#149 = DIRECTION('', (1.0E0, 0.0E0, 0.0E0));
#150 = SURFACE_CURVE('', #151, (#90, #100), .CURVE_3D.);
#151 = LINE('', #152, #153);
#152 = CARTESIAN_POINT('', (0.0E0, 0.0E0, 0.0E0));
#153 = VECTOR('', #154, 1.0E1);
#154 = DIRECTION('', (0.0E0, 0.0E0, 1.0E0));
#155 = SURFACE_CURVE('', #156, (#90, #105), .CURVE_3D.);
#156 = LINE('', #157, #158);
#157 = CARTESIAN_POINT('', (0.0E0, 1.0E1, 0.0E0));
#158 = VECTOR('', #159, 1.0E1);
#159 = DIRECTION('', (0.0E0, 0.0E0, 1.0E0));
#160 = SURFACE_CURVE('', #161, (#95, #100), .CURVE_3D.);
#161 = LINE('', #162, #163);
#162 = CARTESIAN_POINT('', (1.0E1, 0.0E0, 0.0E0));
#163 = VECTOR('', #164, 1.0E1);
#164 = DIRECTION('', (0.0E0, 0.0E0, 1.0E0));
#165 = SURFACE_CURVE('', #166, (#95, #105), .CURVE_3D.);
#166 = LINE('', #167, #168);
#167 = CARTESIAN_POINT('', (1.0E1, 1.0E1, 0.0E0));
#168 = VECTOR('', #169, 1.0E1);
#169 = DIRECTION('', (0.0E0, 0.0E0, 1.0E0));
#170 = CARTESIAN_POINT('', (0.0E0, 0.0E0, 0.0E0));
#171 = CARTESIAN_POINT('', (0.0E0, 1.0E1, 0.0E0));
#172 = CARTESIAN_POINT('', (1.0E1, 1.0E1, 0.0E0));
#173 = CARTESIAN_POINT('', (1.0E1, 0.0E0, 0.0E0));
#174 = CARTESIAN_POINT('', (0.0E0, 0.0E0, 1.0E1));
#175 = CARTESIAN_POINT('', (0.0E0, 1.0E1, 1.0E1));
#176 = CARTESIAN_POINT('', (1.0E1, 0.0E0, 1.0E1));
#177 = CARTESIAN_POINT('', (1.0E1, 1.0E1, 1.0E1));
#178 = SHELL_BASED_SURFACE_MODEL('', (#179));
#179 = OPEN_SHELL('', (#180));
#180 = ADVANCED_FACE('', (#181), #192, .F.);
#181 = FACE_BOUND('', #182, .F.);
#182 = EDGE_LOOP('', (#183, #184, #185, #186));
#183 = ORIENTED_EDGE('', *, *, #187, .F.);
#184 = ORIENTED_EDGE('', *, *, #188, .T.);
#185 = ORIENTED_EDGE('', *, *, #187, .T.);
#186 = ORIENTED_EDGE('', *, *, #189, .T.);
#187 = EDGE_CURVE('', #190, #191, #238, .T.);
#188 = EDGE_CURVE('', #190, #190, #349, .T.);
#189 = EDGE_CURVE('', #191, #191, #405, .T.);
#190 = VERTEX_POINT('', #461);
#191 = VERTEX_POINT('', #462);
#192 = (
    BOUNDED_SURFACE()
    B_SPLINE_SURFACE(2, 2, ((#193, #194, #195, #196, #197), (#198, #199, #200, #201, #202), (#203, #204, #205, #206, #207), (#208, #209, #210, #211, #212), (#213, #214, #215, #216, #217), (#218, #219, #220, #221, #222), (#223, #224, #225, #226, #227), (#228, #229, #230, #231, #232), (#233, #234, #235, #236, #237)), .UNSPECIFIED., .U., .U., .U.)
    B_SPLINE_SURFACE_WITH_KNOTS((3, 2, 2, 2, 3), (3, 2, 3), (0.0, 0.25, 0.5, 0.75, 1.0), (0.0, 0.5, 1.0), .UNSPECIFIED.)
    GEOMETRIC_REPRESENTATION_ITEM()
    RATIONAL_B_SPLINE_SURFACE(((1.0, 0.7071067811865476, 1.0, 0.7071067811865476, 1.0), (0.7071067811865476, 0.5000000000000001, 0.7071067811865476, 0.5000000000000001, 0.7071067811865476), (1.0, 0.7071067811865476, 1.0, 0.7071067811865476, 1.0), (0.7071067811865476, 0.5000000000000001, 0.7071067811865476, 0.5000000000000001, 0.7071067811865476), (1.0, 0.7071067811865476, 1.0, 0.7071067811865476, 1.0), (0.7071067811865476, 0.5000000000000001, 0.7071067811865476, 0.5000000000000001, 0.7071067811865476), (1.0, 0.7071067811865476, 1.0, 0.7071067811865476, 1.0), (0.7071067811865476, 0.5000000000000001, 0.7071067811865476, 0.5000000000000001, 0.7071067811865476), (1.0, 0.7071067811865476, 1.0, 0.7071067811865476, 1.0)))
    REPRESENTATION_ITEM('')
    SURFACE()
);
#193 = CARTESIAN_POINT('', (5.0, 5.0, 3.0));
#194 = CARTESIAN_POINT('', (6.999999999999999, 5.0, 3.0));
#195 = CARTESIAN_POINT('', (7.0, 5.0, 4.999999999999999));
#196 = CARTESIAN_POINT('', (6.999999999999999, 5.0, 6.999999999999999));
#197 = CARTESIAN_POINT('', (5.000000000000001, 5.0, 7.0));
#198 = CARTESIAN_POINT('', (5.0, 5.0, 3.0));
#199 = CARTESIAN_POINT('', (6.999999999999999, 6.999999999999999, 3.0));
#200 = CARTESIAN_POINT('', (6.999999999999999, 6.999999999999999, 4.999999999999999));
#201 = CARTESIAN_POINT('', (6.999999999999999, 6.999999999999999, 6.999999999999999));
#202 = CARTESIAN_POINT('', (5.000000000000001, 5.0, 6.999999999999999));
#203 = CARTESIAN_POINT('', (5.0, 5.0, 3.0));
#204 = CARTESIAN_POINT('', (5.0, 6.999999999999999, 3.0));
#205 = CARTESIAN_POINT('', (5.0, 7.0, 4.999999999999999));
#206 = CARTESIAN_POINT('', (5.0, 6.999999999999999, 6.999999999999999));
#207 = CARTESIAN_POINT('', (5.000000000000001, 5.0, 7.0));
#208 = CARTESIAN_POINT('', (5.0, 5.0, 3.0));
#209 = CARTESIAN_POINT('', (3.0000000000000013, 6.999999999999999, 3.0));
#210 = CARTESIAN_POINT('', (3.0, 6.999999999999999, 4.999999999999999));
#211 = CARTESIAN_POINT('', (3.0000000000000013, 6.999999999999999, 6.999999999999999));
#212 = CARTESIAN_POINT('', (5.000000000000001, 5.0, 6.999999999999999));
#213 = CARTESIAN_POINT('', (5.0, 5.0, 3.0));
#214 = CARTESIAN_POINT('', (3.000000000000001, 5.0, 3.0));
#215 = CARTESIAN_POINT('', (3.0, 5.0, 4.999999999999999));
#216 = CARTESIAN_POINT('', (3.000000000000001, 5.0, 6.999999999999999));
#217 = CARTESIAN_POINT('', (5.000000000000001, 5.0, 7.0));
#218 = CARTESIAN_POINT('', (5.0, 5.0, 3.0));
#219 = CARTESIAN_POINT('', (3.000000000000001, 3.0000000000000013, 3.0));
#220 = CARTESIAN_POINT('', (2.9999999999999996, 3.0, 4.999999999999999));
#221 = CARTESIAN_POINT('', (3.000000000000001, 3.0000000000000013, 6.999999999999999));
#222 = CARTESIAN_POINT('', (5.000000000000001, 5.0, 6.999999999999999));
#223 = CARTESIAN_POINT('', (5.0, 5.0, 3.0));
#224 = CARTESIAN_POINT('', (5.0, 3.000000000000001, 3.0));
#225 = CARTESIAN_POINT('', (5.0, 3.0, 4.999999999999999));
#226 = CARTESIAN_POINT('', (5.0, 3.000000000000001, 6.999999999999999));
#227 = CARTESIAN_POINT('', (5.000000000000001, 5.0, 7.0));
#228 = CARTESIAN_POINT('', (5.0, 5.0, 3.0));
#229 = CARTESIAN_POINT('', (6.999999999999998, 3.000000000000001, 3.0));
#230 = CARTESIAN_POINT('', (6.999999999999999, 3.0, 4.999999999999999));
#231 = CARTESIAN_POINT('', (6.999999999999998, 3.000000000000001, 6.999999999999999));
#232 = CARTESIAN_POINT('', (5.000000000000001, 5.0, 6.999999999999999));
#233 = CARTESIAN_POINT('', (5.0, 5.0, 3.0));
#234 = CARTESIAN_POINT('', (6.999999999999999, 5.0, 3.0));
#235 = CARTESIAN_POINT('', (7.0, 5.0, 4.999999999999999));
#236 = CARTESIAN_POINT('', (6.999999999999999, 5.0, 6.999999999999999));
#237 = CARTESIAN_POINT('', (5.000000000000001, 5.0, 7.0));
#238 = SEAM_CURVE('', #239, (#245, #297), .CURVE_3D.);
#239 = (
    BOUNDED_CURVE()
    B_SPLINE_CURVE(2, (#240, #241, #242, #243, #244), .UNSPECIFIED., .U., .U.)
    B_SPLINE_CURVE_WITH_KNOTS((3, 2, 3), (0.0, 0.5, 1.0), .UNSPECIFIED.)
    CURVE()
    GEOMETRIC_REPRESENTATION_ITEM()
    RATIONAL_B_SPLINE_CURVE((1.0, 0.7071067811865476, 1.0, 0.7071067811865476, 1.0))
    REPRESENTATION_ITEM('')
);
#240 = CARTESIAN_POINT('', (5.0, 5.0, 3.0));
#241 = CARTESIAN_POINT('', (6.999999999999999, 5.0, 3.0));
#242 = CARTESIAN_POINT('', (7.0, 5.0, 4.999999999999999));
#243 = CARTESIAN_POINT('', (6.999999999999999, 5.0, 6.999999999999999));
#244 = CARTESIAN_POINT('', (5.000000000000001, 5.0, 7.0));
#245 = PCURVE('', #246, #292);
#246 = (
    BOUNDED_SURFACE()
    B_SPLINE_SURFACE(2, 2, ((#247, #248, #249, #250, #251), (#252, #253, #254, #255, #256), (#257, #258, #259, #260, #261), (#262, #263, #264, #265, #266), (#267, #268, #269, #270, #271), (#272, #273, #274, #275, #276), (#277, #278, #279, #280, #281), (#282, #283, #284, #285, #286), (#287, #288, #289, #290, #291)), .UNSPECIFIED., .U., .U., .U.)
    B_SPLINE_SURFACE_WITH_KNOTS((3, 2, 2, 2, 3), (3, 2, 3), (0.0, 0.25, 0.5, 0.75, 1.0), (0.0, 0.5, 1.0), .UNSPECIFIED.)
    GEOMETRIC_REPRESENTATION_ITEM()
    RATIONAL_B_SPLINE_SURFACE(((1.0, 0.7071067811865476, 1.0, 0.7071067811865476, 1.0), (0.7071067811865476, 0.5000000000000001, 0.7071067811865476, 0.5000000000000001, 0.7071067811865476), (1.0, 0.7071067811865476, 1.0, 0.7071067811865476, 1.0), (0.7071067811865476, 0.5000000000000001, 0.7071067811865476, 0.5000000000000001, 0.7071067811865476), (1.0, 0.7071067811865476, 1.0, 0.7071067811865476, 1.0), (0.7071067811865476, 0.5000000000000001, 0.7071067811865476, 0.5000000000000001, 0.7071067811865476), (1.0, 0.7071067811865476, 1.0, 0.7071067811865476, 1.0), (0.7071067811865476, 0.5000000000000001, 0.7071067811865476, 0.5000000000000001, 0.7071067811865476), (1.0, 0.7071067811865476, 1.0, 0.7071067811865476, 1.0)))
    REPRESENTATION_ITEM('')
    SURFACE()
);
#247 = CARTESIAN_POINT('', (5.0, 5.0, 3.0));
#248 = CARTESIAN_POINT('', (6.999999999999999, 5.0, 3.0));
#249 = CARTESIAN_POINT('', (7.0, 5.0, 4.999999999999999));
#250 = CARTESIAN_POINT('', (6.999999999999999, 5.0, 6.999999999999999));
#251 = CARTESIAN_POINT('', (5.000000000000001, 5.0, 7.0));
#252 = CARTESIAN_POINT('', (5.0, 5.0, 3.0));
#253 = CARTESIAN_POINT('', (6.999999999999999, 6.999999999999999, 3.0));
#254 = CARTESIAN_POINT('', (6.999999999999999, 6.999999999999999, 4.999999999999999));
#255 = CARTESIAN_POINT('', (6.999999999999999, 6.999999999999999, 6.999999999999999));
#256 = CARTESIAN_POINT('', (5.000000000000001, 5.0, 6.999999999999999));
#257 = CARTESIAN_POINT('', (5.0, 5.0, 3.0));
#258 = CARTESIAN_POINT('', (5.0, 6.999999999999999, 3.0));
#259 = CARTESIAN_POINT('', (5.0, 7.0, 4.999999999999999));
#260 = CARTESIAN_POINT('', (5.0, 6.999999999999999, 6.999999999999999));
#261 = CARTESIAN_POINT('', (5.000000000000001, 5.0, 7.0));
#262 = CARTESIAN_POINT('', (5.0, 5.0, 3.0));
#263 = CARTESIAN_POINT('', (3.0000000000000013, 6.999999999999999, 3.0));
#264 = CARTESIAN_POINT('', (3.0, 6.999999999999999, 4.999999999999999));
#265 = CARTESIAN_POINT('', (3.0000000000000013, 6.999999999999999, 6.999999999999999));
#266 = CARTESIAN_POINT('', (5.000000000000001, 5.0, 6.999999999999999));
#267 = CARTESIAN_POINT('', (5.0, 5.0, 3.0));
#268 = CARTESIAN_POINT('', (3.000000000000001, 5.0, 3.0));
#269 = CARTESIAN_POINT('', (3.0, 5.0, 4.999999999999999));
#270 = CARTESIAN_POINT('', (3.000000000000001, 5.0, 6.999999999999999));
#271 = CARTESIAN_POINT('', (5.000000000000001, 5.0, 7.0));
#272 = CARTESIAN_POINT('', (5.0, 5.0, 3.0));
#273 = CARTESIAN_POINT('', (3.000000000000001, 3.0000000000000013, 3.0));
#274 = CARTESIAN_POINT('', (2.9999999999999996, 3.0, 4.999999999999999));
#275 = CARTESIAN_POINT('', (3.000000000000001, 3.0000000000000013, 6.999999999999999));
#276 = CARTESIAN_POINT('', (5.000000000000001, 5.0, 6.999999999999999));
#277 = CARTESIAN_POINT('', (5.0, 5.0, 3.0));
#278 = CARTESIAN_POINT('', (5.0, 3.000000000000001, 3.0));
#279 = CARTESIAN_POINT('', (5.0, 3.0, 4.999999999999999));
#280 = CARTESIAN_POINT('', (5.0, 3.000000000000001, 6.999999999999999));
#281 = CARTESIAN_POINT('', (5.000000000000001, 5.0, 7.0));
#282 = CARTESIAN_POINT('', (5.0, 5.0, 3.0));
#283 = CARTESIAN_POINT('', (6.999999999999998, 3.000000000000001, 3.0));
#284 = CARTESIAN_POINT('', (6.999999999999999, 3.0, 4.999999999999999));
#285 = CARTESIAN_POINT('', (6.999999999999998, 3.000000000000001, 6.999999999999999));
#286 = CARTESIAN_POINT('', (5.000000000000001, 5.0, 6.999999999999999));
#287 = CARTESIAN_POINT('', (5.0, 5.0, 3.0));
#288 = CARTESIAN_POINT('', (6.999999999999999, 5.0, 3.0));
#289 = CARTESIAN_POINT('', (7.0, 5.0, 4.999999999999999));
#290 = CARTESIAN_POINT('', (6.999999999999999, 5.0, 6.999999999999999));
#291 = CARTESIAN_POINT('', (5.000000000000001, 5.0, 7.0));
#292 = DEFINITIONAL_REPRESENTATION('', (#294), #293);
#293 = (
    GEOMETRIC_REPRESENTATION_CONTEXT(2)
    PARAMETRIC_REPRESENTATION_CONTEXT()
    REPRESENTATION_CONTEXT('2D SPACE', '')
);
#294 = (
    BOUNDED_CURVE()
    B_SPLINE_CURVE(1, (#295, #296), .UNSPECIFIED., .U., .U.)
    B_SPLINE_CURVE_WITH_KNOTS((2, 2), (0.0, 1.0), .UNSPECIFIED.)
    CURVE()
    GEOMETRIC_REPRESENTATION_ITEM()
    RATIONAL_B_SPLINE_CURVE((1.0, 1.0))
    REPRESENTATION_ITEM('')
);
#295 = CARTESIAN_POINT('', (0.0, 0.0));
#296 = CARTESIAN_POINT('', (0.0, 1.0));
#297 = PCURVE('', #298, #344);
#298 = (
    BOUNDED_SURFACE()
    B_SPLINE_SURFACE(2, 2, ((#299, #300, #301, #302, #303), (#304, #305, #306, #307, #308), (#309, #310, #311, #312, #313), (#314, #315, #316, #317, #318), (#319, #320, #321, #322, #323), (#324, #325, #326, #327, #328), (#329, #330, #331, #332, #333), (#334, #335, #336, #337, #338), (#339, #340, #341, #342, #343)), .UNSPECIFIED., .U., .U., .U.)
    B_SPLINE_SURFACE_WITH_KNOTS((3, 2, 2, 2, 3), (3, 2, 3), (0.0, 0.25, 0.5, 0.75, 1.0), (0.0, 0.5, 1.0), .UNSPECIFIED.)
    GEOMETRIC_REPRESENTATION_ITEM()
    RATIONAL_B_SPLINE_SURFACE(((1.0, 0.7071067811865476, 1.0, 0.7071067811865476, 1.0), (0.7071067811865476, 0.5000000000000001, 0.7071067811865476, 0.5000000000000001, 0.7071067811865476), (1.0, 0.7071067811865476, 1.0, 0.7071067811865476, 1.0), (0.7071067811865476, 0.5000000000000001, 0.7071067811865476, 0.5000000000000001, 0.7071067811865476), (1.0, 0.7071067811865476, 1.0, 0.7071067811865476, 1.0), (0.7071067811865476, 0.5000000000000001, 0.7071067811865476, 0.5000000000000001, 0.7071067811865476), (1.0, 0.7071067811865476, 1.0, 0.7071067811865476, 1.0), (0.7071067811865476, 0.5000000000000001, 0.7071067811865476, 0.5000000000000001, 0.7071067811865476), (1.0, 0.7071067811865476, 1.0, 0.7071067811865476, 1.0)))
    REPRESENTATION_ITEM('')
    SURFACE()
);
#299 = CARTESIAN_POINT('', (5.0, 5.0, 3.0));
#300 = CARTESIAN_POINT('', (6.999999999999999, 5.0, 3.0));
#301 = CARTESIAN_POINT('', (7.0, 5.0, 4.999999999999999));
#302 = CARTESIAN_POINT('', (6.999999999999999, 5.0, 6.999999999999999));
#303 = CARTESIAN_POINT('', (5.000000000000001, 5.0, 7.0));
#304 = CARTESIAN_POINT('', (5.0, 5.0, 3.0));
#305 = CARTESIAN_POINT('', (6.999999999999999, 6.999999999999999, 3.0));
#306 = CARTESIAN_POINT('', (6.999999999999999, 6.999999999999999, 4.999999999999999));
#307 = CARTESIAN_POINT('', (6.999999999999999, 6.999999999999999, 6.999999999999999));
#308 = CARTESIAN_POINT('', (5.000000000000001, 5.0, 6.999999999999999));
#309 = CARTESIAN_POINT('', (5.0, 5.0, 3.0));
#310 = CARTESIAN_POINT('', (5.0, 6.999999999999999, 3.0));
#311 = CARTESIAN_POINT('', (5.0, 7.0, 4.999999999999999));
#312 = CARTESIAN_POINT('', (5.0, 6.999999999999999, 6.999999999999999));
#313 = CARTESIAN_POINT('', (5.000000000000001, 5.0, 7.0));
#314 = CARTESIAN_POINT('', (5.0, 5.0, 3.0));
#315 = CARTESIAN_POINT('', (3.0000000000000013, 6.999999999999999, 3.0));
#316 = CARTESIAN_POINT('', (3.0, 6.999999999999999, 4.999999999999999));
#317 = CARTESIAN_POINT('', (3.0000000000000013, 6.999999999999999, 6.999999999999999));
#318 = CARTESIAN_POINT('', (5.000000000000001, 5.0, 6.999999999999999));
#319 = CARTESIAN_POINT('', (5.0, 5.0, 3.0));
#320 = CARTESIAN_POINT('', (3.000000000000001, 5.0, 3.0));
#321 = CARTESIAN_POINT('', (3.0, 5.0, 4.999999999999999));
#322 = CARTESIAN_POINT('', (3.000000000000001, 5.0, 6.999999999999999));
#323 = CARTESIAN_POINT('', (5.000000000000001, 5.0, 7.0));
#324 = CARTESIAN_POINT('', (5.0, 5.0, 3.0));
#325 = CARTESIAN_POINT('', (3.000000000000001, 3.0000000000000013, 3.0));
#326 = CARTESIAN_POINT('', (2.9999999999999996, 3.0, 4.999999999999999));
#327 = CARTESIAN_POINT('', (3.000000000000001, 3.0000000000000013, 6.999999999999999));
#328 = CARTESIAN_POINT('', (5.000000000000001, 5.0, 6.999999999999999));
#329 = CARTESIAN_POINT('', (5.0, 5.0, 3.0));
#330 = CARTESIAN_POINT('', (5.0, 3.000000000000001, 3.0));
#331 = CARTESIAN_POINT('', (5.0, 3.0, 4.999999999999999));
#332 = CARTESIAN_POINT('', (5.0, 3.000000000000001, 6.999999999999999));
#333 = CARTESIAN_POINT('', (5.000000000000001, 5.0, 7.0));
#334 = CARTESIAN_POINT('', (5.0, 5.0, 3.0));
#335 = CARTESIAN_POINT('', (6.999999999999998, 3.000000000000001, 3.0));
#336 = CARTESIAN_POINT('', (6.999999999999999, 3.0, 4.999999999999999));
#337 = CARTESIAN_POINT('', (6.999999999999998, 3.000000000000001, 6.999999999999999));
#338 = CARTESIAN_POINT('', (5.000000000000001, 5.0, 6.999999999999999));
#339 = CARTESIAN_POINT('', (5.0, 5.0, 3.0));
#340 = CARTESIAN_POINT('', (6.999999999999999, 5.0, 3.0));
#341 = CARTESIAN_POINT('', (7.0, 5.0, 4.999999999999999));
#342 = CARTESIAN_POINT('', (6.999999999999999, 5.0, 6.999999999999999));
#343 = CARTESIAN_POINT('', (5.000000000000001, 5.0, 7.0));
#344 = DEFINITIONAL_REPRESENTATION('', (#346), #345);
#345 = (
    GEOMETRIC_REPRESENTATION_CONTEXT(2)
    PARAMETRIC_REPRESENTATION_CONTEXT()
    REPRESENTATION_CONTEXT('2D SPACE', '')
);
#346 = (
    BOUNDED_CURVE()
    B_SPLINE_CURVE(1, (#347, #348), .UNSPECIFIED., .U., .U.)
    B_SPLINE_CURVE_WITH_KNOTS((2, 2), (0.0, 1.0), .UNSPECIFIED.)
    CURVE()
    GEOMETRIC_REPRESENTATION_ITEM()
    RATIONAL_B_SPLINE_CURVE((1.0, 1.0))
    REPRESENTATION_ITEM('')
);
#347 = CARTESIAN_POINT('', (1.0, 0.0));
#348 = CARTESIAN_POINT('', (1.0, 1.0));
#349 = SURFACE_CURVE('', #350, (#353), .CURVE_3D.);
#350 = (
    BOUNDED_CURVE()
    B_SPLINE_CURVE(1, (#351, #352), .UNSPECIFIED., .U., .U.)
    B_SPLINE_CURVE_WITH_KNOTS((2, 2), (0.0, 1.0), .UNSPECIFIED.)
    CURVE()
    GEOMETRIC_REPRESENTATION_ITEM()
    RATIONAL_B_SPLINE_CURVE((1.0, 1.0))
    REPRESENTATION_ITEM('')
);
#351 = CARTESIAN_POINT('', (5.0, 5.0, 3.0));
#352 = CARTESIAN_POINT('', (5.0, 5.0, 3.0));
#353 = PCURVE('', #354, #400);
#354 = (
    BOUNDED_SURFACE()
    B_SPLINE_SURFACE(2, 2, ((#355, #356, #357, #358, #359), (#360, #361, #362, #363, #364), (#365, #366, #367, #368, #369), (#370, #371, #372, #373, #374), (#375, #376, #377, #378, #379), (#380, #381, #382, #383, #384), (#385, #386, #387, #388, #389), (#390, #391, #392, #393, #394), (#395, #396, #397, #398, #399)), .UNSPECIFIED., .U., .U., .U.)
    B_SPLINE_SURFACE_WITH_KNOTS((3, 2, 2, 2, 3), (3, 2, 3), (0.0, 0.25, 0.5, 0.75, 1.0), (0.0, 0.5, 1.0), .UNSPECIFIED.)
    GEOMETRIC_REPRESENTATION_ITEM()
    RATIONAL_B_SPLINE_SURFACE(((1.0, 0.7071067811865476, 1.0, 0.7071067811865476, 1.0), (0.7071067811865476, 0.5000000000000001, 0.7071067811865476, 0.5000000000000001, 0.7071067811865476), (1.0, 0.7071067811865476, 1.0, 0.7071067811865476, 1.0), (0.7071067811865476, 0.5000000000000001, 0.7071067811865476, 0.5000000000000001, 0.7071067811865476), (1.0, 0.7071067811865476, 1.0, 0.7071067811865476, 1.0), (0.7071067811865476, 0.5000000000000001, 0.7071067811865476, 0.5000000000000001, 0.7071067811865476), (1.0, 0.7071067811865476, 1.0, 0.7071067811865476, 1.0), (0.7071067811865476, 0.5000000000000001, 0.7071067811865476, 0.5000000000000001, 0.7071067811865476), (1.0, 0.7071067811865476, 1.0, 0.7071067811865476, 1.0)))
    REPRESENTATION_ITEM('')
    SURFACE()
);
#355 = CARTESIAN_POINT('', (5.0, 5.0, 3.0));
#356 = CARTESIAN_POINT('', (6.999999999999999, 5.0, 3.0));
#357 = CARTESIAN_POINT('', (7.0, 5.0, 4.999999999999999));
#358 = CARTESIAN_POINT('', (6.999999999999999, 5.0, 6.999999999999999));
#359 = CARTESIAN_POINT('', (5.000000000000001, 5.0, 7.0));
#360 = CARTESIAN_POINT('', (5.0, 5.0, 3.0));
#361 = CARTESIAN_POINT('', (6.999999999999999, 6.999999999999999, 3.0));
#362 = CARTESIAN_POINT('', (6.999999999999999, 6.999999999999999, 4.999999999999999));
#363 = CARTESIAN_POINT('', (6.999999999999999, 6.999999999999999, 6.999999999999999));
#364 = CARTESIAN_POINT('', (5.000000000000001, 5.0, 6.999999999999999));
#365 = CARTESIAN_POINT('', (5.0, 5.0, 3.0));
#366 = CARTESIAN_POINT('', (5.0, 6.999999999999999, 3.0));
#367 = CARTESIAN_POINT('', (5.0, 7.0, 4.999999999999999));
#368 = CARTESIAN_POINT('', (5.0, 6.999999999999999, 6.999999999999999));
#369 = CARTESIAN_POINT('', (5.000000000000001, 5.0, 7.0));
#370 = CARTESIAN_POINT('', (5.0, 5.0, 3.0));
#371 = CARTESIAN_POINT('', (3.0000000000000013, 6.999999999999999, 3.0));
#372 = CARTESIAN_POINT('', (3.0, 6.999999999999999, 4.999999999999999));
#373 = CARTESIAN_POINT('', (3.0000000000000013, 6.999999999999999, 6.999999999999999));
#374 = CARTESIAN_POINT('', (5.000000000000001, 5.0, 6.999999999999999));
#375 = CARTESIAN_POINT('', (5.0, 5.0, 3.0));
#376 = CARTESIAN_POINT('', (3.000000000000001, 5.0, 3.0));
#377 = CARTESIAN_POINT('', (3.0, 5.0, 4.999999999999999));
#378 = CARTESIAN_POINT('', (3.000000000000001, 5.0, 6.999999999999999));
#379 = CARTESIAN_POINT('', (5.000000000000001, 5.0, 7.0));
#380 = CARTESIAN_POINT('', (5.0, 5.0, 3.0));
#381 = CARTESIAN_POINT('', (3.000000000000001, 3.0000000000000013, 3.0));
#382 = CARTESIAN_POINT('', (2.9999999999999996, 3.0, 4.999999999999999));
#383 = CARTESIAN_POINT('', (3.000000000000001, 3.0000000000000013, 6.999999999999999));
#384 = CARTESIAN_POINT('', (5.000000000000001, 5.0, 6.999999999999999));
#385 = CARTESIAN_POINT('', (5.0, 5.0, 3.0));
#386 = CARTESIAN_POINT('', (5.0, 3.000000000000001, 3.0));
#387 = CARTESIAN_POINT('', (5.0, 3.0, 4.999999999999999));
#388 = CARTESIAN_POINT('', (5.0, 3.000000000000001, 6.999999999999999));
#389 = CARTESIAN_POINT('', (5.000000000000001, 5.0, 7.0));
#390 = CARTESIAN_POINT('', (5.0, 5.0, 3.0));
#391 = CARTESIAN_POINT('', (6.999999999999998, 3.000000000000001, 3.0));
#392 = CARTESIAN_POINT('', (6.999999999999999, 3.0, 4.999999999999999));
#393 = CARTESIAN_POINT('', (6.999999999999998, 3.000000000000001, 6.999999999999999));
#394 = CARTESIAN_POINT('', (5.000000000000001, 5.0, 6.999999999999999));
#395 = CARTESIAN_POINT('', (5.0, 5.0, 3.0));
#396 = CARTESIAN_POINT('', (6.999999999999999, 5.0, 3.0));
#397 = CARTESIAN_POINT('', (7.0, 5.0, 4.999999999999999));
#398 = CARTESIAN_POINT('', (6.999999999999999, 5.0, 6.999999999999999));
#399 = CARTESIAN_POINT('', (5.000000000000001, 5.0, 7.0));
#400 = DEFINITIONAL_REPRESENTATION('', (#402), #401);
#401 = (
    GEOMETRIC_REPRESENTATION_CONTEXT(2)
    PARAMETRIC_REPRESENTATION_CONTEXT()
    REPRESENTATION_CONTEXT('2D SPACE', '')
);
#402 = (
    BOUNDED_CURVE()
    B_SPLINE_CURVE(1, (#403, #404), .UNSPECIFIED., .U., .U.)
    B_SPLINE_CURVE_WITH_KNOTS((2, 2), (0.0, 1.0), .UNSPECIFIED.)
    CURVE()
    GEOMETRIC_REPRESENTATION_ITEM()
    RATIONAL_B_SPLINE_CURVE((1.0, 1.0))
    REPRESENTATION_ITEM('')
);
#403 = CARTESIAN_POINT('', (0.0, 0.0));
#404 = CARTESIAN_POINT('', (1.0, 0.0));
#405 = SURFACE_CURVE('', #406, (#409), .CURVE_3D.);
#406 = (
    BOUNDED_CURVE()
    B_SPLINE_CURVE(1, (#407, #408), .UNSPECIFIED., .U., .U.)
    B_SPLINE_CURVE_WITH_KNOTS((2, 2), (0.0, 1.0), .UNSPECIFIED.)
    CURVE()
    GEOMETRIC_REPRESENTATION_ITEM()
    RATIONAL_B_SPLINE_CURVE((1.0, 1.0))
    REPRESENTATION_ITEM('')
);
#407 = CARTESIAN_POINT('', (5.000000000000001, 5.0, 7.0));
#408 = CARTESIAN_POINT('', (5.000000000000001, 5.0, 7.0));
#409 = PCURVE('', #410, #456);
#410 = (
    BOUNDED_SURFACE()
    B_SPLINE_SURFACE(2, 2, ((#411, #412, #413, #414, #415), (#416, #417, #418, #419, #420), (#421, #422, #423, #424, #425), (#426, #427, #428, #429, #430), (#431, #432, #433, #434, #435), (#436, #437, #438, #439, #440), (#441, #442, #443, #444, #445), (#446, #447, #448, #449, #450), (#451, #452, #453, #454, #455)), .UNSPECIFIED., .U., .U., .U.)
    B_SPLINE_SURFACE_WITH_KNOTS((3, 2, 2, 2, 3), (3, 2, 3), (0.0, 0.25, 0.5, 0.75, 1.0), (0.0, 0.5, 1.0), .UNSPECIFIED.)
    GEOMETRIC_REPRESENTATION_ITEM()
    RATIONAL_B_SPLINE_SURFACE(((1.0, 0.7071067811865476, 1.0, 0.7071067811865476, 1.0), (0.7071067811865476, 0.5000000000000001, 0.7071067811865476, 0.5000000000000001, 0.7071067811865476), (1.0, 0.7071067811865476, 1.0, 0.7071067811865476, 1.0), (0.7071067811865476, 0.5000000000000001, 0.7071067811865476, 0.5000000000000001, 0.7071067811865476), (1.0, 0.7071067811865476, 1.0, 0.7071067811865476, 1.0), (0.7071067811865476, 0.5000000000000001, 0.7071067811865476, 0.5000000000000001, 0.7071067811865476), (1.0, 0.7071067811865476, 1.0, 0.7071067811865476, 1.0), (0.7071067811865476, 0.5000000000000001, 0.7071067811865476, 0.5000000000000001, 0.7071067811865476), (1.0, 0.7071067811865476, 1.0, 0.7071067811865476, 1.0)))
    REPRESENTATION_ITEM('')
    SURFACE()
);
#411 = CARTESIAN_POINT('', (5.0, 5.0, 3.0));
#412 = CARTESIAN_POINT('', (6.999999999999999, 5.0, 3.0));
#413 = CARTESIAN_POINT('', (7.0, 5.0, 4.999999999999999));
#414 = CARTESIAN_POINT('', (6.999999999999999, 5.0, 6.999999999999999));
#415 = CARTESIAN_POINT('', (5.000000000000001, 5.0, 7.0));
#416 = CARTESIAN_POINT('', (5.0, 5.0, 3.0));
#417 = CARTESIAN_POINT('', (6.999999999999999, 6.999999999999999, 3.0));
#418 = CARTESIAN_POINT('', (6.999999999999999, 6.999999999999999, 4.999999999999999));
#419 = CARTESIAN_POINT('', (6.999999999999999, 6.999999999999999, 6.999999999999999));
#420 = CARTESIAN_POINT('', (5.000000000000001, 5.0, 6.999999999999999));
#421 = CARTESIAN_POINT('', (5.0, 5.0, 3.0));
#422 = CARTESIAN_POINT('', (5.0, 6.999999999999999, 3.0));
#423 = CARTESIAN_POINT('', (5.0, 7.0, 4.999999999999999));
#424 = CARTESIAN_POINT('', (5.0, 6.999999999999999, 6.999999999999999));
#425 = CARTESIAN_POINT('', (5.000000000000001, 5.0, 7.0));
#426 = CARTESIAN_POINT('', (5.0, 5.0, 3.0));
#427 = CARTESIAN_POINT('', (3.0000000000000013, 6.999999999999999, 3.0));
#428 = CARTESIAN_POINT('', (3.0, 6.999999999999999, 4.999999999999999));
#429 = CARTESIAN_POINT('', (3.0000000000000013, 6.999999999999999, 6.999999999999999));
#430 = CARTESIAN_POINT('', (5.000000000000001, 5.0, 6.999999999999999));
#431 = CARTESIAN_POINT('', (5.0, 5.0, 3.0));
#432 = CARTESIAN_POINT('', (3.000000000000001, 5.0, 3.0));
#433 = CARTESIAN_POINT('', (3.0, 5.0, 4.999999999999999));
#434 = CARTESIAN_POINT('', (3.000000000000001, 5.0, 6.999999999999999));
#435 = CARTESIAN_POINT('', (5.000000000000001, 5.0, 7.0));
#436 = CARTESIAN_POINT('', (5.0, 5.0, 3.0));
#437 = CARTESIAN_POINT('', (3.000000000000001, 3.0000000000000013, 3.0));
#438 = CARTESIAN_POINT('', (2.9999999999999996, 3.0, 4.999999999999999));
#439 = CARTESIAN_POINT('', (3.000000000000001, 3.0000000000000013, 6.999999999999999));
#440 = CARTESIAN_POINT('', (5.000000000000001, 5.0, 6.999999999999999));
#441 = CARTESIAN_POINT('', (5.0, 5.0, 3.0));
#442 = CARTESIAN_POINT('', (5.0, 3.000000000000001, 3.0));
#443 = CARTESIAN_POINT('', (5.0, 3.0, 4.999999999999999));
#444 = CARTESIAN_POINT('', (5.0, 3.000000000000001, 6.999999999999999));
#445 = CARTESIAN_POINT('', (5.000000000000001, 5.0, 7.0));
#446 = CARTESIAN_POINT('', (5.0, 5.0, 3.0));
#447 = CARTESIAN_POINT('', (6.999999999999998, 3.000000000000001, 3.0));
#448 = CARTESIAN_POINT('', (6.999999999999999, 3.0, 4.999999999999999));
#449 = CARTESIAN_POINT('', (6.999999999999998, 3.000000000000001, 6.999999999999999));
#450 = CARTESIAN_POINT('', (5.000000000000001, 5.0, 6.999999999999999));
#451 = CARTESIAN_POINT('', (5.0, 5.0, 3.0));
#452 = CARTESIAN_POINT('', (6.999999999999999, 5.0, 3.0));
#453 = CARTESIAN_POINT('', (7.0, 5.0, 4.999999999999999));
#454 = CARTESIAN_POINT('', (6.999999999999999, 5.0, 6.999999999999999));
#455 = CARTESIAN_POINT('', (5.000000000000001, 5.0, 7.0));
#456 = DEFINITIONAL_REPRESENTATION('', (#458), #457);
#457 = (
    GEOMETRIC_REPRESENTATION_CONTEXT(2)
    PARAMETRIC_REPRESENTATION_CONTEXT()
    REPRESENTATION_CONTEXT('2D SPACE', '')
);
#458 = (
    BOUNDED_CURVE()
    B_SPLINE_CURVE(1, (#459, #460), .UNSPECIFIED., .U., .U.)
    B_SPLINE_CURVE_WITH_KNOTS((2, 2), (0.0, 1.0), .UNSPECIFIED.)
    CURVE()
    GEOMETRIC_REPRESENTATION_ITEM()
    RATIONAL_B_SPLINE_CURVE((1.0, 1.0))
    REPRESENTATION_ITEM('')
);
#459 = CARTESIAN_POINT('', (1.0, 1.0));
#460 = CARTESIAN_POINT('', (0.0, 1.0));
#461 = CARTESIAN_POINT('', (5.0E0, 5.0E0, 3.0E0));
#462 = CARTESIAN_POINT('', (5.000000000000001E0, 5.0E0, 7.0E0));
ENDSEC;
END-ISO-10303-21;
