ISO-10303-21;
HEADER;
FILE_DESCRIPTION(('Shape Data from monstertruck'), '2;1');
FILE_NAME('', '2026-10-10 07:45:52.420752597', (''), (''), 'monstertruck', 'Viboceros', '');
FILE_SCHEMA(('AUTOMOTIVE_DESIGN'));
ENDSEC;
DATA;
#1 = APPLICATION_PROTOCOL_DEFINITION('international standard', 'automotive_design', 2000, #2);
#2 = APPLICATION_CONTEXT('core data for automotive mechanical design processes');
#3 = SHAPE_DEFINITION_REPRESENTATION(#4, #10);
#4 = PRODUCT_DEFINITION_SHAPE('','', #5);
#5 = PRODUCT_DEFINITION('design','', #6, #9);
#6 = PRODUCT_DEFINITION_FORMATION('','', #7);
#7 = PRODUCT('','','', (#8));
#8 = PRODUCT_CONTEXT('', #2, 'mechanical');
#9 = PRODUCT_DEFINITION_CONTEXT('part definition', #2, 'design');
#10 = ADVANCED_BREP_SHAPE_REPRESENTATION('', (#16), #11);
#11 = (
    GEOMETRIC_REPRESENTATION_CONTEXT(3)
    GLOBAL_UNCERTAINTY_ASSIGNED_CONTEXT((#15))
    GLOBAL_UNIT_ASSIGNED_CONTEXT((#12, #13, #14))
    REPRESENTATION_CONTEXT('Context #1', '3D Context with UNIT and UNCERTAINTY')
);
#12 = ( LENGTH_UNIT() NAMED_UNIT(*) SI_UNIT(.MILLI.,.METRE.) );
#13 = ( NAMED_UNIT(*) PLANE_ANGLE_UNIT() SI_UNIT($,.RADIAN.) );
#14 = ( NAMED_UNIT(*) SI_UNIT($,.STERADIAN.) SOLID_ANGLE_UNIT() );
#15 = UNCERTAINTY_MEASURE_WITH_UNIT(LENGTH_MEASURE(1.0E-6), #12, 'distance_accuracy_value','confusion accuracy');
#16 = SHELL_BASED_SURFACE_MODEL('', (#17));
#17 = OPEN_SHELL('', (#18));
#18 = ADVANCED_FACE('', (#19), #30, .T.);
#19 = FACE_BOUND('', #20, .T.);
#20 = EDGE_LOOP('', (#21, #22, #23, #24));
#21 = ORIENTED_EDGE('', *, *, #25, .T.);
#22 = ORIENTED_EDGE('', *, *, #26, .T.);
#23 = ORIENTED_EDGE('', *, *, #27, .T.);
#24 = ORIENTED_EDGE('', *, *, #26, .F.);
#25 = EDGE_CURVE('', #28, #28, #76, .T.);
#26 = EDGE_CURVE('', #28, #29, #132, .T.);
#27 = EDGE_CURVE('', #29, #29, #243, .T.);
#28 = VERTEX_POINT('', #299);
#29 = VERTEX_POINT('', #300);
#30 = (
    BOUNDED_SURFACE()
    B_SPLINE_SURFACE(2, 2, ((#31, #32, #33, #34, #35), (#36, #37, #38, #39, #40), (#41, #42, #43, #44, #45), (#46, #47, #48, #49, #50), (#51, #52, #53, #54, #55), (#56, #57, #58, #59, #60), (#61, #62, #63, #64, #65), (#66, #67, #68, #69, #70), (#71, #72, #73, #74, #75)), .UNSPECIFIED., .U., .U., .U.)
    B_SPLINE_SURFACE_WITH_KNOTS((3, 2, 2, 2, 3), (3, 2, 3), (0.0, 1.5707963267948966, 3.141592653589793, 4.71238898038469, 6.283185307179586), (-1.5707963267948966, 0.0, 1.5707963267948966), .UNSPECIFIED.)
    GEOMETRIC_REPRESENTATION_ITEM()
    RATIONAL_B_SPLINE_SURFACE(((1.0, 0.7071067811865476, 1.0, 0.7071067811865476, 1.0), (0.7071067811865476, 0.5000000000000001, 0.7071067811865476, 0.5000000000000001, 0.7071067811865476), (1.0, 0.7071067811865476, 1.0, 0.7071067811865476, 1.0), (0.7071067811865476, 0.5000000000000001, 0.7071067811865476, 0.5000000000000001, 0.7071067811865476), (1.0, 0.7071067811865476, 1.0, 0.7071067811865476, 1.0), (0.7071067811865476, 0.5000000000000001, 0.7071067811865476, 0.5000000000000001, 0.7071067811865476), (1.0, 0.7071067811865476, 1.0, 0.7071067811865476, 1.0), (0.7071067811865476, 0.5000000000000001, 0.7071067811865476, 0.5000000000000001, 0.7071067811865476), (1.0, 0.7071067811865476, 1.0, 0.7071067811865476, 1.0)))
    REPRESENTATION_ITEM('')
    SURFACE()
);
#31 = CARTESIAN_POINT('', (0.0, 0.0, -2.0));
#32 = CARTESIAN_POINT('', (2.0, 0.0, -2.0));
#33 = CARTESIAN_POINT('', (2.0, 0.0, 0.0));
#34 = CARTESIAN_POINT('', (2.0, 0.0, 2.0));
#35 = CARTESIAN_POINT('', (0.0, 0.0, 2.0));
#36 = CARTESIAN_POINT('', (0.0, 0.0, -2.0));
#37 = CARTESIAN_POINT('', (2.0, 2.0, -2.0));
#38 = CARTESIAN_POINT('', (2.0, 2.0, 0.0));
#39 = CARTESIAN_POINT('', (2.0, 2.0, 2.0));
#40 = CARTESIAN_POINT('', (0.0, 0.0, 2.0));
#41 = CARTESIAN_POINT('', (0.0, 0.0, -2.0));
#42 = CARTESIAN_POINT('', (0.0, 2.0, -2.0));
#43 = CARTESIAN_POINT('', (0.0, 2.0, 0.0));
#44 = CARTESIAN_POINT('', (0.0, 2.0, 2.0));
#45 = CARTESIAN_POINT('', (0.0, 0.0, 2.0));
#46 = CARTESIAN_POINT('', (0.0, 0.0, -2.0));
#47 = CARTESIAN_POINT('', (-2.0, 2.0, -2.0));
#48 = CARTESIAN_POINT('', (-2.0, 2.0, 0.0));
#49 = CARTESIAN_POINT('', (-2.0, 2.0, 2.0));
#50 = CARTESIAN_POINT('', (0.0, 0.0, 2.0));
#51 = CARTESIAN_POINT('', (0.0, 0.0, -2.0));
#52 = CARTESIAN_POINT('', (-2.0, 0.0, -2.0));
#53 = CARTESIAN_POINT('', (-2.0, 0.0, 0.0));
#54 = CARTESIAN_POINT('', (-2.0, 0.0, 2.0));
#55 = CARTESIAN_POINT('', (0.0, 0.0, 2.0));
#56 = CARTESIAN_POINT('', (0.0, 0.0, -2.0));
#57 = CARTESIAN_POINT('', (-2.0, -2.0, -2.0));
#58 = CARTESIAN_POINT('', (-2.0, -2.0, 0.0));
#59 = CARTESIAN_POINT('', (-2.0, -2.0, 2.0));
#60 = CARTESIAN_POINT('', (0.0, 0.0, 2.0));
#61 = CARTESIAN_POINT('', (0.0, 0.0, -2.0));
#62 = CARTESIAN_POINT('', (0.0, -2.0, -2.0));
#63 = CARTESIAN_POINT('', (0.0, -2.0, 0.0));
#64 = CARTESIAN_POINT('', (0.0, -2.0, 2.0));
#65 = CARTESIAN_POINT('', (0.0, 0.0, 2.0));
#66 = CARTESIAN_POINT('', (0.0, 0.0, -2.0));
#67 = CARTESIAN_POINT('', (2.0, -2.0, -2.0));
#68 = CARTESIAN_POINT('', (2.0, -2.0, 0.0));
#69 = CARTESIAN_POINT('', (2.0, -2.0, 2.0));
#70 = CARTESIAN_POINT('', (0.0, 0.0, 2.0));
#71 = CARTESIAN_POINT('', (0.0, 0.0, -2.0));
#72 = CARTESIAN_POINT('', (2.0, 0.0, -2.0));
#73 = CARTESIAN_POINT('', (2.0, 0.0, 0.0));
#74 = CARTESIAN_POINT('', (2.0, 0.0, 2.0));
#75 = CARTESIAN_POINT('', (0.0, 0.0, 2.0));
#76 = SURFACE_CURVE('', #77, (#80), .CURVE_3D.);
#77 = (
    BOUNDED_CURVE()
    B_SPLINE_CURVE(1, (#78, #79), .UNSPECIFIED., .U., .U.)
    B_SPLINE_CURVE_WITH_KNOTS((2, 2), (0.0, 1.0), .UNSPECIFIED.)
    CURVE()
    GEOMETRIC_REPRESENTATION_ITEM()
    RATIONAL_B_SPLINE_CURVE((1.0, 1.0))
    REPRESENTATION_ITEM('')
);
#78 = CARTESIAN_POINT('', (0.0, 0.0, -2.0));
#79 = CARTESIAN_POINT('', (0.0, 0.0, -2.0));
#80 = PCURVE('', #81, #127);
#81 = (
    BOUNDED_SURFACE()
    B_SPLINE_SURFACE(2, 2, ((#82, #83, #84, #85, #86), (#87, #88, #89, #90, #91), (#92, #93, #94, #95, #96), (#97, #98, #99, #100, #101), (#102, #103, #104, #105, #106), (#107, #108, #109, #110, #111), (#112, #113, #114, #115, #116), (#117, #118, #119, #120, #121), (#122, #123, #124, #125, #126)), .UNSPECIFIED., .U., .U., .U.)
    B_SPLINE_SURFACE_WITH_KNOTS((3, 2, 2, 2, 3), (3, 2, 3), (0.0, 1.5707963267948966, 3.141592653589793, 4.71238898038469, 6.283185307179586), (-1.5707963267948966, 0.0, 1.5707963267948966), .UNSPECIFIED.)
    GEOMETRIC_REPRESENTATION_ITEM()
    RATIONAL_B_SPLINE_SURFACE(((1.0, 0.7071067811865476, 1.0, 0.7071067811865476, 1.0), (0.7071067811865476, 0.5000000000000001, 0.7071067811865476, 0.5000000000000001, 0.7071067811865476), (1.0, 0.7071067811865476, 1.0, 0.7071067811865476, 1.0), (0.7071067811865476, 0.5000000000000001, 0.7071067811865476, 0.5000000000000001, 0.7071067811865476), (1.0, 0.7071067811865476, 1.0, 0.7071067811865476, 1.0), (0.7071067811865476, 0.5000000000000001, 0.7071067811865476, 0.5000000000000001, 0.7071067811865476), (1.0, 0.7071067811865476, 1.0, 0.7071067811865476, 1.0), (0.7071067811865476, 0.5000000000000001, 0.7071067811865476, 0.5000000000000001, 0.7071067811865476), (1.0, 0.7071067811865476, 1.0, 0.7071067811865476, 1.0)))
    REPRESENTATION_ITEM('')
    SURFACE()
);
#82 = CARTESIAN_POINT('', (0.0, 0.0, -2.0));
#83 = CARTESIAN_POINT('', (2.0, 0.0, -2.0));
#84 = CARTESIAN_POINT('', (2.0, 0.0, 0.0));
#85 = CARTESIAN_POINT('', (2.0, 0.0, 2.0));
#86 = CARTESIAN_POINT('', (0.0, 0.0, 2.0));
#87 = CARTESIAN_POINT('', (0.0, 0.0, -2.0));
#88 = CARTESIAN_POINT('', (2.0, 2.0, -2.0));
#89 = CARTESIAN_POINT('', (2.0, 2.0, 0.0));
#90 = CARTESIAN_POINT('', (2.0, 2.0, 2.0));
#91 = CARTESIAN_POINT('', (0.0, 0.0, 2.0));
#92 = CARTESIAN_POINT('', (0.0, 0.0, -2.0));
#93 = CARTESIAN_POINT('', (0.0, 2.0, -2.0));
#94 = CARTESIAN_POINT('', (0.0, 2.0, 0.0));
#95 = CARTESIAN_POINT('', (0.0, 2.0, 2.0));
#96 = CARTESIAN_POINT('', (0.0, 0.0, 2.0));
#97 = CARTESIAN_POINT('', (0.0, 0.0, -2.0));
#98 = CARTESIAN_POINT('', (-2.0, 2.0, -2.0));
#99 = CARTESIAN_POINT('', (-2.0, 2.0, 0.0));
#100 = CARTESIAN_POINT('', (-2.0, 2.0, 2.0));
#101 = CARTESIAN_POINT('', (0.0, 0.0, 2.0));
#102 = CARTESIAN_POINT('', (0.0, 0.0, -2.0));
#103 = CARTESIAN_POINT('', (-2.0, 0.0, -2.0));
#104 = CARTESIAN_POINT('', (-2.0, 0.0, 0.0));
#105 = CARTESIAN_POINT('', (-2.0, 0.0, 2.0));
#106 = CARTESIAN_POINT('', (0.0, 0.0, 2.0));
#107 = CARTESIAN_POINT('', (0.0, 0.0, -2.0));
#108 = CARTESIAN_POINT('', (-2.0, -2.0, -2.0));
#109 = CARTESIAN_POINT('', (-2.0, -2.0, 0.0));
#110 = CARTESIAN_POINT('', (-2.0, -2.0, 2.0));
#111 = CARTESIAN_POINT('', (0.0, 0.0, 2.0));
#112 = CARTESIAN_POINT('', (0.0, 0.0, -2.0));
#113 = CARTESIAN_POINT('', (0.0, -2.0, -2.0));
#114 = CARTESIAN_POINT('', (0.0, -2.0, 0.0));
#115 = CARTESIAN_POINT('', (0.0, -2.0, 2.0));
#116 = CARTESIAN_POINT('', (0.0, 0.0, 2.0));
#117 = CARTESIAN_POINT('', (0.0, 0.0, -2.0));
#118 = CARTESIAN_POINT('', (2.0, -2.0, -2.0));
#119 = CARTESIAN_POINT('', (2.0, -2.0, 0.0));
#120 = CARTESIAN_POINT('', (2.0, -2.0, 2.0));
#121 = CARTESIAN_POINT('', (0.0, 0.0, 2.0));
#122 = CARTESIAN_POINT('', (0.0, 0.0, -2.0));
#123 = CARTESIAN_POINT('', (2.0, 0.0, -2.0));
#124 = CARTESIAN_POINT('', (2.0, 0.0, 0.0));
#125 = CARTESIAN_POINT('', (2.0, 0.0, 2.0));
#126 = CARTESIAN_POINT('', (0.0, 0.0, 2.0));
#127 = DEFINITIONAL_REPRESENTATION('', (#129), #128);
#128 = (
    GEOMETRIC_REPRESENTATION_CONTEXT(2)
    PARAMETRIC_REPRESENTATION_CONTEXT()
    REPRESENTATION_CONTEXT('2D SPACE', '')
);
#129 = (
    BOUNDED_CURVE()
    B_SPLINE_CURVE(1, (#130, #131), .UNSPECIFIED., .U., .U.)
    B_SPLINE_CURVE_WITH_KNOTS((2, 2), (0.0, 1.0), .UNSPECIFIED.)
    CURVE()
    GEOMETRIC_REPRESENTATION_ITEM()
    RATIONAL_B_SPLINE_CURVE((1.0, 1.0))
    REPRESENTATION_ITEM('')
);
#130 = CARTESIAN_POINT('', (0.0, -1.5707963267948966));
#131 = CARTESIAN_POINT('', (6.283185307179586, -1.5707963267948966));
#132 = SEAM_CURVE('', #133, (#139, #191), .CURVE_3D.);
#133 = (
    BOUNDED_CURVE()
    B_SPLINE_CURVE(2, (#134, #135, #136, #137, #138), .UNSPECIFIED., .U., .U.)
    B_SPLINE_CURVE_WITH_KNOTS((3, 2, 3), (-1.5707963267948966, 0.0, 1.5707963267948966), .UNSPECIFIED.)
    CURVE()
    GEOMETRIC_REPRESENTATION_ITEM()
    RATIONAL_B_SPLINE_CURVE((1.0, 0.7071067811865476, 1.0, 0.7071067811865476, 1.0))
    REPRESENTATION_ITEM('')
);
#134 = CARTESIAN_POINT('', (0.0, 0.0, -2.0));
#135 = CARTESIAN_POINT('', (2.0, 0.0, -2.0));
#136 = CARTESIAN_POINT('', (2.0, 0.0, 0.0));
#137 = CARTESIAN_POINT('', (2.0, 0.0, 2.0));
#138 = CARTESIAN_POINT('', (0.0, 0.0, 2.0));
#139 = PCURVE('', #140, #186);
#140 = (
    BOUNDED_SURFACE()
    B_SPLINE_SURFACE(2, 2, ((#141, #142, #143, #144, #145), (#146, #147, #148, #149, #150), (#151, #152, #153, #154, #155), (#156, #157, #158, #159, #160), (#161, #162, #163, #164, #165), (#166, #167, #168, #169, #170), (#171, #172, #173, #174, #175), (#176, #177, #178, #179, #180), (#181, #182, #183, #184, #185)), .UNSPECIFIED., .U., .U., .U.)
    B_SPLINE_SURFACE_WITH_KNOTS((3, 2, 2, 2, 3), (3, 2, 3), (0.0, 1.5707963267948966, 3.141592653589793, 4.71238898038469, 6.283185307179586), (-1.5707963267948966, 0.0, 1.5707963267948966), .UNSPECIFIED.)
    GEOMETRIC_REPRESENTATION_ITEM()
    RATIONAL_B_SPLINE_SURFACE(((1.0, 0.7071067811865476, 1.0, 0.7071067811865476, 1.0), (0.7071067811865476, 0.5000000000000001, 0.7071067811865476, 0.5000000000000001, 0.7071067811865476), (1.0, 0.7071067811865476, 1.0, 0.7071067811865476, 1.0), (0.7071067811865476, 0.5000000000000001, 0.7071067811865476, 0.5000000000000001, 0.7071067811865476), (1.0, 0.7071067811865476, 1.0, 0.7071067811865476, 1.0), (0.7071067811865476, 0.5000000000000001, 0.7071067811865476, 0.5000000000000001, 0.7071067811865476), (1.0, 0.7071067811865476, 1.0, 0.7071067811865476, 1.0), (0.7071067811865476, 0.5000000000000001, 0.7071067811865476, 0.5000000000000001, 0.7071067811865476), (1.0, 0.7071067811865476, 1.0, 0.7071067811865476, 1.0)))
    REPRESENTATION_ITEM('')
    SURFACE()
);
#141 = CARTESIAN_POINT('', (0.0, 0.0, -2.0));
#142 = CARTESIAN_POINT('', (2.0, 0.0, -2.0));
#143 = CARTESIAN_POINT('', (2.0, 0.0, 0.0));
#144 = CARTESIAN_POINT('', (2.0, 0.0, 2.0));
#145 = CARTESIAN_POINT('', (0.0, 0.0, 2.0));
#146 = CARTESIAN_POINT('', (0.0, 0.0, -2.0));
#147 = CARTESIAN_POINT('', (2.0, 2.0, -2.0));
#148 = CARTESIAN_POINT('', (2.0, 2.0, 0.0));
#149 = CARTESIAN_POINT('', (2.0, 2.0, 2.0));
#150 = CARTESIAN_POINT('', (0.0, 0.0, 2.0));
#151 = CARTESIAN_POINT('', (0.0, 0.0, -2.0));
#152 = CARTESIAN_POINT('', (0.0, 2.0, -2.0));
#153 = CARTESIAN_POINT('', (0.0, 2.0, 0.0));
#154 = CARTESIAN_POINT('', (0.0, 2.0, 2.0));
#155 = CARTESIAN_POINT('', (0.0, 0.0, 2.0));
#156 = CARTESIAN_POINT('', (0.0, 0.0, -2.0));
#157 = CARTESIAN_POINT('', (-2.0, 2.0, -2.0));
#158 = CARTESIAN_POINT('', (-2.0, 2.0, 0.0));
#159 = CARTESIAN_POINT('', (-2.0, 2.0, 2.0));
#160 = CARTESIAN_POINT('', (0.0, 0.0, 2.0));
#161 = CARTESIAN_POINT('', (0.0, 0.0, -2.0));
#162 = CARTESIAN_POINT('', (-2.0, 0.0, -2.0));
#163 = CARTESIAN_POINT('', (-2.0, 0.0, 0.0));
#164 = CARTESIAN_POINT('', (-2.0, 0.0, 2.0));
#165 = CARTESIAN_POINT('', (0.0, 0.0, 2.0));
#166 = CARTESIAN_POINT('', (0.0, 0.0, -2.0));
#167 = CARTESIAN_POINT('', (-2.0, -2.0, -2.0));
#168 = CARTESIAN_POINT('', (-2.0, -2.0, 0.0));
#169 = CARTESIAN_POINT('', (-2.0, -2.0, 2.0));
#170 = CARTESIAN_POINT('', (0.0, 0.0, 2.0));
#171 = CARTESIAN_POINT('', (0.0, 0.0, -2.0));
#172 = CARTESIAN_POINT('', (0.0, -2.0, -2.0));
#173 = CARTESIAN_POINT('', (0.0, -2.0, 0.0));
#174 = CARTESIAN_POINT('', (0.0, -2.0, 2.0));
#175 = CARTESIAN_POINT('', (0.0, 0.0, 2.0));
#176 = CARTESIAN_POINT('', (0.0, 0.0, -2.0));
#177 = CARTESIAN_POINT('', (2.0, -2.0, -2.0));
#178 = CARTESIAN_POINT('', (2.0, -2.0, 0.0));
#179 = CARTESIAN_POINT('', (2.0, -2.0, 2.0));
#180 = CARTESIAN_POINT('', (0.0, 0.0, 2.0));
#181 = CARTESIAN_POINT('', (0.0, 0.0, -2.0));
#182 = CARTESIAN_POINT('', (2.0, 0.0, -2.0));
#183 = CARTESIAN_POINT('', (2.0, 0.0, 0.0));
#184 = CARTESIAN_POINT('', (2.0, 0.0, 2.0));
#185 = CARTESIAN_POINT('', (0.0, 0.0, 2.0));
#186 = DEFINITIONAL_REPRESENTATION('', (#188), #187);
#187 = (
    GEOMETRIC_REPRESENTATION_CONTEXT(2)
    PARAMETRIC_REPRESENTATION_CONTEXT()
    REPRESENTATION_CONTEXT('2D SPACE', '')
);
#188 = (
    BOUNDED_CURVE()
    B_SPLINE_CURVE(1, (#189, #190), .UNSPECIFIED., .U., .U.)
    B_SPLINE_CURVE_WITH_KNOTS((2, 2), (0.0, 1.0), .UNSPECIFIED.)
    CURVE()
    GEOMETRIC_REPRESENTATION_ITEM()
    RATIONAL_B_SPLINE_CURVE((1.0, 1.0))
    REPRESENTATION_ITEM('')
);
#189 = CARTESIAN_POINT('', (6.283185307179586, -1.5707963267948966));
#190 = CARTESIAN_POINT('', (6.283185307179586, 1.5707963267948966));
#191 = PCURVE('', #192, #238);
#192 = (
    BOUNDED_SURFACE()
    B_SPLINE_SURFACE(2, 2, ((#193, #194, #195, #196, #197), (#198, #199, #200, #201, #202), (#203, #204, #205, #206, #207), (#208, #209, #210, #211, #212), (#213, #214, #215, #216, #217), (#218, #219, #220, #221, #222), (#223, #224, #225, #226, #227), (#228, #229, #230, #231, #232), (#233, #234, #235, #236, #237)), .UNSPECIFIED., .U., .U., .U.)
    B_SPLINE_SURFACE_WITH_KNOTS((3, 2, 2, 2, 3), (3, 2, 3), (0.0, 1.5707963267948966, 3.141592653589793, 4.71238898038469, 6.283185307179586), (-1.5707963267948966, 0.0, 1.5707963267948966), .UNSPECIFIED.)
    GEOMETRIC_REPRESENTATION_ITEM()
    RATIONAL_B_SPLINE_SURFACE(((1.0, 0.7071067811865476, 1.0, 0.7071067811865476, 1.0), (0.7071067811865476, 0.5000000000000001, 0.7071067811865476, 0.5000000000000001, 0.7071067811865476), (1.0, 0.7071067811865476, 1.0, 0.7071067811865476, 1.0), (0.7071067811865476, 0.5000000000000001, 0.7071067811865476, 0.5000000000000001, 0.7071067811865476), (1.0, 0.7071067811865476, 1.0, 0.7071067811865476, 1.0), (0.7071067811865476, 0.5000000000000001, 0.7071067811865476, 0.5000000000000001, 0.7071067811865476), (1.0, 0.7071067811865476, 1.0, 0.7071067811865476, 1.0), (0.7071067811865476, 0.5000000000000001, 0.7071067811865476, 0.5000000000000001, 0.7071067811865476), (1.0, 0.7071067811865476, 1.0, 0.7071067811865476, 1.0)))
    REPRESENTATION_ITEM('')
    SURFACE()
);
#193 = CARTESIAN_POINT('', (0.0, 0.0, -2.0));
#194 = CARTESIAN_POINT('', (2.0, 0.0, -2.0));
#195 = CARTESIAN_POINT('', (2.0, 0.0, 0.0));
#196 = CARTESIAN_POINT('', (2.0, 0.0, 2.0));
#197 = CARTESIAN_POINT('', (0.0, 0.0, 2.0));
#198 = CARTESIAN_POINT('', (0.0, 0.0, -2.0));
#199 = CARTESIAN_POINT('', (2.0, 2.0, -2.0));
#200 = CARTESIAN_POINT('', (2.0, 2.0, 0.0));
#201 = CARTESIAN_POINT('', (2.0, 2.0, 2.0));
#202 = CARTESIAN_POINT('', (0.0, 0.0, 2.0));
#203 = CARTESIAN_POINT('', (0.0, 0.0, -2.0));
#204 = CARTESIAN_POINT('', (0.0, 2.0, -2.0));
#205 = CARTESIAN_POINT('', (0.0, 2.0, 0.0));
#206 = CARTESIAN_POINT('', (0.0, 2.0, 2.0));
#207 = CARTESIAN_POINT('', (0.0, 0.0, 2.0));
#208 = CARTESIAN_POINT('', (0.0, 0.0, -2.0));
#209 = CARTESIAN_POINT('', (-2.0, 2.0, -2.0));
#210 = CARTESIAN_POINT('', (-2.0, 2.0, 0.0));
#211 = CARTESIAN_POINT('', (-2.0, 2.0, 2.0));
#212 = CARTESIAN_POINT('', (0.0, 0.0, 2.0));
#213 = CARTESIAN_POINT('', (0.0, 0.0, -2.0));
#214 = CARTESIAN_POINT('', (-2.0, 0.0, -2.0));
#215 = CARTESIAN_POINT('', (-2.0, 0.0, 0.0));
#216 = CARTESIAN_POINT('', (-2.0, 0.0, 2.0));
#217 = CARTESIAN_POINT('', (0.0, 0.0, 2.0));
#218 = CARTESIAN_POINT('', (0.0, 0.0, -2.0));
#219 = CARTESIAN_POINT('', (-2.0, -2.0, -2.0));
#220 = CARTESIAN_POINT('', (-2.0, -2.0, 0.0));
#221 = CARTESIAN_POINT('', (-2.0, -2.0, 2.0));
#222 = CARTESIAN_POINT('', (0.0, 0.0, 2.0));
#223 = CARTESIAN_POINT('', (0.0, 0.0, -2.0));
#224 = CARTESIAN_POINT('', (0.0, -2.0, -2.0));
#225 = CARTESIAN_POINT('', (0.0, -2.0, 0.0));
#226 = CARTESIAN_POINT('', (0.0, -2.0, 2.0));
#227 = CARTESIAN_POINT('', (0.0, 0.0, 2.0));
#228 = CARTESIAN_POINT('', (0.0, 0.0, -2.0));
#229 = CARTESIAN_POINT('', (2.0, -2.0, -2.0));
#230 = CARTESIAN_POINT('', (2.0, -2.0, 0.0));
#231 = CARTESIAN_POINT('', (2.0, -2.0, 2.0));
#232 = CARTESIAN_POINT('', (0.0, 0.0, 2.0));
#233 = CARTESIAN_POINT('', (0.0, 0.0, -2.0));
#234 = CARTESIAN_POINT('', (2.0, 0.0, -2.0));
#235 = CARTESIAN_POINT('', (2.0, 0.0, 0.0));
#236 = CARTESIAN_POINT('', (2.0, 0.0, 2.0));
#237 = CARTESIAN_POINT('', (0.0, 0.0, 2.0));
#238 = DEFINITIONAL_REPRESENTATION('', (#240), #239);
#239 = (
    GEOMETRIC_REPRESENTATION_CONTEXT(2)
    PARAMETRIC_REPRESENTATION_CONTEXT()
    REPRESENTATION_CONTEXT('2D SPACE', '')
);
#240 = (
    BOUNDED_CURVE()
    B_SPLINE_CURVE(1, (#241, #242), .UNSPECIFIED., .U., .U.)
    B_SPLINE_CURVE_WITH_KNOTS((2, 2), (-1.0, -0.0), .UNSPECIFIED.)
    CURVE()
    GEOMETRIC_REPRESENTATION_ITEM()
    RATIONAL_B_SPLINE_CURVE((1.0, 1.0))
    REPRESENTATION_ITEM('')
);
#241 = CARTESIAN_POINT('', (0.0, -1.5707963267948966));
#242 = CARTESIAN_POINT('', (0.0, 1.5707963267948966));
#243 = SURFACE_CURVE('', #244, (#247), .CURVE_3D.);
#244 = (
    BOUNDED_CURVE()
    B_SPLINE_CURVE(1, (#245, #246), .UNSPECIFIED., .U., .U.)
    B_SPLINE_CURVE_WITH_KNOTS((2, 2), (0.0, 1.0), .UNSPECIFIED.)
    CURVE()
    GEOMETRIC_REPRESENTATION_ITEM()
    RATIONAL_B_SPLINE_CURVE((1.0, 1.0))
    REPRESENTATION_ITEM('')
);
#245 = CARTESIAN_POINT('', (0.0, 0.0, 2.0));
#246 = CARTESIAN_POINT('', (0.0, 0.0, 2.0));
#247 = PCURVE('', #248, #294);
#248 = (
    BOUNDED_SURFACE()
    B_SPLINE_SURFACE(2, 2, ((#249, #250, #251, #252, #253), (#254, #255, #256, #257, #258), (#259, #260, #261, #262, #263), (#264, #265, #266, #267, #268), (#269, #270, #271, #272, #273), (#274, #275, #276, #277, #278), (#279, #280, #281, #282, #283), (#284, #285, #286, #287, #288), (#289, #290, #291, #292, #293)), .UNSPECIFIED., .U., .U., .U.)
    B_SPLINE_SURFACE_WITH_KNOTS((3, 2, 2, 2, 3), (3, 2, 3), (0.0, 1.5707963267948966, 3.141592653589793, 4.71238898038469, 6.283185307179586), (-1.5707963267948966, 0.0, 1.5707963267948966), .UNSPECIFIED.)
    GEOMETRIC_REPRESENTATION_ITEM()
    RATIONAL_B_SPLINE_SURFACE(((1.0, 0.7071067811865476, 1.0, 0.7071067811865476, 1.0), (0.7071067811865476, 0.5000000000000001, 0.7071067811865476, 0.5000000000000001, 0.7071067811865476), (1.0, 0.7071067811865476, 1.0, 0.7071067811865476, 1.0), (0.7071067811865476, 0.5000000000000001, 0.7071067811865476, 0.5000000000000001, 0.7071067811865476), (1.0, 0.7071067811865476, 1.0, 0.7071067811865476, 1.0), (0.7071067811865476, 0.5000000000000001, 0.7071067811865476, 0.5000000000000001, 0.7071067811865476), (1.0, 0.7071067811865476, 1.0, 0.7071067811865476, 1.0), (0.7071067811865476, 0.5000000000000001, 0.7071067811865476, 0.5000000000000001, 0.7071067811865476), (1.0, 0.7071067811865476, 1.0, 0.7071067811865476, 1.0)))
    REPRESENTATION_ITEM('')
    SURFACE()
);
#249 = CARTESIAN_POINT('', (0.0, 0.0, -2.0));
#250 = CARTESIAN_POINT('', (2.0, 0.0, -2.0));
#251 = CARTESIAN_POINT('', (2.0, 0.0, 0.0));
#252 = CARTESIAN_POINT('', (2.0, 0.0, 2.0));
#253 = CARTESIAN_POINT('', (0.0, 0.0, 2.0));
#254 = CARTESIAN_POINT('', (0.0, 0.0, -2.0));
#255 = CARTESIAN_POINT('', (2.0, 2.0, -2.0));
#256 = CARTESIAN_POINT('', (2.0, 2.0, 0.0));
#257 = CARTESIAN_POINT('', (2.0, 2.0, 2.0));
#258 = CARTESIAN_POINT('', (0.0, 0.0, 2.0));
#259 = CARTESIAN_POINT('', (0.0, 0.0, -2.0));
#260 = CARTESIAN_POINT('', (0.0, 2.0, -2.0));
#261 = CARTESIAN_POINT('', (0.0, 2.0, 0.0));
#262 = CARTESIAN_POINT('', (0.0, 2.0, 2.0));
#263 = CARTESIAN_POINT('', (0.0, 0.0, 2.0));
#264 = CARTESIAN_POINT('', (0.0, 0.0, -2.0));
#265 = CARTESIAN_POINT('', (-2.0, 2.0, -2.0));
#266 = CARTESIAN_POINT('', (-2.0, 2.0, 0.0));
#267 = CARTESIAN_POINT('', (-2.0, 2.0, 2.0));
#268 = CARTESIAN_POINT('', (0.0, 0.0, 2.0));
#269 = CARTESIAN_POINT('', (0.0, 0.0, -2.0));
#270 = CARTESIAN_POINT('', (-2.0, 0.0, -2.0));
#271 = CARTESIAN_POINT('', (-2.0, 0.0, 0.0));
#272 = CARTESIAN_POINT('', (-2.0, 0.0, 2.0));
#273 = CARTESIAN_POINT('', (0.0, 0.0, 2.0));
#274 = CARTESIAN_POINT('', (0.0, 0.0, -2.0));
#275 = CARTESIAN_POINT('', (-2.0, -2.0, -2.0));
#276 = CARTESIAN_POINT('', (-2.0, -2.0, 0.0));
#277 = CARTESIAN_POINT('', (-2.0, -2.0, 2.0));
#278 = CARTESIAN_POINT('', (0.0, 0.0, 2.0));
#279 = CARTESIAN_POINT('', (0.0, 0.0, -2.0));
#280 = CARTESIAN_POINT('', (0.0, -2.0, -2.0));
#281 = CARTESIAN_POINT('', (0.0, -2.0, 0.0));
#282 = CARTESIAN_POINT('', (0.0, -2.0, 2.0));
#283 = CARTESIAN_POINT('', (0.0, 0.0, 2.0));
#284 = CARTESIAN_POINT('', (0.0, 0.0, -2.0));
#285 = CARTESIAN_POINT('', (2.0, -2.0, -2.0));
#286 = CARTESIAN_POINT('', (2.0, -2.0, 0.0));
#287 = CARTESIAN_POINT('', (2.0, -2.0, 2.0));
#288 = CARTESIAN_POINT('', (0.0, 0.0, 2.0));
#289 = CARTESIAN_POINT('', (0.0, 0.0, -2.0));
#290 = CARTESIAN_POINT('', (2.0, 0.0, -2.0));
#291 = CARTESIAN_POINT('', (2.0, 0.0, 0.0));
#292 = CARTESIAN_POINT('', (2.0, 0.0, 2.0));
#293 = CARTESIAN_POINT('', (0.0, 0.0, 2.0));
#294 = DEFINITIONAL_REPRESENTATION('', (#296), #295);
#295 = (
    GEOMETRIC_REPRESENTATION_CONTEXT(2)
    PARAMETRIC_REPRESENTATION_CONTEXT()
    REPRESENTATION_CONTEXT('2D SPACE', '')
);
#296 = (
    BOUNDED_CURVE()
    B_SPLINE_CURVE(1, (#297, #298), .UNSPECIFIED., .U., .U.)
    B_SPLINE_CURVE_WITH_KNOTS((2, 2), (0.0, 1.0), .UNSPECIFIED.)
    CURVE()
    GEOMETRIC_REPRESENTATION_ITEM()
    RATIONAL_B_SPLINE_CURVE((1.0, 1.0))
    REPRESENTATION_ITEM('')
);
#297 = CARTESIAN_POINT('', (6.283185307179586, 1.5707963267948966));
#298 = CARTESIAN_POINT('', (0.0, 1.5707963267948966));
#299 = CARTESIAN_POINT('', (0.0E0, 0.0E0, -2.0E0));
#300 = CARTESIAN_POINT('', (0.0E0, 0.0E0, 2.0E0));
ENDSEC;
END-ISO-10303-21;
