ISO-10303-21;
HEADER;
FILE_DESCRIPTION(('Shape Data from monstertruck'), '2;1');
FILE_NAME('', '2026-10-10 06:01:22.551824515', (''), (''), 'monstertruck', 'Viboceros', '');
FILE_SCHEMA(('AUTOMOTIVE_DESIGN'));
ENDSEC;
DATA;
#1 = APPLICATION_PROTOCOL_DEFINITION('international standard', 'automotive_design', 2000, #2);
#2 = APPLICATION_CONTEXT('core data for automotive mechanical design processes');
#3 = SHAPE_DEFINITION_REPRESENTATION(#4, #10);
#4 = PRODUCT_DEFINITION_SHAPE('','', #5);
#5 = PRODUCT_DEFINITION('design','', #6, #9);
#6 = PRODUCT_DEFINITION_FORMATION('','', #7);
#7 = PRODUCT('','','', (#8));
#8 = PRODUCT_CONTEXT('', #2, 'mechanical');
#9 = PRODUCT_DEFINITION_CONTEXT('part definition', #2, 'design');
#10 = ADVANCED_BREP_SHAPE_REPRESENTATION('', (#16), #11);
#11 = (
    GEOMETRIC_REPRESENTATION_CONTEXT(3)
    GLOBAL_UNCERTAINTY_ASSIGNED_CONTEXT((#15))
    GLOBAL_UNIT_ASSIGNED_CONTEXT((#12, #13, #14))
    REPRESENTATION_CONTEXT('Context #1', '3D Context with UNIT and UNCERTAINTY')
);
#12 = ( LENGTH_UNIT() NAMED_UNIT(*) SI_UNIT(.MILLI.,.METRE.) );
#13 = ( NAMED_UNIT(*) PLANE_ANGLE_UNIT() SI_UNIT($,.RADIAN.) );
#14 = ( NAMED_UNIT(*) SI_UNIT($,.STERADIAN.) SOLID_ANGLE_UNIT() );
#15 = UNCERTAINTY_MEASURE_WITH_UNIT(LENGTH_MEASURE(1.0E-6), #12, 'distance_accuracy_value','confusion accuracy');
#16 = SHELL_BASED_SURFACE_MODEL('', (#17));
#17 = OPEN_SHELL('', (#18, #25, #32, #39, #48, #57, #66, #75, #84, #91, #98, #105));
#18 = ADVANCED_FACE('', (#19), #164, .T.);
#19 = FACE_BOUND('', #20, .T.);
#20 = EDGE_LOOP('', (#21, #22, #23, #24));
#21 = ORIENTED_EDGE('', *, *, #114, .T.);
#22 = ORIENTED_EDGE('', *, *, #115, .T.);
#23 = ORIENTED_EDGE('', *, *, #116, .F.);
#24 = ORIENTED_EDGE('', *, *, #117, .F.);
#25 = ADVANCED_FACE('', (#26), #169, .T.);
#26 = FACE_BOUND('', #27, .T.);
#27 = EDGE_LOOP('', (#28, #29, #30, #31));
#28 = ORIENTED_EDGE('', *, *, #118, .T.);
#29 = ORIENTED_EDGE('', *, *, #119, .T.);
#30 = ORIENTED_EDGE('', *, *, #120, .F.);
#31 = ORIENTED_EDGE('', *, *, #114, .F.);
#32 = ADVANCED_FACE('', (#33), #174, .T.);
#33 = FACE_BOUND('', #34, .T.);
#34 = EDGE_LOOP('', (#35, #36, #37, #38));
#35 = ORIENTED_EDGE('', *, *, #118, .F.);
#36 = ORIENTED_EDGE('', *, *, #117, .T.);
#37 = ORIENTED_EDGE('', *, *, #121, .T.);
#38 = ORIENTED_EDGE('', *, *, #122, .F.);
#39 = ADVANCED_FACE('', (#40), #179, .T.);
#40 = FACE_BOUND('', #41, .T.);
#41 = EDGE_LOOP('', (#42, #43, #44, #45, #46, #47));
#42 = ORIENTED_EDGE('', *, *, #123, .F.);
#43 = ORIENTED_EDGE('', *, *, #124, .F.);
#44 = ORIENTED_EDGE('', *, *, #125, .F.);
#45 = ORIENTED_EDGE('', *, *, #119, .F.);
#46 = ORIENTED_EDGE('', *, *, #122, .T.);
#47 = ORIENTED_EDGE('', *, *, #126, .T.);
#48 = ADVANCED_FACE('', (#49), #184, .T.);
#49 = FACE_BOUND('', #50, .T.);
#50 = EDGE_LOOP('', (#51, #52, #53, #54, #55, #56));
#51 = ORIENTED_EDGE('', *, *, #127, .F.);
#52 = ORIENTED_EDGE('', *, *, #126, .F.);
#53 = ORIENTED_EDGE('', *, *, #121, .F.);
#54 = ORIENTED_EDGE('', *, *, #116, .T.);
#55 = ORIENTED_EDGE('', *, *, #128, .T.);
#56 = ORIENTED_EDGE('', *, *, #129, .F.);
#57 = ADVANCED_FACE('', (#58), #189, .T.);
#58 = FACE_BOUND('', #59, .T.);
#59 = EDGE_LOOP('', (#60, #61, #62, #63, #64, #65));
#60 = ORIENTED_EDGE('', *, *, #130, .F.);
#61 = ORIENTED_EDGE('', *, *, #131, .F.);
#62 = ORIENTED_EDGE('', *, *, #128, .F.);
#63 = ORIENTED_EDGE('', *, *, #115, .F.);
#64 = ORIENTED_EDGE('', *, *, #120, .T.);
#65 = ORIENTED_EDGE('', *, *, #125, .T.);
#66 = ADVANCED_FACE('', (#67), #194, .T.);
#67 = FACE_BOUND('', #68, .T.);
#68 = EDGE_LOOP('', (#69, #70, #71, #72, #73, #74));
#69 = ORIENTED_EDGE('', *, *, #130, .T.);
#70 = ORIENTED_EDGE('', *, *, #124, .T.);
#71 = ORIENTED_EDGE('', *, *, #132, .T.);
#72 = ORIENTED_EDGE('', *, *, #133, .T.);
#73 = ORIENTED_EDGE('', *, *, #134, .F.);
#74 = ORIENTED_EDGE('', *, *, #135, .F.);
#75 = ADVANCED_FACE('', (#76), #199, .T.);
#76 = FACE_BOUND('', #77, .T.);
#77 = EDGE_LOOP('', (#78, #79, #80, #81, #82, #83));
#78 = ORIENTED_EDGE('', *, *, #131, .T.);
#79 = ORIENTED_EDGE('', *, *, #135, .T.);
#80 = ORIENTED_EDGE('', *, *, #136, .T.);
#81 = ORIENTED_EDGE('', *, *, #137, .F.);
#82 = ORIENTED_EDGE('', *, *, #138, .F.);
#83 = ORIENTED_EDGE('', *, *, #129, .T.);
#84 = ADVANCED_FACE('', (#85), #204, .T.);
#85 = FACE_BOUND('', #86, .T.);
#86 = EDGE_LOOP('', (#87, #88, #89, #90));
#87 = ORIENTED_EDGE('', *, *, #139, .F.);
#88 = ORIENTED_EDGE('', *, *, #137, .T.);
#89 = ORIENTED_EDGE('', *, *, #140, .T.);
#90 = ORIENTED_EDGE('', *, *, #141, .F.);
#91 = ADVANCED_FACE('', (#92), #209, .T.);
#92 = FACE_BOUND('', #93, .T.);
#93 = EDGE_LOOP('', (#94, #95, #96, #97));
#94 = ORIENTED_EDGE('', *, *, #134, .T.);
#95 = ORIENTED_EDGE('', *, *, #142, .T.);
#96 = ORIENTED_EDGE('', *, *, #140, .F.);
#97 = ORIENTED_EDGE('', *, *, #136, .F.);
#98 = ADVANCED_FACE('', (#99), #214, .T.);
#99 = FACE_BOUND('', #100, .T.);
#100 = EDGE_LOOP('', (#101, #102, #103, #104));
#101 = ORIENTED_EDGE('', *, *, #133, .F.);
#102 = ORIENTED_EDGE('', *, *, #143, .T.);
#103 = ORIENTED_EDGE('', *, *, #141, .T.);
#104 = ORIENTED_EDGE('', *, *, #142, .F.);
#105 = ADVANCED_FACE('', (#106), #219, .T.);
#106 = FACE_BOUND('', #107, .T.);
#107 = EDGE_LOOP('', (#108, #109, #110, #111, #112, #113));
#108 = ORIENTED_EDGE('', *, *, #127, .T.);
#109 = ORIENTED_EDGE('', *, *, #138, .T.);
#110 = ORIENTED_EDGE('', *, *, #139, .T.);
#111 = ORIENTED_EDGE('', *, *, #143, .F.);
#112 = ORIENTED_EDGE('', *, *, #132, .F.);
#113 = ORIENTED_EDGE('', *, *, #123, .T.);
#114 = EDGE_CURVE('', #144, #145, #224, .T.);
#115 = EDGE_CURVE('', #145, #146, #229, .T.);
#116 = EDGE_CURVE('', #147, #146, #234, .T.);
#117 = EDGE_CURVE('', #144, #147, #239, .T.);
#118 = EDGE_CURVE('', #144, #148, #244, .T.);
#119 = EDGE_CURVE('', #148, #149, #249, .T.);
#120 = EDGE_CURVE('', #145, #149, #254, .T.);
#121 = EDGE_CURVE('', #147, #150, #259, .T.);
#122 = EDGE_CURVE('', #148, #150, #264, .T.);
#123 = EDGE_CURVE('', #151, #152, #269, .T.);
#124 = EDGE_CURVE('', #153, #151, #273, .T.);
#125 = EDGE_CURVE('', #149, #153, #277, .T.);
#126 = EDGE_CURVE('', #150, #152, #282, .T.);
#127 = EDGE_CURVE('', #152, #154, #287, .T.);
#128 = EDGE_CURVE('', #146, #155, #292, .T.);
#129 = EDGE_CURVE('', #154, #155, #297, .T.);
#130 = EDGE_CURVE('', #156, #153, #301, .T.);
#131 = EDGE_CURVE('', #155, #156, #305, .T.);
#132 = EDGE_CURVE('', #151, #157, #310, .T.);
#133 = EDGE_CURVE('', #157, #158, #315, .T.);
#134 = EDGE_CURVE('', #159, #158, #320, .T.);
#135 = EDGE_CURVE('', #156, #159, #325, .T.);
#136 = EDGE_CURVE('', #159, #160, #330, .T.);
#137 = EDGE_CURVE('', #161, #160, #335, .T.);
#138 = EDGE_CURVE('', #154, #161, #340, .T.);
#139 = EDGE_CURVE('', #161, #162, #345, .T.);
#140 = EDGE_CURVE('', #160, #163, #350, .T.);
#141 = EDGE_CURVE('', #162, #163, #355, .T.);
#142 = EDGE_CURVE('', #158, #163, #360, .T.);
#143 = EDGE_CURVE('', #157, #162, #365, .T.);
#144 = VERTEX_POINT('', #370);
#145 = VERTEX_POINT('', #371);
#146 = VERTEX_POINT('', #372);
#147 = VERTEX_POINT('', #373);
#148 = VERTEX_POINT('', #374);
#149 = VERTEX_POINT('', #375);
#150 = VERTEX_POINT('', #376);
#151 = VERTEX_POINT('', #377);
#152 = VERTEX_POINT('', #378);
#153 = VERTEX_POINT('', #379);
#154 = VERTEX_POINT('', #380);
#155 = VERTEX_POINT('', #381);
#156 = VERTEX_POINT('', #382);
#157 = VERTEX_POINT('', #383);
#158 = VERTEX_POINT('', #384);
#159 = VERTEX_POINT('', #385);
#160 = VERTEX_POINT('', #386);
#161 = VERTEX_POINT('', #387);
#162 = VERTEX_POINT('', #388);
#163 = VERTEX_POINT('', #389);
#164 = PLANE('', #165);
#165 = AXIS2_PLACEMENT_3D('', #166, #167, #168);
#166 = CARTESIAN_POINT('', (5.0E0, 5.0E0, 0.0E0));
#167 = DIRECTION('', (0.0E0, 0.0E0, -1.0E0));
#168 = DIRECTION('', (0.0E0, 1.0E0, 0.0E0));
#169 = PLANE('', #170);
#170 = AXIS2_PLACEMENT_3D('', #171, #172, #173);
#171 = CARTESIAN_POINT('', (0.0E0, 5.0E0, 5.0E0));
#172 = DIRECTION('', (-1.0E0, 0.0E0, 0.0E0));
#173 = DIRECTION('', (0.0E0, 0.0E0, 1.0E0));
#174 = PLANE('', #175);
#175 = AXIS2_PLACEMENT_3D('', #176, #177, #178);
#176 = CARTESIAN_POINT('', (5.0E0, 0.0E0, 5.0E0));
#177 = DIRECTION('', (0.0E0, -1.0E0, 0.0E0));
#178 = DIRECTION('', (1.0E0, 0.0E0, 0.0E0));
#179 = PLANE('', #180);
#180 = AXIS2_PLACEMENT_3D('', #181, #182, #183);
#181 = CARTESIAN_POINT('', (5.0E0, 5.0E0, 1.0E1));
#182 = DIRECTION('', (0.0E0, 0.0E0, 1.0E0));
#183 = DIRECTION('', (1.0E0, 0.0E0, 0.0E0));
#184 = PLANE('', #185);
#185 = AXIS2_PLACEMENT_3D('', #186, #187, #188);
#186 = CARTESIAN_POINT('', (1.0E1, 5.0E0, 5.0E0));
#187 = DIRECTION('', (1.0E0, 0.0E0, 0.0E0));
#188 = DIRECTION('', (0.0E0, 1.0E0, 0.0E0));
#189 = PLANE('', #190);
#190 = AXIS2_PLACEMENT_3D('', #191, #192, #193);
#191 = CARTESIAN_POINT('', (5.0E0, 1.0E1, 5.0E0));
#192 = DIRECTION('', (0.0E0, 1.0E0, 0.0E0));
#193 = DIRECTION('', (0.0E0, 0.0E0, 1.0E0));
#194 = PLANE('', #195);
#195 = AXIS2_PLACEMENT_3D('', #196, #197, #198);
#196 = CARTESIAN_POINT('', (5.0E0, 7.0E0, 8.0E0));
#197 = DIRECTION('', (-1.0E0, 0.0E0, 0.0E0));
#198 = DIRECTION('', (0.0E0, 0.0E0, 1.0E0));
#199 = PLANE('', #200);
#200 = AXIS2_PLACEMENT_3D('', #201, #202, #203);
#201 = CARTESIAN_POINT('', (1.0E1, 7.0E0, 3.0E0));
#202 = DIRECTION('', (0.0E0, 0.0E0, -1.0E0));
#203 = DIRECTION('', (0.0E0, 1.0E0, 0.0E0));
#204 = PLANE('', #205);
#205 = AXIS2_PLACEMENT_3D('', #206, #207, #208);
#206 = CARTESIAN_POINT('', (1.5E1, 7.0E0, 8.0E0));
#207 = DIRECTION('', (1.0E0, 0.0E0, 0.0E0));
#208 = DIRECTION('', (0.0E0, 1.0E0, 0.0E0));
#209 = PLANE('', #210);
#210 = AXIS2_PLACEMENT_3D('', #211, #212, #213);
#211 = CARTESIAN_POINT('', (1.0E1, 1.2E1, 8.0E0));
#212 = DIRECTION('', (0.0E0, 1.0E0, 0.0E0));
#213 = DIRECTION('', (0.0E0, 0.0E0, 1.0E0));
#214 = PLANE('', #215);
#215 = AXIS2_PLACEMENT_3D('', #216, #217, #218);
#216 = CARTESIAN_POINT('', (1.0E1, 7.0E0, 1.3E1));
#217 = DIRECTION('', (0.0E0, 0.0E0, 1.0E0));
#218 = DIRECTION('', (1.0E0, 0.0E0, 0.0E0));
#219 = PLANE('', #220);
#220 = AXIS2_PLACEMENT_3D('', #221, #222, #223);
#221 = CARTESIAN_POINT('', (1.0E1, 2.0E0, 8.0E0));
#222 = DIRECTION('', (0.0E0, -1.0E0, 0.0E0));
#223 = DIRECTION('', (1.0E0, 0.0E0, 0.0E0));
#224 = SURFACE_CURVE('', #225, (#164, #169), .CURVE_3D.);
#225 = LINE('', #226, #227);
#226 = CARTESIAN_POINT('', (0.0E0, 0.0E0, 0.0E0));
#227 = VECTOR('', #228, 1.0E1);
#228 = DIRECTION('', (0.0E0, 1.0E0, 0.0E0));
#229 = SURFACE_CURVE('', #230, (#164, #189), .CURVE_3D.);
#230 = LINE('', #231, #232);
#231 = CARTESIAN_POINT('', (0.0E0, 1.0E1, 0.0E0));
#232 = VECTOR('', #233, 1.0E1);
#233 = DIRECTION('', (1.0E0, 0.0E0, 0.0E0));
#234 = SURFACE_CURVE('', #235, (#164, #184), .CURVE_3D.);
#235 = LINE('', #236, #237);
#236 = CARTESIAN_POINT('', (1.0E1, 0.0E0, 0.0E0));
#237 = VECTOR('', #238, 1.0E1);
#238 = DIRECTION('', (0.0E0, 1.0E0, 0.0E0));
#239 = SURFACE_CURVE('', #240, (#164, #174), .CURVE_3D.);
#240 = LINE('', #241, #242);
#241 = CARTESIAN_POINT('', (0.0E0, 0.0E0, 0.0E0));
#242 = VECTOR('', #243, 1.0E1);
#243 = DIRECTION('', (1.0E0, 0.0E0, 0.0E0));
#244 = SURFACE_CURVE('', #245, (#169, #174), .CURVE_3D.);
#245 = LINE('', #246, #247);
#246 = CARTESIAN_POINT('', (0.0E0, 0.0E0, 0.0E0));
#247 = VECTOR('', #248, 1.0E1);
#248 = DIRECTION('', (0.0E0, 0.0E0, 1.0E0));
#249 = SURFACE_CURVE('', #250, (#169, #179), .CURVE_3D.);
#250 = LINE('', #251, #252);
#251 = CARTESIAN_POINT('', (0.0E0, 0.0E0, 1.0E1));
#252 = VECTOR('', #253, 1.0E1);
#253 = DIRECTION('', (0.0E0, 1.0E0, 0.0E0));
#254 = SURFACE_CURVE('', #255, (#169, #189), .CURVE_3D.);
#255 = LINE('', #256, #257);
#256 = CARTESIAN_POINT('', (0.0E0, 1.0E1, 0.0E0));
#257 = VECTOR('', #258, 1.0E1);
#258 = DIRECTION('', (0.0E0, 0.0E0, 1.0E0));
#259 = SURFACE_CURVE('', #260, (#174, #184), .CURVE_3D.);
#260 = LINE('', #261, #262);
#261 = CARTESIAN_POINT('', (1.0E1, 0.0E0, 0.0E0));
#262 = VECTOR('', #263, 1.0E1);
#263 = DIRECTION('', (0.0E0, 0.0E0, 1.0E0));
#264 = SURFACE_CURVE('', #265, (#174, #179), .CURVE_3D.);
#265 = LINE('', #266, #267);
#266 = CARTESIAN_POINT('', (0.0E0, 0.0E0, 1.0E1));
#267 = VECTOR('', #268, 1.0E1);
#268 = DIRECTION('', (1.0E0, 0.0E0, 0.0E0));
#269 = SURFACE_CURVE('', #270, (#179, #219), .CURVE_3D.);
#270 = (
    BOUNDED_CURVE()
    B_SPLINE_CURVE(1, (#271, #272), .UNSPECIFIED., .U., .U.)
    B_SPLINE_CURVE_WITH_KNOTS((2, 2), (0.0, 1.0), .UNSPECIFIED.)
    CURVE()
    GEOMETRIC_REPRESENTATION_ITEM()
    RATIONAL_B_SPLINE_CURVE((1.0, 1.0))
    REPRESENTATION_ITEM('')
);
#271 = CARTESIAN_POINT('', (4.999999999999999, 2.0, 10.0));
#272 = CARTESIAN_POINT('', (9.999999999999998, 2.0, 10.0));
#273 = SURFACE_CURVE('', #274, (#179, #194), .CURVE_3D.);
#274 = (
    BOUNDED_CURVE()
    B_SPLINE_CURVE(1, (#275, #276), .UNSPECIFIED., .U., .U.)
    B_SPLINE_CURVE_WITH_KNOTS((2, 2), (0.0, 1.0), .UNSPECIFIED.)
    CURVE()
    GEOMETRIC_REPRESENTATION_ITEM()
    RATIONAL_B_SPLINE_CURVE((1.0, 1.0))
    REPRESENTATION_ITEM('')
);
#275 = CARTESIAN_POINT('', (5.0, 10.000000000000002, 10.0));
#276 = CARTESIAN_POINT('', (5.0, 2.0, 10.0));
#277 = SURFACE_CURVE('', #278, (#179, #189), .CURVE_3D.);
#278 = LINE('', #279, #280);
#279 = CARTESIAN_POINT('', (0.0E0, 1.0E1, 1.0E1));
#280 = VECTOR('', #281, 5.0E0);
#281 = DIRECTION('', (1.0E0, 0.0E0, 0.0E0));
#282 = SURFACE_CURVE('', #283, (#179, #184), .CURVE_3D.);
#283 = LINE('', #284, #285);
#284 = CARTESIAN_POINT('', (1.0E1, 0.0E0, 1.0E1));
#285 = VECTOR('', #286, 2.0E0);
#286 = DIRECTION('', (0.0E0, 1.0E0, 0.0E0));
#287 = SURFACE_CURVE('', #288, (#184, #219), .CURVE_3D.);
#288 = LINE('', #289, #290);
#289 = CARTESIAN_POINT('', (1.0E1, 2.0E0, 1.0E1));
#290 = VECTOR('', #291, 7.0E0);
#291 = DIRECTION('', (0.0E0, 0.0E0, -1.0E0));
#292 = SURFACE_CURVE('', #293, (#184, #189), .CURVE_3D.);
#293 = LINE('', #294, #295);
#294 = CARTESIAN_POINT('', (1.0E1, 1.0E1, 0.0E0));
#295 = VECTOR('', #296, 3.0E0);
#296 = DIRECTION('', (0.0E0, 0.0E0, 1.0E0));
#297 = SURFACE_CURVE('', #298, (#184, #199), .CURVE_3D.);
#298 = (
    BOUNDED_CURVE()
    B_SPLINE_CURVE(1, (#299, #300), .UNSPECIFIED., .U., .U.)
    B_SPLINE_CURVE_WITH_KNOTS((2, 2), (0.0, 1.0), .UNSPECIFIED.)
    CURVE()
    GEOMETRIC_REPRESENTATION_ITEM()
    RATIONAL_B_SPLINE_CURVE((1.0, 1.0))
    REPRESENTATION_ITEM('')
);
#299 = CARTESIAN_POINT('', (10.0, 2.0, 3.0));
#300 = CARTESIAN_POINT('', (10.0, 9.999999999999996, 3.0));
#301 = SURFACE_CURVE('', #302, (#189, #194), .CURVE_3D.);
#302 = (
    BOUNDED_CURVE()
    B_SPLINE_CURVE(1, (#303, #304), .UNSPECIFIED., .U., .U.)
    B_SPLINE_CURVE_WITH_KNOTS((2, 2), (0.0, 1.0), .UNSPECIFIED.)
    CURVE()
    GEOMETRIC_REPRESENTATION_ITEM()
    RATIONAL_B_SPLINE_CURVE((1.0, 1.0))
    REPRESENTATION_ITEM('')
);
#303 = CARTESIAN_POINT('', (5.0, 10.0, 3.0));
#304 = CARTESIAN_POINT('', (5.0, 10.0, 9.999999999999998));
#305 = SURFACE_CURVE('', #306, (#189, #199), .CURVE_3D.);
#306 = LINE('', #307, #308);
#307 = CARTESIAN_POINT('', (1.0E1, 1.0E1, 3.0E0));
#308 = VECTOR('', #309, 5.0E0);
#309 = DIRECTION('', (-1.0E0, 0.0E0, 0.0E0));
#310 = SURFACE_CURVE('', #311, (#194, #219), .CURVE_3D.);
#311 = LINE('', #312, #313);
#312 = CARTESIAN_POINT('', (5.0E0, 2.0E0, 1.0E1));
#313 = VECTOR('', #314, 3.0E0);
#314 = DIRECTION('', (0.0E0, 0.0E0, 1.0E0));
#315 = SURFACE_CURVE('', #316, (#194, #214), .CURVE_3D.);
#316 = LINE('', #317, #318);
#317 = CARTESIAN_POINT('', (5.0E0, 2.0E0, 1.3E1));
#318 = VECTOR('', #319, 1.0E1);
#319 = DIRECTION('', (0.0E0, 1.0E0, 0.0E0));
#320 = SURFACE_CURVE('', #321, (#194, #209), .CURVE_3D.);
#321 = LINE('', #322, #323);
#322 = CARTESIAN_POINT('', (5.0E0, 1.2E1, 3.0E0));
#323 = VECTOR('', #324, 1.0E1);
#324 = DIRECTION('', (0.0E0, 0.0E0, 1.0E0));
#325 = SURFACE_CURVE('', #326, (#194, #199), .CURVE_3D.);
#326 = LINE('', #327, #328);
#327 = CARTESIAN_POINT('', (5.0E0, 1.0E1, 3.0E0));
#328 = VECTOR('', #329, 2.0E0);
#329 = DIRECTION('', (0.0E0, 1.0E0, 0.0E0));
#330 = SURFACE_CURVE('', #331, (#199, #209), .CURVE_3D.);
#331 = LINE('', #332, #333);
#332 = CARTESIAN_POINT('', (5.0E0, 1.2E1, 3.0E0));
#333 = VECTOR('', #334, 1.0E1);
#334 = DIRECTION('', (1.0E0, 0.0E0, 0.0E0));
#335 = SURFACE_CURVE('', #336, (#199, #204), .CURVE_3D.);
#336 = LINE('', #337, #338);
#337 = CARTESIAN_POINT('', (1.5E1, 2.0E0, 3.0E0));
#338 = VECTOR('', #339, 1.0E1);
#339 = DIRECTION('', (0.0E0, 1.0E0, 0.0E0));
#340 = SURFACE_CURVE('', #341, (#199, #219), .CURVE_3D.);
#341 = LINE('', #342, #343);
#342 = CARTESIAN_POINT('', (1.0E1, 2.0E0, 3.0E0));
#343 = VECTOR('', #344, 5.0E0);
#344 = DIRECTION('', (1.0E0, 0.0E0, 0.0E0));
#345 = SURFACE_CURVE('', #346, (#204, #219), .CURVE_3D.);
#346 = LINE('', #347, #348);
#347 = CARTESIAN_POINT('', (1.5E1, 2.0E0, 3.0E0));
#348 = VECTOR('', #349, 1.0E1);
#349 = DIRECTION('', (0.0E0, 0.0E0, 1.0E0));
#350 = SURFACE_CURVE('', #351, (#204, #209), .CURVE_3D.);
#351 = LINE('', #352, #353);
#352 = CARTESIAN_POINT('', (1.5E1, 1.2E1, 3.0E0));
#353 = VECTOR('', #354, 1.0E1);
#354 = DIRECTION('', (0.0E0, 0.0E0, 1.0E0));
#355 = SURFACE_CURVE('', #356, (#204, #214), .CURVE_3D.);
#356 = LINE('', #357, #358);
#357 = CARTESIAN_POINT('', (1.5E1, 2.0E0, 1.3E1));
#358 = VECTOR('', #359, 1.0E1);
#359 = DIRECTION('', (0.0E0, 1.0E0, 0.0E0));
#360 = SURFACE_CURVE('', #361, (#209, #214), .CURVE_3D.);
#361 = LINE('', #362, #363);
#362 = CARTESIAN_POINT('', (5.0E0, 1.2E1, 1.3E1));
#363 = VECTOR('', #364, 1.0E1);
#364 = DIRECTION('', (1.0E0, 0.0E0, 0.0E0));
#365 = SURFACE_CURVE('', #366, (#214, #219), .CURVE_3D.);
#366 = LINE('', #367, #368);
#367 = CARTESIAN_POINT('', (5.0E0, 2.0E0, 1.3E1));
#368 = VECTOR('', #369, 1.0E1);
#369 = DIRECTION('', (1.0E0, 0.0E0, 0.0E0));
#370 = CARTESIAN_POINT('', (0.0E0, 0.0E0, 0.0E0));
#371 = CARTESIAN_POINT('', (0.0E0, 1.0E1, 0.0E0));
#372 = CARTESIAN_POINT('', (1.0E1, 1.0E1, 0.0E0));
#373 = CARTESIAN_POINT('', (1.0E1, 0.0E0, 0.0E0));
#374 = CARTESIAN_POINT('', (0.0E0, 0.0E0, 1.0E1));
#375 = CARTESIAN_POINT('', (0.0E0, 1.0E1, 1.0E1));
#376 = CARTESIAN_POINT('', (1.0E1, 0.0E0, 1.0E1));
#377 = CARTESIAN_POINT('', (5.0E0, 2.0E0, 1.0E1));
#378 = CARTESIAN_POINT('', (1.0E1, 2.0E0, 1.0E1));
#379 = CARTESIAN_POINT('', (5.0E0, 1.0E1, 1.0E1));
#380 = CARTESIAN_POINT('', (1.0E1, 2.0E0, 3.0E0));
#381 = CARTESIAN_POINT('', (1.0E1, 1.0E1, 3.0E0));
#382 = CARTESIAN_POINT('', (5.0E0, 1.0E1, 3.0E0));
#383 = CARTESIAN_POINT('', (5.0E0, 2.0E0, 1.3E1));
#384 = CARTESIAN_POINT('', (5.0E0, 1.2E1, 1.3E1));
#385 = CARTESIAN_POINT('', (5.0E0, 1.2E1, 3.0E0));
#386 = CARTESIAN_POINT('', (1.5E1, 1.2E1, 3.0E0));
#387 = CARTESIAN_POINT('', (1.5E1, 2.0E0, 3.0E0));
#388 = CARTESIAN_POINT('', (1.5E1, 2.0E0, 1.3E1));
#389 = CARTESIAN_POINT('', (1.5E1, 1.2E1, 1.3E1));
ENDSEC;
END-ISO-10303-21;
