ISO-10303-21;
HEADER;
FILE_DESCRIPTION(('Shape Data from monstertruck'), '2;1');
FILE_NAME('', '2026-10-10 06:01:22.506455663', (''), (''), 'monstertruck', 'Viboceros', '');
FILE_SCHEMA(('AUTOMOTIVE_DESIGN'));
ENDSEC;
DATA;
#1 = APPLICATION_PROTOCOL_DEFINITION('international standard', 'automotive_design', 2000, #2);
#2 = APPLICATION_CONTEXT('core data for automotive mechanical design processes');
#3 = SHAPE_DEFINITION_REPRESENTATION(#4, #10);
#4 = PRODUCT_DEFINITION_SHAPE('','', #5);
#5 = PRODUCT_DEFINITION('design','', #6, #9);
#6 = PRODUCT_DEFINITION_FORMATION('','', #7);
#7 = PRODUCT('','','', (#8));
#8 = PRODUCT_CONTEXT('', #2, 'mechanical');
#9 = PRODUCT_DEFINITION_CONTEXT('part definition', #2, 'design');
#10 = ADVANCED_BREP_SHAPE_REPRESENTATION('', (#16), #11);
#11 = (
    GEOMETRIC_REPRESENTATION_CONTEXT(3)
    GLOBAL_UNCERTAINTY_ASSIGNED_CONTEXT((#15))
    GLOBAL_UNIT_ASSIGNED_CONTEXT((#12, #13, #14))
    REPRESENTATION_CONTEXT('Context #1', '3D Context with UNIT and UNCERTAINTY')
);
#12 = ( LENGTH_UNIT() NAMED_UNIT(*) SI_UNIT(.MILLI.,.METRE.) );
#13 = ( NAMED_UNIT(*) PLANE_ANGLE_UNIT() SI_UNIT($,.RADIAN.) );
#14 = ( NAMED_UNIT(*) SI_UNIT($,.STERADIAN.) SOLID_ANGLE_UNIT() );
#15 = UNCERTAINTY_MEASURE_WITH_UNIT(LENGTH_MEASURE(1.0E-6), #12, 'distance_accuracy_value','confusion accuracy');
#16 = SHELL_BASED_SURFACE_MODEL('', (#17));
#17 = OPEN_SHELL('', (#18, #25, #29));
#18 = ADVANCED_FACE('', (#19), #38, .T.);
#19 = FACE_BOUND('', #20, .T.);
#20 = EDGE_LOOP('', (#21, #22, #23, #24));
#21 = ORIENTED_EDGE('', *, *, #33, .F.);
#22 = ORIENTED_EDGE('', *, *, #34, .T.);
#23 = ORIENTED_EDGE('', *, *, #33, .T.);
#24 = ORIENTED_EDGE('', *, *, #35, .F.);
#25 = ADVANCED_FACE('', (#26), #57, .T.);
#26 = FACE_BOUND('', #27, .T.);
#27 = EDGE_LOOP('', (#28));
#28 = ORIENTED_EDGE('', *, *, #34, .F.);
#29 = ADVANCED_FACE('', (#30), #62, .T.);
#30 = FACE_BOUND('', #31, .T.);
#31 = EDGE_LOOP('', (#32));
#32 = ORIENTED_EDGE('', *, *, #35, .T.);
#33 = EDGE_CURVE('', #36, #37, #67, .T.);
#34 = EDGE_CURVE('', #36, #36, #121, .T.);
#35 = EDGE_CURVE('', #37, #37, #175, .T.);
#36 = VERTEX_POINT('', #229);
#37 = VERTEX_POINT('', #230);
#38 = (
    BOUNDED_SURFACE()
    B_SPLINE_SURFACE(2, 1, ((#39, #40), (#41, #42), (#43, #44), (#45, #46), (#47, #48), (#49, #50), (#51, #52), (#53, #54), (#55, #56)), .UNSPECIFIED., .U., .U., .U.)
    B_SPLINE_SURFACE_WITH_KNOTS((3, 2, 2, 2, 3), (2, 2), (0.0, 3.141592653589793, 6.283185307179586, 9.42477796076938, 12.566370614359172), (0.0, 12.0), .UNSPECIFIED.)
    GEOMETRIC_REPRESENTATION_ITEM()
    RATIONAL_B_SPLINE_SURFACE(((1.0, 1.0), (0.7071067811865476, 0.7071067811865476), (1.0, 1.0), (0.7071067811865476, 0.7071067811865476), (1.0, 1.0), (0.7071067811865476, 0.7071067811865476), (1.0, 1.0), (0.7071067811865476, 0.7071067811865476), (1.0, 1.0)))
    REPRESENTATION_ITEM('')
    SURFACE()
);
#39 = CARTESIAN_POINT('', (7.0, 5.0, -1.0));
#40 = CARTESIAN_POINT('', (7.0, 5.0, 11.0));
#41 = CARTESIAN_POINT('', (6.999999999999999, 6.999999999999999, -1.0));
#42 = CARTESIAN_POINT('', (6.999999999999999, 6.999999999999999, 11.0));
#43 = CARTESIAN_POINT('', (5.0, 7.0, -1.0));
#44 = CARTESIAN_POINT('', (5.0, 7.0, 11.0));
#45 = CARTESIAN_POINT('', (3.0, 6.999999999999999, -1.0));
#46 = CARTESIAN_POINT('', (3.0, 6.999999999999999, 11.0));
#47 = CARTESIAN_POINT('', (3.0, 5.0, -1.0));
#48 = CARTESIAN_POINT('', (3.0, 5.0, 11.0));
#49 = CARTESIAN_POINT('', (2.9999999999999996, 3.0, -1.0));
#50 = CARTESIAN_POINT('', (2.9999999999999996, 3.0, 11.0));
#51 = CARTESIAN_POINT('', (5.0, 3.0, -1.0));
#52 = CARTESIAN_POINT('', (5.0, 3.0, 11.0));
#53 = CARTESIAN_POINT('', (6.999999999999999, 3.0, -1.0));
#54 = CARTESIAN_POINT('', (6.999999999999999, 3.0, 11.0));
#55 = CARTESIAN_POINT('', (7.0, 5.0, -1.0));
#56 = CARTESIAN_POINT('', (7.0, 5.0, 11.0));
#57 = (
    BOUNDED_SURFACE()
    B_SPLINE_SURFACE(1, 1, ((#58, #59), (#60, #61)), .UNSPECIFIED., .U., .U., .U.)
    B_SPLINE_SURFACE_WITH_KNOTS((2, 2), (2, 2), (0.0, 1.0), (0.0, 1.0), .UNSPECIFIED.)
    GEOMETRIC_REPRESENTATION_ITEM()
    RATIONAL_B_SPLINE_SURFACE(((1.0, 1.0), (1.0, 1.0)))
    REPRESENTATION_ITEM('')
    SURFACE()
);
#58 = CARTESIAN_POINT('', (8.11126983722081, 1.8887301627791904, -1.0));
#59 = CARTESIAN_POINT('', (8.11126983722081, 8.11126983722081, -1.0));
#60 = CARTESIAN_POINT('', (1.88873016277919, 1.8887301627791904, -1.0));
#61 = CARTESIAN_POINT('', (1.88873016277919, 8.11126983722081, -1.0));
#62 = (
    BOUNDED_SURFACE()
    B_SPLINE_SURFACE(1, 1, ((#63, #64), (#65, #66)), .UNSPECIFIED., .U., .U., .U.)
    B_SPLINE_SURFACE_WITH_KNOTS((2, 2), (2, 2), (0.0, 1.0), (0.0, 1.0), .UNSPECIFIED.)
    GEOMETRIC_REPRESENTATION_ITEM()
    RATIONAL_B_SPLINE_SURFACE(((1.0, 1.0), (1.0, 1.0)))
    REPRESENTATION_ITEM('')
    SURFACE()
);
#63 = CARTESIAN_POINT('', (8.11126983722081, 1.8887301627791904, 11.000000000000002));
#64 = CARTESIAN_POINT('', (1.88873016277919, 1.8887301627791904, 11.000000000000002));
#65 = CARTESIAN_POINT('', (8.11126983722081, 8.11126983722081, 10.999999999999998));
#66 = CARTESIAN_POINT('', (1.88873016277919, 8.11126983722081, 10.999999999999998));
#67 = SEAM_CURVE('', #68, (#71, #96), .CURVE_3D.);
#68 = (
    BOUNDED_CURVE()
    B_SPLINE_CURVE(1, (#69, #70), .UNSPECIFIED., .U., .U.)
    B_SPLINE_CURVE_WITH_KNOTS((2, 2), (0.0, 12.0), .UNSPECIFIED.)
    CURVE()
    GEOMETRIC_REPRESENTATION_ITEM()
    RATIONAL_B_SPLINE_CURVE((1.0, 1.0))
    REPRESENTATION_ITEM('')
);
#69 = CARTESIAN_POINT('', (7.0, 5.0, -1.0));
#70 = CARTESIAN_POINT('', (7.0, 5.0, 11.0));
#71 = PCURVE('', #72, #91);
#72 = (
    BOUNDED_SURFACE()
    B_SPLINE_SURFACE(2, 1, ((#73, #74), (#75, #76), (#77, #78), (#79, #80), (#81, #82), (#83, #84), (#85, #86), (#87, #88), (#89, #90)), .UNSPECIFIED., .U., .U., .U.)
    B_SPLINE_SURFACE_WITH_KNOTS((3, 2, 2, 2, 3), (2, 2), (0.0, 3.141592653589793, 6.283185307179586, 9.42477796076938, 12.566370614359172), (0.0, 12.0), .UNSPECIFIED.)
    GEOMETRIC_REPRESENTATION_ITEM()
    RATIONAL_B_SPLINE_SURFACE(((1.0, 1.0), (0.7071067811865476, 0.7071067811865476), (1.0, 1.0), (0.7071067811865476, 0.7071067811865476), (1.0, 1.0), (0.7071067811865476, 0.7071067811865476), (1.0, 1.0), (0.7071067811865476, 0.7071067811865476), (1.0, 1.0)))
    REPRESENTATION_ITEM('')
    SURFACE()
);
#73 = CARTESIAN_POINT('', (7.0, 5.0, -1.0));
#74 = CARTESIAN_POINT('', (7.0, 5.0, 11.0));
#75 = CARTESIAN_POINT('', (6.999999999999999, 6.999999999999999, -1.0));
#76 = CARTESIAN_POINT('', (6.999999999999999, 6.999999999999999, 11.0));
#77 = CARTESIAN_POINT('', (5.0, 7.0, -1.0));
#78 = CARTESIAN_POINT('', (5.0, 7.0, 11.0));
#79 = CARTESIAN_POINT('', (3.0, 6.999999999999999, -1.0));
#80 = CARTESIAN_POINT('', (3.0, 6.999999999999999, 11.0));
#81 = CARTESIAN_POINT('', (3.0, 5.0, -1.0));
#82 = CARTESIAN_POINT('', (3.0, 5.0, 11.0));
#83 = CARTESIAN_POINT('', (2.9999999999999996, 3.0, -1.0));
#84 = CARTESIAN_POINT('', (2.9999999999999996, 3.0, 11.0));
#85 = CARTESIAN_POINT('', (5.0, 3.0, -1.0));
#86 = CARTESIAN_POINT('', (5.0, 3.0, 11.0));
#87 = CARTESIAN_POINT('', (6.999999999999999, 3.0, -1.0));
#88 = CARTESIAN_POINT('', (6.999999999999999, 3.0, 11.0));
#89 = CARTESIAN_POINT('', (7.0, 5.0, -1.0));
#90 = CARTESIAN_POINT('', (7.0, 5.0, 11.0));
#91 = DEFINITIONAL_REPRESENTATION('', (#93), #92);
#92 = (
    GEOMETRIC_REPRESENTATION_CONTEXT(2)
    PARAMETRIC_REPRESENTATION_CONTEXT()
    REPRESENTATION_CONTEXT('2D SPACE', '')
);
#93 = (
    BOUNDED_CURVE()
    B_SPLINE_CURVE(1, (#94, #95), .UNSPECIFIED., .U., .U.)
    B_SPLINE_CURVE_WITH_KNOTS((2, 2), (0.0, 12.0), .UNSPECIFIED.)
    CURVE()
    GEOMETRIC_REPRESENTATION_ITEM()
    RATIONAL_B_SPLINE_CURVE((1.0, 1.0))
    REPRESENTATION_ITEM('')
);
#94 = CARTESIAN_POINT('', (0.0, 0.0));
#95 = CARTESIAN_POINT('', (0.0, 12.0));
#96 = PCURVE('', #97, #116);
#97 = (
    BOUNDED_SURFACE()
    B_SPLINE_SURFACE(2, 1, ((#98, #99), (#100, #101), (#102, #103), (#104, #105), (#106, #107), (#108, #109), (#110, #111), (#112, #113), (#114, #115)), .UNSPECIFIED., .U., .U., .U.)
    B_SPLINE_SURFACE_WITH_KNOTS((3, 2, 2, 2, 3), (2, 2), (0.0, 3.141592653589793, 6.283185307179586, 9.42477796076938, 12.566370614359172), (0.0, 12.0), .UNSPECIFIED.)
    GEOMETRIC_REPRESENTATION_ITEM()
    RATIONAL_B_SPLINE_SURFACE(((1.0, 1.0), (0.7071067811865476, 0.7071067811865476), (1.0, 1.0), (0.7071067811865476, 0.7071067811865476), (1.0, 1.0), (0.7071067811865476, 0.7071067811865476), (1.0, 1.0), (0.7071067811865476, 0.7071067811865476), (1.0, 1.0)))
    REPRESENTATION_ITEM('')
    SURFACE()
);
#98 = CARTESIAN_POINT('', (7.0, 5.0, -1.0));
#99 = CARTESIAN_POINT('', (7.0, 5.0, 11.0));
#100 = CARTESIAN_POINT('', (6.999999999999999, 6.999999999999999, -1.0));
#101 = CARTESIAN_POINT('', (6.999999999999999, 6.999999999999999, 11.0));
#102 = CARTESIAN_POINT('', (5.0, 7.0, -1.0));
#103 = CARTESIAN_POINT('', (5.0, 7.0, 11.0));
#104 = CARTESIAN_POINT('', (3.0, 6.999999999999999, -1.0));
#105 = CARTESIAN_POINT('', (3.0, 6.999999999999999, 11.0));
#106 = CARTESIAN_POINT('', (3.0, 5.0, -1.0));
#107 = CARTESIAN_POINT('', (3.0, 5.0, 11.0));
#108 = CARTESIAN_POINT('', (2.9999999999999996, 3.0, -1.0));
#109 = CARTESIAN_POINT('', (2.9999999999999996, 3.0, 11.0));
#110 = CARTESIAN_POINT('', (5.0, 3.0, -1.0));
#111 = CARTESIAN_POINT('', (5.0, 3.0, 11.0));
#112 = CARTESIAN_POINT('', (6.999999999999999, 3.0, -1.0));
#113 = CARTESIAN_POINT('', (6.999999999999999, 3.0, 11.0));
#114 = CARTESIAN_POINT('', (7.0, 5.0, -1.0));
#115 = CARTESIAN_POINT('', (7.0, 5.0, 11.0));
#116 = DEFINITIONAL_REPRESENTATION('', (#118), #117);
#117 = (
    GEOMETRIC_REPRESENTATION_CONTEXT(2)
    PARAMETRIC_REPRESENTATION_CONTEXT()
    REPRESENTATION_CONTEXT('2D SPACE', '')
);
#118 = (
    BOUNDED_CURVE()
    B_SPLINE_CURVE(1, (#119, #120), .UNSPECIFIED., .U., .U.)
    B_SPLINE_CURVE_WITH_KNOTS((2, 2), (0.0, 12.0), .UNSPECIFIED.)
    CURVE()
    GEOMETRIC_REPRESENTATION_ITEM()
    RATIONAL_B_SPLINE_CURVE((1.0, 1.0))
    REPRESENTATION_ITEM('')
);
#119 = CARTESIAN_POINT('', (12.566370614359172, 0.0));
#120 = CARTESIAN_POINT('', (12.566370614359172, 12.0));
#121 = SURFACE_CURVE('', #122, (#132, #157), .CURVE_3D.);
#122 = (
    BOUNDED_CURVE()
    B_SPLINE_CURVE(2, (#123, #124, #125, #126, #127, #128, #129, #130, #131), .UNSPECIFIED., .U., .U.)
    B_SPLINE_CURVE_WITH_KNOTS((3, 2, 2, 2, 3), (0.0, 3.141592653589793, 6.283185307179586, 9.42477796076938, 12.566370614359172), .UNSPECIFIED.)
    CURVE()
    GEOMETRIC_REPRESENTATION_ITEM()
    RATIONAL_B_SPLINE_CURVE((1.0, 0.7071067811865476, 1.0, 0.7071067811865476, 1.0, 0.7071067811865476, 1.0, 0.7071067811865476, 1.0))
    REPRESENTATION_ITEM('')
);
#123 = CARTESIAN_POINT('', (7.0, 5.0, -1.0));
#124 = CARTESIAN_POINT('', (6.999999999999999, 6.999999999999999, -1.0));
#125 = CARTESIAN_POINT('', (5.0, 7.0, -1.0));
#126 = CARTESIAN_POINT('', (3.0, 6.999999999999999, -1.0));
#127 = CARTESIAN_POINT('', (3.0, 5.0, -1.0));
#128 = CARTESIAN_POINT('', (2.9999999999999996, 3.0, -1.0));
#129 = CARTESIAN_POINT('', (5.0, 3.0, -1.0));
#130 = CARTESIAN_POINT('', (6.999999999999999, 3.0, -1.0));
#131 = CARTESIAN_POINT('', (7.0, 5.0, -1.0));
#132 = PCURVE('', #133, #152);
#133 = (
    BOUNDED_SURFACE()
    B_SPLINE_SURFACE(2, 1, ((#134, #135), (#136, #137), (#138, #139), (#140, #141), (#142, #143), (#144, #145), (#146, #147), (#148, #149), (#150, #151)), .UNSPECIFIED., .U., .U., .U.)
    B_SPLINE_SURFACE_WITH_KNOTS((3, 2, 2, 2, 3), (2, 2), (0.0, 3.141592653589793, 6.283185307179586, 9.42477796076938, 12.566370614359172), (0.0, 12.0), .UNSPECIFIED.)
    GEOMETRIC_REPRESENTATION_ITEM()
    RATIONAL_B_SPLINE_SURFACE(((1.0, 1.0), (0.7071067811865476, 0.7071067811865476), (1.0, 1.0), (0.7071067811865476, 0.7071067811865476), (1.0, 1.0), (0.7071067811865476, 0.7071067811865476), (1.0, 1.0), (0.7071067811865476, 0.7071067811865476), (1.0, 1.0)))
    REPRESENTATION_ITEM('')
    SURFACE()
);
#134 = CARTESIAN_POINT('', (7.0, 5.0, -1.0));
#135 = CARTESIAN_POINT('', (7.0, 5.0, 11.0));
#136 = CARTESIAN_POINT('', (6.999999999999999, 6.999999999999999, -1.0));
#137 = CARTESIAN_POINT('', (6.999999999999999, 6.999999999999999, 11.0));
#138 = CARTESIAN_POINT('', (5.0, 7.0, -1.0));
#139 = CARTESIAN_POINT('', (5.0, 7.0, 11.0));
#140 = CARTESIAN_POINT('', (3.0, 6.999999999999999, -1.0));
#141 = CARTESIAN_POINT('', (3.0, 6.999999999999999, 11.0));
#142 = CARTESIAN_POINT('', (3.0, 5.0, -1.0));
#143 = CARTESIAN_POINT('', (3.0, 5.0, 11.0));
#144 = CARTESIAN_POINT('', (2.9999999999999996, 3.0, -1.0));
#145 = CARTESIAN_POINT('', (2.9999999999999996, 3.0, 11.0));
#146 = CARTESIAN_POINT('', (5.0, 3.0, -1.0));
#147 = CARTESIAN_POINT('', (5.0, 3.0, 11.0));
#148 = CARTESIAN_POINT('', (6.999999999999999, 3.0, -1.0));
#149 = CARTESIAN_POINT('', (6.999999999999999, 3.0, 11.0));
#150 = CARTESIAN_POINT('', (7.0, 5.0, -1.0));
#151 = CARTESIAN_POINT('', (7.0, 5.0, 11.0));
#152 = DEFINITIONAL_REPRESENTATION('', (#154), #153);
#153 = (
    GEOMETRIC_REPRESENTATION_CONTEXT(2)
    PARAMETRIC_REPRESENTATION_CONTEXT()
    REPRESENTATION_CONTEXT('2D SPACE', '')
);
#154 = (
    BOUNDED_CURVE()
    B_SPLINE_CURVE(1, (#155, #156), .UNSPECIFIED., .U., .U.)
    B_SPLINE_CURVE_WITH_KNOTS((2, 2), (0.0, 12.566370614359172), .UNSPECIFIED.)
    CURVE()
    GEOMETRIC_REPRESENTATION_ITEM()
    RATIONAL_B_SPLINE_CURVE((1.0, 1.0))
    REPRESENTATION_ITEM('')
);
#155 = CARTESIAN_POINT('', (0.0, 0.0));
#156 = CARTESIAN_POINT('', (12.566370614359172, 0.0));
#157 = PCURVE('', #158, #163);
#158 = (
    BOUNDED_SURFACE()
    B_SPLINE_SURFACE(1, 1, ((#159, #160), (#161, #162)), .UNSPECIFIED., .U., .U., .U.)
    B_SPLINE_SURFACE_WITH_KNOTS((2, 2), (2, 2), (0.0, 1.0), (0.0, 1.0), .UNSPECIFIED.)
    GEOMETRIC_REPRESENTATION_ITEM()
    RATIONAL_B_SPLINE_SURFACE(((1.0, 1.0), (1.0, 1.0)))
    REPRESENTATION_ITEM('')
    SURFACE()
);
#159 = CARTESIAN_POINT('', (8.11126983722081, 1.8887301627791904, -1.0));
#160 = CARTESIAN_POINT('', (8.11126983722081, 8.11126983722081, -1.0));
#161 = CARTESIAN_POINT('', (1.88873016277919, 1.8887301627791904, -1.0));
#162 = CARTESIAN_POINT('', (1.88873016277919, 8.11126983722081, -1.0));
#163 = DEFINITIONAL_REPRESENTATION('', (#165), #164);
#164 = (
    GEOMETRIC_REPRESENTATION_CONTEXT(2)
    PARAMETRIC_REPRESENTATION_CONTEXT()
    REPRESENTATION_CONTEXT('2D SPACE', '')
);
#165 = (
    BOUNDED_CURVE()
    B_SPLINE_CURVE(2, (#166, #167, #168, #169, #170, #171, #172, #173, #174), .UNSPECIFIED., .U., .U.)
    B_SPLINE_CURVE_WITH_KNOTS((3, 2, 2, 2, 3), (0.0, 3.141592653589793, 6.283185307179586, 9.42477796076938, 12.566370614359172), .UNSPECIFIED.)
    CURVE()
    GEOMETRIC_REPRESENTATION_ITEM()
    RATIONAL_B_SPLINE_CURVE((1.0, 0.7071067811865476, 1.0, 0.7071067811865476, 1.0, 0.7071067811865476, 1.0, 0.7071067811865476, 1.0))
    REPRESENTATION_ITEM('')
);
#166 = CARTESIAN_POINT('', (0.17858782673338758, 0.49999999999999994));
#167 = CARTESIAN_POINT('', (0.17858782673338774, 0.8214121732666121));
#168 = CARTESIAN_POINT('', (0.5, 0.8214121732666124));
#169 = CARTESIAN_POINT('', (0.8214121732666124, 0.8214121732666121));
#170 = CARTESIAN_POINT('', (0.8214121732666124, 0.49999999999999994));
#171 = CARTESIAN_POINT('', (0.8214121732666124, 0.17858782673338752));
#172 = CARTESIAN_POINT('', (0.5, 0.17858782673338752));
#173 = CARTESIAN_POINT('', (0.17858782673338774, 0.17858782673338752));
#174 = CARTESIAN_POINT('', (0.17858782673338758, 0.49999999999999994));
#175 = SURFACE_CURVE('', #176, (#186, #211), .CURVE_3D.);
#176 = (
    BOUNDED_CURVE()
    B_SPLINE_CURVE(2, (#177, #178, #179, #180, #181, #182, #183, #184, #185), .UNSPECIFIED., .U., .U.)
    B_SPLINE_CURVE_WITH_KNOTS((3, 2, 2, 2, 3), (0.0, 3.141592653589793, 6.283185307179586, 9.42477796076938, 12.566370614359172), .UNSPECIFIED.)
    CURVE()
    GEOMETRIC_REPRESENTATION_ITEM()
    RATIONAL_B_SPLINE_CURVE((1.0, 0.7071067811865476, 1.0, 0.7071067811865476, 1.0, 0.7071067811865476, 1.0, 0.7071067811865476, 1.0))
    REPRESENTATION_ITEM('')
);
#177 = CARTESIAN_POINT('', (7.0, 5.0, 11.0));
#178 = CARTESIAN_POINT('', (6.999999999999999, 6.999999999999999, 11.0));
#179 = CARTESIAN_POINT('', (5.0, 7.0, 11.0));
#180 = CARTESIAN_POINT('', (3.0, 6.999999999999999, 11.0));
#181 = CARTESIAN_POINT('', (3.0, 5.0, 11.0));
#182 = CARTESIAN_POINT('', (2.9999999999999996, 3.0, 11.0));
#183 = CARTESIAN_POINT('', (5.0, 3.0, 11.0));
#184 = CARTESIAN_POINT('', (6.999999999999999, 3.0, 11.0));
#185 = CARTESIAN_POINT('', (7.0, 5.0, 11.0));
#186 = PCURVE('', #187, #206);
#187 = (
    BOUNDED_SURFACE()
    B_SPLINE_SURFACE(2, 1, ((#188, #189), (#190, #191), (#192, #193), (#194, #195), (#196, #197), (#198, #199), (#200, #201), (#202, #203), (#204, #205)), .UNSPECIFIED., .U., .U., .U.)
    B_SPLINE_SURFACE_WITH_KNOTS((3, 2, 2, 2, 3), (2, 2), (0.0, 3.141592653589793, 6.283185307179586, 9.42477796076938, 12.566370614359172), (0.0, 12.0), .UNSPECIFIED.)
    GEOMETRIC_REPRESENTATION_ITEM()
    RATIONAL_B_SPLINE_SURFACE(((1.0, 1.0), (0.7071067811865476, 0.7071067811865476), (1.0, 1.0), (0.7071067811865476, 0.7071067811865476), (1.0, 1.0), (0.7071067811865476, 0.7071067811865476), (1.0, 1.0), (0.7071067811865476, 0.7071067811865476), (1.0, 1.0)))
    REPRESENTATION_ITEM('')
    SURFACE()
);
#188 = CARTESIAN_POINT('', (7.0, 5.0, -1.0));
#189 = CARTESIAN_POINT('', (7.0, 5.0, 11.0));
#190 = CARTESIAN_POINT('', (6.999999999999999, 6.999999999999999, -1.0));
#191 = CARTESIAN_POINT('', (6.999999999999999, 6.999999999999999, 11.0));
#192 = CARTESIAN_POINT('', (5.0, 7.0, -1.0));
#193 = CARTESIAN_POINT('', (5.0, 7.0, 11.0));
#194 = CARTESIAN_POINT('', (3.0, 6.999999999999999, -1.0));
#195 = CARTESIAN_POINT('', (3.0, 6.999999999999999, 11.0));
#196 = CARTESIAN_POINT('', (3.0, 5.0, -1.0));
#197 = CARTESIAN_POINT('', (3.0, 5.0, 11.0));
#198 = CARTESIAN_POINT('', (2.9999999999999996, 3.0, -1.0));
#199 = CARTESIAN_POINT('', (2.9999999999999996, 3.0, 11.0));
#200 = CARTESIAN_POINT('', (5.0, 3.0, -1.0));
#201 = CARTESIAN_POINT('', (5.0, 3.0, 11.0));
#202 = CARTESIAN_POINT('', (6.999999999999999, 3.0, -1.0));
#203 = CARTESIAN_POINT('', (6.999999999999999, 3.0, 11.0));
#204 = CARTESIAN_POINT('', (7.0, 5.0, -1.0));
#205 = CARTESIAN_POINT('', (7.0, 5.0, 11.0));
#206 = DEFINITIONAL_REPRESENTATION('', (#208), #207);
#207 = (
    GEOMETRIC_REPRESENTATION_CONTEXT(2)
    PARAMETRIC_REPRESENTATION_CONTEXT()
    REPRESENTATION_CONTEXT('2D SPACE', '')
);
#208 = (
    BOUNDED_CURVE()
    B_SPLINE_CURVE(1, (#209, #210), .UNSPECIFIED., .U., .U.)
    B_SPLINE_CURVE_WITH_KNOTS((2, 2), (0.0, 12.566370614359172), .UNSPECIFIED.)
    CURVE()
    GEOMETRIC_REPRESENTATION_ITEM()
    RATIONAL_B_SPLINE_CURVE((1.0, 1.0))
    REPRESENTATION_ITEM('')
);
#209 = CARTESIAN_POINT('', (0.0, 12.0));
#210 = CARTESIAN_POINT('', (12.566370614359172, 12.0));
#211 = PCURVE('', #212, #217);
#212 = (
    BOUNDED_SURFACE()
    B_SPLINE_SURFACE(1, 1, ((#213, #214), (#215, #216)), .UNSPECIFIED., .U., .U., .U.)
    B_SPLINE_SURFACE_WITH_KNOTS((2, 2), (2, 2), (0.0, 1.0), (0.0, 1.0), .UNSPECIFIED.)
    GEOMETRIC_REPRESENTATION_ITEM()
    RATIONAL_B_SPLINE_SURFACE(((1.0, 1.0), (1.0, 1.0)))
    REPRESENTATION_ITEM('')
    SURFACE()
);
#213 = CARTESIAN_POINT('', (8.11126983722081, 1.8887301627791904, 11.000000000000002));
#214 = CARTESIAN_POINT('', (1.88873016277919, 1.8887301627791904, 11.000000000000002));
#215 = CARTESIAN_POINT('', (8.11126983722081, 8.11126983722081, 10.999999999999998));
#216 = CARTESIAN_POINT('', (1.88873016277919, 8.11126983722081, 10.999999999999998));
#217 = DEFINITIONAL_REPRESENTATION('', (#219), #218);
#218 = (
    GEOMETRIC_REPRESENTATION_CONTEXT(2)
    PARAMETRIC_REPRESENTATION_CONTEXT()
    REPRESENTATION_CONTEXT('2D SPACE', '')
);
#219 = (
    BOUNDED_CURVE()
    B_SPLINE_CURVE(2, (#220, #221, #222, #223, #224, #225, #226, #227, #228), .UNSPECIFIED., .U., .U.)
    B_SPLINE_CURVE_WITH_KNOTS((3, 2, 2, 2, 3), (0.0, 3.141592653589793, 6.283185307179586, 9.42477796076938, 12.566370614359172), .UNSPECIFIED.)
    CURVE()
    GEOMETRIC_REPRESENTATION_ITEM()
    RATIONAL_B_SPLINE_CURVE((1.0, 0.7071067811865476, 1.0, 0.7071067811865476, 1.0, 0.7071067811865476, 1.0, 0.7071067811865476, 1.0))
    REPRESENTATION_ITEM('')
);
#220 = CARTESIAN_POINT('', (0.49999999999999994, 0.17858782673338758));
#221 = CARTESIAN_POINT('', (0.8214121732666121, 0.17858782673338774));
#222 = CARTESIAN_POINT('', (0.8214121732666124, 0.5));
#223 = CARTESIAN_POINT('', (0.8214121732666121, 0.8214121732666124));
#224 = CARTESIAN_POINT('', (0.49999999999999994, 0.8214121732666124));
#225 = CARTESIAN_POINT('', (0.17858782673338752, 0.8214121732666124));
#226 = CARTESIAN_POINT('', (0.17858782673338752, 0.5));
#227 = CARTESIAN_POINT('', (0.17858782673338752, 0.17858782673338774));
#228 = CARTESIAN_POINT('', (0.49999999999999994, 0.17858782673338758));
#229 = CARTESIAN_POINT('', (7.0E0, 5.0E0, -1.0E0));
#230 = CARTESIAN_POINT('', (7.0E0, 5.0E0, 1.1E1));
ENDSEC;
END-ISO-10303-21;
