ISO-10303-21;
HEADER;
FILE_DESCRIPTION(('Shape Data from monstertruck'), '2;1');
FILE_NAME('', '2026-10-10 06:01:22.523327976', (''), (''), 'monstertruck', 'Viboceros', '');
FILE_SCHEMA(('AUTOMOTIVE_DESIGN'));
ENDSEC;
DATA;
#1 = APPLICATION_PROTOCOL_DEFINITION('international standard', 'automotive_design', 2000, #2);
#2 = APPLICATION_CONTEXT('core data for automotive mechanical design processes');
#3 = SHAPE_DEFINITION_REPRESENTATION(#4, #10);
#4 = PRODUCT_DEFINITION_SHAPE('','', #5);
#5 = PRODUCT_DEFINITION('design','', #6, #9);
#6 = PRODUCT_DEFINITION_FORMATION('','', #7);
#7 = PRODUCT('','','', (#8));
#8 = PRODUCT_CONTEXT('', #2, 'mechanical');
#9 = PRODUCT_DEFINITION_CONTEXT('part definition', #2, 'design');
#10 = ADVANCED_BREP_SHAPE_REPRESENTATION('', (#16), #11);
#11 = (
    GEOMETRIC_REPRESENTATION_CONTEXT(3)
    GLOBAL_UNCERTAINTY_ASSIGNED_CONTEXT((#15))
    GLOBAL_UNIT_ASSIGNED_CONTEXT((#12, #13, #14))
    REPRESENTATION_CONTEXT('Context #1', '3D Context with UNIT and UNCERTAINTY')
);
#12 = ( LENGTH_UNIT() NAMED_UNIT(*) SI_UNIT(.MILLI.,.METRE.) );
#13 = ( NAMED_UNIT(*) PLANE_ANGLE_UNIT() SI_UNIT($,.RADIAN.) );
#14 = ( NAMED_UNIT(*) SI_UNIT($,.STERADIAN.) SOLID_ANGLE_UNIT() );
#15 = UNCERTAINTY_MEASURE_WITH_UNIT(LENGTH_MEASURE(1.0E-6), #12, 'distance_accuracy_value','confusion accuracy');
#16 = SHELL_BASED_SURFACE_MODEL('', (#17));
#17 = OPEN_SHELL('', (#18, #28, #38, #45, #52, #59, #66));
#18 = ADVANCED_FACE('', (#19, #25), #98, .T.);
#19 = FACE_BOUND('', #20, .T.);
#20 = EDGE_LOOP('', (#21, #22, #23, #24));
#21 = ORIENTED_EDGE('', *, *, #73, .T.);
#22 = ORIENTED_EDGE('', *, *, #74, .T.);
#23 = ORIENTED_EDGE('', *, *, #75, .F.);
#24 = ORIENTED_EDGE('', *, *, #76, .F.);
#25 = FACE_BOUND('', #26, .T.);
#26 = EDGE_LOOP('', (#27));
#27 = ORIENTED_EDGE('', *, *, #77, .T.);
#28 = ADVANCED_FACE('', (#29, #35), #103, .T.);
#29 = FACE_BOUND('', #30, .T.);
#30 = EDGE_LOOP('', (#31, #32, #33, #34));
#31 = ORIENTED_EDGE('', *, *, #78, .F.);
#32 = ORIENTED_EDGE('', *, *, #79, .T.);
#33 = ORIENTED_EDGE('', *, *, #80, .T.);
#34 = ORIENTED_EDGE('', *, *, #81, .F.);
#35 = FACE_BOUND('', #36, .T.);
#36 = EDGE_LOOP('', (#37));
#37 = ORIENTED_EDGE('', *, *, #82, .F.);
#38 = ADVANCED_FACE('', (#39), #108, .T.);
#39 = FACE_BOUND('', #40, .T.);
#40 = EDGE_LOOP('', (#41, #42, #43, #44));
#41 = ORIENTED_EDGE('', *, *, #83, .T.);
#42 = ORIENTED_EDGE('', *, *, #78, .T.);
#43 = ORIENTED_EDGE('', *, *, #84, .F.);
#44 = ORIENTED_EDGE('', *, *, #73, .F.);
#45 = ADVANCED_FACE('', (#46), #113, .T.);
#46 = FACE_BOUND('', #47, .T.);
#47 = EDGE_LOOP('', (#48, #49, #50, #51));
#48 = ORIENTED_EDGE('', *, *, #85, .F.);
#49 = ORIENTED_EDGE('', *, *, #75, .T.);
#50 = ORIENTED_EDGE('', *, *, #86, .T.);
#51 = ORIENTED_EDGE('', *, *, #80, .F.);
#52 = ADVANCED_FACE('', (#53), #118, .T.);
#53 = FACE_BOUND('', #54, .T.);
#54 = EDGE_LOOP('', (#55, #56, #57, #58));
#55 = ORIENTED_EDGE('', *, *, #83, .F.);
#56 = ORIENTED_EDGE('', *, *, #76, .T.);
#57 = ORIENTED_EDGE('', *, *, #85, .T.);
#58 = ORIENTED_EDGE('', *, *, #79, .F.);
#59 = ADVANCED_FACE('', (#60), #123, .T.);
#60 = FACE_BOUND('', #61, .T.);
#61 = EDGE_LOOP('', (#62, #63, #64, #65));
#62 = ORIENTED_EDGE('', *, *, #84, .T.);
#63 = ORIENTED_EDGE('', *, *, #81, .T.);
#64 = ORIENTED_EDGE('', *, *, #86, .F.);
#65 = ORIENTED_EDGE('', *, *, #74, .F.);
#66 = ADVANCED_FACE('', (#67), #128, .F.);
#67 = FACE_BOUND('', #68, .F.);
#68 = EDGE_LOOP('', (#69, #70, #71, #72));
#69 = ORIENTED_EDGE('', *, *, #82, .F.);
#70 = ORIENTED_EDGE('', *, *, #87, .F.);
#71 = ORIENTED_EDGE('', *, *, #77, .T.);
#72 = ORIENTED_EDGE('', *, *, #87, .T.);
#73 = EDGE_CURVE('', #88, #89, #147, .T.);
#74 = EDGE_CURVE('', #89, #90, #173, .T.);
#75 = EDGE_CURVE('', #91, #90, #199, .T.);
#76 = EDGE_CURVE('', #88, #91, #225, .T.);
#77 = EDGE_CURVE('', #92, #92, #251, .T.);
#78 = EDGE_CURVE('', #93, #94, #305, .T.);
#79 = EDGE_CURVE('', #93, #95, #331, .T.);
#80 = EDGE_CURVE('', #95, #96, #357, .T.);
#81 = EDGE_CURVE('', #94, #96, #383, .T.);
#82 = EDGE_CURVE('', #97, #97, #409, .T.);
#83 = EDGE_CURVE('', #88, #93, #463, .T.);
#84 = EDGE_CURVE('', #89, #94, #489, .T.);
#85 = EDGE_CURVE('', #91, #95, #515, .T.);
#86 = EDGE_CURVE('', #90, #96, #541, .T.);
#87 = EDGE_CURVE('', #92, #97, #567, .T.);
#88 = VERTEX_POINT('', #621);
#89 = VERTEX_POINT('', #622);
#90 = VERTEX_POINT('', #623);
#91 = VERTEX_POINT('', #624);
#92 = VERTEX_POINT('', #625);
#93 = VERTEX_POINT('', #626);
#94 = VERTEX_POINT('', #627);
#95 = VERTEX_POINT('', #628);
#96 = VERTEX_POINT('', #629);
#97 = VERTEX_POINT('', #630);
#98 = (
    BOUNDED_SURFACE()
    B_SPLINE_SURFACE(1, 1, ((#99, #100), (#101, #102)), .UNSPECIFIED., .U., .U., .U.)
    B_SPLINE_SURFACE_WITH_KNOTS((2, 2), (2, 2), (0.0, 10.0), (0.0, 10.0), .UNSPECIFIED.)
    GEOMETRIC_REPRESENTATION_ITEM()
    RATIONAL_B_SPLINE_SURFACE(((1.0, 1.0), (1.0, 1.0)))
    REPRESENTATION_ITEM('')
    SURFACE()
);
#99 = CARTESIAN_POINT('', (0.0, 0.0, 0.0));
#100 = CARTESIAN_POINT('', (10.0, 0.0, 0.0));
#101 = CARTESIAN_POINT('', (0.0, 10.0, 0.0));
#102 = CARTESIAN_POINT('', (10.0, 10.0, 0.0));
#103 = (
    BOUNDED_SURFACE()
    B_SPLINE_SURFACE(1, 1, ((#104, #105), (#106, #107)), .UNSPECIFIED., .U., .U., .U.)
    B_SPLINE_SURFACE_WITH_KNOTS((2, 2), (2, 2), (0.0, 10.0), (0.0, 10.0), .UNSPECIFIED.)
    GEOMETRIC_REPRESENTATION_ITEM()
    RATIONAL_B_SPLINE_SURFACE(((1.0, 1.0), (1.0, 1.0)))
    REPRESENTATION_ITEM('')
    SURFACE()
);
#104 = CARTESIAN_POINT('', (0.0, 0.0, 10.0));
#105 = CARTESIAN_POINT('', (0.0, 10.0, 10.0));
#106 = CARTESIAN_POINT('', (10.0, 0.0, 10.0));
#107 = CARTESIAN_POINT('', (10.0, 10.0, 10.0));
#108 = (
    BOUNDED_SURFACE()
    B_SPLINE_SURFACE(1, 1, ((#109, #110), (#111, #112)), .UNSPECIFIED., .U., .U., .U.)
    B_SPLINE_SURFACE_WITH_KNOTS((2, 2), (2, 2), (0.0, 10.0), (0.0, 10.0), .UNSPECIFIED.)
    GEOMETRIC_REPRESENTATION_ITEM()
    RATIONAL_B_SPLINE_SURFACE(((1.0, 1.0), (1.0, 1.0)))
    REPRESENTATION_ITEM('')
    SURFACE()
);
#109 = CARTESIAN_POINT('', (0.0, 0.0, 0.0));
#110 = CARTESIAN_POINT('', (0.0, 10.0, 0.0));
#111 = CARTESIAN_POINT('', (0.0, 0.0, 10.0));
#112 = CARTESIAN_POINT('', (0.0, 10.0, 10.0));
#113 = (
    BOUNDED_SURFACE()
    B_SPLINE_SURFACE(1, 1, ((#114, #115), (#116, #117)), .UNSPECIFIED., .U., .U., .U.)
    B_SPLINE_SURFACE_WITH_KNOTS((2, 2), (2, 2), (0.0, 10.0), (0.0, 10.0), .UNSPECIFIED.)
    GEOMETRIC_REPRESENTATION_ITEM()
    RATIONAL_B_SPLINE_SURFACE(((1.0, 1.0), (1.0, 1.0)))
    REPRESENTATION_ITEM('')
    SURFACE()
);
#114 = CARTESIAN_POINT('', (10.0, 0.0, 0.0));
#115 = CARTESIAN_POINT('', (10.0, 0.0, 10.0));
#116 = CARTESIAN_POINT('', (10.0, 10.0, 0.0));
#117 = CARTESIAN_POINT('', (10.0, 10.0, 10.0));
#118 = (
    BOUNDED_SURFACE()
    B_SPLINE_SURFACE(1, 1, ((#119, #120), (#121, #122)), .UNSPECIFIED., .U., .U., .U.)
    B_SPLINE_SURFACE_WITH_KNOTS((2, 2), (2, 2), (0.0, 10.0), (0.0, 10.0), .UNSPECIFIED.)
    GEOMETRIC_REPRESENTATION_ITEM()
    RATIONAL_B_SPLINE_SURFACE(((1.0, 1.0), (1.0, 1.0)))
    REPRESENTATION_ITEM('')
    SURFACE()
);
#119 = CARTESIAN_POINT('', (0.0, 0.0, 0.0));
#120 = CARTESIAN_POINT('', (0.0, 0.0, 10.0));
#121 = CARTESIAN_POINT('', (10.0, 0.0, 0.0));
#122 = CARTESIAN_POINT('', (10.0, 0.0, 10.0));
#123 = (
    BOUNDED_SURFACE()
    B_SPLINE_SURFACE(1, 1, ((#124, #125), (#126, #127)), .UNSPECIFIED., .U., .U., .U.)
    B_SPLINE_SURFACE_WITH_KNOTS((2, 2), (2, 2), (0.0, 10.0), (0.0, 10.0), .UNSPECIFIED.)
    GEOMETRIC_REPRESENTATION_ITEM()
    RATIONAL_B_SPLINE_SURFACE(((1.0, 1.0), (1.0, 1.0)))
    REPRESENTATION_ITEM('')
    SURFACE()
);
#124 = CARTESIAN_POINT('', (0.0, 10.0, 0.0));
#125 = CARTESIAN_POINT('', (10.0, 10.0, 0.0));
#126 = CARTESIAN_POINT('', (0.0, 10.0, 10.0));
#127 = CARTESIAN_POINT('', (10.0, 10.0, 10.0));
#128 = (
    BOUNDED_SURFACE()
    B_SPLINE_SURFACE(2, 1, ((#129, #130), (#131, #132), (#133, #134), (#135, #136), (#137, #138), (#139, #140), (#141, #142), (#143, #144), (#145, #146)), .UNSPECIFIED., .U., .U., .U.)
    B_SPLINE_SURFACE_WITH_KNOTS((3, 2, 2, 2, 3), (2, 2), (0.0, 3.141592653589793, 6.283185307179586, 9.42477796076938, 12.566370614359172), (0.0, 12.0), .UNSPECIFIED.)
    GEOMETRIC_REPRESENTATION_ITEM()
    RATIONAL_B_SPLINE_SURFACE(((1.0, 1.0), (0.7071067811865476, 0.7071067811865476), (1.0, 1.0), (0.7071067811865476, 0.7071067811865476), (1.0, 1.0), (0.7071067811865476, 0.7071067811865476), (1.0, 1.0), (0.7071067811865476, 0.7071067811865476), (1.0, 1.0)))
    REPRESENTATION_ITEM('')
    SURFACE()
);
#129 = CARTESIAN_POINT('', (7.0, 5.0, -1.0));
#130 = CARTESIAN_POINT('', (7.0, 5.0, 11.0));
#131 = CARTESIAN_POINT('', (6.999999999999999, 6.999999999999999, -1.0));
#132 = CARTESIAN_POINT('', (6.999999999999999, 6.999999999999999, 11.0));
#133 = CARTESIAN_POINT('', (5.0, 7.0, -1.0));
#134 = CARTESIAN_POINT('', (5.0, 7.0, 11.0));
#135 = CARTESIAN_POINT('', (3.0, 6.999999999999999, -1.0));
#136 = CARTESIAN_POINT('', (3.0, 6.999999999999999, 11.0));
#137 = CARTESIAN_POINT('', (3.0, 5.0, -1.0));
#138 = CARTESIAN_POINT('', (3.0, 5.0, 11.0));
#139 = CARTESIAN_POINT('', (2.9999999999999996, 3.0, -1.0));
#140 = CARTESIAN_POINT('', (2.9999999999999996, 3.0, 11.0));
#141 = CARTESIAN_POINT('', (5.0, 3.0, -1.0));
#142 = CARTESIAN_POINT('', (5.0, 3.0, 11.0));
#143 = CARTESIAN_POINT('', (6.999999999999999, 3.0, -1.0));
#144 = CARTESIAN_POINT('', (6.999999999999999, 3.0, 11.0));
#145 = CARTESIAN_POINT('', (7.0, 5.0, -1.0));
#146 = CARTESIAN_POINT('', (7.0, 5.0, 11.0));
#147 = SURFACE_CURVE('', #148, (#151, #162), .CURVE_3D.);
#148 = (
    BOUNDED_CURVE()
    B_SPLINE_CURVE(1, (#149, #150), .UNSPECIFIED., .U., .U.)
    B_SPLINE_CURVE_WITH_KNOTS((2, 2), (0.0, 10.0), .UNSPECIFIED.)
    CURVE()
    GEOMETRIC_REPRESENTATION_ITEM()
    RATIONAL_B_SPLINE_CURVE((1.0, 1.0))
    REPRESENTATION_ITEM('')
);
#149 = CARTESIAN_POINT('', (0.0, 0.0, 0.0));
#150 = CARTESIAN_POINT('', (0.0, 10.0, 0.0));
#151 = PCURVE('', #152, #157);
#152 = (
    BOUNDED_SURFACE()
    B_SPLINE_SURFACE(1, 1, ((#153, #154), (#155, #156)), .UNSPECIFIED., .U., .U., .U.)
    B_SPLINE_SURFACE_WITH_KNOTS((2, 2), (2, 2), (0.0, 10.0), (0.0, 10.0), .UNSPECIFIED.)
    GEOMETRIC_REPRESENTATION_ITEM()
    RATIONAL_B_SPLINE_SURFACE(((1.0, 1.0), (1.0, 1.0)))
    REPRESENTATION_ITEM('')
    SURFACE()
);
#153 = CARTESIAN_POINT('', (0.0, 0.0, 0.0));
#154 = CARTESIAN_POINT('', (10.0, 0.0, 0.0));
#155 = CARTESIAN_POINT('', (0.0, 10.0, 0.0));
#156 = CARTESIAN_POINT('', (10.0, 10.0, 0.0));
#157 = DEFINITIONAL_REPRESENTATION('', (#159), #158);
#158 = (
    GEOMETRIC_REPRESENTATION_CONTEXT(2)
    PARAMETRIC_REPRESENTATION_CONTEXT()
    REPRESENTATION_CONTEXT('2D SPACE', '')
);
#159 = (
    BOUNDED_CURVE()
    B_SPLINE_CURVE(1, (#160, #161), .UNSPECIFIED., .U., .U.)
    B_SPLINE_CURVE_WITH_KNOTS((2, 2), (0.0, 10.0), .UNSPECIFIED.)
    CURVE()
    GEOMETRIC_REPRESENTATION_ITEM()
    RATIONAL_B_SPLINE_CURVE((1.0, 1.0))
    REPRESENTATION_ITEM('')
);
#160 = CARTESIAN_POINT('', (0.0, 0.0));
#161 = CARTESIAN_POINT('', (10.0, 0.0));
#162 = PCURVE('', #163, #168);
#163 = (
    BOUNDED_SURFACE()
    B_SPLINE_SURFACE(1, 1, ((#164, #165), (#166, #167)), .UNSPECIFIED., .U., .U., .U.)
    B_SPLINE_SURFACE_WITH_KNOTS((2, 2), (2, 2), (0.0, 10.0), (0.0, 10.0), .UNSPECIFIED.)
    GEOMETRIC_REPRESENTATION_ITEM()
    RATIONAL_B_SPLINE_SURFACE(((1.0, 1.0), (1.0, 1.0)))
    REPRESENTATION_ITEM('')
    SURFACE()
);
#164 = CARTESIAN_POINT('', (0.0, 0.0, 0.0));
#165 = CARTESIAN_POINT('', (0.0, 10.0, 0.0));
#166 = CARTESIAN_POINT('', (0.0, 0.0, 10.0));
#167 = CARTESIAN_POINT('', (0.0, 10.0, 10.0));
#168 = DEFINITIONAL_REPRESENTATION('', (#170), #169);
#169 = (
    GEOMETRIC_REPRESENTATION_CONTEXT(2)
    PARAMETRIC_REPRESENTATION_CONTEXT()
    REPRESENTATION_CONTEXT('2D SPACE', '')
);
#170 = (
    BOUNDED_CURVE()
    B_SPLINE_CURVE(1, (#171, #172), .UNSPECIFIED., .U., .U.)
    B_SPLINE_CURVE_WITH_KNOTS((2, 2), (0.0, 10.0), .UNSPECIFIED.)
    CURVE()
    GEOMETRIC_REPRESENTATION_ITEM()
    RATIONAL_B_SPLINE_CURVE((1.0, 1.0))
    REPRESENTATION_ITEM('')
);
#171 = CARTESIAN_POINT('', (0.0, 0.0));
#172 = CARTESIAN_POINT('', (0.0, 10.0));
#173 = SURFACE_CURVE('', #174, (#177, #188), .CURVE_3D.);
#174 = (
    BOUNDED_CURVE()
    B_SPLINE_CURVE(1, (#175, #176), .UNSPECIFIED., .U., .U.)
    B_SPLINE_CURVE_WITH_KNOTS((2, 2), (0.0, 10.0), .UNSPECIFIED.)
    CURVE()
    GEOMETRIC_REPRESENTATION_ITEM()
    RATIONAL_B_SPLINE_CURVE((1.0, 1.0))
    REPRESENTATION_ITEM('')
);
#175 = CARTESIAN_POINT('', (0.0, 10.0, 0.0));
#176 = CARTESIAN_POINT('', (10.0, 10.0, 0.0));
#177 = PCURVE('', #178, #183);
#178 = (
    BOUNDED_SURFACE()
    B_SPLINE_SURFACE(1, 1, ((#179, #180), (#181, #182)), .UNSPECIFIED., .U., .U., .U.)
    B_SPLINE_SURFACE_WITH_KNOTS((2, 2), (2, 2), (0.0, 10.0), (0.0, 10.0), .UNSPECIFIED.)
    GEOMETRIC_REPRESENTATION_ITEM()
    RATIONAL_B_SPLINE_SURFACE(((1.0, 1.0), (1.0, 1.0)))
    REPRESENTATION_ITEM('')
    SURFACE()
);
#179 = CARTESIAN_POINT('', (0.0, 0.0, 0.0));
#180 = CARTESIAN_POINT('', (10.0, 0.0, 0.0));
#181 = CARTESIAN_POINT('', (0.0, 10.0, 0.0));
#182 = CARTESIAN_POINT('', (10.0, 10.0, 0.0));
#183 = DEFINITIONAL_REPRESENTATION('', (#185), #184);
#184 = (
    GEOMETRIC_REPRESENTATION_CONTEXT(2)
    PARAMETRIC_REPRESENTATION_CONTEXT()
    REPRESENTATION_CONTEXT('2D SPACE', '')
);
#185 = (
    BOUNDED_CURVE()
    B_SPLINE_CURVE(1, (#186, #187), .UNSPECIFIED., .U., .U.)
    B_SPLINE_CURVE_WITH_KNOTS((2, 2), (0.0, 10.0), .UNSPECIFIED.)
    CURVE()
    GEOMETRIC_REPRESENTATION_ITEM()
    RATIONAL_B_SPLINE_CURVE((1.0, 1.0))
    REPRESENTATION_ITEM('')
);
#186 = CARTESIAN_POINT('', (10.0, 0.0));
#187 = CARTESIAN_POINT('', (10.0, 10.0));
#188 = PCURVE('', #189, #194);
#189 = (
    BOUNDED_SURFACE()
    B_SPLINE_SURFACE(1, 1, ((#190, #191), (#192, #193)), .UNSPECIFIED., .U., .U., .U.)
    B_SPLINE_SURFACE_WITH_KNOTS((2, 2), (2, 2), (0.0, 10.0), (0.0, 10.0), .UNSPECIFIED.)
    GEOMETRIC_REPRESENTATION_ITEM()
    RATIONAL_B_SPLINE_SURFACE(((1.0, 1.0), (1.0, 1.0)))
    REPRESENTATION_ITEM('')
    SURFACE()
);
#190 = CARTESIAN_POINT('', (0.0, 10.0, 0.0));
#191 = CARTESIAN_POINT('', (10.0, 10.0, 0.0));
#192 = CARTESIAN_POINT('', (0.0, 10.0, 10.0));
#193 = CARTESIAN_POINT('', (10.0, 10.0, 10.0));
#194 = DEFINITIONAL_REPRESENTATION('', (#196), #195);
#195 = (
    GEOMETRIC_REPRESENTATION_CONTEXT(2)
    PARAMETRIC_REPRESENTATION_CONTEXT()
    REPRESENTATION_CONTEXT('2D SPACE', '')
);
#196 = (
    BOUNDED_CURVE()
    B_SPLINE_CURVE(1, (#197, #198), .UNSPECIFIED., .U., .U.)
    B_SPLINE_CURVE_WITH_KNOTS((2, 2), (0.0, 10.0), .UNSPECIFIED.)
    CURVE()
    GEOMETRIC_REPRESENTATION_ITEM()
    RATIONAL_B_SPLINE_CURVE((1.0, 1.0))
    REPRESENTATION_ITEM('')
);
#197 = CARTESIAN_POINT('', (0.0, 0.0));
#198 = CARTESIAN_POINT('', (0.0, 10.0));
#199 = SURFACE_CURVE('', #200, (#203, #214), .CURVE_3D.);
#200 = (
    BOUNDED_CURVE()
    B_SPLINE_CURVE(1, (#201, #202), .UNSPECIFIED., .U., .U.)
    B_SPLINE_CURVE_WITH_KNOTS((2, 2), (0.0, 10.0), .UNSPECIFIED.)
    CURVE()
    GEOMETRIC_REPRESENTATION_ITEM()
    RATIONAL_B_SPLINE_CURVE((1.0, 1.0))
    REPRESENTATION_ITEM('')
);
#201 = CARTESIAN_POINT('', (10.0, 0.0, 0.0));
#202 = CARTESIAN_POINT('', (10.0, 10.0, 0.0));
#203 = PCURVE('', #204, #209);
#204 = (
    BOUNDED_SURFACE()
    B_SPLINE_SURFACE(1, 1, ((#205, #206), (#207, #208)), .UNSPECIFIED., .U., .U., .U.)
    B_SPLINE_SURFACE_WITH_KNOTS((2, 2), (2, 2), (0.0, 10.0), (0.0, 10.0), .UNSPECIFIED.)
    GEOMETRIC_REPRESENTATION_ITEM()
    RATIONAL_B_SPLINE_SURFACE(((1.0, 1.0), (1.0, 1.0)))
    REPRESENTATION_ITEM('')
    SURFACE()
);
#205 = CARTESIAN_POINT('', (0.0, 0.0, 0.0));
#206 = CARTESIAN_POINT('', (10.0, 0.0, 0.0));
#207 = CARTESIAN_POINT('', (0.0, 10.0, 0.0));
#208 = CARTESIAN_POINT('', (10.0, 10.0, 0.0));
#209 = DEFINITIONAL_REPRESENTATION('', (#211), #210);
#210 = (
    GEOMETRIC_REPRESENTATION_CONTEXT(2)
    PARAMETRIC_REPRESENTATION_CONTEXT()
    REPRESENTATION_CONTEXT('2D SPACE', '')
);
#211 = (
    BOUNDED_CURVE()
    B_SPLINE_CURVE(1, (#212, #213), .UNSPECIFIED., .U., .U.)
    B_SPLINE_CURVE_WITH_KNOTS((2, 2), (0.0, 10.0), .UNSPECIFIED.)
    CURVE()
    GEOMETRIC_REPRESENTATION_ITEM()
    RATIONAL_B_SPLINE_CURVE((1.0, 1.0))
    REPRESENTATION_ITEM('')
);
#212 = CARTESIAN_POINT('', (0.0, 10.0));
#213 = CARTESIAN_POINT('', (10.0, 10.0));
#214 = PCURVE('', #215, #220);
#215 = (
    BOUNDED_SURFACE()
    B_SPLINE_SURFACE(1, 1, ((#216, #217), (#218, #219)), .UNSPECIFIED., .U., .U., .U.)
    B_SPLINE_SURFACE_WITH_KNOTS((2, 2), (2, 2), (0.0, 10.0), (0.0, 10.0), .UNSPECIFIED.)
    GEOMETRIC_REPRESENTATION_ITEM()
    RATIONAL_B_SPLINE_SURFACE(((1.0, 1.0), (1.0, 1.0)))
    REPRESENTATION_ITEM('')
    SURFACE()
);
#216 = CARTESIAN_POINT('', (10.0, 0.0, 0.0));
#217 = CARTESIAN_POINT('', (10.0, 0.0, 10.0));
#218 = CARTESIAN_POINT('', (10.0, 10.0, 0.0));
#219 = CARTESIAN_POINT('', (10.0, 10.0, 10.0));
#220 = DEFINITIONAL_REPRESENTATION('', (#222), #221);
#221 = (
    GEOMETRIC_REPRESENTATION_CONTEXT(2)
    PARAMETRIC_REPRESENTATION_CONTEXT()
    REPRESENTATION_CONTEXT('2D SPACE', '')
);
#222 = (
    BOUNDED_CURVE()
    B_SPLINE_CURVE(1, (#223, #224), .UNSPECIFIED., .U., .U.)
    B_SPLINE_CURVE_WITH_KNOTS((2, 2), (0.0, 10.0), .UNSPECIFIED.)
    CURVE()
    GEOMETRIC_REPRESENTATION_ITEM()
    RATIONAL_B_SPLINE_CURVE((1.0, 1.0))
    REPRESENTATION_ITEM('')
);
#223 = CARTESIAN_POINT('', (0.0, 0.0));
#224 = CARTESIAN_POINT('', (10.0, 0.0));
#225 = SURFACE_CURVE('', #226, (#229, #240), .CURVE_3D.);
#226 = (
    BOUNDED_CURVE()
    B_SPLINE_CURVE(1, (#227, #228), .UNSPECIFIED., .U., .U.)
    B_SPLINE_CURVE_WITH_KNOTS((2, 2), (0.0, 10.0), .UNSPECIFIED.)
    CURVE()
    GEOMETRIC_REPRESENTATION_ITEM()
    RATIONAL_B_SPLINE_CURVE((1.0, 1.0))
    REPRESENTATION_ITEM('')
);
#227 = CARTESIAN_POINT('', (0.0, 0.0, 0.0));
#228 = CARTESIAN_POINT('', (10.0, 0.0, 0.0));
#229 = PCURVE('', #230, #235);
#230 = (
    BOUNDED_SURFACE()
    B_SPLINE_SURFACE(1, 1, ((#231, #232), (#233, #234)), .UNSPECIFIED., .U., .U., .U.)
    B_SPLINE_SURFACE_WITH_KNOTS((2, 2), (2, 2), (0.0, 10.0), (0.0, 10.0), .UNSPECIFIED.)
    GEOMETRIC_REPRESENTATION_ITEM()
    RATIONAL_B_SPLINE_SURFACE(((1.0, 1.0), (1.0, 1.0)))
    REPRESENTATION_ITEM('')
    SURFACE()
);
#231 = CARTESIAN_POINT('', (0.0, 0.0, 0.0));
#232 = CARTESIAN_POINT('', (10.0, 0.0, 0.0));
#233 = CARTESIAN_POINT('', (0.0, 10.0, 0.0));
#234 = CARTESIAN_POINT('', (10.0, 10.0, 0.0));
#235 = DEFINITIONAL_REPRESENTATION('', (#237), #236);
#236 = (
    GEOMETRIC_REPRESENTATION_CONTEXT(2)
    PARAMETRIC_REPRESENTATION_CONTEXT()
    REPRESENTATION_CONTEXT('2D SPACE', '')
);
#237 = (
    BOUNDED_CURVE()
    B_SPLINE_CURVE(1, (#238, #239), .UNSPECIFIED., .U., .U.)
    B_SPLINE_CURVE_WITH_KNOTS((2, 2), (0.0, 10.0), .UNSPECIFIED.)
    CURVE()
    GEOMETRIC_REPRESENTATION_ITEM()
    RATIONAL_B_SPLINE_CURVE((1.0, 1.0))
    REPRESENTATION_ITEM('')
);
#238 = CARTESIAN_POINT('', (0.0, 0.0));
#239 = CARTESIAN_POINT('', (0.0, 10.0));
#240 = PCURVE('', #241, #246);
#241 = (
    BOUNDED_SURFACE()
    B_SPLINE_SURFACE(1, 1, ((#242, #243), (#244, #245)), .UNSPECIFIED., .U., .U., .U.)
    B_SPLINE_SURFACE_WITH_KNOTS((2, 2), (2, 2), (0.0, 10.0), (0.0, 10.0), .UNSPECIFIED.)
    GEOMETRIC_REPRESENTATION_ITEM()
    RATIONAL_B_SPLINE_SURFACE(((1.0, 1.0), (1.0, 1.0)))
    REPRESENTATION_ITEM('')
    SURFACE()
);
#242 = CARTESIAN_POINT('', (0.0, 0.0, 0.0));
#243 = CARTESIAN_POINT('', (0.0, 0.0, 10.0));
#244 = CARTESIAN_POINT('', (10.0, 0.0, 0.0));
#245 = CARTESIAN_POINT('', (10.0, 0.0, 10.0));
#246 = DEFINITIONAL_REPRESENTATION('', (#248), #247);
#247 = (
    GEOMETRIC_REPRESENTATION_CONTEXT(2)
    PARAMETRIC_REPRESENTATION_CONTEXT()
    REPRESENTATION_CONTEXT('2D SPACE', '')
);
#248 = (
    BOUNDED_CURVE()
    B_SPLINE_CURVE(1, (#249, #250), .UNSPECIFIED., .U., .U.)
    B_SPLINE_CURVE_WITH_KNOTS((2, 2), (0.0, 10.0), .UNSPECIFIED.)
    CURVE()
    GEOMETRIC_REPRESENTATION_ITEM()
    RATIONAL_B_SPLINE_CURVE((1.0, 1.0))
    REPRESENTATION_ITEM('')
);
#249 = CARTESIAN_POINT('', (0.0, 0.0));
#250 = CARTESIAN_POINT('', (10.0, 0.0));
#251 = SURFACE_CURVE('', #252, (#262, #280), .CURVE_3D.);
#252 = (
    BOUNDED_CURVE()
    B_SPLINE_CURVE(2, (#253, #254, #255, #256, #257, #258, #259, #260, #261), .UNSPECIFIED., .U., .U.)
    B_SPLINE_CURVE_WITH_KNOTS((3, 2, 2, 2, 3), (0.0, 0.25, 0.5, 0.75, 1.0), .UNSPECIFIED.)
    CURVE()
    GEOMETRIC_REPRESENTATION_ITEM()
    RATIONAL_B_SPLINE_CURVE((1.0, 0.7071067811865476, 1.0, 0.7071067811865476, 1.0, 0.7071067811865476, 1.0, 0.7071067811865476, 1.0))
    REPRESENTATION_ITEM('')
);
#253 = CARTESIAN_POINT('', (7.0, 5.0, 0.0));
#254 = CARTESIAN_POINT('', (6.999999999999999, 6.999999999999999, 0.0));
#255 = CARTESIAN_POINT('', (5.0, 7.0, 0.0));
#256 = CARTESIAN_POINT('', (3.0, 6.999999999999999, 0.0));
#257 = CARTESIAN_POINT('', (3.0, 5.0, 0.0));
#258 = CARTESIAN_POINT('', (2.9999999999999996, 3.0, 0.0));
#259 = CARTESIAN_POINT('', (5.0, 3.0, 0.0));
#260 = CARTESIAN_POINT('', (6.999999999999999, 3.0, 0.0));
#261 = CARTESIAN_POINT('', (7.0, 5.0, 0.0));
#262 = PCURVE('', #263, #268);
#263 = (
    BOUNDED_SURFACE()
    B_SPLINE_SURFACE(1, 1, ((#264, #265), (#266, #267)), .UNSPECIFIED., .U., .U., .U.)
    B_SPLINE_SURFACE_WITH_KNOTS((2, 2), (2, 2), (0.0, 10.0), (0.0, 10.0), .UNSPECIFIED.)
    GEOMETRIC_REPRESENTATION_ITEM()
    RATIONAL_B_SPLINE_SURFACE(((1.0, 1.0), (1.0, 1.0)))
    REPRESENTATION_ITEM('')
    SURFACE()
);
#264 = CARTESIAN_POINT('', (0.0, 0.0, 0.0));
#265 = CARTESIAN_POINT('', (10.0, 0.0, 0.0));
#266 = CARTESIAN_POINT('', (0.0, 10.0, 0.0));
#267 = CARTESIAN_POINT('', (10.0, 10.0, 0.0));
#268 = DEFINITIONAL_REPRESENTATION('', (#270), #269);
#269 = (
    GEOMETRIC_REPRESENTATION_CONTEXT(2)
    PARAMETRIC_REPRESENTATION_CONTEXT()
    REPRESENTATION_CONTEXT('2D SPACE', '')
);
#270 = (
    BOUNDED_CURVE()
    B_SPLINE_CURVE(2, (#271, #272, #273, #274, #275, #276, #277, #278, #279), .UNSPECIFIED., .U., .U.)
    B_SPLINE_CURVE_WITH_KNOTS((3, 2, 2, 2, 3), (0.0, 0.25, 0.5, 0.75, 1.0), .UNSPECIFIED.)
    CURVE()
    GEOMETRIC_REPRESENTATION_ITEM()
    RATIONAL_B_SPLINE_CURVE((1.0, 0.7071067811865476, 1.0, 0.7071067811865476, 1.0, 0.7071067811865476, 1.0, 0.7071067811865476, 1.0))
    REPRESENTATION_ITEM('')
);
#271 = CARTESIAN_POINT('', (5.0, 7.0));
#272 = CARTESIAN_POINT('', (6.999999999999999, 6.999999999999999));
#273 = CARTESIAN_POINT('', (7.0, 5.0));
#274 = CARTESIAN_POINT('', (6.999999999999999, 3.0));
#275 = CARTESIAN_POINT('', (5.0, 3.0));
#276 = CARTESIAN_POINT('', (3.0, 2.999999999999999));
#277 = CARTESIAN_POINT('', (3.0, 5.0));
#278 = CARTESIAN_POINT('', (3.0, 6.999999999999999));
#279 = CARTESIAN_POINT('', (5.0, 7.0));
#280 = PCURVE('', #281, #300);
#281 = (
    BOUNDED_SURFACE()
    B_SPLINE_SURFACE(2, 1, ((#282, #283), (#284, #285), (#286, #287), (#288, #289), (#290, #291), (#292, #293), (#294, #295), (#296, #297), (#298, #299)), .UNSPECIFIED., .U., .U., .U.)
    B_SPLINE_SURFACE_WITH_KNOTS((3, 2, 2, 2, 3), (2, 2), (0.0, 3.141592653589793, 6.283185307179586, 9.42477796076938, 12.566370614359172), (0.0, 12.0), .UNSPECIFIED.)
    GEOMETRIC_REPRESENTATION_ITEM()
    RATIONAL_B_SPLINE_SURFACE(((1.0, 1.0), (0.7071067811865476, 0.7071067811865476), (1.0, 1.0), (0.7071067811865476, 0.7071067811865476), (1.0, 1.0), (0.7071067811865476, 0.7071067811865476), (1.0, 1.0), (0.7071067811865476, 0.7071067811865476), (1.0, 1.0)))
    REPRESENTATION_ITEM('')
    SURFACE()
);
#282 = CARTESIAN_POINT('', (7.0, 5.0, -1.0));
#283 = CARTESIAN_POINT('', (7.0, 5.0, 11.0));
#284 = CARTESIAN_POINT('', (6.999999999999999, 6.999999999999999, -1.0));
#285 = CARTESIAN_POINT('', (6.999999999999999, 6.999999999999999, 11.0));
#286 = CARTESIAN_POINT('', (5.0, 7.0, -1.0));
#287 = CARTESIAN_POINT('', (5.0, 7.0, 11.0));
#288 = CARTESIAN_POINT('', (3.0, 6.999999999999999, -1.0));
#289 = CARTESIAN_POINT('', (3.0, 6.999999999999999, 11.0));
#290 = CARTESIAN_POINT('', (3.0, 5.0, -1.0));
#291 = CARTESIAN_POINT('', (3.0, 5.0, 11.0));
#292 = CARTESIAN_POINT('', (2.9999999999999996, 3.0, -1.0));
#293 = CARTESIAN_POINT('', (2.9999999999999996, 3.0, 11.0));
#294 = CARTESIAN_POINT('', (5.0, 3.0, -1.0));
#295 = CARTESIAN_POINT('', (5.0, 3.0, 11.0));
#296 = CARTESIAN_POINT('', (6.999999999999999, 3.0, -1.0));
#297 = CARTESIAN_POINT('', (6.999999999999999, 3.0, 11.0));
#298 = CARTESIAN_POINT('', (7.0, 5.0, -1.0));
#299 = CARTESIAN_POINT('', (7.0, 5.0, 11.0));
#300 = DEFINITIONAL_REPRESENTATION('', (#302), #301);
#301 = (
    GEOMETRIC_REPRESENTATION_CONTEXT(2)
    PARAMETRIC_REPRESENTATION_CONTEXT()
    REPRESENTATION_CONTEXT('2D SPACE', '')
);
#302 = (
    BOUNDED_CURVE()
    B_SPLINE_CURVE(1, (#303, #304), .UNSPECIFIED., .U., .U.)
    B_SPLINE_CURVE_WITH_KNOTS((2, 2), (0.0, 1.0), .UNSPECIFIED.)
    CURVE()
    GEOMETRIC_REPRESENTATION_ITEM()
    RATIONAL_B_SPLINE_CURVE((1.0, 1.0))
    REPRESENTATION_ITEM('')
);
#303 = CARTESIAN_POINT('', (0.0, 1.0));
#304 = CARTESIAN_POINT('', (12.566370614359167, 1.0));
#305 = SURFACE_CURVE('', #306, (#309, #320), .CURVE_3D.);
#306 = (
    BOUNDED_CURVE()
    B_SPLINE_CURVE(1, (#307, #308), .UNSPECIFIED., .U., .U.)
    B_SPLINE_CURVE_WITH_KNOTS((2, 2), (0.0, 10.0), .UNSPECIFIED.)
    CURVE()
    GEOMETRIC_REPRESENTATION_ITEM()
    RATIONAL_B_SPLINE_CURVE((1.0, 1.0))
    REPRESENTATION_ITEM('')
);
#307 = CARTESIAN_POINT('', (0.0, 0.0, 10.0));
#308 = CARTESIAN_POINT('', (0.0, 10.0, 10.0));
#309 = PCURVE('', #310, #315);
#310 = (
    BOUNDED_SURFACE()
    B_SPLINE_SURFACE(1, 1, ((#311, #312), (#313, #314)), .UNSPECIFIED., .U., .U., .U.)
    B_SPLINE_SURFACE_WITH_KNOTS((2, 2), (2, 2), (0.0, 10.0), (0.0, 10.0), .UNSPECIFIED.)
    GEOMETRIC_REPRESENTATION_ITEM()
    RATIONAL_B_SPLINE_SURFACE(((1.0, 1.0), (1.0, 1.0)))
    REPRESENTATION_ITEM('')
    SURFACE()
);
#311 = CARTESIAN_POINT('', (0.0, 0.0, 10.0));
#312 = CARTESIAN_POINT('', (0.0, 10.0, 10.0));
#313 = CARTESIAN_POINT('', (10.0, 0.0, 10.0));
#314 = CARTESIAN_POINT('', (10.0, 10.0, 10.0));
#315 = DEFINITIONAL_REPRESENTATION('', (#317), #316);
#316 = (
    GEOMETRIC_REPRESENTATION_CONTEXT(2)
    PARAMETRIC_REPRESENTATION_CONTEXT()
    REPRESENTATION_CONTEXT('2D SPACE', '')
);
#317 = (
    BOUNDED_CURVE()
    B_SPLINE_CURVE(1, (#318, #319), .UNSPECIFIED., .U., .U.)
    B_SPLINE_CURVE_WITH_KNOTS((2, 2), (0.0, 10.0), .UNSPECIFIED.)
    CURVE()
    GEOMETRIC_REPRESENTATION_ITEM()
    RATIONAL_B_SPLINE_CURVE((1.0, 1.0))
    REPRESENTATION_ITEM('')
);
#318 = CARTESIAN_POINT('', (0.0, 0.0));
#319 = CARTESIAN_POINT('', (0.0, 10.0));
#320 = PCURVE('', #321, #326);
#321 = (
    BOUNDED_SURFACE()
    B_SPLINE_SURFACE(1, 1, ((#322, #323), (#324, #325)), .UNSPECIFIED., .U., .U., .U.)
    B_SPLINE_SURFACE_WITH_KNOTS((2, 2), (2, 2), (0.0, 10.0), (0.0, 10.0), .UNSPECIFIED.)
    GEOMETRIC_REPRESENTATION_ITEM()
    RATIONAL_B_SPLINE_SURFACE(((1.0, 1.0), (1.0, 1.0)))
    REPRESENTATION_ITEM('')
    SURFACE()
);
#322 = CARTESIAN_POINT('', (0.0, 0.0, 0.0));
#323 = CARTESIAN_POINT('', (0.0, 10.0, 0.0));
#324 = CARTESIAN_POINT('', (0.0, 0.0, 10.0));
#325 = CARTESIAN_POINT('', (0.0, 10.0, 10.0));
#326 = DEFINITIONAL_REPRESENTATION('', (#328), #327);
#327 = (
    GEOMETRIC_REPRESENTATION_CONTEXT(2)
    PARAMETRIC_REPRESENTATION_CONTEXT()
    REPRESENTATION_CONTEXT('2D SPACE', '')
);
#328 = (
    BOUNDED_CURVE()
    B_SPLINE_CURVE(1, (#329, #330), .UNSPECIFIED., .U., .U.)
    B_SPLINE_CURVE_WITH_KNOTS((2, 2), (0.0, 10.0), .UNSPECIFIED.)
    CURVE()
    GEOMETRIC_REPRESENTATION_ITEM()
    RATIONAL_B_SPLINE_CURVE((1.0, 1.0))
    REPRESENTATION_ITEM('')
);
#329 = CARTESIAN_POINT('', (10.0, 0.0));
#330 = CARTESIAN_POINT('', (10.0, 10.0));
#331 = SURFACE_CURVE('', #332, (#335, #346), .CURVE_3D.);
#332 = (
    BOUNDED_CURVE()
    B_SPLINE_CURVE(1, (#333, #334), .UNSPECIFIED., .U., .U.)
    B_SPLINE_CURVE_WITH_KNOTS((2, 2), (0.0, 10.0), .UNSPECIFIED.)
    CURVE()
    GEOMETRIC_REPRESENTATION_ITEM()
    RATIONAL_B_SPLINE_CURVE((1.0, 1.0))
    REPRESENTATION_ITEM('')
);
#333 = CARTESIAN_POINT('', (0.0, 0.0, 10.0));
#334 = CARTESIAN_POINT('', (10.0, 0.0, 10.0));
#335 = PCURVE('', #336, #341);
#336 = (
    BOUNDED_SURFACE()
    B_SPLINE_SURFACE(1, 1, ((#337, #338), (#339, #340)), .UNSPECIFIED., .U., .U., .U.)
    B_SPLINE_SURFACE_WITH_KNOTS((2, 2), (2, 2), (0.0, 10.0), (0.0, 10.0), .UNSPECIFIED.)
    GEOMETRIC_REPRESENTATION_ITEM()
    RATIONAL_B_SPLINE_SURFACE(((1.0, 1.0), (1.0, 1.0)))
    REPRESENTATION_ITEM('')
    SURFACE()
);
#337 = CARTESIAN_POINT('', (0.0, 0.0, 10.0));
#338 = CARTESIAN_POINT('', (0.0, 10.0, 10.0));
#339 = CARTESIAN_POINT('', (10.0, 0.0, 10.0));
#340 = CARTESIAN_POINT('', (10.0, 10.0, 10.0));
#341 = DEFINITIONAL_REPRESENTATION('', (#343), #342);
#342 = (
    GEOMETRIC_REPRESENTATION_CONTEXT(2)
    PARAMETRIC_REPRESENTATION_CONTEXT()
    REPRESENTATION_CONTEXT('2D SPACE', '')
);
#343 = (
    BOUNDED_CURVE()
    B_SPLINE_CURVE(1, (#344, #345), .UNSPECIFIED., .U., .U.)
    B_SPLINE_CURVE_WITH_KNOTS((2, 2), (0.0, 10.0), .UNSPECIFIED.)
    CURVE()
    GEOMETRIC_REPRESENTATION_ITEM()
    RATIONAL_B_SPLINE_CURVE((1.0, 1.0))
    REPRESENTATION_ITEM('')
);
#344 = CARTESIAN_POINT('', (0.0, 0.0));
#345 = CARTESIAN_POINT('', (10.0, 0.0));
#346 = PCURVE('', #347, #352);
#347 = (
    BOUNDED_SURFACE()
    B_SPLINE_SURFACE(1, 1, ((#348, #349), (#350, #351)), .UNSPECIFIED., .U., .U., .U.)
    B_SPLINE_SURFACE_WITH_KNOTS((2, 2), (2, 2), (0.0, 10.0), (0.0, 10.0), .UNSPECIFIED.)
    GEOMETRIC_REPRESENTATION_ITEM()
    RATIONAL_B_SPLINE_SURFACE(((1.0, 1.0), (1.0, 1.0)))
    REPRESENTATION_ITEM('')
    SURFACE()
);
#348 = CARTESIAN_POINT('', (0.0, 0.0, 0.0));
#349 = CARTESIAN_POINT('', (0.0, 0.0, 10.0));
#350 = CARTESIAN_POINT('', (10.0, 0.0, 0.0));
#351 = CARTESIAN_POINT('', (10.0, 0.0, 10.0));
#352 = DEFINITIONAL_REPRESENTATION('', (#354), #353);
#353 = (
    GEOMETRIC_REPRESENTATION_CONTEXT(2)
    PARAMETRIC_REPRESENTATION_CONTEXT()
    REPRESENTATION_CONTEXT('2D SPACE', '')
);
#354 = (
    BOUNDED_CURVE()
    B_SPLINE_CURVE(1, (#355, #356), .UNSPECIFIED., .U., .U.)
    B_SPLINE_CURVE_WITH_KNOTS((2, 2), (0.0, 10.0), .UNSPECIFIED.)
    CURVE()
    GEOMETRIC_REPRESENTATION_ITEM()
    RATIONAL_B_SPLINE_CURVE((1.0, 1.0))
    REPRESENTATION_ITEM('')
);
#355 = CARTESIAN_POINT('', (0.0, 10.0));
#356 = CARTESIAN_POINT('', (10.0, 10.0));
#357 = SURFACE_CURVE('', #358, (#361, #372), .CURVE_3D.);
#358 = (
    BOUNDED_CURVE()
    B_SPLINE_CURVE(1, (#359, #360), .UNSPECIFIED., .U., .U.)
    B_SPLINE_CURVE_WITH_KNOTS((2, 2), (0.0, 10.0), .UNSPECIFIED.)
    CURVE()
    GEOMETRIC_REPRESENTATION_ITEM()
    RATIONAL_B_SPLINE_CURVE((1.0, 1.0))
    REPRESENTATION_ITEM('')
);
#359 = CARTESIAN_POINT('', (10.0, 0.0, 10.0));
#360 = CARTESIAN_POINT('', (10.0, 10.0, 10.0));
#361 = PCURVE('', #362, #367);
#362 = (
    BOUNDED_SURFACE()
    B_SPLINE_SURFACE(1, 1, ((#363, #364), (#365, #366)), .UNSPECIFIED., .U., .U., .U.)
    B_SPLINE_SURFACE_WITH_KNOTS((2, 2), (2, 2), (0.0, 10.0), (0.0, 10.0), .UNSPECIFIED.)
    GEOMETRIC_REPRESENTATION_ITEM()
    RATIONAL_B_SPLINE_SURFACE(((1.0, 1.0), (1.0, 1.0)))
    REPRESENTATION_ITEM('')
    SURFACE()
);
#363 = CARTESIAN_POINT('', (0.0, 0.0, 10.0));
#364 = CARTESIAN_POINT('', (0.0, 10.0, 10.0));
#365 = CARTESIAN_POINT('', (10.0, 0.0, 10.0));
#366 = CARTESIAN_POINT('', (10.0, 10.0, 10.0));
#367 = DEFINITIONAL_REPRESENTATION('', (#369), #368);
#368 = (
    GEOMETRIC_REPRESENTATION_CONTEXT(2)
    PARAMETRIC_REPRESENTATION_CONTEXT()
    REPRESENTATION_CONTEXT('2D SPACE', '')
);
#369 = (
    BOUNDED_CURVE()
    B_SPLINE_CURVE(1, (#370, #371), .UNSPECIFIED., .U., .U.)
    B_SPLINE_CURVE_WITH_KNOTS((2, 2), (0.0, 10.0), .UNSPECIFIED.)
    CURVE()
    GEOMETRIC_REPRESENTATION_ITEM()
    RATIONAL_B_SPLINE_CURVE((1.0, 1.0))
    REPRESENTATION_ITEM('')
);
#370 = CARTESIAN_POINT('', (10.0, 0.0));
#371 = CARTESIAN_POINT('', (10.0, 10.0));
#372 = PCURVE('', #373, #378);
#373 = (
    BOUNDED_SURFACE()
    B_SPLINE_SURFACE(1, 1, ((#374, #375), (#376, #377)), .UNSPECIFIED., .U., .U., .U.)
    B_SPLINE_SURFACE_WITH_KNOTS((2, 2), (2, 2), (0.0, 10.0), (0.0, 10.0), .UNSPECIFIED.)
    GEOMETRIC_REPRESENTATION_ITEM()
    RATIONAL_B_SPLINE_SURFACE(((1.0, 1.0), (1.0, 1.0)))
    REPRESENTATION_ITEM('')
    SURFACE()
);
#374 = CARTESIAN_POINT('', (10.0, 0.0, 0.0));
#375 = CARTESIAN_POINT('', (10.0, 0.0, 10.0));
#376 = CARTESIAN_POINT('', (10.0, 10.0, 0.0));
#377 = CARTESIAN_POINT('', (10.0, 10.0, 10.0));
#378 = DEFINITIONAL_REPRESENTATION('', (#380), #379);
#379 = (
    GEOMETRIC_REPRESENTATION_CONTEXT(2)
    PARAMETRIC_REPRESENTATION_CONTEXT()
    REPRESENTATION_CONTEXT('2D SPACE', '')
);
#380 = (
    BOUNDED_CURVE()
    B_SPLINE_CURVE(1, (#381, #382), .UNSPECIFIED., .U., .U.)
    B_SPLINE_CURVE_WITH_KNOTS((2, 2), (0.0, 10.0), .UNSPECIFIED.)
    CURVE()
    GEOMETRIC_REPRESENTATION_ITEM()
    RATIONAL_B_SPLINE_CURVE((1.0, 1.0))
    REPRESENTATION_ITEM('')
);
#381 = CARTESIAN_POINT('', (0.0, 10.0));
#382 = CARTESIAN_POINT('', (10.0, 10.0));
#383 = SURFACE_CURVE('', #384, (#387, #398), .CURVE_3D.);
#384 = (
    BOUNDED_CURVE()
    B_SPLINE_CURVE(1, (#385, #386), .UNSPECIFIED., .U., .U.)
    B_SPLINE_CURVE_WITH_KNOTS((2, 2), (0.0, 10.0), .UNSPECIFIED.)
    CURVE()
    GEOMETRIC_REPRESENTATION_ITEM()
    RATIONAL_B_SPLINE_CURVE((1.0, 1.0))
    REPRESENTATION_ITEM('')
);
#385 = CARTESIAN_POINT('', (0.0, 10.0, 10.0));
#386 = CARTESIAN_POINT('', (10.0, 10.0, 10.0));
#387 = PCURVE('', #388, #393);
#388 = (
    BOUNDED_SURFACE()
    B_SPLINE_SURFACE(1, 1, ((#389, #390), (#391, #392)), .UNSPECIFIED., .U., .U., .U.)
    B_SPLINE_SURFACE_WITH_KNOTS((2, 2), (2, 2), (0.0, 10.0), (0.0, 10.0), .UNSPECIFIED.)
    GEOMETRIC_REPRESENTATION_ITEM()
    RATIONAL_B_SPLINE_SURFACE(((1.0, 1.0), (1.0, 1.0)))
    REPRESENTATION_ITEM('')
    SURFACE()
);
#389 = CARTESIAN_POINT('', (0.0, 0.0, 10.0));
#390 = CARTESIAN_POINT('', (0.0, 10.0, 10.0));
#391 = CARTESIAN_POINT('', (10.0, 0.0, 10.0));
#392 = CARTESIAN_POINT('', (10.0, 10.0, 10.0));
#393 = DEFINITIONAL_REPRESENTATION('', (#395), #394);
#394 = (
    GEOMETRIC_REPRESENTATION_CONTEXT(2)
    PARAMETRIC_REPRESENTATION_CONTEXT()
    REPRESENTATION_CONTEXT('2D SPACE', '')
);
#395 = (
    BOUNDED_CURVE()
    B_SPLINE_CURVE(1, (#396, #397), .UNSPECIFIED., .U., .U.)
    B_SPLINE_CURVE_WITH_KNOTS((2, 2), (0.0, 10.0), .UNSPECIFIED.)
    CURVE()
    GEOMETRIC_REPRESENTATION_ITEM()
    RATIONAL_B_SPLINE_CURVE((1.0, 1.0))
    REPRESENTATION_ITEM('')
);
#396 = CARTESIAN_POINT('', (0.0, 10.0));
#397 = CARTESIAN_POINT('', (10.0, 10.0));
#398 = PCURVE('', #399, #404);
#399 = (
    BOUNDED_SURFACE()
    B_SPLINE_SURFACE(1, 1, ((#400, #401), (#402, #403)), .UNSPECIFIED., .U., .U., .U.)
    B_SPLINE_SURFACE_WITH_KNOTS((2, 2), (2, 2), (0.0, 10.0), (0.0, 10.0), .UNSPECIFIED.)
    GEOMETRIC_REPRESENTATION_ITEM()
    RATIONAL_B_SPLINE_SURFACE(((1.0, 1.0), (1.0, 1.0)))
    REPRESENTATION_ITEM('')
    SURFACE()
);
#400 = CARTESIAN_POINT('', (0.0, 10.0, 0.0));
#401 = CARTESIAN_POINT('', (10.0, 10.0, 0.0));
#402 = CARTESIAN_POINT('', (0.0, 10.0, 10.0));
#403 = CARTESIAN_POINT('', (10.0, 10.0, 10.0));
#404 = DEFINITIONAL_REPRESENTATION('', (#406), #405);
#405 = (
    GEOMETRIC_REPRESENTATION_CONTEXT(2)
    PARAMETRIC_REPRESENTATION_CONTEXT()
    REPRESENTATION_CONTEXT('2D SPACE', '')
);
#406 = (
    BOUNDED_CURVE()
    B_SPLINE_CURVE(1, (#407, #408), .UNSPECIFIED., .U., .U.)
    B_SPLINE_CURVE_WITH_KNOTS((2, 2), (0.0, 10.0), .UNSPECIFIED.)
    CURVE()
    GEOMETRIC_REPRESENTATION_ITEM()
    RATIONAL_B_SPLINE_CURVE((1.0, 1.0))
    REPRESENTATION_ITEM('')
);
#407 = CARTESIAN_POINT('', (10.0, 0.0));
#408 = CARTESIAN_POINT('', (10.0, 10.0));
#409 = SURFACE_CURVE('', #410, (#420, #438), .CURVE_3D.);
#410 = (
    BOUNDED_CURVE()
    B_SPLINE_CURVE(2, (#411, #412, #413, #414, #415, #416, #417, #418, #419), .UNSPECIFIED., .U., .U.)
    B_SPLINE_CURVE_WITH_KNOTS((3, 2, 2, 2, 3), (0.0, 0.25, 0.5, 0.75, 1.0), .UNSPECIFIED.)
    CURVE()
    GEOMETRIC_REPRESENTATION_ITEM()
    RATIONAL_B_SPLINE_CURVE((1.0, 0.7071067811865476, 1.0, 0.7071067811865476, 1.0, 0.7071067811865476, 1.0, 0.7071067811865476, 1.0))
    REPRESENTATION_ITEM('')
);
#411 = CARTESIAN_POINT('', (7.0, 5.0, 10.0));
#412 = CARTESIAN_POINT('', (6.999999999999999, 6.999999999999999, 10.0));
#413 = CARTESIAN_POINT('', (5.0, 7.0, 10.0));
#414 = CARTESIAN_POINT('', (3.0, 6.999999999999999, 10.0));
#415 = CARTESIAN_POINT('', (3.0, 5.0, 10.0));
#416 = CARTESIAN_POINT('', (2.9999999999999996, 3.0, 10.0));
#417 = CARTESIAN_POINT('', (5.0, 3.0, 10.0));
#418 = CARTESIAN_POINT('', (6.999999999999999, 3.0, 10.0));
#419 = CARTESIAN_POINT('', (7.0, 5.0, 10.0));
#420 = PCURVE('', #421, #426);
#421 = (
    BOUNDED_SURFACE()
    B_SPLINE_SURFACE(1, 1, ((#422, #423), (#424, #425)), .UNSPECIFIED., .U., .U., .U.)
    B_SPLINE_SURFACE_WITH_KNOTS((2, 2), (2, 2), (0.0, 10.0), (0.0, 10.0), .UNSPECIFIED.)
    GEOMETRIC_REPRESENTATION_ITEM()
    RATIONAL_B_SPLINE_SURFACE(((1.0, 1.0), (1.0, 1.0)))
    REPRESENTATION_ITEM('')
    SURFACE()
);
#422 = CARTESIAN_POINT('', (0.0, 0.0, 10.0));
#423 = CARTESIAN_POINT('', (0.0, 10.0, 10.0));
#424 = CARTESIAN_POINT('', (10.0, 0.0, 10.0));
#425 = CARTESIAN_POINT('', (10.0, 10.0, 10.0));
#426 = DEFINITIONAL_REPRESENTATION('', (#428), #427);
#427 = (
    GEOMETRIC_REPRESENTATION_CONTEXT(2)
    PARAMETRIC_REPRESENTATION_CONTEXT()
    REPRESENTATION_CONTEXT('2D SPACE', '')
);
#428 = (
    BOUNDED_CURVE()
    B_SPLINE_CURVE(2, (#429, #430, #431, #432, #433, #434, #435, #436, #437), .UNSPECIFIED., .U., .U.)
    B_SPLINE_CURVE_WITH_KNOTS((3, 2, 2, 2, 3), (0.0, 0.25, 0.5, 0.75, 1.0), .UNSPECIFIED.)
    CURVE()
    GEOMETRIC_REPRESENTATION_ITEM()
    RATIONAL_B_SPLINE_CURVE((1.0, 0.7071067811865476, 1.0, 0.7071067811865476, 1.0, 0.7071067811865476, 1.0, 0.7071067811865476, 1.0))
    REPRESENTATION_ITEM('')
);
#429 = CARTESIAN_POINT('', (7.0, 5.0));
#430 = CARTESIAN_POINT('', (6.999999999999999, 6.999999999999999));
#431 = CARTESIAN_POINT('', (5.0, 7.0));
#432 = CARTESIAN_POINT('', (3.0, 6.999999999999999));
#433 = CARTESIAN_POINT('', (3.0, 5.0));
#434 = CARTESIAN_POINT('', (2.999999999999999, 3.0));
#435 = CARTESIAN_POINT('', (5.0, 3.0));
#436 = CARTESIAN_POINT('', (6.999999999999999, 3.0));
#437 = CARTESIAN_POINT('', (7.0, 5.0));
#438 = PCURVE('', #439, #458);
#439 = (
    BOUNDED_SURFACE()
    B_SPLINE_SURFACE(2, 1, ((#440, #441), (#442, #443), (#444, #445), (#446, #447), (#448, #449), (#450, #451), (#452, #453), (#454, #455), (#456, #457)), .UNSPECIFIED., .U., .U., .U.)
    B_SPLINE_SURFACE_WITH_KNOTS((3, 2, 2, 2, 3), (2, 2), (0.0, 3.141592653589793, 6.283185307179586, 9.42477796076938, 12.566370614359172), (0.0, 12.0), .UNSPECIFIED.)
    GEOMETRIC_REPRESENTATION_ITEM()
    RATIONAL_B_SPLINE_SURFACE(((1.0, 1.0), (0.7071067811865476, 0.7071067811865476), (1.0, 1.0), (0.7071067811865476, 0.7071067811865476), (1.0, 1.0), (0.7071067811865476, 0.7071067811865476), (1.0, 1.0), (0.7071067811865476, 0.7071067811865476), (1.0, 1.0)))
    REPRESENTATION_ITEM('')
    SURFACE()
);
#440 = CARTESIAN_POINT('', (7.0, 5.0, -1.0));
#441 = CARTESIAN_POINT('', (7.0, 5.0, 11.0));
#442 = CARTESIAN_POINT('', (6.999999999999999, 6.999999999999999, -1.0));
#443 = CARTESIAN_POINT('', (6.999999999999999, 6.999999999999999, 11.0));
#444 = CARTESIAN_POINT('', (5.0, 7.0, -1.0));
#445 = CARTESIAN_POINT('', (5.0, 7.0, 11.0));
#446 = CARTESIAN_POINT('', (3.0, 6.999999999999999, -1.0));
#447 = CARTESIAN_POINT('', (3.0, 6.999999999999999, 11.0));
#448 = CARTESIAN_POINT('', (3.0, 5.0, -1.0));
#449 = CARTESIAN_POINT('', (3.0, 5.0, 11.0));
#450 = CARTESIAN_POINT('', (2.9999999999999996, 3.0, -1.0));
#451 = CARTESIAN_POINT('', (2.9999999999999996, 3.0, 11.0));
#452 = CARTESIAN_POINT('', (5.0, 3.0, -1.0));
#453 = CARTESIAN_POINT('', (5.0, 3.0, 11.0));
#454 = CARTESIAN_POINT('', (6.999999999999999, 3.0, -1.0));
#455 = CARTESIAN_POINT('', (6.999999999999999, 3.0, 11.0));
#456 = CARTESIAN_POINT('', (7.0, 5.0, -1.0));
#457 = CARTESIAN_POINT('', (7.0, 5.0, 11.0));
#458 = DEFINITIONAL_REPRESENTATION('', (#460), #459);
#459 = (
    GEOMETRIC_REPRESENTATION_CONTEXT(2)
    PARAMETRIC_REPRESENTATION_CONTEXT()
    REPRESENTATION_CONTEXT('2D SPACE', '')
);
#460 = (
    BOUNDED_CURVE()
    B_SPLINE_CURVE(1, (#461, #462), .UNSPECIFIED., .U., .U.)
    B_SPLINE_CURVE_WITH_KNOTS((2, 2), (0.0, 1.0), .UNSPECIFIED.)
    CURVE()
    GEOMETRIC_REPRESENTATION_ITEM()
    RATIONAL_B_SPLINE_CURVE((1.0, 1.0))
    REPRESENTATION_ITEM('')
);
#461 = CARTESIAN_POINT('', (0.0, 11.0));
#462 = CARTESIAN_POINT('', (12.566370614359172, 11.0));
#463 = SURFACE_CURVE('', #464, (#467, #478), .CURVE_3D.);
#464 = (
    BOUNDED_CURVE()
    B_SPLINE_CURVE(1, (#465, #466), .UNSPECIFIED., .U., .U.)
    B_SPLINE_CURVE_WITH_KNOTS((2, 2), (0.0, 10.0), .UNSPECIFIED.)
    CURVE()
    GEOMETRIC_REPRESENTATION_ITEM()
    RATIONAL_B_SPLINE_CURVE((1.0, 1.0))
    REPRESENTATION_ITEM('')
);
#465 = CARTESIAN_POINT('', (0.0, 0.0, 0.0));
#466 = CARTESIAN_POINT('', (0.0, 0.0, 10.0));
#467 = PCURVE('', #468, #473);
#468 = (
    BOUNDED_SURFACE()
    B_SPLINE_SURFACE(1, 1, ((#469, #470), (#471, #472)), .UNSPECIFIED., .U., .U., .U.)
    B_SPLINE_SURFACE_WITH_KNOTS((2, 2), (2, 2), (0.0, 10.0), (0.0, 10.0), .UNSPECIFIED.)
    GEOMETRIC_REPRESENTATION_ITEM()
    RATIONAL_B_SPLINE_SURFACE(((1.0, 1.0), (1.0, 1.0)))
    REPRESENTATION_ITEM('')
    SURFACE()
);
#469 = CARTESIAN_POINT('', (0.0, 0.0, 0.0));
#470 = CARTESIAN_POINT('', (0.0, 10.0, 0.0));
#471 = CARTESIAN_POINT('', (0.0, 0.0, 10.0));
#472 = CARTESIAN_POINT('', (0.0, 10.0, 10.0));
#473 = DEFINITIONAL_REPRESENTATION('', (#475), #474);
#474 = (
    GEOMETRIC_REPRESENTATION_CONTEXT(2)
    PARAMETRIC_REPRESENTATION_CONTEXT()
    REPRESENTATION_CONTEXT('2D SPACE', '')
);
#475 = (
    BOUNDED_CURVE()
    B_SPLINE_CURVE(1, (#476, #477), .UNSPECIFIED., .U., .U.)
    B_SPLINE_CURVE_WITH_KNOTS((2, 2), (0.0, 10.0), .UNSPECIFIED.)
    CURVE()
    GEOMETRIC_REPRESENTATION_ITEM()
    RATIONAL_B_SPLINE_CURVE((1.0, 1.0))
    REPRESENTATION_ITEM('')
);
#476 = CARTESIAN_POINT('', (0.0, 0.0));
#477 = CARTESIAN_POINT('', (10.0, 0.0));
#478 = PCURVE('', #479, #484);
#479 = (
    BOUNDED_SURFACE()
    B_SPLINE_SURFACE(1, 1, ((#480, #481), (#482, #483)), .UNSPECIFIED., .U., .U., .U.)
    B_SPLINE_SURFACE_WITH_KNOTS((2, 2), (2, 2), (0.0, 10.0), (0.0, 10.0), .UNSPECIFIED.)
    GEOMETRIC_REPRESENTATION_ITEM()
    RATIONAL_B_SPLINE_SURFACE(((1.0, 1.0), (1.0, 1.0)))
    REPRESENTATION_ITEM('')
    SURFACE()
);
#480 = CARTESIAN_POINT('', (0.0, 0.0, 0.0));
#481 = CARTESIAN_POINT('', (0.0, 0.0, 10.0));
#482 = CARTESIAN_POINT('', (10.0, 0.0, 0.0));
#483 = CARTESIAN_POINT('', (10.0, 0.0, 10.0));
#484 = DEFINITIONAL_REPRESENTATION('', (#486), #485);
#485 = (
    GEOMETRIC_REPRESENTATION_CONTEXT(2)
    PARAMETRIC_REPRESENTATION_CONTEXT()
    REPRESENTATION_CONTEXT('2D SPACE', '')
);
#486 = (
    BOUNDED_CURVE()
    B_SPLINE_CURVE(1, (#487, #488), .UNSPECIFIED., .U., .U.)
    B_SPLINE_CURVE_WITH_KNOTS((2, 2), (0.0, 10.0), .UNSPECIFIED.)
    CURVE()
    GEOMETRIC_REPRESENTATION_ITEM()
    RATIONAL_B_SPLINE_CURVE((1.0, 1.0))
    REPRESENTATION_ITEM('')
);
#487 = CARTESIAN_POINT('', (0.0, 0.0));
#488 = CARTESIAN_POINT('', (0.0, 10.0));
#489 = SURFACE_CURVE('', #490, (#493, #504), .CURVE_3D.);
#490 = (
    BOUNDED_CURVE()
    B_SPLINE_CURVE(1, (#491, #492), .UNSPECIFIED., .U., .U.)
    B_SPLINE_CURVE_WITH_KNOTS((2, 2), (0.0, 10.0), .UNSPECIFIED.)
    CURVE()
    GEOMETRIC_REPRESENTATION_ITEM()
    RATIONAL_B_SPLINE_CURVE((1.0, 1.0))
    REPRESENTATION_ITEM('')
);
#491 = CARTESIAN_POINT('', (0.0, 10.0, 0.0));
#492 = CARTESIAN_POINT('', (0.0, 10.0, 10.0));
#493 = PCURVE('', #494, #499);
#494 = (
    BOUNDED_SURFACE()
    B_SPLINE_SURFACE(1, 1, ((#495, #496), (#497, #498)), .UNSPECIFIED., .U., .U., .U.)
    B_SPLINE_SURFACE_WITH_KNOTS((2, 2), (2, 2), (0.0, 10.0), (0.0, 10.0), .UNSPECIFIED.)
    GEOMETRIC_REPRESENTATION_ITEM()
    RATIONAL_B_SPLINE_SURFACE(((1.0, 1.0), (1.0, 1.0)))
    REPRESENTATION_ITEM('')
    SURFACE()
);
#495 = CARTESIAN_POINT('', (0.0, 0.0, 0.0));
#496 = CARTESIAN_POINT('', (0.0, 10.0, 0.0));
#497 = CARTESIAN_POINT('', (0.0, 0.0, 10.0));
#498 = CARTESIAN_POINT('', (0.0, 10.0, 10.0));
#499 = DEFINITIONAL_REPRESENTATION('', (#501), #500);
#500 = (
    GEOMETRIC_REPRESENTATION_CONTEXT(2)
    PARAMETRIC_REPRESENTATION_CONTEXT()
    REPRESENTATION_CONTEXT('2D SPACE', '')
);
#501 = (
    BOUNDED_CURVE()
    B_SPLINE_CURVE(1, (#502, #503), .UNSPECIFIED., .U., .U.)
    B_SPLINE_CURVE_WITH_KNOTS((2, 2), (0.0, 10.0), .UNSPECIFIED.)
    CURVE()
    GEOMETRIC_REPRESENTATION_ITEM()
    RATIONAL_B_SPLINE_CURVE((1.0, 1.0))
    REPRESENTATION_ITEM('')
);
#502 = CARTESIAN_POINT('', (0.0, 10.0));
#503 = CARTESIAN_POINT('', (10.0, 10.0));
#504 = PCURVE('', #505, #510);
#505 = (
    BOUNDED_SURFACE()
    B_SPLINE_SURFACE(1, 1, ((#506, #507), (#508, #509)), .UNSPECIFIED., .U., .U., .U.)
    B_SPLINE_SURFACE_WITH_KNOTS((2, 2), (2, 2), (0.0, 10.0), (0.0, 10.0), .UNSPECIFIED.)
    GEOMETRIC_REPRESENTATION_ITEM()
    RATIONAL_B_SPLINE_SURFACE(((1.0, 1.0), (1.0, 1.0)))
    REPRESENTATION_ITEM('')
    SURFACE()
);
#506 = CARTESIAN_POINT('', (0.0, 10.0, 0.0));
#507 = CARTESIAN_POINT('', (10.0, 10.0, 0.0));
#508 = CARTESIAN_POINT('', (0.0, 10.0, 10.0));
#509 = CARTESIAN_POINT('', (10.0, 10.0, 10.0));
#510 = DEFINITIONAL_REPRESENTATION('', (#512), #511);
#511 = (
    GEOMETRIC_REPRESENTATION_CONTEXT(2)
    PARAMETRIC_REPRESENTATION_CONTEXT()
    REPRESENTATION_CONTEXT('2D SPACE', '')
);
#512 = (
    BOUNDED_CURVE()
    B_SPLINE_CURVE(1, (#513, #514), .UNSPECIFIED., .U., .U.)
    B_SPLINE_CURVE_WITH_KNOTS((2, 2), (0.0, 10.0), .UNSPECIFIED.)
    CURVE()
    GEOMETRIC_REPRESENTATION_ITEM()
    RATIONAL_B_SPLINE_CURVE((1.0, 1.0))
    REPRESENTATION_ITEM('')
);
#513 = CARTESIAN_POINT('', (0.0, 0.0));
#514 = CARTESIAN_POINT('', (10.0, 0.0));
#515 = SURFACE_CURVE('', #516, (#519, #530), .CURVE_3D.);
#516 = (
    BOUNDED_CURVE()
    B_SPLINE_CURVE(1, (#517, #518), .UNSPECIFIED., .U., .U.)
    B_SPLINE_CURVE_WITH_KNOTS((2, 2), (0.0, 10.0), .UNSPECIFIED.)
    CURVE()
    GEOMETRIC_REPRESENTATION_ITEM()
    RATIONAL_B_SPLINE_CURVE((1.0, 1.0))
    REPRESENTATION_ITEM('')
);
#517 = CARTESIAN_POINT('', (10.0, 0.0, 0.0));
#518 = CARTESIAN_POINT('', (10.0, 0.0, 10.0));
#519 = PCURVE('', #520, #525);
#520 = (
    BOUNDED_SURFACE()
    B_SPLINE_SURFACE(1, 1, ((#521, #522), (#523, #524)), .UNSPECIFIED., .U., .U., .U.)
    B_SPLINE_SURFACE_WITH_KNOTS((2, 2), (2, 2), (0.0, 10.0), (0.0, 10.0), .UNSPECIFIED.)
    GEOMETRIC_REPRESENTATION_ITEM()
    RATIONAL_B_SPLINE_SURFACE(((1.0, 1.0), (1.0, 1.0)))
    REPRESENTATION_ITEM('')
    SURFACE()
);
#521 = CARTESIAN_POINT('', (10.0, 0.0, 0.0));
#522 = CARTESIAN_POINT('', (10.0, 0.0, 10.0));
#523 = CARTESIAN_POINT('', (10.0, 10.0, 0.0));
#524 = CARTESIAN_POINT('', (10.0, 10.0, 10.0));
#525 = DEFINITIONAL_REPRESENTATION('', (#527), #526);
#526 = (
    GEOMETRIC_REPRESENTATION_CONTEXT(2)
    PARAMETRIC_REPRESENTATION_CONTEXT()
    REPRESENTATION_CONTEXT('2D SPACE', '')
);
#527 = (
    BOUNDED_CURVE()
    B_SPLINE_CURVE(1, (#528, #529), .UNSPECIFIED., .U., .U.)
    B_SPLINE_CURVE_WITH_KNOTS((2, 2), (0.0, 10.0), .UNSPECIFIED.)
    CURVE()
    GEOMETRIC_REPRESENTATION_ITEM()
    RATIONAL_B_SPLINE_CURVE((1.0, 1.0))
    REPRESENTATION_ITEM('')
);
#528 = CARTESIAN_POINT('', (0.0, 0.0));
#529 = CARTESIAN_POINT('', (0.0, 10.0));
#530 = PCURVE('', #531, #536);
#531 = (
    BOUNDED_SURFACE()
    B_SPLINE_SURFACE(1, 1, ((#532, #533), (#534, #535)), .UNSPECIFIED., .U., .U., .U.)
    B_SPLINE_SURFACE_WITH_KNOTS((2, 2), (2, 2), (0.0, 10.0), (0.0, 10.0), .UNSPECIFIED.)
    GEOMETRIC_REPRESENTATION_ITEM()
    RATIONAL_B_SPLINE_SURFACE(((1.0, 1.0), (1.0, 1.0)))
    REPRESENTATION_ITEM('')
    SURFACE()
);
#532 = CARTESIAN_POINT('', (0.0, 0.0, 0.0));
#533 = CARTESIAN_POINT('', (0.0, 0.0, 10.0));
#534 = CARTESIAN_POINT('', (10.0, 0.0, 0.0));
#535 = CARTESIAN_POINT('', (10.0, 0.0, 10.0));
#536 = DEFINITIONAL_REPRESENTATION('', (#538), #537);
#537 = (
    GEOMETRIC_REPRESENTATION_CONTEXT(2)
    PARAMETRIC_REPRESENTATION_CONTEXT()
    REPRESENTATION_CONTEXT('2D SPACE', '')
);
#538 = (
    BOUNDED_CURVE()
    B_SPLINE_CURVE(1, (#539, #540), .UNSPECIFIED., .U., .U.)
    B_SPLINE_CURVE_WITH_KNOTS((2, 2), (0.0, 10.0), .UNSPECIFIED.)
    CURVE()
    GEOMETRIC_REPRESENTATION_ITEM()
    RATIONAL_B_SPLINE_CURVE((1.0, 1.0))
    REPRESENTATION_ITEM('')
);
#539 = CARTESIAN_POINT('', (10.0, 0.0));
#540 = CARTESIAN_POINT('', (10.0, 10.0));
#541 = SURFACE_CURVE('', #542, (#545, #556), .CURVE_3D.);
#542 = (
    BOUNDED_CURVE()
    B_SPLINE_CURVE(1, (#543, #544), .UNSPECIFIED., .U., .U.)
    B_SPLINE_CURVE_WITH_KNOTS((2, 2), (0.0, 10.0), .UNSPECIFIED.)
    CURVE()
    GEOMETRIC_REPRESENTATION_ITEM()
    RATIONAL_B_SPLINE_CURVE((1.0, 1.0))
    REPRESENTATION_ITEM('')
);
#543 = CARTESIAN_POINT('', (10.0, 10.0, 0.0));
#544 = CARTESIAN_POINT('', (10.0, 10.0, 10.0));
#545 = PCURVE('', #546, #551);
#546 = (
    BOUNDED_SURFACE()
    B_SPLINE_SURFACE(1, 1, ((#547, #548), (#549, #550)), .UNSPECIFIED., .U., .U., .U.)
    B_SPLINE_SURFACE_WITH_KNOTS((2, 2), (2, 2), (0.0, 10.0), (0.0, 10.0), .UNSPECIFIED.)
    GEOMETRIC_REPRESENTATION_ITEM()
    RATIONAL_B_SPLINE_SURFACE(((1.0, 1.0), (1.0, 1.0)))
    REPRESENTATION_ITEM('')
    SURFACE()
);
#547 = CARTESIAN_POINT('', (10.0, 0.0, 0.0));
#548 = CARTESIAN_POINT('', (10.0, 0.0, 10.0));
#549 = CARTESIAN_POINT('', (10.0, 10.0, 0.0));
#550 = CARTESIAN_POINT('', (10.0, 10.0, 10.0));
#551 = DEFINITIONAL_REPRESENTATION('', (#553), #552);
#552 = (
    GEOMETRIC_REPRESENTATION_CONTEXT(2)
    PARAMETRIC_REPRESENTATION_CONTEXT()
    REPRESENTATION_CONTEXT('2D SPACE', '')
);
#553 = (
    BOUNDED_CURVE()
    B_SPLINE_CURVE(1, (#554, #555), .UNSPECIFIED., .U., .U.)
    B_SPLINE_CURVE_WITH_KNOTS((2, 2), (0.0, 10.0), .UNSPECIFIED.)
    CURVE()
    GEOMETRIC_REPRESENTATION_ITEM()
    RATIONAL_B_SPLINE_CURVE((1.0, 1.0))
    REPRESENTATION_ITEM('')
);
#554 = CARTESIAN_POINT('', (10.0, 0.0));
#555 = CARTESIAN_POINT('', (10.0, 10.0));
#556 = PCURVE('', #557, #562);
#557 = (
    BOUNDED_SURFACE()
    B_SPLINE_SURFACE(1, 1, ((#558, #559), (#560, #561)), .UNSPECIFIED., .U., .U., .U.)
    B_SPLINE_SURFACE_WITH_KNOTS((2, 2), (2, 2), (0.0, 10.0), (0.0, 10.0), .UNSPECIFIED.)
    GEOMETRIC_REPRESENTATION_ITEM()
    RATIONAL_B_SPLINE_SURFACE(((1.0, 1.0), (1.0, 1.0)))
    REPRESENTATION_ITEM('')
    SURFACE()
);
#558 = CARTESIAN_POINT('', (0.0, 10.0, 0.0));
#559 = CARTESIAN_POINT('', (10.0, 10.0, 0.0));
#560 = CARTESIAN_POINT('', (0.0, 10.0, 10.0));
#561 = CARTESIAN_POINT('', (10.0, 10.0, 10.0));
#562 = DEFINITIONAL_REPRESENTATION('', (#564), #563);
#563 = (
    GEOMETRIC_REPRESENTATION_CONTEXT(2)
    PARAMETRIC_REPRESENTATION_CONTEXT()
    REPRESENTATION_CONTEXT('2D SPACE', '')
);
#564 = (
    BOUNDED_CURVE()
    B_SPLINE_CURVE(1, (#565, #566), .UNSPECIFIED., .U., .U.)
    B_SPLINE_CURVE_WITH_KNOTS((2, 2), (0.0, 10.0), .UNSPECIFIED.)
    CURVE()
    GEOMETRIC_REPRESENTATION_ITEM()
    RATIONAL_B_SPLINE_CURVE((1.0, 1.0))
    REPRESENTATION_ITEM('')
);
#565 = CARTESIAN_POINT('', (0.0, 10.0));
#566 = CARTESIAN_POINT('', (10.0, 10.0));
#567 = SEAM_CURVE('', #568, (#571, #596), .CURVE_3D.);
#568 = (
    BOUNDED_CURVE()
    B_SPLINE_CURVE(1, (#569, #570), .UNSPECIFIED., .U., .U.)
    B_SPLINE_CURVE_WITH_KNOTS((2, 2), (1.0, 11.0), .UNSPECIFIED.)
    CURVE()
    GEOMETRIC_REPRESENTATION_ITEM()
    RATIONAL_B_SPLINE_CURVE((1.0, 1.0))
    REPRESENTATION_ITEM('')
);
#569 = CARTESIAN_POINT('', (7.0, 5.0, 0.0));
#570 = CARTESIAN_POINT('', (7.0, 5.0, 10.0));
#571 = PCURVE('', #572, #591);
#572 = (
    BOUNDED_SURFACE()
    B_SPLINE_SURFACE(2, 1, ((#573, #574), (#575, #576), (#577, #578), (#579, #580), (#581, #582), (#583, #584), (#585, #586), (#587, #588), (#589, #590)), .UNSPECIFIED., .U., .U., .U.)
    B_SPLINE_SURFACE_WITH_KNOTS((3, 2, 2, 2, 3), (2, 2), (0.0, 3.141592653589793, 6.283185307179586, 9.42477796076938, 12.566370614359172), (0.0, 12.0), .UNSPECIFIED.)
    GEOMETRIC_REPRESENTATION_ITEM()
    RATIONAL_B_SPLINE_SURFACE(((1.0, 1.0), (0.7071067811865476, 0.7071067811865476), (1.0, 1.0), (0.7071067811865476, 0.7071067811865476), (1.0, 1.0), (0.7071067811865476, 0.7071067811865476), (1.0, 1.0), (0.7071067811865476, 0.7071067811865476), (1.0, 1.0)))
    REPRESENTATION_ITEM('')
    SURFACE()
);
#573 = CARTESIAN_POINT('', (7.0, 5.0, -1.0));
#574 = CARTESIAN_POINT('', (7.0, 5.0, 11.0));
#575 = CARTESIAN_POINT('', (6.999999999999999, 6.999999999999999, -1.0));
#576 = CARTESIAN_POINT('', (6.999999999999999, 6.999999999999999, 11.0));
#577 = CARTESIAN_POINT('', (5.0, 7.0, -1.0));
#578 = CARTESIAN_POINT('', (5.0, 7.0, 11.0));
#579 = CARTESIAN_POINT('', (3.0, 6.999999999999999, -1.0));
#580 = CARTESIAN_POINT('', (3.0, 6.999999999999999, 11.0));
#581 = CARTESIAN_POINT('', (3.0, 5.0, -1.0));
#582 = CARTESIAN_POINT('', (3.0, 5.0, 11.0));
#583 = CARTESIAN_POINT('', (2.9999999999999996, 3.0, -1.0));
#584 = CARTESIAN_POINT('', (2.9999999999999996, 3.0, 11.0));
#585 = CARTESIAN_POINT('', (5.0, 3.0, -1.0));
#586 = CARTESIAN_POINT('', (5.0, 3.0, 11.0));
#587 = CARTESIAN_POINT('', (6.999999999999999, 3.0, -1.0));
#588 = CARTESIAN_POINT('', (6.999999999999999, 3.0, 11.0));
#589 = CARTESIAN_POINT('', (7.0, 5.0, -1.0));
#590 = CARTESIAN_POINT('', (7.0, 5.0, 11.0));
#591 = DEFINITIONAL_REPRESENTATION('', (#593), #592);
#592 = (
    GEOMETRIC_REPRESENTATION_CONTEXT(2)
    PARAMETRIC_REPRESENTATION_CONTEXT()
    REPRESENTATION_CONTEXT('2D SPACE', '')
);
#593 = (
    BOUNDED_CURVE()
    B_SPLINE_CURVE(1, (#594, #595), .UNSPECIFIED., .U., .U.)
    B_SPLINE_CURVE_WITH_KNOTS((2, 2), (1.0, 11.0), .UNSPECIFIED.)
    CURVE()
    GEOMETRIC_REPRESENTATION_ITEM()
    RATIONAL_B_SPLINE_CURVE((1.0, 1.0))
    REPRESENTATION_ITEM('')
);
#594 = CARTESIAN_POINT('', (0.0, 1.0));
#595 = CARTESIAN_POINT('', (0.0, 11.0));
#596 = PCURVE('', #597, #616);
#597 = (
    BOUNDED_SURFACE()
    B_SPLINE_SURFACE(2, 1, ((#598, #599), (#600, #601), (#602, #603), (#604, #605), (#606, #607), (#608, #609), (#610, #611), (#612, #613), (#614, #615)), .UNSPECIFIED., .U., .U., .U.)
    B_SPLINE_SURFACE_WITH_KNOTS((3, 2, 2, 2, 3), (2, 2), (0.0, 3.141592653589793, 6.283185307179586, 9.42477796076938, 12.566370614359172), (0.0, 12.0), .UNSPECIFIED.)
    GEOMETRIC_REPRESENTATION_ITEM()
    RATIONAL_B_SPLINE_SURFACE(((1.0, 1.0), (0.7071067811865476, 0.7071067811865476), (1.0, 1.0), (0.7071067811865476, 0.7071067811865476), (1.0, 1.0), (0.7071067811865476, 0.7071067811865476), (1.0, 1.0), (0.7071067811865476, 0.7071067811865476), (1.0, 1.0)))
    REPRESENTATION_ITEM('')
    SURFACE()
);
#598 = CARTESIAN_POINT('', (7.0, 5.0, -1.0));
#599 = CARTESIAN_POINT('', (7.0, 5.0, 11.0));
#600 = CARTESIAN_POINT('', (6.999999999999999, 6.999999999999999, -1.0));
#601 = CARTESIAN_POINT('', (6.999999999999999, 6.999999999999999, 11.0));
#602 = CARTESIAN_POINT('', (5.0, 7.0, -1.0));
#603 = CARTESIAN_POINT('', (5.0, 7.0, 11.0));
#604 = CARTESIAN_POINT('', (3.0, 6.999999999999999, -1.0));
#605 = CARTESIAN_POINT('', (3.0, 6.999999999999999, 11.0));
#606 = CARTESIAN_POINT('', (3.0, 5.0, -1.0));
#607 = CARTESIAN_POINT('', (3.0, 5.0, 11.0));
#608 = CARTESIAN_POINT('', (2.9999999999999996, 3.0, -1.0));
#609 = CARTESIAN_POINT('', (2.9999999999999996, 3.0, 11.0));
#610 = CARTESIAN_POINT('', (5.0, 3.0, -1.0));
#611 = CARTESIAN_POINT('', (5.0, 3.0, 11.0));
#612 = CARTESIAN_POINT('', (6.999999999999999, 3.0, -1.0));
#613 = CARTESIAN_POINT('', (6.999999999999999, 3.0, 11.0));
#614 = CARTESIAN_POINT('', (7.0, 5.0, -1.0));
#615 = CARTESIAN_POINT('', (7.0, 5.0, 11.0));
#616 = DEFINITIONAL_REPRESENTATION('', (#618), #617);
#617 = (
    GEOMETRIC_REPRESENTATION_CONTEXT(2)
    PARAMETRIC_REPRESENTATION_CONTEXT()
    REPRESENTATION_CONTEXT('2D SPACE', '')
);
#618 = (
    BOUNDED_CURVE()
    B_SPLINE_CURVE(1, (#619, #620), .UNSPECIFIED., .U., .U.)
    B_SPLINE_CURVE_WITH_KNOTS((2, 2), (1.0, 11.0), .UNSPECIFIED.)
    CURVE()
    GEOMETRIC_REPRESENTATION_ITEM()
    RATIONAL_B_SPLINE_CURVE((1.0, 1.0))
    REPRESENTATION_ITEM('')
);
#619 = CARTESIAN_POINT('', (12.566370614359172, 1.0));
#620 = CARTESIAN_POINT('', (12.566370614359172, 11.0));
#621 = CARTESIAN_POINT('', (0.0E0, 0.0E0, 0.0E0));
#622 = CARTESIAN_POINT('', (0.0E0, 1.0E1, 0.0E0));
#623 = CARTESIAN_POINT('', (1.0E1, 1.0E1, 0.0E0));
#624 = CARTESIAN_POINT('', (1.0E1, 0.0E0, 0.0E0));
#625 = CARTESIAN_POINT('', (7.0E0, 5.0E0, 0.0E0));
#626 = CARTESIAN_POINT('', (0.0E0, 0.0E0, 1.0E1));
#627 = CARTESIAN_POINT('', (0.0E0, 1.0E1, 1.0E1));
#628 = CARTESIAN_POINT('', (1.0E1, 0.0E0, 1.0E1));
#629 = CARTESIAN_POINT('', (1.0E1, 1.0E1, 1.0E1));
#630 = CARTESIAN_POINT('', (7.0E0, 5.0E0, 1.0E1));
ENDSEC;
END-ISO-10303-21;
